<?xml version="1.0" encoding="UTF-8" standalone="no"?>
<!DOCTYPE svg PUBLIC "-//W3C//DTD SVG 1.1//EN" "http://www.w3.org/Graphics/SVG/1.1/DTD/svg11.dtd">
<svg width="100%" height="100%" viewBox="0 0 1024 1175" version="1.1" xmlns="http://www.w3.org/2000/svg" xmlns:xlink="http://www.w3.org/1999/xlink" xml:space="preserve" xmlns:serif="http://www.serif.com/" style="fill-rule:evenodd;clip-rule:evenodd;stroke-linejoin:round;stroke-miterlimit:2;">
    <g id="Layer_6">
        <g>
            <path d="M929.51,799.81L929.51,860.66C901.43,869.96 870.01,880.37 837.35,891.2L837.35,823.57L836.85,823.7C806.37,831.54 774.83,839.67 743.91,847.64L743.61,847.72L743.61,996.76L700.58,1014.18C683.64,1021.04 667.16,1027.71 651.45,1034.08L651.45,952.77L648.22,953.84C613.2,965.44 582.13,975.72 558.49,983.56L558.49,895.4L557.99,895.53C553.59,896.67 549.44,897.74 545.58,898.73C524,904.3 499.24,904.3 477.64,898.73L464.75,895.41L464.75,983.56L434.84,973.65C416.24,967.49 395.09,960.48 372.32,952.94L371.8,952.77L371.8,1034.08C343.02,1022.42 311.66,1009.73 279.64,996.77L279.64,922.25L279.37,922.16C248.54,911.94 217.09,901.52 186.69,891.47L186.69,823.78L145.94,813.27C127.57,808.54 109.94,803.99 93.45,799.73L92.95,799.6L25.13,782.13L0,775.66L0,830.43L92.96,861.22L92.96,982.82L186.7,1027.67L186.7,959.98C211.39,969.96 236.76,980.24 261.93,990.43L278.85,997.28L278.85,1071.76L279.08,1071.87C308.8,1086.1 337.95,1100.04 365.01,1112.98L371.87,1116.26L372.04,1116.34C408.34,1133.72 440.55,1149.13 464.83,1160.74L465,1160.82C469.4,1162.93 473.54,1164.91 477.4,1166.75C487.86,1171.75 499.01,1174.36 510.56,1174.52L512.75,1174.52C524.28,1174.36 535.43,1171.75 545.88,1166.75L558.51,1160.7L558.51,1072.53L567.46,1068.91C590.33,1059.65 618.92,1048.08 650.67,1035.24L650.67,1116.61L744.42,1071.76L744.42,997.27C760.85,990.62 777.46,983.9 793.98,977.21L836.56,959.97L837.25,959.69L837.36,959.65L873,945.22C893.02,937.12 912.22,929.34 930.07,922.11L930.32,922.01L930.32,861.22L1001.85,837.53L1023.28,830.43L1023.28,775.66L929.83,799.73L929.53,799.81L929.51,799.81Z" style="fill-rule:nonzero;"/>
            <path d="M930.31,556.49L929.93,556.48L929.52,556.46C901.32,555.42 869.77,554.26 836.98,553.04L836.57,553.02L836.57,620.73C817.47,621.42 797.96,622.14 778.46,622.86L743.63,624.14L743.63,699.46L744.07,699.41C774.84,696.02 806.22,692.55 836.57,689.2C866.92,685.85 930.32,678.85 930.32,678.85L930.32,618.06C969.75,616.61 1002.54,615.41 1022.89,614.66L1023.27,614.66L1023.27,559.9L1022.89,559.9C1002.54,559.13 969.74,557.93 930.32,556.48L930.31,556.49Z" style="fill-rule:nonzero;"/>
            <path d="M930.08,191.59L929.51,191.32L929.51,313.05C901.42,303.75 870.01,293.34 837.35,282.51L837.35,214.88L837.1,214.78C820.47,208.04 803.52,201.18 786.52,194.3L744.16,177.15L743.61,176.93L743.61,326.83L836.85,350.86C862.4,357.45 887.21,363.84 910.25,369.77L930.3,374.94L930.3,314.16L991.17,334.32L1023.26,344.95L1023.26,236.19L930.08,191.6L930.08,191.59Z" style="fill-rule:nonzero;"/>
            <path d="M464.76,279.14L465.26,279.01C469.66,277.87 473.81,276.8 477.67,275.81C499.25,270.26 524.01,270.26 545.6,275.81L557.9,278.97L558.01,279C579.35,284.51 606.83,291.59 637.86,299.58L651.47,303.08L651.47,139.62L558.51,101.99L558.51,13.8L558.28,13.69C553.87,11.59 549.73,9.61 545.88,7.76C535.26,2.68 523.42,-0.01 511.64,-0.01C499.86,-0.01 488.01,2.68 477.41,7.76L465.18,13.62L465.01,13.7C444.4,23.56 418.06,36.16 388.33,50.38L371.82,58.28L371.82,140.47L372.37,140.25C408.49,125.63 440.54,112.65 464.78,102.84L464.78,190.15L448.12,195.67C426.53,202.82 400.58,211.41 372.1,220.85L371.83,220.94L371.83,303.07L464.79,279.13L464.76,279.14Z" style="fill-rule:nonzero;"/>
            <path d="M459.31,631.56L464.76,631.76L464.76,719.9L468.79,720.35C471.84,720.69 474.75,721.01 477.52,721.32C488.36,722.52 499.99,723.12 511.63,723.12C523.27,723.12 534.9,722.52 545.74,721.32C548.5,721.02 551.42,720.69 554.47,720.35L557.71,719.99L557.86,719.97L558.51,719.9C582.77,717.22 614.9,713.67 651.11,709.68L651.46,709.64L651.46,547.01C680.35,548.07 711.83,549.24 744,550.43L744.41,550.45L744.41,475.17L744.06,475.13C711.74,471.56 680.11,468.06 651.1,464.86L650.66,464.81L650.66,546.19L621.33,545.11C597.28,544.23 575.87,543.44 558.5,542.8L558.5,454.64L554.47,454.19C551.42,453.85 548.51,453.53 545.74,453.22C524.06,450.84 499.19,450.84 477.52,453.22C474.76,453.52 471.84,453.85 468.79,454.19L465.55,454.55L465.4,454.57L464.75,454.64C440.49,457.32 408.36,460.87 372.15,464.86L371.8,464.9L371.8,628.34L372.18,628.34C405.72,629.57 435.77,630.69 459.3,631.56L459.31,631.56Z" style="fill-rule:nonzero;"/>
            <path d="M92.96,678.85L93.43,678.9L93.76,678.94L185.91,689.11L186.26,689.15L186.7,689.2C217.05,692.55 248.44,696.02 279.21,699.41L279.65,699.46L279.65,624.14L245.14,622.87C225.52,622.15 205.9,621.43 186.69,620.73L186.69,553.02L186.28,553.04C153.33,554.26 121.64,555.43 93.34,556.47L92.96,556.47L92.96,617.27C53.55,615.82 20.76,614.62 0.42,613.87L0.01,613.85L0.01,668.59L92.97,678.85L92.96,678.85Z" style="fill-rule:nonzero;"/>
            <path d="M92.96,253.37L92.96,314.16L186.42,283.2L186.69,283.11C217.09,273.04 248.54,262.62 279.37,252.41L279.64,252.32L279.64,176.93L271.64,180.17C243.3,191.65 214.55,203.29 186.68,214.57L186.68,146.88L93.17,191.61L92.94,191.72L0.23,236.08L0,236.19L0,291L92.96,253.37Z" style="fill-rule:nonzero;"/>
        </g>
    </g>
</svg>
