<?xml version="1.0" encoding="UTF-8" standalone="no"?>
<!DOCTYPE svg PUBLIC "-//W3C//DTD SVG 1.1//EN" "http://www.w3.org/Graphics/SVG/1.1/DTD/svg11.dtd">
<svg width="100%" height="100%" viewBox="0 0 1439 1471" version="1.1" xmlns="http://www.w3.org/2000/svg" xmlns:xlink="http://www.w3.org/1999/xlink" xml:space="preserve" xmlns:serif="http://www.serif.com/" style="fill-rule:evenodd;clip-rule:evenodd;stroke-linejoin:round;stroke-miterlimit:2;">
    <g id="Graphic">
        <g>
            <path d="M62.24,499.24C74.93,465.42 90.54,432.35 108.62,400.92C114.25,391.12 120.14,381.45 126.13,372.16C126.33,371.85 126.53,371.54 126.73,371.23C126.93,370.92 127.13,370.61 127.33,370.29L127.36,370.24L115.38,337.31L115.24,337.52C86.73,381.76 62.97,429.17 44.62,478.42L44.59,478.49L62.15,499.43L62.23,499.23L62.24,499.24Z" style="fill-rule:nonzero;"/>
            <path d="M1334.65,924.4C1352.64,863.12 1361.77,799.4 1361.77,735.04C1361.77,696.97 1358.54,658.72 1352.18,621.36C1347.85,595.96 1341.94,570.45 1334.62,545.53L1334.62,545.5C1334.62,545.5 1334.59,545.4 1334.57,545.36C1334.55,545.31 1334.54,545.25 1334.52,545.19C1320.36,497.04 1300.68,450.4 1276.02,406.55C1238.72,340.24 1190.8,281.13 1133.59,230.84L1217.94,182.14L1217.81,182.02C1118.06,94.58 996.69,35.81 866.82,12.05C736.95,-11.71 866.61,12.01 866.61,12.01L866.54,12.01L866.54,12C822.97,4.04 778.25,-0 733.62,-0C659.34,-0 586.04,11.05 515.75,32.84C445.46,54.63 515.51,32.91 515.51,32.91C515.5,32.91 515.49,32.91 515.47,32.92L515.45,32.92C468.61,47.46 423.02,66.84 379.95,90.52C337.47,113.88 297.1,141.62 259.94,172.98L259.9,173.02L259.9,220.57L260.11,220.4C319.94,170.27 387.32,131.31 460.38,104.62C470.73,100.85 481.19,97.33 491.49,94.14C492.14,93.93 492.79,93.74 493.39,93.57C493.99,93.4 493.63,93.5 493.63,93.5L493.68,93.48C557.19,73.98 623.44,64.1 690.58,64.1C731.37,64.1 772.2,67.78 811.96,75.05C812.48,75.14 812.99,75.24 813.43,75.33L760.47,138.43L760.68,138.47C794.48,144.83 827.96,154.17 860.22,166.23C894.51,179.06 927.84,195.13 959.28,213.98C990.4,232.64 1020.03,254.25 1047.35,278.2L1048.93,279.58L1048.96,279.61C1100.36,324.94 1143.46,378.18 1177.04,437.88C1199.34,477.56 1217.15,519.75 1229.96,563.29C1230,563.4 1230.03,563.53 1230.06,563.65C1230.08,563.73 1230.1,563.8 1230.13,563.87L1126.06,582.21L1125.92,582.23L1125.96,582.36C1131.79,602.29 1136.5,622.7 1139.95,643C1145.12,673.21 1147.74,704.18 1147.74,735.05C1147.74,786.93 1140.4,838.29 1125.92,887.69C1097.87,983.45 1043.71,1069.67 969.29,1137.01C967.67,1138.48 966.04,1139.91 964.24,1141.49C962.44,1143.07 964.24,1141.49 964.24,1141.49L879.76,1092.7L879.63,1092.83C815.49,1149.63 737.37,1188.08 653.71,1204.03C570.05,1219.98 653.64,1204.05 653.64,1204.05L653.43,1204.09C638.7,1207.48 623.4,1210.1 607.95,1211.86C592.57,1213.6 576.91,1214.49 561.41,1214.49C516.05,1214.49 471.1,1208.14 427.8,1195.61L405.81,1135.25L405.79,1135.19L405.73,1135.17C402.45,1134.27 398.96,1133.23 395.04,1132.01C388.85,1130.1 382.5,1127.97 376.17,1125.67C334.21,1110.39 295.16,1088.51 260.1,1060.63L259.9,1060.47C256.9,1058.11 253.76,1055.54 250.57,1052.84C221.66,1028.43 196.22,1000.27 174.97,969.12L186.86,936.43L186.88,936.37L186.84,936.32C184.2,932.55 181.7,928.84 179.42,925.29C176.3,920.45 173.3,915.54 170.5,910.68C162.52,896.91 155.37,882.27 149.24,867.16L149.16,866.97C147.84,863.76 146.62,860.57 145.6,857.88C139.75,842.19 134.99,825.88 131.45,809.41L151.17,798.03L151.25,797.98L151.23,797.89C150.64,795.25 150.19,793.07 149.8,791.03C149.39,788.95 148.97,786.79 148.6,784.67C146.92,774.9 145.74,765.07 145.08,755.43L145.08,755.18L145.07,755.18C145.01,754.5 144.97,753.81 144.93,753.13L144.93,753.01C144.54,746.85 144.35,740.81 144.35,735.04C144.35,729.27 144.54,723.32 144.93,717.05L144.93,716.93C144.98,716.26 145.02,715.56 145.08,714.89L163.01,718.05L165.77,718.53L165.77,718.39C166.3,710.99 167.22,703.51 168.52,696.16L168.58,695.81C168.83,694.37 169.1,692.89 169.39,691.43C169.92,688.67 170.46,686.17 171.03,683.79L171.07,683.63C173.19,674.53 175.93,665.49 179.2,656.75C180.86,652.3 182.47,648.37 184.1,644.73L201.55,665.55L201.67,665.7L201.75,665.52C203.44,661.97 205.28,658.49 207.21,655.18C208.46,653.01 209.83,650.77 211.4,648.32C214.87,642.93 218.72,637.69 222.82,632.75L222.84,632.73C228.86,625.46 235.62,618.64 242.92,612.47C248.24,607.97 253.95,603.77 259.88,599.98L259.88,648.88L260.06,648.79C263.34,647.13 266.69,645.67 270.02,644.46C271.73,643.85 273.14,643.37 274.46,642.96C281.13,640.88 288.05,639.54 295.02,638.98L295.03,638.98C297.66,638.75 300.37,638.63 303.06,638.63C308.79,638.63 314.63,639.16 320.41,640.2C325.7,641.17 330.9,642.59 335.87,644.4L335.86,644.4L280.89,709.94L280.81,710.04L280.91,710.12C283.83,712.58 286.27,715.49 288.16,718.77L288.18,718.8C290.08,722.05 291.36,725.56 291.99,729.25L260.02,734.89L239.09,709.93L239.01,709.83L238.91,709.91C236,712.36 233.57,715.26 231.67,718.53C229.77,721.8 231.61,718.62 231.61,718.62L231.61,718.63L231.55,718.74C229.66,721.99 228.38,725.51 227.75,729.2C227.12,732.89 207.04,725.56 207.04,725.56L206.91,725.54L206.91,725.67C206.78,726.73 206.69,727.84 206.62,728.97C206.5,731.13 206.44,733.12 206.44,735.04C206.44,736.96 206.5,738.92 206.62,741.09C206.69,742.18 206.78,743.26 206.9,744.39L206.9,744.52L206.92,744.52C207.15,746.92 207.47,749.35 207.87,751.73C207.91,751.96 207.96,752.18 208,752.41C208.09,752.89 208.18,753.38 208.29,753.85C208.93,757.08 209.73,760.28 210.69,763.38L201.81,768.49L190.75,774.9L190.67,774.95L190.69,775.04C192.1,780.53 193.8,785.94 195.74,791.12C197.46,795.72 199.4,800.25 201.49,804.61C203.58,808.97 201.53,804.68 201.53,804.68L201.53,804.7L201.61,804.86C203.35,808.44 205.19,811.92 207.08,815.2C208.35,817.39 209.69,819.57 211.16,821.87C214.7,827.36 218.55,832.6 222.6,837.45L210.55,870.59L210.53,870.65L210.57,870.7C220.57,883.88 232.04,895.95 244.67,906.58C249.39,910.57 254.51,914.53 259.88,918.35C265.25,922.17 259.93,918.39 259.93,918.39L260.13,918.53C276.33,929.94 293.93,939.14 312.44,945.87C315.9,947.14 319.32,948.29 322.61,949.31C328.04,951 333.72,952.51 339.49,953.81L361.54,1014.4L361.56,1014.46L361.62,1014.48C384.56,1020.26 408.32,1023.2 432.22,1023.2C442.74,1023.2 453.31,1022.41 463.63,1020.85C473.94,1019.3 484.14,1016.98 493.97,1013.96C543.05,1003.84 588.79,980.6 626.26,946.75C626.28,946.73 626.3,946.72 626.32,946.7C626.34,946.68 626.32,946.7 626.32,946.7L710.72,995.42L710.8,995.46L710.87,995.4C711.83,994.54 712.8,993.66 713.73,992.81L714.02,992.54C761.26,949.21 795.62,893.96 813.4,832.75C831.18,771.54 813.43,832.64 813.43,832.64L813.43,832.63L813.47,832.51C822.62,801 827.26,768.22 827.26,735.06C827.26,715.03 825.56,694.94 822.21,675.35C820.02,662.6 817.12,649.89 813.58,637.56L917.52,619.24C921.79,633.85 925.3,649.12 927.95,664.61C931.91,687.76 933.92,711.46 933.92,735.06C933.92,774.47 928.37,813.46 917.42,850.94L917.38,851.07L929.87,853.28L1021.75,869.48L1021.86,869.5L1021.89,869.39C1034.6,825.95 1041.05,780.75 1041.05,735.05C1041.05,707.75 1038.74,680.4 1034.18,653.75C1031.19,636.16 1027.08,618.29 1021.96,600.66L1021.93,600.55L929.87,616.79L917.7,618.94C917.61,618.59 917.51,618.24 917.41,617.9C917.35,617.71 917.3,617.52 917.24,617.32C908.45,587.48 896.24,558.56 880.96,531.38C858.55,491.61 829.97,456.01 796.01,425.57L795.99,425.55C794.68,424.33 793.32,423.13 792,421.98C754.09,388.77 710.99,363.01 663.9,345.4C643.91,337.91 623.09,331.93 602.02,327.62C580.95,323.31 602.02,327.62 602.02,327.62L654.79,264.72C680.07,269.7 705.12,276.8 729.25,285.83C783.49,306.1 833.2,335.82 877,374.16C878.12,375.14 879.17,376.07 880.2,377.02L880.27,377.08L964.72,328.32L964.87,328.23L964.74,328.12C963.93,327.43 963.12,326.7 962.32,326C937.85,304.57 911.33,285.23 883.48,268.53C855.33,251.65 825.49,237.27 794.82,225.79C766.69,215.27 737.39,207.04 707.73,201.33L707.66,201.33L654.7,264.44C652.45,263.99 650.16,263.57 648.13,263.19C619.66,257.99 590.46,255.35 561.37,255.35C516.05,255.35 471.13,261.69 427.86,274.19C384.59,286.69 427.66,274.25 427.66,274.25L427.63,274.25L427.57,274.27C424.73,275.09 421.88,275.96 419.11,276.81L419.03,276.83C411.49,279.17 404.01,281.69 396.81,284.32C347.24,302.44 301.25,328.5 260.11,361.77L260.11,314.82C307.56,275.87 360.69,245.51 418.05,224.59C426.35,221.55 434.82,218.69 443.23,216.09C445.37,215.42 447.53,214.77 449.66,214.15L449.72,214.13L471.7,153.71L471.79,153.47L467.26,154.86C458.12,157.68 448.65,160.87 439.09,164.36C373.85,188.2 313.56,222.88 259.9,267.42L259.86,267.46L259.86,314.7C258.04,316.19 256.13,317.77 254.19,319.41C214.3,353.03 179.54,392.09 150.88,435.49L150.88,435.51C149.71,437.22 148.52,439.04 147.22,441.07C142.42,448.49 137.65,456.32 133.02,464.35C119.04,488.66 106.87,514.24 96.84,540.38L79.58,519.82L79.44,519.66L78.19,522.97C67.09,552.72 58.28,583.69 52.03,615.01L52.01,615.1C51.95,615.4 51.89,615.71 51.83,616.01C51.77,616.33 51.71,616.65 51.64,616.97C50.89,620.69 50.13,624.74 49.24,629.72C45.4,651.7 42.75,674.12 41.39,696.36L20.94,692.76C22.47,667.91 25.4,642.99 29.66,618.7C30.49,613.97 31.38,609.23 32.29,604.62C32.33,604.44 32.37,604.25 32.41,604.07L32.52,603.54L12.65,592.09L12.5,592L12.47,592.17C6.18,623.94 1.99,656.58 0,689.2L0,689.31L20.69,692.97L20.69,693C20.69,693.06 20.68,693.11 20.68,693.16C19.81,707.32 19.37,721.41 19.37,735.04C19.37,748.67 19.81,762.74 20.68,776.87C20.68,776.93 20.68,776.99 20.69,777.05L20.69,777.35C22.19,801.79 25.08,826.46 29.28,850.69C30.15,855.62 31.08,860.6 32.05,865.49L32.14,865.95C32.17,866.1 32.2,866.26 32.23,866.41L12.51,877.77L12.43,877.81L12.45,877.9C20.02,916.49 30.83,954.73 44.58,991.58C58.33,1028.43 44.61,991.65 44.61,991.65L44.69,991.85C63.02,1041.01 86.75,1088.33 115.2,1132.5L115.23,1132.55L115.37,1132.76C155.14,1194.47 203.77,1249.76 259.91,1297.1L260.12,1297.27L260.12,1249.67L260.07,1249.63C259.42,1249.12 258.79,1248.58 258.18,1248.07C207.43,1205.28 163.42,1155.4 127.36,1099.81C91.3,1044.22 127.32,1099.75 127.32,1099.75L127.19,1099.55C126.83,1099.01 126.46,1098.45 126.11,1097.89C120.11,1088.59 114.39,1079.21 109.11,1070.03C90.77,1038.25 75.01,1004.89 62.27,970.88L79.46,950.38C90.9,980.58 104.94,1010.15 121.17,1038.28C125.92,1046.55 130.95,1054.8 136.55,1063.5C137.34,1064.72 138.16,1065.99 138.99,1067.23L139.13,1067.44L151.1,1034.55L151.12,1034.49L151.08,1034.44C149.93,1032.75 148.73,1030.92 147.4,1028.84C142.63,1021.41 138,1013.82 133.64,1006.28C119.39,981.57 107.06,955.7 96.98,929.37L96.9,929.17L79.52,949.89C79.13,948.92 78.76,947.93 78.4,946.98C67.3,917.25 58.51,886.34 52.27,855.09C46.03,823.84 52.26,855.04 52.26,855.04L52.26,855L52.23,854.83C52.17,854.53 52.11,854.22 52.05,853.92C51.99,853.62 51.94,853.32 51.87,853.02C51.04,848.9 50.22,844.52 49.36,839.63C45.56,817.69 42.96,795.49 41.63,773.64C40.3,751.79 62.3,770 62.3,770L62.22,768.9C61.52,757.51 61.16,746.12 61.16,735.03C61.16,723.94 61.52,712.52 62.22,701.14L62.28,700.29L62.28,700.03C63.52,680.12 65.88,660.2 69.3,640.81C69.9,637.38 70.58,633.75 71.42,629.4C71.58,628.56 71.75,627.76 71.92,626.9L71.98,626.62L91.63,637.96L91.78,638.05L91.81,637.88C96.68,614.05 103.46,590.4 111.97,567.61C112.88,565.19 113.63,563.2 114.34,561.37C123.07,538.96 133.56,517.05 145.54,496.24C149.53,489.31 153.74,482.4 158.05,475.71C159.61,473.27 161.22,470.83 162.82,468.45L174.65,500.94L174.73,501.17L174.87,500.97C196.09,469.84 221.54,441.65 250.5,417.2C253.68,414.51 256.82,411.95 259.83,409.57C262.84,407.19 260.03,409.41 260.03,409.41C294.91,381.66 333.83,359.82 375.71,344.51C382.14,342.18 388.62,339.99 394.97,338.01C398.68,336.85 402.11,335.84 405.45,334.92C408.79,334 383.53,395.12 383.53,395.12L383.45,395.35L383.68,395.29C413.41,387.31 444.22,383.27 475.25,383.27C496.67,383.27 518.06,385.2 538.83,389.01C542.28,389.63 545.45,390.26 548.53,390.92L548.58,390.92C548.63,390.94 548.68,390.95 548.73,390.96L548.8,390.98C565.51,394.51 582.18,399.37 598.33,405.41C638.14,420.28 674.59,442.06 706.65,470.12C708.51,471.74 709.99,473.07 711.32,474.29C712.65,475.51 627.08,522.92 627.08,522.92L626.93,523.01L627.05,523.13C649.38,543.66 668.26,567.47 683.17,593.92C693.8,612.74 702.27,632.75 708.35,653.42C708.43,653.69 708.51,653.96 708.59,654.23C708.73,654.71 708.88,655.21 709.01,655.71L709.04,655.8C709.04,655.8 709.04,655.83 709.05,655.84L709.08,655.95C711.89,665.8 714.2,675.97 715.96,686.18C718.71,702.25 720.11,718.68 720.11,735.04C720.11,761.91 716.37,788.51 708.99,814.08L604.87,795.71L604.76,795.69L604.73,795.8C593.8,834.03 572.66,868.65 543.58,895.92C543.37,896.11 543.16,896.31 542.95,896.5C542.57,896.86 542.18,897.22 541.78,897.58C541.38,897.94 541.71,897.64 541.71,897.64C541.71,897.64 541.67,897.68 541.64,897.7C541.61,897.72 541.58,897.75 541.55,897.78C513.02,923.93 478.16,942.07 440.72,950.23L387.53,886.84L387.47,886.77L387.38,886.81C381.04,889.54 374.29,891.66 367.33,893.09C360.42,894.51 353.27,895.23 346.08,895.23C336.38,895.23 326.73,894.36 317.39,892.65L317.37,892.65C311.04,891.53 304.7,889.99 298.53,888.07C296.14,887.33 293.69,886.5 291.25,885.61C280.33,881.64 269.84,876.46 260.08,870.22L260.08,821.31L260.01,821.28C253.21,817.92 246.8,813.7 240.95,808.76C238.93,807.06 236.97,805.27 235.13,803.42L235.1,803.39C230.17,798.5 225.75,793.04 221.96,787.17C221.16,785.97 220.43,784.75 219.59,783.31L239.05,760.12L239.13,760.02L239.03,759.94C236.15,757.54 233.71,754.64 231.78,751.31C229.88,748.04 228.59,744.51 227.92,740.8L259.89,735.16L280.84,760.11L280.92,760.21L281.02,760.13C283.9,757.73 286.33,754.84 288.26,751.54C290.19,748.24 288.32,751.43 288.32,751.43L288.38,751.32C290.26,748.06 291.54,744.54 292.2,740.84C292.86,737.14 356.12,752.11 356.12,752.11L396.17,759.16C392.1,774.27 384.19,788.21 373.26,799.49L372.55,800.2L457.17,849.05L457.25,849.09L457.32,849.03C457.65,848.75 457.96,848.45 458.26,848.17L458.57,847.88C478.62,828.56 493.18,804.22 500.68,777.49L500.72,777.36L396.48,758.97C398.55,751.16 399.61,743.11 399.61,735.03C399.61,729.44 399.13,723.88 398.18,718.51C397.8,716.13 397.26,713.62 396.6,711.05L396.57,710.94L396.57,710.92L396.54,710.82C396.26,709.73 395.96,708.58 395.62,707.46C393.53,700.42 390.66,693.68 387.08,687.41C383.38,680.89 378.93,674.83 373.87,669.39C368.81,663.95 458.25,620.68 458.25,620.68C469.01,631.25 478.22,643.24 485.61,656.33C491.55,666.79 496.28,677.95 499.68,689.49C499.94,690.39 500.27,691.52 500.55,692.6L500.58,692.71L605.06,674.3L605.02,674.17C604.8,673.36 604.52,672.36 604.24,671.4C599.47,655.25 592.86,639.64 584.59,625.01C573.45,605.25 559.39,587.31 542.81,571.68L542.74,571.62L458.28,620.38C456.09,618.24 453.75,616.07 451.31,613.94C436.74,601.24 420.15,591.37 402.02,584.6C398.07,583.11 393.92,581.75 389.68,580.55C385.44,579.35 389.49,580.5 389.49,580.5L389.48,580.5L389.42,580.48C384.57,579.14 379.71,578.02 374.99,577.16C365.45,575.43 355.71,574.55 346.02,574.55C336.33,574.55 326.85,575.4 317.52,577.07L339.59,516.45C355.77,512.81 372.42,510.96 389.07,510.96C402.69,510.96 416.3,512.18 429.54,514.6C433.8,515.38 438.19,516.33 442.6,517.41L442.68,517.43L495.78,454.13L495.91,453.97L495.71,453.92C491.9,453.04 488.03,452.25 484.21,451.57C467.16,448.45 449.64,446.87 432.13,446.87C408.24,446.87 384.5,449.8 361.56,455.58L361.5,455.6L342.83,506.87L339.42,516.23C333.84,517.49 328.16,519.01 322.51,520.76C318.85,521.9 315.45,523.04 312.13,524.24C293.67,530.99 276.14,540.17 260.03,551.52C243.92,562.87 259.83,551.66 259.83,551.66L259.78,551.7C254.58,555.38 249.46,559.34 244.57,563.47C231.98,574.09 220.55,586.1 210.58,599.17C200.61,612.24 199.92,569.86 199.92,569.86L198.6,566.25L198.46,566.44C195.6,570.38 192.75,574.53 189.77,579.14C187.04,583.39 184.58,587.43 182.23,591.5C176.31,601.79 171,612.53 166.42,623.43L166.34,623.62C165,626.76 163.63,630.18 162.05,634.39C157.5,646.57 153.76,659.22 150.93,671.99L131.11,660.56L131.07,660.73C130.63,662.69 130.24,664.67 129.85,666.61C129.46,668.61 128.95,671.26 128.49,674.01C126.35,686.12 124.85,698.55 124.03,710.96L124.03,711.1C124.03,711.11 123.89,713.08 123.89,713.08C123.43,720.31 123.2,727.7 123.2,735.05C123.2,742.4 123.43,749.77 123.89,757L124.02,758.87L103.33,762.53L103.33,762.64C104.3,777.41 106.06,792.23 108.57,806.69C109.07,809.45 109.65,812.67 110.28,815.86C110.6,817.52 110.96,819.18 111.3,820.79L111.34,820.96C115.55,841.08 121.32,861.02 128.5,880.22C129.61,883.21 130.56,885.67 131.47,887.94L114.1,908.62L114.05,908.68L114.08,908.75C122.95,931.51 133.57,953.65 145.66,974.54C149.55,981.29 153.64,987.99 157.81,994.46C159.41,996.95 161.05,999.44 162.68,1001.88C164.31,1004.32 162.72,1001.93 162.72,1001.93L162.86,1002.13C187.88,1039.37 217.95,1072.92 252.23,1101.83C254.43,1103.68 256.84,1105.67 259.81,1108.09L259.81,1155.36L259.86,1155.4C307.43,1194.46 360.77,1224.91 418.4,1245.9C426.43,1248.83 434.74,1251.63 443.11,1254.22C445.26,1254.89 447.42,1255.54 449.54,1256.16L449.78,1256.23C499.77,1271.05 551.79,1278.57 604.4,1278.57C621.62,1278.57 638.98,1277.65 655.99,1275.85C673.06,1274.05 690.15,1271.33 706.77,1267.75L759.96,1331.14L760.01,1331.2L760.08,1331.2C866.95,1311.34 966.76,1262.71 1048.74,1190.55L1048.75,1190.55L1048.99,1190.32C1050.8,1188.72 1052.68,1187.07 1054.52,1185.41C1138,1110.09 1198.78,1013.56 1230.29,906.27C1261.8,798.98 1230.29,906.27 1230.29,906.27L1334.27,924.62C1299.36,1043.34 1232,1150.13 1139.48,1233.44C1137.53,1235.2 1135.53,1236.96 1133.6,1238.66L1132.96,1239.22L1217.59,1288.09L1217.67,1288.13L1217.74,1288.07C1269.62,1242.62 1314.83,1190.2 1352.1,1132.28C1389.93,1073.48 1419.09,1009.77 1438.76,942.9L1438.8,942.77L1334.58,924.4L1334.65,924.4Z" style="fill-rule:nonzero;"/>
            <path d="M813.4,1394.37L813.33,1394.37C793.1,1398.25 772.56,1401.17 752.27,1403.07C732.04,1405 711.28,1405.97 690.57,1405.97C623.41,1405.97 557.15,1396.08 493.62,1376.57L493.38,1376.5L515.43,1437.09L515.45,1437.15L515.51,1437.17C585.88,1459.01 659.26,1470.08 733.63,1470.08C778.29,1470.08 823.03,1466.04 866.62,1458.07L866.83,1458.03L813.46,1394.42L813.41,1394.36L813.4,1394.37Z" style="fill-rule:nonzero;"/>
        </g>
    </g>
</svg>
