<?xml version="1.0" encoding="UTF-8" standalone="no"?>
<!DOCTYPE svg PUBLIC "-//W3C//DTD SVG 1.1//EN" "http://www.w3.org/Graphics/SVG/1.1/DTD/svg11.dtd">
<svg width="100%" height="100%" viewBox="0 0 1080 1328" version="1.1" xmlns="http://www.w3.org/2000/svg" xmlns:xlink="http://www.w3.org/1999/xlink" xml:space="preserve" xmlns:serif="http://www.serif.com/" style="fill-rule:evenodd;clip-rule:evenodd;stroke-linejoin:round;stroke-miterlimit:2;">
    <g transform="matrix(7.52534e-17,-1.22898,0.849397,5.20106e-17,-4.35645e-14,1327.3)">
        <g id="Over">
            <g>
                <path d="M785.83,1102.47L458.17,1021.81L458.17,1067.26L785.83,1151.41L785.83,1175.87L1080,1240.11L1080,1188.57L785.83,1126.93L785.83,1102.47Z" style="fill-rule:nonzero;"/>
                <path d="M458.17,976.36L196.04,899.38L196.04,941.34L458.17,1021.81L458.17,976.36Z" style="fill-rule:nonzero;"/>
                <path d="M785.83,588.71L785.83,637.63L1080,673.12L1080,621.57L785.83,588.71Z" style="fill-rule:nonzero;"/>
                <path d="M785.83,980.13L458.17,908.21L458.17,953.64L785.83,1029.05L785.83,980.13Z" style="fill-rule:nonzero;"/>
                <path d="M458.17,1112.71L458.17,1089.99L196.04,1004.31L196.04,1046.29L458.17,1135.44L458.17,1158.16L785.83,1249.27L785.83,1273.76L458.17,1180.89L196.04,1088.25L196.04,1066.87L0,976.15L0,1014.65L196.04,1108.83L196.04,1130.26L458.17,1226.36L458.17,1249.09L196.04,1151.23L196.04,1150.81L0,1053.16L0,1091.68L196.04,1192.8L196.04,1213.79L0,1110.96L0,1327.3L1080,1327.3L1080,1265.89L785.83,1200.33L458.17,1112.71Z" style="fill-rule:nonzero;"/>
                <path d="M785.83,906.73L785.83,955.67L1080,1008.16L1080,956.61L785.83,906.73Z" style="fill-rule:nonzero;"/>
                <path d="M785.83,759.93L785.83,808.87L1080,853.53L1080,801.97L785.83,759.93Z" style="fill-rule:nonzero;"/>
                <path d="M196.04,1003.92L196.04,961.96L0,879.91L0,918.43L196.04,1003.92Z" style="fill-rule:nonzero;"/>
                <path d="M196.04,375.05L196.04,333.16L0,303.38L0,341.78L196.04,375.05Z" style="fill-rule:nonzero;"/>
                <path d="M196.04,165.67L196.04,123.8L0,111.52L0,149.88L196.04,165.67Z" style="fill-rule:nonzero;"/>
                <path d="M196.04,563.6L196.04,521.69L0,476.19L0,514.62L196.04,563.6Z" style="fill-rule:nonzero;"/>
                <path d="M196.04,731.28L196.04,689.35L0,629.91L0,668.35L196.04,731.28Z" style="fill-rule:nonzero;"/>
                <path d="M196.04,878.06L196.04,836.12L0,764.5L0,802.97L196.04,878.06Z" style="fill-rule:nonzero;"/>
                <path d="M785.83,1029.05L785.83,1077.99L1080,1137.02L1080,1085.47L785.83,1029.05Z" style="fill-rule:nonzero;"/>
                <path d="M458.17,612.89L458.17,658.32L785.83,711.01L785.83,662.07L458.17,612.89Z" style="fill-rule:nonzero;"/>
                <path d="M785.83,393.04L785.83,441.96L1080,466.95L1080,415.4L785.83,393.04Z" style="fill-rule:nonzero;"/>
                <path d="M458.17,431.25L458.17,476.63L785.83,515.31L785.83,466.41L458.17,431.25Z" style="fill-rule:nonzero;"/>
                <path d="M458.17,226.93L458.17,272.34L785.83,295.2L785.83,246.28L458.17,226.93Z" style="fill-rule:nonzero;"/>
                <path d="M196.04,773.5L196.04,815.46L458.17,885.48L458.17,840.03L196.04,773.5Z" style="fill-rule:nonzero;"/>
                <path d="M458.17,0L458.17,45.38L785.83,50.65L785.83,1.76L458.17,0Z" style="fill-rule:nonzero;"/>
                <path d="M458.17,771.88L458.17,817.31L785.83,882.25L785.83,833.33L458.17,771.88Z" style="fill-rule:nonzero;"/>
                <path d="M458.17,113.47L458.17,68.06L196.04,61.03L196.04,102.92L458.17,113.47Z" style="fill-rule:nonzero;"/>
                <path d="M785.83,172.93L785.83,221.82L1080,235L1080,183.46L785.83,172.93Z" style="fill-rule:nonzero;"/>
                <path d="M458.17,726.45L458.17,681.02L196.04,626.69L196.04,668.63L458.17,726.45Z" style="fill-rule:nonzero;"/>
                <path d="M458.17,340.42L458.17,295.01L196.04,270.44L196.04,312.33L458.17,340.42Z" style="fill-rule:nonzero;"/>
                <path d="M458.17,544.76L458.17,499.34L196.04,459.02L196.04,500.93L458.17,544.76Z" style="fill-rule:nonzero;"/>
            </g>
        </g>
    </g>
</svg>
