<?xml version="1.0" encoding="UTF-8" standalone="no"?>
<!DOCTYPE svg PUBLIC "-//W3C//DTD SVG 1.1//EN" "http://www.w3.org/Graphics/SVG/1.1/DTD/svg11.dtd">
<svg width="100%" height="100%" viewBox="0 0 738 1478" version="1.1" xmlns="http://www.w3.org/2000/svg" xmlns:xlink="http://www.w3.org/1999/xlink" xml:space="preserve" xmlns:serif="http://www.serif.com/" style="fill-rule:evenodd;clip-rule:evenodd;stroke-linejoin:round;stroke-miterlimit:2;">
    <g id="Graphic">
        <g>
            <path d="M737.38,74.64C689.92,47.16 640.31,22.07 589.93,0.08L589.76,0L589.76,58.98C541.8,38.02 492.24,19.46 442.46,3.84L442.3,3.79L442.3,62.75C394.03,47.61 344.48,34.84 295.02,24.8L294.87,24.77L294.87,83.75C246.27,73.89 196.71,66.43 147.58,61.57L147.44,61.57L147.44,120.54C98.77,115.72 49.21,113.27 0.13,113.27L0.01,113.27L0.01,319.94L0.13,319.94C49.24,319.94 98.84,322.39 147.55,327.22L147.69,327.22L147.69,268.25C197.08,273.15 246.62,280.61 294.95,290.45L295.13,290.45L295.13,231.49C344.59,241.53 394.14,254.3 442.4,269.45L442.56,269.5L442.56,210.54C492.33,226.17 541.88,244.73 589.84,265.7L590.01,265.78L590.01,206.8C640.32,228.78 689.86,253.83 737.26,281.28L737.45,281.39L737.45,74.68L737.39,74.64L737.38,74.64Z" style="fill-rule:nonzero;"/>
            <path d="M589.93,294.97L589.76,294.89L589.76,353.85C542.01,332.98 492.45,314.43 442.46,298.71L442.3,298.66L442.3,357.64C394.03,342.5 344.48,329.73 295.02,319.69L294.87,319.66L294.87,378.64C246.27,368.78 196.71,361.32 147.58,356.46L147.44,356.46L147.44,415.41C98.77,410.59 49.21,408.14 0.13,408.14L0.01,408.14L0.01,585.34L0.13,585.34C49.24,585.34 98.84,587.79 147.55,592.62L147.69,592.62L147.69,533.65C196.82,538.52 246.38,545.98 294.97,555.84L295.12,555.87L295.12,496.89C344.58,506.93 394.13,519.7 442.39,534.85L442.55,534.9L442.55,475.92C492.53,491.64 542.09,510.2 589.83,531.08L590,531.16L590,472.2C640.31,494.18 689.85,519.23 737.25,546.68L737.44,546.79L737.44,369.58L737.38,369.54C689.92,342.06 640.31,316.97 589.93,294.97Z" style="fill-rule:nonzero;"/>
            <path d="M644.1,585.34L643.61,585.1C626.15,576.59 608.09,568.26 589.93,560.34L589.76,560.26L589.76,619.24C562.06,607.13 533.57,595.72 505.05,585.33L504.38,585.09C484.09,577.71 463.25,570.64 442.45,564.1L442.29,564.05L442.29,623.03C394.02,607.89 344.47,595.12 295.01,585.08L294.86,585.05L294.86,644.01C246.26,634.15 196.71,626.69 147.57,621.83L147.43,621.83L147.43,680.8C98.76,675.98 49.2,673.53 0.12,673.53L0,673.53L0,821.21L0.12,821.21C49.24,821.21 98.83,823.66 147.54,828.49L147.68,828.49L147.68,769.55C196.82,774.42 246.37,781.88 294.96,791.74L295.11,791.77L295.11,732.79C344.57,742.83 394.12,755.6 442.38,770.75L442.54,770.8L442.54,711.82C463.3,718.35 484.07,725.39 504.29,732.75C533.08,743.23 561.86,754.74 589.82,766.97L589.99,767.05L589.99,708.09C607.84,715.88 625.82,724.17 643.44,732.74C675.24,748.17 706.8,764.94 737.24,782.57L737.43,782.68L737.43,634.93L737.37,634.89C707.1,617.35 675.72,600.67 644.09,585.32L644.1,585.34Z" style="fill-rule:nonzero;"/>
            <path d="M589.93,796.25L589.76,796.17L589.76,855.15C541.8,834.19 492.24,815.63 442.46,800.01L442.3,799.96L442.3,858.94C394.03,843.79 344.48,831.03 295.02,820.99L294.87,820.96L294.87,879.92C246.54,870.1 196.98,862.63 147.58,857.74L147.44,857.74L147.44,916.71C98.77,911.89 49.21,909.44 0.13,909.44L0.01,909.44L0.01,1027.63L0.13,1027.63C49.24,1027.63 98.84,1030.08 147.55,1034.91L147.69,1034.91L147.69,975.97C196.83,980.84 246.38,988.3 294.97,998.16L295.12,998.19L295.12,939.21C344.58,949.25 394.12,962.02 442.39,977.17L442.55,977.22L442.55,918.24C492.54,933.96 542.09,952.52 589.83,973.4L590,973.48L590,914.52C640.31,936.49 689.85,961.55 737.25,989L737.44,989.11L737.44,870.85L737.38,870.81C689.93,843.33 640.32,818.24 589.93,796.24L589.93,796.25Z" style="fill-rule:nonzero;"/>
            <path d="M644.05,1027.64L643.56,1027.4C625.89,1018.8 607.84,1010.48 589.93,1002.67L589.76,1002.59L589.76,1061.57C562.15,1049.48 533.63,1038.07 504.97,1027.64L504.3,1027.4C483.86,1019.95 463.05,1012.9 442.45,1006.44L442.29,1006.39L442.29,1065.37C394.02,1050.22 344.47,1037.46 295.01,1027.42L294.86,1027.39L294.86,1086.35C246.26,1076.5 196.71,1069.03 147.57,1064.17L147.43,1064.17L147.43,1123.14C98.76,1118.32 49.2,1115.87 0.12,1115.87L-0,1115.87L-0,1204.59L0.12,1204.59C49.24,1204.59 98.83,1207.04 147.54,1211.87L147.68,1211.87L147.68,1152.9C197.08,1157.8 246.61,1165.26 294.94,1175.1L295.12,1175.1L295.12,1116.14C344.57,1126.18 394.12,1138.95 442.39,1154.1L442.55,1154.15L442.55,1095.17C492.54,1110.89 542.09,1129.45 589.83,1150.33L590,1150.41L590,1091.45C640.31,1113.42 689.85,1138.48 737.25,1165.93L737.44,1166.04L737.44,1077.28L737.38,1077.24C707.09,1059.7 675.69,1043.02 644.05,1027.64Z" style="fill-rule:nonzero;"/>
            <path d="M589.93,1179.59L589.76,1179.51L589.76,1238.49C541.8,1217.53 492.24,1198.97 442.46,1183.35L442.3,1183.3L442.3,1242.28C394.03,1227.13 344.48,1214.37 295.02,1204.33L294.87,1204.3L294.87,1263.26C246.27,1253.4 196.72,1245.94 147.58,1241.08L147.44,1241.08L147.44,1300.05C98.77,1295.23 49.21,1292.78 0.13,1292.78L0.01,1292.78L0.01,1352.01L0.13,1352.01C49.24,1352.01 98.84,1354.46 147.55,1359.29L147.69,1359.29L147.69,1300.32C197.08,1305.22 246.61,1312.68 294.95,1322.52L295.13,1322.52L295.13,1263.56C344.59,1273.6 394.14,1286.37 442.4,1301.52L442.56,1301.57L442.56,1242.61C492.34,1258.24 541.89,1276.8 589.84,1297.77L590.01,1297.85L590.01,1238.87C640.32,1260.85 689.86,1285.9 737.26,1313.35L737.45,1313.46L737.45,1254.19L737.39,1254.15C689.94,1226.67 640.33,1201.58 589.94,1179.58L589.93,1179.59Z" style="fill-rule:nonzero;"/>
            <path d="M589.93,1327.05L589.76,1326.97L589.76,1356.71L589.84,1356.74C640.21,1378.74 689.81,1403.82 737.26,1431.3L737.45,1431.41L737.45,1401.66L737.39,1401.62C689.94,1374.14 640.33,1349.05 589.94,1327.05L589.93,1327.05Z" style="fill-rule:nonzero;"/>
            <path d="M442.46,1330.79L442.3,1330.74L442.3,1360.49L442.39,1360.52C492.22,1376.16 541.83,1394.74 589.84,1415.73L590.01,1415.81L590.01,1386.04L589.93,1386.01C542.12,1365.11 492.51,1346.53 442.46,1330.79Z" style="fill-rule:nonzero;"/>
            <path d="M295.02,1351.78L294.87,1351.75L294.87,1381.5L294.97,1381.52C344.47,1391.57 394.07,1404.35 442.39,1419.51L442.55,1419.56L442.55,1389.81L442.46,1389.78C394.15,1374.61 344.54,1361.83 295.01,1351.78L295.02,1351.78Z" style="fill-rule:nonzero;"/>
            <path d="M147.57,1388.55L147.43,1388.55L147.43,1418.28L147.54,1418.28C196.72,1423.16 246.32,1430.63 294.96,1440.5L295.11,1440.53L295.11,1410.78L295.01,1410.76C246.37,1400.89 196.76,1393.42 147.57,1388.55Z" style="fill-rule:nonzero;"/>
            <path d="M0.12,1440.22L0,1440.22L0,1469.96L0.12,1469.96C49.23,1469.96 98.83,1472.41 147.54,1477.24L147.68,1477.24L147.68,1447.51L147.57,1447.51C98.86,1442.67 49.25,1440.22 0.12,1440.22Z" style="fill-rule:nonzero;"/>
        </g>
    </g>
</svg>
