<?xml version="1.0" encoding="UTF-8" standalone="no"?>
<!DOCTYPE svg PUBLIC "-//W3C//DTD SVG 1.1//EN" "http://www.w3.org/Graphics/SVG/1.1/DTD/svg11.dtd">
<svg width="100%" height="100%" viewBox="0 0 1246 1248" version="1.1" xmlns="http://www.w3.org/2000/svg" xmlns:xlink="http://www.w3.org/1999/xlink" xml:space="preserve" xmlns:serif="http://www.serif.com/" style="fill-rule:evenodd;clip-rule:evenodd;stroke-linejoin:round;stroke-miterlimit:2;">
    <g id="Graphic">
        <g>
            <path d="M1245.37,63.14C1205.3,39.93 1163.4,18.75 1120.85,0.17L1120.47,0L1120.47,49.8C1080.04,32.14 1038.27,16.51 996.32,3.34L995.96,3.23L995.96,53.01C955.26,40.25 913.49,29.49 871.8,21.03L871.47,20.96L871.47,70.76C830.49,62.46 788.71,56.17 747.29,52.07L746.99,52.04L746.99,101.84C706.03,97.79 664.33,95.73 623.04,95.72C581.75,95.71 622.77,95.72 622.77,95.72L622.5,95.72C581.21,95.73 539.51,97.79 498.55,101.84L498.55,52.03L498.25,52.06C456.82,56.16 415.04,62.45 374.06,70.75L374.06,20.97L373.73,21.04C332.03,29.5 290.26,40.26 249.56,53.02L249.56,3.23L249.2,3.34C207.24,16.51 165.47,32.14 125.04,49.8L125.04,0L124.66,0.17C82.11,18.74 40.22,39.93 0.14,63.14L0,63.22L0,238.15L0.41,237.91C40.35,214.78 82.09,193.66 124.49,175.14L124.49,224.94L124.87,224.77C165.29,207.1 207.05,191.46 249,178.27L249,228.05L249.36,227.94C290.04,215.17 331.8,204.41 373.5,195.93L373.5,245.67L373.87,245.67C414.59,237.38 456.35,231.08 497.99,226.95L497.99,276.75L498.29,276.72C539.41,272.64 581.28,270.57 622.76,270.57C664.23,270.57 706.11,272.64 747.22,276.72L747.52,276.75L747.52,226.95C789.16,231.08 830.92,237.38 871.63,245.67L872,245.67L872,195.93C913.69,204.4 955.45,215.17 996.13,227.94L996.49,228.05L996.49,178.27C1038.44,191.45 1080.2,207.09 1120.61,224.77L1120.99,224.94L1120.99,175.14C1163.39,193.67 1205.14,214.79 1245.07,237.91L1245.48,238.15L1245.48,63.22L1245.34,63.14L1245.37,63.14Z" style="fill-rule:nonzero;"/>
            <path d="M1120.85,249.16L1120.47,248.99L1120.47,298.77C1080.22,281.19 1038.45,265.56 996.32,252.31L995.96,252.2L995.96,302C955.27,289.24 913.5,278.48 871.8,270.02L871.47,269.95L871.47,319.75C830.49,311.45 788.71,305.16 747.29,301.06L746.99,301.03L746.99,350.81C706.03,346.76 664.33,344.7 623.04,344.69C581.75,344.68 622.77,344.69 622.77,344.69L622.5,344.69C581.21,344.7 539.51,346.76 498.55,350.81L498.55,301.03L498.25,301.06C456.82,305.16 415.04,311.45 374.06,319.75L374.06,269.94L373.73,270.01C332.03,278.47 290.25,289.23 249.56,301.99L249.56,252.18L249.2,252.29C207.06,265.54 165.29,281.17 125.04,298.75L125.04,248.96L124.66,249.13C82.11,267.71 40.21,288.9 0.14,312.1L-0,312.18L-0,462.2L0.41,461.96C40.35,438.83 82.1,417.71 124.49,399.19L124.49,448.97L124.87,448.8C165.12,431.2 206.87,415.56 249,402.31L249,452.11L249.36,452C290.04,439.23 331.81,428.46 373.5,419.99L373.5,469.79L373.83,469.72C414.8,461.41 456.57,455.11 497.99,451L497.99,500.8L498.29,500.77C539.4,496.69 581.27,494.62 622.76,494.62C664.24,494.62 706.12,496.69 747.22,500.77L747.52,500.8L747.52,451C788.93,455.11 830.71,461.4 871.68,469.72L872.01,469.79L872.01,419.99C913.69,428.46 955.46,439.23 996.14,452L996.5,452.11L996.5,402.31C1038.62,415.57 1080.38,431.21 1120.62,448.8L1121,448.97L1121,399.19C1163.4,417.72 1205.14,438.84 1245.08,461.96L1245.49,462.2L1245.49,312.18L1245.35,312.1C1205.28,288.9 1163.39,267.71 1120.83,249.13L1120.85,249.16Z" style="fill-rule:nonzero;"/>
            <path d="M1167.24,494.67L1167.26,494.67L1166.19,494.15C1151.45,486.96 1136.19,479.93 1120.85,473.24L1120.47,473.07L1120.47,522.87C1097.45,512.81 1073.76,503.33 1050.04,494.67L1050.08,494.67L1048.62,494.14C1031.46,487.9 1013.87,481.93 996.32,476.41L995.96,476.3L995.96,526.1C955.24,513.34 913.47,502.58 871.8,494.12L871.47,494.05L871.47,543.83C830.49,535.53 788.71,529.24 747.29,525.14L746.99,525.11L746.99,574.91C706.03,570.86 664.33,568.8 623.04,568.79C581.75,568.78 622.77,568.79 622.77,568.79L622.5,568.79C581.21,568.8 539.51,570.86 498.55,574.91L498.55,525.1L498.25,525.13C456.82,529.23 415.04,535.52 374.06,543.82L374.06,494.03L373.73,494.1C332.05,502.55 290.27,513.31 249.56,526.08L249.56,476.27L249.2,476.38C231.65,481.9 214.05,487.87 196.9,494.11L195.44,494.64L195.48,494.64C171.76,503.3 148.08,512.78 125.05,522.85L125.05,473.04L124.67,473.21C109.31,479.91 94.06,486.94 79.33,494.12L78.26,494.64L78.28,494.64C51.81,507.51 25.52,521.47 0.14,536.18L-0,536.26L-0,661.41L0.41,661.17C26.13,646.28 52.77,632.13 79.6,619.1C94.4,611.9 109.5,604.93 124.49,598.39L124.49,648.17L124.87,648C148.47,637.68 172.75,627.96 197.03,619.12L197.08,619.1C214.12,612.9 231.58,606.98 249,601.5L249,651.3L249.36,651.19C290.03,638.42 331.8,627.66 373.5,619.18L373.5,668.99L373.83,668.92C414.79,660.61 456.57,654.31 497.99,650.2L497.99,699.98L498.29,699.95C539.41,695.87 581.29,693.8 622.76,693.8C664.23,693.8 706.1,695.87 747.22,699.95L747.52,699.98L747.52,650.2C788.94,654.31 830.71,660.6 871.68,668.92L872.01,668.99L872.01,619.18C913.7,627.65 955.46,638.42 996.14,651.19L996.5,651.3L996.5,601.5C1013.9,606.98 1031.37,612.9 1048.42,619.1C1072.72,627.94 1097.02,637.66 1120.63,647.99L1121.01,648.16L1121.01,598.38C1136,604.92 1151.1,611.89 1165.9,619.09C1192.74,632.12 1219.38,646.27 1245.09,661.16L1245.5,661.4L1245.5,536.25L1245.36,536.17C1219.99,521.47 1193.71,507.5 1167.23,494.63L1167.24,494.67Z" style="fill-rule:nonzero;"/>
            <path d="M1120.85,672.43L1120.47,672.26L1120.47,722.07C1080.05,704.41 1038.29,688.78 996.32,675.61L995.96,675.5L995.96,725.3C955.26,712.54 913.49,701.78 871.8,693.32L871.47,693.25L871.47,743.03C830.72,734.76 788.94,728.46 747.29,724.34L746.99,724.31L746.99,774.11C706.03,770.06 664.33,768 623.04,767.99C581.75,767.98 622.77,767.99 622.77,767.99L622.5,767.99C581.21,768 539.51,770.06 498.55,774.11L498.55,724.3L498.25,724.33C456.6,728.45 414.82,734.75 374.06,743.03L374.06,693.24L373.73,693.31C332.03,701.77 290.26,712.53 249.56,725.29L249.56,675.48L249.2,675.59C207.23,688.76 165.46,704.4 125.04,722.06L125.04,672.25L124.66,672.42C82.11,691 40.22,712.18 0.14,735.39L-0,735.47L-0,835.71L0.41,835.47C40.35,812.34 82.1,791.22 124.49,772.7L124.49,822.48L124.87,822.31C165.1,804.72 206.86,789.08 249,775.81L249,825.61L249.36,825.5C290.03,812.73 331.8,801.97 373.5,793.49L373.5,843.29L373.83,843.22C414.8,834.91 456.57,828.61 497.99,824.5L497.99,874.28L498.29,874.25C539.41,870.17 581.29,868.1 622.76,868.1C664.23,868.1 706.1,870.17 747.22,874.25L747.52,874.28L747.52,824.5C788.94,828.61 830.71,834.91 871.68,843.22L872.01,843.29L872.01,793.49C913.7,801.96 955.46,812.73 996.14,825.5L996.5,825.61L996.5,775.81C1038.63,789.07 1080.39,804.71 1120.62,822.31L1121,822.48L1121,772.7C1163.4,791.23 1205.14,812.35 1245.08,835.47L1245.49,835.71L1245.49,735.47L1245.35,735.39C1205.28,712.18 1163.38,691 1120.83,672.42L1120.85,672.43Z" style="fill-rule:nonzero;"/>
            <path d="M1167.19,868.13L1167.21,868.13L1166.14,867.61C1151.21,860.34 1135.98,853.32 1120.85,846.72L1120.47,846.55L1120.47,896.35C1097.51,886.31 1073.81,876.82 1049.98,868.12L1050.01,868.12L1048.55,867.59C1031.26,861.29 1013.69,855.34 996.32,849.89L995.96,849.78L995.96,899.58C955.24,886.82 913.47,876.06 871.8,867.6L871.47,867.53L871.47,917.31C830.49,909.01 788.71,902.72 747.29,898.62L746.99,898.59L746.99,948.39C706.03,944.34 664.33,942.28 623.04,942.27C581.75,942.26 622.77,942.27 622.77,942.27L622.5,942.27C581.21,942.28 539.51,944.34 498.55,948.39L498.55,898.58L498.25,898.61C456.82,902.71 415.04,909 374.06,917.3L374.06,867.51L373.73,867.58C332.05,876.03 290.27,886.79 249.56,899.56L249.56,849.75L249.2,849.86C231.83,855.31 214.26,861.26 196.97,867.56L195.51,868.09L195.54,868.09C171.7,876.79 147.99,886.28 125.04,896.32L125.04,846.51L124.66,846.68C109.54,853.27 94.3,860.3 79.37,867.57L78.3,868.09L78.32,868.09C51.83,880.98 25.53,894.95 0.14,909.65L0,909.73L0,985.07L0.41,984.83C40.35,961.7 82.1,940.58 124.49,922.06L124.49,971.84L124.87,971.67C165.1,954.08 206.86,938.44 249,925.17L249,974.97L249.36,974.86C290.04,962.09 331.8,951.33 373.5,942.85L373.5,992.59L373.87,992.59C414.58,984.3 456.34,978 497.99,973.87L497.99,1023.67L498.29,1023.64C539.42,1019.56 581.29,1017.49 622.76,1017.49C664.22,1017.49 706.09,1019.56 747.22,1023.64L747.52,1023.67L747.52,973.87C789.17,978.01 830.93,984.3 871.63,992.59L872,992.59L872,942.86C913.68,951.33 955.45,962.1 996.13,974.87L996.49,974.98L996.49,925.18C1038.62,938.44 1080.38,954.08 1120.61,971.68L1120.99,971.85L1120.99,922.07C1163.39,940.6 1205.13,961.72 1245.07,984.84L1245.48,985.08L1245.48,909.74L1245.34,909.66C1219.95,894.96 1193.65,880.99 1167.16,868.1L1167.19,868.13Z" style="fill-rule:nonzero;"/>
            <path d="M1120.85,996.12L1120.47,995.95L1120.47,1045.76C1080.05,1028.1 1038.28,1012.47 996.32,999.3L995.96,999.19L995.96,1049C955.27,1036.24 913.5,1025.48 871.8,1017.02L871.47,1016.95L871.47,1066.74C830.49,1058.44 788.71,1052.15 747.29,1048.05L746.99,1048.02L746.99,1097.83C706.05,1093.78 664.35,1091.72 623.04,1091.71C581.73,1091.7 622.77,1091.71 622.77,1091.71L622.5,1091.71C581.19,1091.72 539.49,1093.78 498.55,1097.83L498.55,1048.02L498.25,1048.05C456.82,1052.15 415.04,1058.44 374.06,1066.74L374.06,1016.95L373.73,1017.02C332.02,1025.48 290.25,1036.24 249.56,1049L249.56,999.19L249.2,999.3C207.24,1012.47 165.47,1028.1 125.04,1045.76L125.04,995.95L124.66,996.12C82.11,1014.7 40.22,1035.88 0.14,1059.09L-0,1059.17L-0,1109.61L0.41,1109.37C40.35,1086.24 82.1,1065.12 124.49,1046.6L124.49,1096.4L124.87,1096.23C165.28,1078.56 207.04,1062.92 249,1049.74L249,1099.52L249.36,1099.41C290.05,1086.64 331.82,1075.87 373.5,1067.4L373.5,1117.14L373.87,1117.14C414.6,1108.84 456.36,1102.55 497.99,1098.42L497.99,1148.22L498.29,1148.19C539.42,1144.11 581.29,1142.04 622.76,1142.04C664.22,1142.04 706.09,1144.11 747.22,1148.19L747.52,1148.22L747.52,1098.42C789.15,1102.55 830.91,1108.85 871.63,1117.14L872,1117.14L872,1067.41C913.67,1075.88 955.44,1086.64 996.13,1099.42L996.49,1099.53L996.49,1049.75C1038.44,1062.93 1080.2,1078.57 1120.61,1096.24L1120.99,1096.41L1120.99,1046.61C1163.39,1065.14 1205.13,1086.26 1245.07,1109.38L1245.48,1109.62L1245.48,1059.18L1245.34,1059.1C1205.27,1035.89 1163.37,1014.71 1120.82,996.13L1120.85,996.12Z" style="fill-rule:nonzero;"/>
            <path d="M1120.85,1120.63L1120.47,1120.46L1120.47,1145.94L1120.64,1146.01C1163.17,1164.58 1205.05,1185.76 1245.1,1208.95L1245.51,1209.19L1245.51,1183.68L1245.37,1183.6C1205.3,1160.39 1163.4,1139.21 1120.85,1120.63Z" style="fill-rule:nonzero;"/>
            <path d="M996.31,1123.78L995.95,1123.67L995.95,1149.15L996.14,1149.21C1038.2,1162.41 1080.08,1178.1 1120.62,1195.82L1121,1195.99L1121,1170.49L1120.83,1170.42C1080.47,1152.77 1038.57,1137.08 996.29,1123.79L996.31,1123.78Z" style="fill-rule:nonzero;"/>
            <path d="M871.8,1141.49L871.47,1141.42L871.47,1166.88L871.69,1166.92C913.49,1175.4 955.37,1186.19 996.15,1199L996.51,1199.11L996.51,1173.63L996.32,1173.57C955.51,1160.76 913.62,1149.97 871.8,1141.48L871.8,1141.49Z" style="fill-rule:nonzero;"/>
            <path d="M747.28,1172.54L746.98,1172.51L746.98,1197.96L747.23,1197.98C788.75,1202.09 830.62,1208.4 871.69,1216.73L872.02,1216.8L872.02,1191.34L871.8,1191.3C830.72,1182.96 788.82,1176.65 747.29,1172.54L747.28,1172.54Z" style="fill-rule:nonzero;"/>
            <path d="M623.03,1216.17L622.49,1216.17C581.1,1216.18 539.29,1218.25 498.23,1222.32L497.98,1222.34L497.98,1247.79L498.28,1247.76C539.41,1243.68 581.28,1241.61 622.75,1241.61C664.21,1241.61 706.08,1243.68 747.21,1247.76L747.51,1247.79L747.51,1222.34L747.26,1222.32C706.2,1218.25 664.4,1216.18 623.01,1216.17L623.03,1216.17Z" style="fill-rule:nonzero;"/>
            <path d="M125.04,1145.94L125.04,1120.46L124.66,1120.63C82.11,1139.21 40.22,1160.39 0.14,1183.6L0,1183.68L0,1209.19L0.41,1208.95C40.47,1185.75 82.35,1164.57 124.88,1146.01L125.05,1145.94L125.04,1145.94Z" style="fill-rule:nonzero;"/>
            <path d="M249.55,1149.14L249.55,1123.66L249.19,1123.77C206.92,1137.06 165.01,1152.75 124.65,1170.4L124.48,1170.47L124.48,1195.97L124.86,1195.8C165.4,1178.08 207.28,1162.39 249.34,1149.19L249.53,1149.13L249.55,1149.14Z" style="fill-rule:nonzero;"/>
            <path d="M374.05,1166.89L374.05,1141.43L373.72,1141.5C331.9,1149.99 290,1160.78 249.2,1173.59L249.01,1173.65L249.01,1199.13L249.37,1199.02C290.15,1186.22 332.03,1175.43 373.84,1166.94L374.06,1166.9L374.05,1166.89Z" style="fill-rule:nonzero;"/>
            <path d="M498.54,1197.96L498.54,1172.51L498.24,1172.54C456.7,1176.65 414.8,1182.96 373.72,1191.3L373.5,1191.34L373.5,1216.8L373.83,1216.73C414.9,1208.4 456.77,1202.09 498.3,1197.98L498.55,1197.96L498.54,1197.96Z" style="fill-rule:nonzero;"/>
        </g>
    </g>
</svg>
