<?xml version="1.0" encoding="UTF-8" standalone="no"?>
<!DOCTYPE svg PUBLIC "-//W3C//DTD SVG 1.1//EN" "http://www.w3.org/Graphics/SVG/1.1/DTD/svg11.dtd">
<svg width="100%" height="100%" viewBox="0 0 1121 1123" version="1.1" xmlns="http://www.w3.org/2000/svg" xmlns:xlink="http://www.w3.org/1999/xlink" xml:space="preserve" xmlns:serif="http://www.serif.com/" style="fill-rule:evenodd;clip-rule:evenodd;stroke-linejoin:round;stroke-miterlimit:2;">
    <g id="Graphic" transform="matrix(0.500009,0,0,0.500009,-2.22041e-16,0)">
        <g>
            <path d="M1120.18,0L278.7,0L278.7,0.26L110.67,0.26L110.67,16.39L4.65,14.96L0,15.02L0,150.6L4.08,150.05L110.66,164.36L110.66,196.65L4.01,179.47L3.97,179.47L-0,180.1L-0,300.55L3.45,299.63L110.67,328.4L110.67,360.67L3.4,329.03L3.33,329.01L0,329.97L0,435.36L2.9,434.24L110.67,476.12L110.67,508.44L2.85,463.64L2.76,463.6L0,464.73L0,555.06L2.38,553.89L110.66,607.55L110.66,639.84L2.38,583.31L2.27,583.25L0.01,584.43L0.01,659.72L1.96,658.59L110.68,722.59L110.68,754.9L1.96,688L1.83,687.92L0,689.04L0,749.39L1.57,748.34L110.67,821.26L110.67,853.57L1.59,777.75L1.45,777.65L0,778.65L0,824.02L1.26,823.11L110.67,903.53L110.67,921.13L278.58,1004.77L278.71,1004.83L278.71,1005.07L502.94,1088.88L503.27,1089L503.27,1069.02L279.04,986.71L278.94,986.67L278.94,968.44L112.17,888.32L112.17,855.9L278.59,932.91L278.71,932.97L278.71,951.17L502.78,1030.45L502.95,1030.51L503.28,1030.62L503.28,1030.6L783.38,1109.99L783.69,1110.08L783.69,1088.61L503.27,1010.64L503.27,991.2L279.03,914.85L278.94,914.82L278.94,879.41L502.78,952.66L502.78,972.12L783.2,1047.11L783.39,1047.16L783.69,1047.24L1119.89,1122.14L1120.19,1122.21L1120.19,1099.27L783.69,1025.79L783.69,1004.87L503.27,932.85L503.27,894.46L783.19,963.37L783.19,984.31L1119.89,1054.87L1120.19,1054.93L1120.19,1009.55L783.69,942.02L783.69,900.64L1119.9,965.12L1120.19,965.18L1120.19,897.39L783.69,837.34L783.69,795.97L1119.9,852.97L1120.19,853.02L1120.19,762.79L783.69,711.7L783.69,670.32L1119.91,718.37L1120.19,718.41L1120.19,605.74L783.69,565.14L783.69,523.78L1119.91,561.33L1120.18,561.36L1120.18,426.26L783.68,397.67L783.68,356.31L1119.91,381.87L1120.18,381.89L1120.18,224.35L783.68,209.27L783.68,167.92L1119.92,179.96L1120.18,179.96L1120.18,0ZM278.7,843.21L278.7,878.58L112.16,805.95L112.16,773.5L278.59,843.16L278.7,843.21ZM278.7,735.71L278.7,770.87L112.16,707.08L112.16,674.67L278.6,735.48L278.7,735.52L278.7,735.72L278.7,735.71ZM278.7,609.89L278.7,645.26L112.16,591.8L112.16,559.39L278.61,609.86L278.7,609.89ZM278.7,466.39L278.7,501.76L112.16,460.14L112.16,427.74L278.63,466.37L278.7,466.39ZM278.7,305.05L278.7,340.4L112.16,312.14L112.16,279.76L278.65,305.05L278.7,305.05ZM278.7,125.87L278.7,161.21L112.16,147.79L112.16,115.44L278.67,125.87L278.7,125.87ZM502.77,855.45L502.77,893.82L278.93,825.02L278.93,789.63L502.77,855.45ZM502.77,738.77L502.77,777.16L279.01,717.31L278.93,717.29L278.93,681.89L502.77,738.77ZM502.77,602.7L502.77,641.07L279,591.66L278.93,591.64L278.93,556.25L502.77,602.7ZM502.77,447.23L502.77,485.6L278.99,448.14L278.93,448.14L278.93,412.76L502.77,447.23ZM502.77,272.37L502.77,310.73L278.97,286.72L278.93,286.72L278.93,251.36L502.77,272.37ZM502.77,78.16L502.77,116.52L278.96,107.51L278.93,107.51L278.93,72.15L502.77,78.16ZM783.19,858.68L783.19,900.04L503.27,835.61L503.27,797.24L783.19,858.68ZM783.19,733.05L783.19,774.41L503.27,718.93L503.27,680.57L783.19,733.05ZM783.19,586.5L783.19,627.88L503.27,582.87L503.27,544.5L783.19,586.5ZM783.19,419.05L783.19,460.4L503.27,427.36L503.27,389.02L783.19,419.05ZM783.19,230.68L783.19,272.05L503.27,252.52L503.27,214.16L783.19,230.69L783.19,230.68ZM783.19,21.42L783.19,62.77L503.27,58.27L503.27,19.92L783.19,21.42Z" style="fill-rule:nonzero;"/>
            <path d="M112.16,954.3L112.16,936.96L1.29,852.53L1.14,852.41L0,853.27L0,883.74L1,882.95L110.67,969.38L110.67,970.59L278.57,1058.66L278.93,1058.86L278.93,1040.33L112.16,954.3Z" style="fill-rule:nonzero;"/>
            <path d="M0,912.95L0,928.51L0.82,927.83L111.75,1019.68L112.16,1020.01L112.16,1002.89L0.88,912.23L0,912.95Z" style="fill-rule:nonzero;"/>
        </g>
        <g transform="matrix(1,0,0,-1,0,2244.42)">
            <path d="M1120.18,0L278.7,0L278.7,0.26L110.67,0.26L110.67,16.39L4.65,14.96L0,15.02L0,150.6L4.08,150.05L110.66,164.36L110.66,196.65L4.01,179.47L3.97,179.47L-0,180.1L-0,300.55L3.45,299.63L110.67,328.4L110.67,360.67L3.4,329.03L3.33,329.01L0,329.97L0,435.36L2.9,434.24L110.67,476.12L110.67,508.44L2.85,463.64L2.76,463.6L0,464.73L0,555.06L2.38,553.89L110.66,607.55L110.66,639.84L2.38,583.31L2.27,583.25L0.01,584.43L0.01,659.72L1.96,658.59L110.68,722.59L110.68,754.9L1.96,688L1.83,687.92L0,689.04L0,749.39L1.57,748.34L110.67,821.26L110.67,853.57L1.59,777.75L1.45,777.65L0,778.65L0,824.02L1.26,823.11L110.67,903.53L110.67,921.13L278.58,1004.77L278.71,1004.83L278.71,1005.07L502.94,1088.88L503.27,1089L503.27,1069.02L279.04,986.71L278.94,986.67L278.94,968.44L112.17,888.32L112.17,855.9L278.59,932.91L278.71,932.97L278.71,951.17L502.78,1030.45L502.95,1030.51L503.28,1030.62L503.28,1030.6L783.38,1109.99L783.69,1110.08L783.69,1088.61L503.27,1010.64L503.27,991.2L279.03,914.85L278.94,914.82L278.94,879.41L502.78,952.66L502.78,972.12L783.2,1047.11L783.39,1047.16L783.69,1047.24L1119.89,1122.14L1120.19,1122.21L1120.19,1099.27L783.69,1025.79L783.69,1004.87L503.27,932.85L503.27,894.46L783.19,963.37L783.19,984.31L1119.89,1054.87L1120.19,1054.93L1120.19,1009.55L783.69,942.02L783.69,900.64L1119.9,965.12L1120.19,965.18L1120.19,897.39L783.69,837.34L783.69,795.97L1119.9,852.97L1120.19,853.02L1120.19,762.79L783.69,711.7L783.69,670.32L1119.91,718.37L1120.19,718.41L1120.19,605.74L783.69,565.14L783.69,523.78L1119.91,561.33L1120.18,561.36L1120.18,426.26L783.68,397.67L783.68,356.31L1119.91,381.87L1120.18,381.89L1120.18,224.35L783.68,209.27L783.68,167.92L1119.92,179.96L1120.18,179.96L1120.18,0ZM278.7,843.21L278.7,878.58L112.16,805.95L112.16,773.5L278.59,843.16L278.7,843.21ZM278.7,735.71L278.7,770.87L112.16,707.08L112.16,674.67L278.6,735.48L278.7,735.52L278.7,735.72L278.7,735.71ZM278.7,609.89L278.7,645.26L112.16,591.8L112.16,559.39L278.61,609.86L278.7,609.89ZM278.7,466.39L278.7,501.76L112.16,460.14L112.16,427.74L278.63,466.37L278.7,466.39ZM278.7,305.05L278.7,340.4L112.16,312.14L112.16,279.76L278.65,305.05L278.7,305.05ZM278.7,125.87L278.7,161.21L112.16,147.79L112.16,115.44L278.67,125.87L278.7,125.87ZM502.77,855.45L502.77,893.82L278.93,825.02L278.93,789.63L502.77,855.45ZM502.77,738.77L502.77,777.16L279.01,717.31L278.93,717.29L278.93,681.89L502.77,738.77ZM502.77,602.7L502.77,641.07L279,591.66L278.93,591.64L278.93,556.25L502.77,602.7ZM502.77,447.23L502.77,485.6L278.99,448.14L278.93,448.14L278.93,412.76L502.77,447.23ZM502.77,272.37L502.77,310.73L278.97,286.72L278.93,286.72L278.93,251.36L502.77,272.37ZM502.77,78.16L502.77,116.52L278.96,107.51L278.93,107.51L278.93,72.15L502.77,78.16ZM783.19,858.68L783.19,900.04L503.27,835.61L503.27,797.24L783.19,858.68ZM783.19,733.05L783.19,774.41L503.27,718.93L503.27,680.57L783.19,733.05ZM783.19,586.5L783.19,627.88L503.27,582.87L503.27,544.5L783.19,586.5ZM783.19,419.05L783.19,460.4L503.27,427.36L503.27,389.02L783.19,419.05ZM783.19,230.68L783.19,272.05L503.27,252.52L503.27,214.16L783.19,230.69L783.19,230.68ZM783.19,21.42L783.19,62.77L503.27,58.27L503.27,19.92L783.19,21.42Z" style="fill-rule:nonzero;"/>
            <path d="M112.16,954.3L112.16,936.96L1.29,852.53L1.14,852.41L0,853.27L0,883.74L1,882.95L110.67,969.38L110.67,970.59L278.57,1058.66L278.93,1058.86L278.93,1040.33L112.16,954.3Z" style="fill-rule:nonzero;"/>
            <path d="M0,912.95L0,928.51L0.82,927.83L111.75,1019.68L112.16,1020.01L112.16,1002.89L0.88,912.23L0,912.95Z" style="fill-rule:nonzero;"/>
        </g>
        <g transform="matrix(-1,0,0,1,2240.38,0)">
            <path d="M1120.18,0L278.7,0L278.7,0.26L110.67,0.26L110.67,16.39L4.65,14.96L0,15.02L0,150.6L4.08,150.05L110.66,164.36L110.66,196.65L4.01,179.47L3.97,179.47L-0,180.1L-0,300.55L3.45,299.63L110.67,328.4L110.67,360.67L3.4,329.03L3.33,329.01L0,329.97L0,435.36L2.9,434.24L110.67,476.12L110.67,508.44L2.85,463.64L2.76,463.6L0,464.73L0,555.06L2.38,553.89L110.66,607.55L110.66,639.84L2.38,583.31L2.27,583.25L0.01,584.43L0.01,659.72L1.96,658.59L110.68,722.59L110.68,754.9L1.96,688L1.83,687.92L0,689.04L0,749.39L1.57,748.34L110.67,821.26L110.67,853.57L1.59,777.75L1.45,777.65L0,778.65L0,824.02L1.26,823.11L110.67,903.53L110.67,921.13L278.58,1004.77L278.71,1004.83L278.71,1005.07L502.94,1088.88L503.27,1089L503.27,1069.02L279.04,986.71L278.94,986.67L278.94,968.44L112.17,888.32L112.17,855.9L278.59,932.91L278.71,932.97L278.71,951.17L502.78,1030.45L502.95,1030.51L503.28,1030.62L503.28,1030.6L783.38,1109.99L783.69,1110.08L783.69,1088.61L503.27,1010.64L503.27,991.2L279.03,914.85L278.94,914.82L278.94,879.41L502.78,952.66L502.78,972.12L783.2,1047.11L783.39,1047.16L783.69,1047.24L1119.89,1122.14L1120.19,1122.21L1120.19,1099.27L783.69,1025.79L783.69,1004.87L503.27,932.85L503.27,894.46L783.19,963.37L783.19,984.31L1119.89,1054.87L1120.19,1054.93L1120.19,1009.55L783.69,942.02L783.69,900.64L1119.9,965.12L1120.19,965.18L1120.19,897.39L783.69,837.34L783.69,795.97L1119.9,852.97L1120.19,853.02L1120.19,762.79L783.69,711.7L783.69,670.32L1119.91,718.37L1120.19,718.41L1120.19,605.74L783.69,565.14L783.69,523.78L1119.91,561.33L1120.18,561.36L1120.18,426.26L783.68,397.67L783.68,356.31L1119.91,381.87L1120.18,381.89L1120.18,224.35L783.68,209.27L783.68,167.92L1119.92,179.96L1120.18,179.96L1120.18,0ZM278.7,843.21L278.7,878.58L112.16,805.95L112.16,773.5L278.59,843.16L278.7,843.21ZM278.7,735.71L278.7,770.87L112.16,707.08L112.16,674.67L278.6,735.48L278.7,735.52L278.7,735.72L278.7,735.71ZM278.7,609.89L278.7,645.26L112.16,591.8L112.16,559.39L278.61,609.86L278.7,609.89ZM278.7,466.39L278.7,501.76L112.16,460.14L112.16,427.74L278.63,466.37L278.7,466.39ZM278.7,305.05L278.7,340.4L112.16,312.14L112.16,279.76L278.65,305.05L278.7,305.05ZM278.7,125.87L278.7,161.21L112.16,147.79L112.16,115.44L278.67,125.87L278.7,125.87ZM502.77,855.45L502.77,893.82L278.93,825.02L278.93,789.63L502.77,855.45ZM502.77,738.77L502.77,777.16L279.01,717.31L278.93,717.29L278.93,681.89L502.77,738.77ZM502.77,602.7L502.77,641.07L279,591.66L278.93,591.64L278.93,556.25L502.77,602.7ZM502.77,447.23L502.77,485.6L278.99,448.14L278.93,448.14L278.93,412.76L502.77,447.23ZM502.77,272.37L502.77,310.73L278.97,286.72L278.93,286.72L278.93,251.36L502.77,272.37ZM502.77,78.16L502.77,116.52L278.96,107.51L278.93,107.51L278.93,72.15L502.77,78.16ZM783.19,858.68L783.19,900.04L503.27,835.61L503.27,797.24L783.19,858.68ZM783.19,733.05L783.19,774.41L503.27,718.93L503.27,680.57L783.19,733.05ZM783.19,586.5L783.19,627.88L503.27,582.87L503.27,544.5L783.19,586.5ZM783.19,419.05L783.19,460.4L503.27,427.36L503.27,389.02L783.19,419.05ZM783.19,230.68L783.19,272.05L503.27,252.52L503.27,214.16L783.19,230.69L783.19,230.68ZM783.19,21.42L783.19,62.77L503.27,58.27L503.27,19.92L783.19,21.42Z" style="fill-rule:nonzero;"/>
            <path d="M112.16,954.3L112.16,936.96L1.29,852.53L1.14,852.41L0,853.27L0,883.74L1,882.95L110.67,969.38L110.67,970.59L278.57,1058.66L278.93,1058.86L278.93,1040.33L112.16,954.3Z" style="fill-rule:nonzero;"/>
            <path d="M0,912.95L0,928.51L0.82,927.83L111.75,1019.68L112.16,1020.01L112.16,1002.89L0.88,912.23L0,912.95Z" style="fill-rule:nonzero;"/>
        </g>
        <g transform="matrix(-1,0,0,-1,2240.38,2244.42)">
            <path d="M1120.18,0L278.7,0L278.7,0.26L110.67,0.26L110.67,16.39L4.65,14.96L0,15.02L0,150.6L4.08,150.05L110.66,164.36L110.66,196.65L4.01,179.47L3.97,179.47L-0,180.1L-0,300.55L3.45,299.63L110.67,328.4L110.67,360.67L3.4,329.03L3.33,329.01L0,329.97L0,435.36L2.9,434.24L110.67,476.12L110.67,508.44L2.85,463.64L2.76,463.6L0,464.73L0,555.06L2.38,553.89L110.66,607.55L110.66,639.84L2.38,583.31L2.27,583.25L0.01,584.43L0.01,659.72L1.96,658.59L110.68,722.59L110.68,754.9L1.96,688L1.83,687.92L0,689.04L0,749.39L1.57,748.34L110.67,821.26L110.67,853.57L1.59,777.75L1.45,777.65L0,778.65L0,824.02L1.26,823.11L110.67,903.53L110.67,921.13L278.58,1004.77L278.71,1004.83L278.71,1005.07L502.94,1088.88L503.27,1089L503.27,1069.02L279.04,986.71L278.94,986.67L278.94,968.44L112.17,888.32L112.17,855.9L278.59,932.91L278.71,932.97L278.71,951.17L502.78,1030.45L502.95,1030.51L503.28,1030.62L503.28,1030.6L783.38,1109.99L783.69,1110.08L783.69,1088.61L503.27,1010.64L503.27,991.2L279.03,914.85L278.94,914.82L278.94,879.41L502.78,952.66L502.78,972.12L783.2,1047.11L783.39,1047.16L783.69,1047.24L1119.89,1122.14L1120.19,1122.21L1120.19,1099.27L783.69,1025.79L783.69,1004.87L503.27,932.85L503.27,894.46L783.19,963.37L783.19,984.31L1119.89,1054.87L1120.19,1054.93L1120.19,1009.55L783.69,942.02L783.69,900.64L1119.9,965.12L1120.19,965.18L1120.19,897.39L783.69,837.34L783.69,795.97L1119.9,852.97L1120.19,853.02L1120.19,762.79L783.69,711.7L783.69,670.32L1119.91,718.37L1120.19,718.41L1120.19,605.74L783.69,565.14L783.69,523.78L1119.91,561.33L1120.18,561.36L1120.18,426.26L783.68,397.67L783.68,356.31L1119.91,381.87L1120.18,381.89L1120.18,224.35L783.68,209.27L783.68,167.92L1119.92,179.96L1120.18,179.96L1120.18,0ZM278.7,843.21L278.7,878.58L112.16,805.95L112.16,773.5L278.59,843.16L278.7,843.21ZM278.7,735.71L278.7,770.87L112.16,707.08L112.16,674.67L278.6,735.48L278.7,735.52L278.7,735.72L278.7,735.71ZM278.7,609.89L278.7,645.26L112.16,591.8L112.16,559.39L278.61,609.86L278.7,609.89ZM278.7,466.39L278.7,501.76L112.16,460.14L112.16,427.74L278.63,466.37L278.7,466.39ZM278.7,305.05L278.7,340.4L112.16,312.14L112.16,279.76L278.65,305.05L278.7,305.05ZM278.7,125.87L278.7,161.21L112.16,147.79L112.16,115.44L278.67,125.87L278.7,125.87ZM502.77,855.45L502.77,893.82L278.93,825.02L278.93,789.63L502.77,855.45ZM502.77,738.77L502.77,777.16L279.01,717.31L278.93,717.29L278.93,681.89L502.77,738.77ZM502.77,602.7L502.77,641.07L279,591.66L278.93,591.64L278.93,556.25L502.77,602.7ZM502.77,447.23L502.77,485.6L278.99,448.14L278.93,448.14L278.93,412.76L502.77,447.23ZM502.77,272.37L502.77,310.73L278.97,286.72L278.93,286.72L278.93,251.36L502.77,272.37ZM502.77,78.16L502.77,116.52L278.96,107.51L278.93,107.51L278.93,72.15L502.77,78.16ZM783.19,858.68L783.19,900.04L503.27,835.61L503.27,797.24L783.19,858.68ZM783.19,733.05L783.19,774.41L503.27,718.93L503.27,680.57L783.19,733.05ZM783.19,586.5L783.19,627.88L503.27,582.87L503.27,544.5L783.19,586.5ZM783.19,419.05L783.19,460.4L503.27,427.36L503.27,389.02L783.19,419.05ZM783.19,230.68L783.19,272.05L503.27,252.52L503.27,214.16L783.19,230.69L783.19,230.68ZM783.19,21.42L783.19,62.77L503.27,58.27L503.27,19.92L783.19,21.42Z" style="fill-rule:nonzero;"/>
            <path d="M112.16,954.3L112.16,936.96L1.29,852.53L1.14,852.41L0,853.27L0,883.74L1,882.95L110.67,969.38L110.67,970.59L278.57,1058.66L278.93,1058.86L278.93,1040.33L112.16,954.3Z" style="fill-rule:nonzero;"/>
            <path d="M0,912.95L0,928.51L0.82,927.83L111.75,1019.68L112.16,1020.01L112.16,1002.89L0.88,912.23L0,912.95Z" style="fill-rule:nonzero;"/>
        </g>
    </g>
</svg>
