<?xml version="1.0" encoding="UTF-8" standalone="no"?>
<!DOCTYPE svg PUBLIC "-//W3C//DTD SVG 1.1//EN" "http://www.w3.org/Graphics/SVG/1.1/DTD/svg11.dtd">
<svg width="100%" height="100%" viewBox="0 0 1121 1123" version="1.1" xmlns="http://www.w3.org/2000/svg" xmlns:xlink="http://www.w3.org/1999/xlink" xml:space="preserve" xmlns:serif="http://www.serif.com/" style="fill-rule:evenodd;clip-rule:evenodd;stroke-linejoin:round;stroke-miterlimit:2;">
    <g transform="matrix(-0.804605,0,0,0.806338,1119.89,0)">
        <path d="M0,18.627L0,0L346.381,0L346.381,0.322L137.546,0.322L137.546,20.326L5.779,18.553L0,18.627ZM1391.85,223.181L1391.85,278.217L973.993,259.531L973.993,208.25L1391.85,223.181ZM1391.85,473.584L1391.85,528.606L973.993,493.18L973.993,441.887L1391.85,473.584ZM1391.85,696.145L1391.85,751.179L974.005,700.873L974.005,649.579L1391.85,696.145ZM1391.85,890.901L1391.85,945.937L974.005,882.633L974.005,831.314L1391.85,890.901ZM1391.85,1057.83L1391.85,1112.85L974.005,1038.45L974.005,987.142L1391.85,1057.83ZM1391.85,1196.91L1391.85,1251.94L974.005,1168.27L974.005,1116.95L1391.85,1196.91ZM1391.85,1308.22L1391.85,1363.21L974.005,1272.16L974.005,1246.21L625.487,1156.9L625.487,1109.29L973.384,1194.75L973.384,1220.72L1391.85,1308.22ZM1391.85,1391.65L0,1391.65L0,1151.52L1.019,1150.67L138.888,1264.58L139.398,1264.99L139.398,1243.76L1.094,1131.33L0,1132.22L0,1095.99L1.243,1095.01L137.546,1202.2L137.546,1203.7L346.219,1312.92L346.667,1313.17L346.667,1290.19L139.398,1183.5L139.398,1161.99L1.603,1057.29L1.417,1057.14L0,1058.2L0,1021.93L1.566,1020.8L137.546,1120.54L137.546,1142.36L346.232,1246.09L346.393,1246.16L346.393,1246.46L625.077,1350.4L625.487,1350.55L625.487,1325.77L346.804,1223.69L346.679,1223.64L346.679,1201.04L139.41,1101.67L139.41,1061.47L346.244,1156.97L346.393,1157.05L346.393,1179.62L624.878,1277.94L625.089,1278.01L625.499,1278.15L625.499,1278.12L973.62,1376.58L974.005,1376.69L974.005,1350.07L625.487,1253.37L625.487,1229.26L346.791,1134.57L346.679,1134.54L346.679,1090.62L624.878,1181.46L624.878,1205.6L973.396,1298.6L973.633,1298.66L974.005,1298.76L1391.85,1391.65ZM0,965.662L0,929.375L1.951,928.073L137.546,1018.51L137.546,1058.58L1.976,964.546L1.802,964.422L0,965.662ZM0,854.53L0,688.372L2.958,686.921L137.533,753.468L137.533,793.514L2.958,723.406L2.821,723.332L0.012,724.795L0.012,818.168L2.436,816.767L137.558,896.138L137.558,936.208L2.436,853.24L2.274,853.141L0,854.53ZM0,576.347L0,539.923L3.604,538.534L137.546,590.472L137.546,630.555L3.542,574.995L3.43,574.945L0,576.347ZM0,409.221L-0,372.735L4.288,371.594L137.546,407.273L137.546,447.294L4.226,408.055L4.139,408.03L0,409.221ZM-0,223.356L0,186.77L5.071,186.088L137.533,203.835L137.533,243.88L4.984,222.574L4.934,222.574L-0,223.356ZM973.384,1116.21L625.487,1036.3L625.487,988.717L973.384,1064.91L973.384,1116.21ZM346.381,956.014L139.398,876.903L139.398,836.709L346.257,912.124L346.381,912.174L346.381,956.014ZM973.384,727.363L973.384,778.681L625.487,722.861L625.487,675.275L973.384,727.363ZM624.865,795.039L346.754,733.762L346.667,733.737L346.667,689.847L624.865,747.453L624.865,795.039ZM973.384,286.096L973.384,337.39L625.487,313.169L625.487,265.596L973.384,286.096ZM624.865,963.814L346.766,889.59L346.667,889.565L346.667,845.663L624.865,916.204L624.865,963.814ZM973.384,570.977L625.487,530.001L625.487,482.453L973.384,519.695L973.384,570.977ZM624.865,554.643L624.865,602.229L346.741,555.772L346.667,555.772L346.667,511.895L624.865,554.643ZM346.381,800.235L139.398,733.936L139.398,693.742L346.269,756.333L346.381,756.37L346.381,800.235ZM624.865,385.36L346.717,355.583L346.667,355.583L346.667,311.73L624.865,337.786L624.865,385.36ZM346.381,422.156L139.398,387.108L139.398,346.951L346.319,378.315L346.381,378.315L346.381,422.156ZM973.384,77.846L625.487,72.265L625.487,24.704L973.384,26.565L973.384,77.846ZM346.381,199.929L139.398,183.285L139.398,143.166L346.344,156.101L346.381,156.101L346.381,199.929ZM346.381,622.27L139.398,570.654L139.398,530.472L346.294,578.38L346.381,578.405L346.381,622.27ZM346.381,1089.59L139.398,999.519L139.398,959.275L346.244,1045.67L346.381,1045.73L346.381,1089.59ZM624.865,96.932L624.865,144.505L346.704,133.331L346.667,133.331L346.667,89.479L624.865,96.932ZM624.865,1060.91L624.865,1108.49L346.667,1023.17L346.667,979.279L624.865,1060.91ZM973.384,960.404L625.487,891.599L625.487,844.026L973.384,909.11L973.384,960.404Z"/>
    </g>
</svg>
