<?xml version="1.0" encoding="UTF-8" standalone="no"?>
<!DOCTYPE svg PUBLIC "-//W3C//DTD SVG 1.1//EN" "http://www.w3.org/Graphics/SVG/1.1/DTD/svg11.dtd">
<svg width="100%" height="100%" viewBox="0 0 736 1475" version="1.1" xmlns="http://www.w3.org/2000/svg" xmlns:xlink="http://www.w3.org/1999/xlink" xml:space="preserve" xmlns:serif="http://www.serif.com/" style="fill-rule:evenodd;clip-rule:evenodd;stroke-linejoin:round;stroke-miterlimit:2;">
    <g transform="matrix(-0.528168,0,0,1.05973,735.13,0)">
        <path d="M0,854.591L0,817.786L4.468,816.493L277.242,896.532L277.242,937.08L4.298,853.361L4.165,853.323L0,854.591ZM0,724.837L0,687.998L5.547,686.639L277.242,753.731L277.242,794.242L5.377,723.507L5.263,723.478L0,724.837ZM0,576.384L0,539.563L6.835,538.242L277.242,590.614L277.242,631.134L6.589,575.082L6.494,575.063L0,576.384ZM0,409.256L0,372.369L8.217,371.284L277.242,407.265L277.242,447.719L7.99,408.124L7.914,408.124L0,409.256ZM0,223.369L0,186.397L9.789,185.746L277.242,203.647L277.242,244.11L9.523,222.614L9.486,222.614L0,223.369ZM0,18.627L0,0L554.559,0L554.559,0.321L277.261,0.321L277.261,20.335L11.209,18.552L0,18.627ZM1391.85,222.821L1391.85,278.27L1112.71,259.567L1112.71,207.893L1391.59,222.821L1391.85,222.821ZM1391.85,473.301L1391.85,528.73L1112.71,493.268L1112.71,441.576L1391.57,473.273L1391.85,473.301ZM1391.85,695.943L1391.85,1391.65L1391.81,1391.65L1391.81,1363.55L1112.68,1272.4L1112.68,1246.43L833.486,1157.1L833.486,1109.12L1112.2,1194.6L1112.2,1220.57L1391.45,1308.06L1391.81,1308.18L1391.81,1252.24L1112.68,1168.48L1112.68,1116.8L1391.47,1196.75L1391.83,1196.86L1391.83,1113.12L1112.7,1038.63L1112.7,986.942L1391.49,1057.63L1391.83,1057.71L1391.83,946.149L1112.7,882.783L1112.7,831.081L1391.51,890.672L1391.83,890.738L1391.83,751.353L1112.7,700.991L1112.7,649.308L1391.53,695.886L1391.85,695.943ZM1391.78,1391.65L0,1391.65L0,1151.13L1.666,1150.44L277.999,1264.47L278.378,1264.63L278.378,1243.88L1.818,1131.58L0,1132.31L0,1095.6L2.102,1094.78L277.242,1202.85L277.242,1203.59L555.297,1312.79L555.676,1312.94L555.676,1290.36L278.378,1183.27L278.378,1162.11L2.594,1057.42L2.461,1057.38L0,1058.3L0,1021.56L2.745,1020.56L277.242,1121.13L277.242,1142.26L554.54,1245.67L554.54,1246.36L833.126,1350.27L833.504,1350.41L833.504,1325.99L555.657,1224.22L555.657,1201.22L278.359,1101.48L278.359,1060.89L554.521,1156.57L554.521,1179.5L833.012,1277.84L833.22,1277.91L833.486,1278.01L1112.3,1376.46L1112.68,1376.59L1112.68,1350.31L833.486,1253.6L833.486,1229.47L555.638,1135.07L555.638,1090.77L833.012,1181.35L833.012,1205.47L1112.2,1298.49L1112.36,1298.53L1112.68,1298.64L1391.45,1391.54L1391.78,1391.65ZM0,965.748L0,928.997L3.522,927.823L277.242,1019.02L277.242,1059.58L3.37,964.682L3.238,964.635L0,965.748ZM1112.24,778.804L833.523,722.969L833.523,674.994L1112.24,727.102L1112.24,778.804ZM1112.24,337.436L833.523,313.203L833.523,265.238L1112.24,285.743L1112.24,337.436ZM1112.24,571.081L833.523,530.089L833.523,482.162L1112.24,519.426L1112.24,571.081ZM833.05,385.439L555.676,355.742L555.676,311.505L833.05,337.483L833.05,385.439ZM278.378,570.543L278.378,529.995L554.54,577.979L554.54,622.207L278.378,570.543ZM833.05,795.185L555.676,734.057L555.676,689.781L833.05,747.22L833.05,795.185ZM278.378,733.783L278.378,693.216L554.54,755.902L554.54,800.149L278.378,733.783ZM278.378,387.024L278.378,346.495L554.54,377.899L554.54,422.108L278.378,387.024ZM1112.24,960.558L833.523,891.739L833.523,843.773L1112.24,908.894L1112.24,960.558ZM1112.24,1064.74L1112.24,1116.39L833.523,1036.47L833.523,988.518L1112.24,1064.74ZM833.05,602.343L555.676,556.001L555.676,511.745L833.05,554.369L833.05,602.343ZM833.05,1060.72L833.05,1108.69L555.676,1023.61L555.676,979.337L833.05,1060.72ZM833.05,963.993L555.676,889.965L555.676,845.68L833.05,916.018L833.05,963.993ZM278.378,836.149L554.54,911.687L554.54,955.925L278.378,876.735L278.378,836.149ZM833.05,144.537L555.676,133.393L555.676,89.146L833.05,96.572L833.05,144.537ZM278.378,183.245L278.378,142.763L554.54,155.71L554.54,199.9L278.378,183.245ZM1112.24,26.195L1112.24,77.86L833.523,72.273L833.523,24.336L1112.24,26.195ZM278.378,958.699L554.54,1045.23L554.54,1089.48L278.378,999.313L278.378,958.699Z"/>
    </g>
</svg>
