<?xml version="1.0" encoding="UTF-8" standalone="no"?>
<!DOCTYPE svg PUBLIC "-//W3C//DTD SVG 1.1//EN" "http://www.w3.org/Graphics/SVG/1.1/DTD/svg11.dtd">
<svg width="100%" height="100%" viewBox="0 0 1392 1392" version="1.1" xmlns="http://www.w3.org/2000/svg" xmlns:xlink="http://www.w3.org/1999/xlink" xml:space="preserve" xmlns:serif="http://www.serif.com/" style="fill-rule:evenodd;clip-rule:evenodd;stroke-linejoin:round;stroke-miterlimit:2;">
    <g id="Graphic" transform="matrix(0.5,0,0,0.5,0,0)">
        <g>
            <path d="M1391.55,70.28C1257.46,44.4 1117.32,20.77 975.01,0.06L974.58,0L974.58,55.53C861.67,35.79 745.03,18.32 627.9,3.61L627.48,3.56L627.48,59.07C536.6,44.82 443.32,32.8 350.21,23.35L349.8,23.31L349.8,78.84C280.34,69.57 209.5,62.55 139.25,57.98L138.85,57.95L138.85,113.48C93.09,108.96 46.51,106.66 0.39,106.66L0.01,106.66L0.01,301.79L0.39,301.79C46.63,301.79 93.33,304.1 139.19,308.64L139.6,308.68L139.6,253.14C210.18,257.73 280.99,264.76 350.1,274.02L350.55,274.02L350.55,218.53C443.65,227.97 536.92,239.99 627.79,254.25L628.22,254.32L628.22,198.8C745.39,213.51 862.03,230.98 974.89,250.72L975.33,250.8L975.33,195.26C1117.51,215.95 1257.5,239.55 1391.41,265.39L1391.86,265.48L1391.86,70.34L1391.56,70.28L1391.55,70.28Z" style="fill-rule:nonzero;"/>
            <path d="M975.01,277.76L974.58,277.7L974.58,333.21C862.19,313.56 745.55,296.09 627.9,281.29L627.48,281.24L627.48,336.77C536.6,322.52 443.32,310.5 350.21,301.05L349.8,301.01L349.8,356.54C280.34,347.27 209.5,340.25 139.25,335.68L138.85,335.65L138.85,391.16C93.1,386.64 46.52,384.34 0.39,384.34L0.01,384.34L0.01,551.72L0.39,551.72C46.64,551.72 93.34,554.03 139.19,558.58L139.6,558.62L139.6,503.08C209.84,507.65 280.67,514.68 350.13,523.95L350.55,524.01L350.55,468.47C443.65,477.91 536.92,489.93 627.79,504.19L628.22,504.26L628.22,448.72C745.88,463.51 862.52,480.99 974.89,500.64L975.33,500.72L975.33,445.2C1117.53,465.89 1257.52,489.49 1391.41,515.33L1391.86,515.42L1391.86,348.05L1391.56,347.99C1257.49,322.11 1117.34,298.49 975.02,277.77L975.01,277.76Z" style="fill-rule:nonzero;"/>
            <path d="M1126.78,550.99L1126.67,550.97C1077.29,542.95 1026.26,535.1 975.01,527.65L974.58,527.59L974.58,583.12C908.94,571.64 841.39,560.83 773.78,550.99C706.17,541.15 773.66,550.97 773.66,550.97C725.87,544.01 676.82,537.36 627.89,531.21L627.47,531.16L627.47,586.69C536.58,572.43 443.29,560.42 350.2,550.97L349.79,550.93L349.79,606.44C280.33,597.17 209.49,590.15 139.24,585.58L138.84,585.55L138.84,641.08C93.08,636.56 46.5,634.26 0.38,634.26L0,634.26L0,773.85L0.38,773.85C46.63,773.85 93.33,776.16 139.18,780.71L139.59,780.75L139.59,725.23C209.82,729.8 280.65,736.82 350.12,746.1L350.54,746.16L350.54,690.6C443.64,700.05 536.91,712.07 627.78,726.33L628.21,726.4L628.21,670.86C676.92,676.98 725.77,683.6 773.43,690.54C821.09,697.48 773.55,690.56 773.55,690.56C841.35,700.43 909.09,711.27 974.89,722.79L975.33,722.87L975.33,667.35C1025.68,674.66 1076.46,682.46 1126.29,690.54C1176.12,698.62 1126.4,690.56 1126.4,690.56C1216.23,705.09 1305.4,720.88 1391.41,737.48L1391.86,737.57L1391.86,597.95L1391.56,597.89C1305.63,581.29 1216.55,565.52 1126.79,551.01L1126.78,550.99Z" style="fill-rule:nonzero;"/>
            <path d="M975.01,749.81L974.58,749.75L974.58,805.28C861.66,785.54 745.02,768.07 627.9,753.36L627.48,753.31L627.48,808.84C536.6,794.59 443.32,782.57 350.21,773.12L349.8,773.08L349.8,828.6C280.73,819.35 209.89,812.33 139.25,807.73L138.85,807.7L138.85,863.23C93.09,858.71 46.51,856.41 0.39,856.41L0.01,856.41L0.01,968.22L0.39,968.22C46.64,968.22 93.34,970.53 139.19,975.08L139.6,975.12L139.6,919.6C209.85,924.17 280.68,931.2 350.13,940.47L350.55,940.53L350.55,884.99C443.65,894.43 536.93,906.45 627.79,920.71L628.22,920.78L628.22,865.24C745.85,880.03 862.48,897.5 974.89,917.16L975.33,917.24L975.33,861.72C1117.51,882.41 1257.5,906.01 1391.41,931.85L1391.86,931.94L1391.86,820.09L1391.56,820.03C1257.48,794.15 1117.33,770.53 975.02,749.81L975.01,749.81Z" style="fill-rule:nonzero;"/>
            <path d="M1126.63,967.5L1126.52,967.48C1076.61,959.38 1025.64,951.55 975.01,944.19L974.58,944.13L974.58,999.66C909.13,988.2 841.52,977.38 773.59,967.5C705.66,957.62 773.47,967.48 773.47,967.48C725.36,960.47 676.38,953.83 627.89,947.74L627.47,947.69L627.47,1003.22C536.59,988.97 443.31,976.95 350.2,967.5L349.79,967.46L349.79,1022.97C280.31,1013.7 209.47,1006.68 139.24,1002.11L138.84,1002.08L138.84,1057.61C93.09,1053.09 46.5,1050.79 0.38,1050.79L0,1050.79L0,1134.86L0.38,1134.86C46.63,1134.86 93.33,1137.17 139.18,1141.72L139.59,1141.76L139.59,1086.22C210.2,1090.82 281.01,1097.84 350.09,1107.1L350.54,1107.1L350.54,1051.61C443.64,1061.05 536.92,1073.07 627.78,1087.33L628.21,1087.4L628.21,1031.86C745.86,1046.65 862.5,1064.12 974.88,1083.78L975.32,1083.86L975.32,1028.34C1117.5,1049.03 1257.49,1072.63 1391.4,1098.47L1391.85,1098.56L1391.85,1014.48L1391.55,1014.42C1305.58,997.83 1216.46,982.05 1126.63,967.52L1126.63,967.5Z" style="fill-rule:nonzero;"/>
            <path d="M975.01,1110.79L974.58,1110.73L974.58,1166.26C861.71,1146.52 745.07,1129.05 627.9,1114.34L627.48,1114.29L627.48,1169.82C536.6,1155.57 443.32,1143.55 350.21,1134.1L349.8,1134.06L349.8,1189.57C280.32,1180.3 209.48,1173.28 139.25,1168.71L138.85,1168.68L138.85,1224.21C93.09,1219.69 46.51,1217.39 0.39,1217.39L0.01,1217.39L0.01,1273.68L0.39,1273.68C46.63,1273.68 93.33,1275.99 139.19,1280.54L139.6,1280.58L139.6,1225.02C210.21,1229.63 281.02,1236.66 350.1,1245.91L350.55,1245.91L350.55,1190.41C443.65,1199.86 536.93,1211.88 627.79,1226.14L628.22,1226.21L628.22,1170.68C745.37,1185.4 862.01,1202.87 974.89,1222.62L975.33,1222.7L975.33,1167.14C1117.5,1187.84 1257.49,1211.44 1391.41,1237.29L1391.86,1237.38L1391.86,1181.07L1391.56,1181.01C1257.48,1155.13 1117.33,1131.51 975.02,1110.79L975.01,1110.79Z" style="fill-rule:nonzero;"/>
            <path d="M975.01,1249.65L974.58,1249.59L974.58,1278.1L974.9,1278.15C1117.22,1298.86 1257.35,1322.48 1391.41,1348.36L1391.86,1348.45L1391.86,1319.94L1391.56,1319.88C1257.51,1294 1117.36,1270.38 975.02,1249.66L975.01,1249.65Z" style="fill-rule:nonzero;"/>
            <path d="M627.89,1253.18L627.47,1253.13L627.47,1281.66L627.8,1281.7C745.09,1296.43 861.87,1313.92 974.89,1333.69L975.33,1333.77L975.33,1305.23L975.02,1305.18C862.51,1285.5 745.72,1268 627.9,1253.18L627.89,1253.18Z" style="fill-rule:nonzero;"/>
            <path d="M350.2,1272.94L349.79,1272.9L349.79,1301.42L350.13,1301.46C443.37,1310.92 536.79,1322.96 627.79,1337.24L628.22,1337.31L628.22,1308.78L627.9,1308.73C536.89,1294.45 443.46,1282.41 350.2,1272.95L350.2,1272.94Z" style="fill-rule:nonzero;"/>
            <path d="M139.23,1307.57L138.83,1307.54L138.83,1336.06L139.18,1336.08C209.56,1340.66 280.53,1347.7 350.11,1356.99L350.53,1357.05L350.53,1328.52L350.2,1328.48C280.59,1319.19 209.61,1312.15 139.22,1307.56L139.23,1307.57Z" style="fill-rule:nonzero;"/>
            <path d="M0.38,1356.23L0,1356.23L0,1384.75L0.38,1384.75C46.62,1384.75 93.32,1387.06 139.18,1391.61L139.59,1391.65L139.59,1363.12L139.25,1363.09C93.37,1358.54 46.65,1356.23 0.38,1356.23Z" style="fill-rule:nonzero;"/>
        </g>
    </g>
    <g id="Graphic1" serif:id="Graphic" transform="matrix(-0.5,0,0,0.5,1391.85,0)">
        <g>
            <path d="M1391.55,70.28C1257.46,44.4 1117.32,20.77 975.01,0.06L974.58,0L974.58,55.53C861.67,35.79 745.03,18.32 627.9,3.61L627.48,3.56L627.48,59.07C536.6,44.82 443.32,32.8 350.21,23.35L349.8,23.31L349.8,78.84C280.34,69.57 209.5,62.55 139.25,57.98L138.85,57.95L138.85,113.48C93.09,108.96 46.51,106.66 0.39,106.66L0.01,106.66L0.01,301.79L0.39,301.79C46.63,301.79 93.33,304.1 139.19,308.64L139.6,308.68L139.6,253.14C210.18,257.73 280.99,264.76 350.1,274.02L350.55,274.02L350.55,218.53C443.65,227.97 536.92,239.99 627.79,254.25L628.22,254.32L628.22,198.8C745.39,213.51 862.03,230.98 974.89,250.72L975.33,250.8L975.33,195.26C1117.51,215.95 1257.5,239.55 1391.41,265.39L1391.86,265.48L1391.86,70.34L1391.56,70.28L1391.55,70.28Z" style="fill-rule:nonzero;"/>
            <path d="M975.01,277.76L974.58,277.7L974.58,333.21C862.19,313.56 745.55,296.09 627.9,281.29L627.48,281.24L627.48,336.77C536.6,322.52 443.32,310.5 350.21,301.05L349.8,301.01L349.8,356.54C280.34,347.27 209.5,340.25 139.25,335.68L138.85,335.65L138.85,391.16C93.1,386.64 46.52,384.34 0.39,384.34L0.01,384.34L0.01,551.72L0.39,551.72C46.64,551.72 93.34,554.03 139.19,558.58L139.6,558.62L139.6,503.08C209.84,507.65 280.67,514.68 350.13,523.95L350.55,524.01L350.55,468.47C443.65,477.91 536.92,489.93 627.79,504.19L628.22,504.26L628.22,448.72C745.88,463.51 862.52,480.99 974.89,500.64L975.33,500.72L975.33,445.2C1117.53,465.89 1257.52,489.49 1391.41,515.33L1391.86,515.42L1391.86,348.05L1391.56,347.99C1257.49,322.11 1117.34,298.49 975.02,277.77L975.01,277.76Z" style="fill-rule:nonzero;"/>
            <path d="M1126.78,550.99L1126.67,550.97C1077.29,542.95 1026.26,535.1 975.01,527.65L974.58,527.59L974.58,583.12C908.94,571.64 841.39,560.83 773.78,550.99C706.17,541.15 773.66,550.97 773.66,550.97C725.87,544.01 676.82,537.36 627.89,531.21L627.47,531.16L627.47,586.69C536.58,572.43 443.29,560.42 350.2,550.97L349.79,550.93L349.79,606.44C280.33,597.17 209.49,590.15 139.24,585.58L138.84,585.55L138.84,641.08C93.08,636.56 46.5,634.26 0.38,634.26L0,634.26L0,773.85L0.38,773.85C46.63,773.85 93.33,776.16 139.18,780.71L139.59,780.75L139.59,725.23C209.82,729.8 280.65,736.82 350.12,746.1L350.54,746.16L350.54,690.6C443.64,700.05 536.91,712.07 627.78,726.33L628.21,726.4L628.21,670.86C676.92,676.98 725.77,683.6 773.43,690.54C821.09,697.48 773.55,690.56 773.55,690.56C841.35,700.43 909.09,711.27 974.89,722.79L975.33,722.87L975.33,667.35C1025.68,674.66 1076.46,682.46 1126.29,690.54C1176.12,698.62 1126.4,690.56 1126.4,690.56C1216.23,705.09 1305.4,720.88 1391.41,737.48L1391.86,737.57L1391.86,597.95L1391.56,597.89C1305.63,581.29 1216.55,565.52 1126.79,551.01L1126.78,550.99Z" style="fill-rule:nonzero;"/>
            <path d="M975.01,749.81L974.58,749.75L974.58,805.28C861.66,785.54 745.02,768.07 627.9,753.36L627.48,753.31L627.48,808.84C536.6,794.59 443.32,782.57 350.21,773.12L349.8,773.08L349.8,828.6C280.73,819.35 209.89,812.33 139.25,807.73L138.85,807.7L138.85,863.23C93.09,858.71 46.51,856.41 0.39,856.41L0.01,856.41L0.01,968.22L0.39,968.22C46.64,968.22 93.34,970.53 139.19,975.08L139.6,975.12L139.6,919.6C209.85,924.17 280.68,931.2 350.13,940.47L350.55,940.53L350.55,884.99C443.65,894.43 536.93,906.45 627.79,920.71L628.22,920.78L628.22,865.24C745.85,880.03 862.48,897.5 974.89,917.16L975.33,917.24L975.33,861.72C1117.51,882.41 1257.5,906.01 1391.41,931.85L1391.86,931.94L1391.86,820.09L1391.56,820.03C1257.48,794.15 1117.33,770.53 975.02,749.81L975.01,749.81Z" style="fill-rule:nonzero;"/>
            <path d="M1126.63,967.5L1126.52,967.48C1076.61,959.38 1025.64,951.55 975.01,944.19L974.58,944.13L974.58,999.66C909.13,988.2 841.52,977.38 773.59,967.5C705.66,957.62 773.47,967.48 773.47,967.48C725.36,960.47 676.38,953.83 627.89,947.74L627.47,947.69L627.47,1003.22C536.59,988.97 443.31,976.95 350.2,967.5L349.79,967.46L349.79,1022.97C280.31,1013.7 209.47,1006.68 139.24,1002.11L138.84,1002.08L138.84,1057.61C93.09,1053.09 46.5,1050.79 0.38,1050.79L0,1050.79L0,1134.86L0.38,1134.86C46.63,1134.86 93.33,1137.17 139.18,1141.72L139.59,1141.76L139.59,1086.22C210.2,1090.82 281.01,1097.84 350.09,1107.1L350.54,1107.1L350.54,1051.61C443.64,1061.05 536.92,1073.07 627.78,1087.33L628.21,1087.4L628.21,1031.86C745.86,1046.65 862.5,1064.12 974.88,1083.78L975.32,1083.86L975.32,1028.34C1117.5,1049.03 1257.49,1072.63 1391.4,1098.47L1391.85,1098.56L1391.85,1014.48L1391.55,1014.42C1305.58,997.83 1216.46,982.05 1126.63,967.52L1126.63,967.5Z" style="fill-rule:nonzero;"/>
            <path d="M975.01,1110.79L974.58,1110.73L974.58,1166.26C861.71,1146.52 745.07,1129.05 627.9,1114.34L627.48,1114.29L627.48,1169.82C536.6,1155.57 443.32,1143.55 350.21,1134.1L349.8,1134.06L349.8,1189.57C280.32,1180.3 209.48,1173.28 139.25,1168.71L138.85,1168.68L138.85,1224.21C93.09,1219.69 46.51,1217.39 0.39,1217.39L0.01,1217.39L0.01,1273.68L0.39,1273.68C46.63,1273.68 93.33,1275.99 139.19,1280.54L139.6,1280.58L139.6,1225.02C210.21,1229.63 281.02,1236.66 350.1,1245.91L350.55,1245.91L350.55,1190.41C443.65,1199.86 536.93,1211.88 627.79,1226.14L628.22,1226.21L628.22,1170.68C745.37,1185.4 862.01,1202.87 974.89,1222.62L975.33,1222.7L975.33,1167.14C1117.5,1187.84 1257.49,1211.44 1391.41,1237.29L1391.86,1237.38L1391.86,1181.07L1391.56,1181.01C1257.48,1155.13 1117.33,1131.51 975.02,1110.79L975.01,1110.79Z" style="fill-rule:nonzero;"/>
            <path d="M975.01,1249.65L974.58,1249.59L974.58,1278.1L974.9,1278.15C1117.22,1298.86 1257.35,1322.48 1391.41,1348.36L1391.86,1348.45L1391.86,1319.94L1391.56,1319.88C1257.51,1294 1117.36,1270.38 975.02,1249.66L975.01,1249.65Z" style="fill-rule:nonzero;"/>
            <path d="M627.89,1253.18L627.47,1253.13L627.47,1281.66L627.8,1281.7C745.09,1296.43 861.87,1313.92 974.89,1333.69L975.33,1333.77L975.33,1305.23L975.02,1305.18C862.51,1285.5 745.72,1268 627.9,1253.18L627.89,1253.18Z" style="fill-rule:nonzero;"/>
            <path d="M350.2,1272.94L349.79,1272.9L349.79,1301.42L350.13,1301.46C443.37,1310.92 536.79,1322.96 627.79,1337.24L628.22,1337.31L628.22,1308.78L627.9,1308.73C536.89,1294.45 443.46,1282.41 350.2,1272.95L350.2,1272.94Z" style="fill-rule:nonzero;"/>
            <path d="M139.23,1307.57L138.83,1307.54L138.83,1336.06L139.18,1336.08C209.56,1340.66 280.53,1347.7 350.11,1356.99L350.53,1357.05L350.53,1328.52L350.2,1328.48C280.59,1319.19 209.61,1312.15 139.22,1307.56L139.23,1307.57Z" style="fill-rule:nonzero;"/>
            <path d="M0.38,1356.23L0,1356.23L0,1384.75L0.38,1384.75C46.62,1384.75 93.32,1387.06 139.18,1391.61L139.59,1391.65L139.59,1363.12L139.25,1363.09C93.37,1358.54 46.65,1356.23 0.38,1356.23Z" style="fill-rule:nonzero;"/>
        </g>
        <g transform="matrix(-1,0,0,-1,2783.7,2783.3)">
            <path d="M1391.55,70.28C1257.46,44.4 1117.32,20.77 975.01,0.06L974.58,0L974.58,55.53C861.67,35.79 745.03,18.32 627.9,3.61L627.48,3.56L627.48,59.07C536.6,44.82 443.32,32.8 350.21,23.35L349.8,23.31L349.8,78.84C280.34,69.57 209.5,62.55 139.25,57.98L138.85,57.95L138.85,113.48C93.09,108.96 46.51,106.66 0.39,106.66L0.01,106.66L0.01,301.79L0.39,301.79C46.63,301.79 93.33,304.1 139.19,308.64L139.6,308.68L139.6,253.14C210.18,257.73 280.99,264.76 350.1,274.02L350.55,274.02L350.55,218.53C443.65,227.97 536.92,239.99 627.79,254.25L628.22,254.32L628.22,198.8C745.39,213.51 862.03,230.98 974.89,250.72L975.33,250.8L975.33,195.26C1117.51,215.95 1257.5,239.55 1391.41,265.39L1391.86,265.48L1391.86,70.34L1391.56,70.28L1391.55,70.28Z" style="fill-rule:nonzero;"/>
            <path d="M975.01,277.76L974.58,277.7L974.58,333.21C862.19,313.56 745.55,296.09 627.9,281.29L627.48,281.24L627.48,336.77C536.6,322.52 443.32,310.5 350.21,301.05L349.8,301.01L349.8,356.54C280.34,347.27 209.5,340.25 139.25,335.68L138.85,335.65L138.85,391.16C93.1,386.64 46.52,384.34 0.39,384.34L0.01,384.34L0.01,551.72L0.39,551.72C46.64,551.72 93.34,554.03 139.19,558.58L139.6,558.62L139.6,503.08C209.84,507.65 280.67,514.68 350.13,523.95L350.55,524.01L350.55,468.47C443.65,477.91 536.92,489.93 627.79,504.19L628.22,504.26L628.22,448.72C745.88,463.51 862.52,480.99 974.89,500.64L975.33,500.72L975.33,445.2C1117.53,465.89 1257.52,489.49 1391.41,515.33L1391.86,515.42L1391.86,348.05L1391.56,347.99C1257.49,322.11 1117.34,298.49 975.02,277.77L975.01,277.76Z" style="fill-rule:nonzero;"/>
            <path d="M1126.78,550.99L1126.67,550.97C1077.29,542.95 1026.26,535.1 975.01,527.65L974.58,527.59L974.58,583.12C908.94,571.64 841.39,560.83 773.78,550.99C706.17,541.15 773.66,550.97 773.66,550.97C725.87,544.01 676.82,537.36 627.89,531.21L627.47,531.16L627.47,586.69C536.58,572.43 443.29,560.42 350.2,550.97L349.79,550.93L349.79,606.44C280.33,597.17 209.49,590.15 139.24,585.58L138.84,585.55L138.84,641.08C93.08,636.56 46.5,634.26 0.38,634.26L0,634.26L0,773.85L0.38,773.85C46.63,773.85 93.33,776.16 139.18,780.71L139.59,780.75L139.59,725.23C209.82,729.8 280.65,736.82 350.12,746.1L350.54,746.16L350.54,690.6C443.64,700.05 536.91,712.07 627.78,726.33L628.21,726.4L628.21,670.86C676.92,676.98 725.77,683.6 773.43,690.54C821.09,697.48 773.55,690.56 773.55,690.56C841.35,700.43 909.09,711.27 974.89,722.79L975.33,722.87L975.33,667.35C1025.68,674.66 1076.46,682.46 1126.29,690.54C1176.12,698.62 1126.4,690.56 1126.4,690.56C1216.23,705.09 1305.4,720.88 1391.41,737.48L1391.86,737.57L1391.86,597.95L1391.56,597.89C1305.63,581.29 1216.55,565.52 1126.79,551.01L1126.78,550.99Z" style="fill-rule:nonzero;"/>
            <path d="M975.01,749.81L974.58,749.75L974.58,805.28C861.66,785.54 745.02,768.07 627.9,753.36L627.48,753.31L627.48,808.84C536.6,794.59 443.32,782.57 350.21,773.12L349.8,773.08L349.8,828.6C280.73,819.35 209.89,812.33 139.25,807.73L138.85,807.7L138.85,863.23C93.09,858.71 46.51,856.41 0.39,856.41L0.01,856.41L0.01,968.22L0.39,968.22C46.64,968.22 93.34,970.53 139.19,975.08L139.6,975.12L139.6,919.6C209.85,924.17 280.68,931.2 350.13,940.47L350.55,940.53L350.55,884.99C443.65,894.43 536.93,906.45 627.79,920.71L628.22,920.78L628.22,865.24C745.85,880.03 862.48,897.5 974.89,917.16L975.33,917.24L975.33,861.72C1117.51,882.41 1257.5,906.01 1391.41,931.85L1391.86,931.94L1391.86,820.09L1391.56,820.03C1257.48,794.15 1117.33,770.53 975.02,749.81L975.01,749.81Z" style="fill-rule:nonzero;"/>
            <path d="M1126.63,967.5L1126.52,967.48C1076.61,959.38 1025.64,951.55 975.01,944.19L974.58,944.13L974.58,999.66C909.13,988.2 841.52,977.38 773.59,967.5C705.66,957.62 773.47,967.48 773.47,967.48C725.36,960.47 676.38,953.83 627.89,947.74L627.47,947.69L627.47,1003.22C536.59,988.97 443.31,976.95 350.2,967.5L349.79,967.46L349.79,1022.97C280.31,1013.7 209.47,1006.68 139.24,1002.11L138.84,1002.08L138.84,1057.61C93.09,1053.09 46.5,1050.79 0.38,1050.79L0,1050.79L0,1134.86L0.38,1134.86C46.63,1134.86 93.33,1137.17 139.18,1141.72L139.59,1141.76L139.59,1086.22C210.2,1090.82 281.01,1097.84 350.09,1107.1L350.54,1107.1L350.54,1051.61C443.64,1061.05 536.92,1073.07 627.78,1087.33L628.21,1087.4L628.21,1031.86C745.86,1046.65 862.5,1064.12 974.88,1083.78L975.32,1083.86L975.32,1028.34C1117.5,1049.03 1257.49,1072.63 1391.4,1098.47L1391.85,1098.56L1391.85,1014.48L1391.55,1014.42C1305.58,997.83 1216.46,982.05 1126.63,967.52L1126.63,967.5Z" style="fill-rule:nonzero;"/>
            <path d="M975.01,1110.79L974.58,1110.73L974.58,1166.26C861.71,1146.52 745.07,1129.05 627.9,1114.34L627.48,1114.29L627.48,1169.82C536.6,1155.57 443.32,1143.55 350.21,1134.1L349.8,1134.06L349.8,1189.57C280.32,1180.3 209.48,1173.28 139.25,1168.71L138.85,1168.68L138.85,1224.21C93.09,1219.69 46.51,1217.39 0.39,1217.39L0.01,1217.39L0.01,1273.68L0.39,1273.68C46.63,1273.68 93.33,1275.99 139.19,1280.54L139.6,1280.58L139.6,1225.02C210.21,1229.63 281.02,1236.66 350.1,1245.91L350.55,1245.91L350.55,1190.41C443.65,1199.86 536.93,1211.88 627.79,1226.14L628.22,1226.21L628.22,1170.68C745.37,1185.4 862.01,1202.87 974.89,1222.62L975.33,1222.7L975.33,1167.14C1117.5,1187.84 1257.49,1211.44 1391.41,1237.29L1391.86,1237.38L1391.86,1181.07L1391.56,1181.01C1257.48,1155.13 1117.33,1131.51 975.02,1110.79L975.01,1110.79Z" style="fill-rule:nonzero;"/>
            <path d="M975.01,1249.65L974.58,1249.59L974.58,1278.1L974.9,1278.15C1117.22,1298.86 1257.35,1322.48 1391.41,1348.36L1391.86,1348.45L1391.86,1319.94L1391.56,1319.88C1257.51,1294 1117.36,1270.38 975.02,1249.66L975.01,1249.65Z" style="fill-rule:nonzero;"/>
            <path d="M627.89,1253.18L627.47,1253.13L627.47,1281.66L627.8,1281.7C745.09,1296.43 861.87,1313.92 974.89,1333.69L975.33,1333.77L975.33,1305.23L975.02,1305.18C862.51,1285.5 745.72,1268 627.9,1253.18L627.89,1253.18Z" style="fill-rule:nonzero;"/>
            <path d="M350.2,1272.94L349.79,1272.9L349.79,1301.42L350.13,1301.46C443.37,1310.92 536.79,1322.96 627.79,1337.24L628.22,1337.31L628.22,1308.78L627.9,1308.73C536.89,1294.45 443.46,1282.41 350.2,1272.95L350.2,1272.94Z" style="fill-rule:nonzero;"/>
            <path d="M139.23,1307.57L138.83,1307.54L138.83,1336.06L139.18,1336.08C209.56,1340.66 280.53,1347.7 350.11,1356.99L350.53,1357.05L350.53,1328.52L350.2,1328.48C280.59,1319.19 209.61,1312.15 139.22,1307.56L139.23,1307.57Z" style="fill-rule:nonzero;"/>
            <path d="M0.38,1356.23L0,1356.23L0,1384.75L0.38,1384.75C46.62,1384.75 93.32,1387.06 139.18,1391.61L139.59,1391.65L139.59,1363.12L139.25,1363.09C93.37,1358.54 46.65,1356.23 0.38,1356.23Z" style="fill-rule:nonzero;"/>
        </g>
        <g id="Graphic2" serif:id="Graphic" transform="matrix(1,0,0,-1,0,2783.3)">
            <g>
                <path d="M1391.55,70.28C1257.46,44.4 1117.32,20.77 975.01,0.06L974.58,0L974.58,55.53C861.67,35.79 745.03,18.32 627.9,3.61L627.48,3.56L627.48,59.07C536.6,44.82 443.32,32.8 350.21,23.35L349.8,23.31L349.8,78.84C280.34,69.57 209.5,62.55 139.25,57.98L138.85,57.95L138.85,113.48C93.09,108.96 46.51,106.66 0.39,106.66L0.01,106.66L0.01,301.79L0.39,301.79C46.63,301.79 93.33,304.1 139.19,308.64L139.6,308.68L139.6,253.14C210.18,257.73 280.99,264.76 350.1,274.02L350.55,274.02L350.55,218.53C443.65,227.97 536.92,239.99 627.79,254.25L628.22,254.32L628.22,198.8C745.39,213.51 862.03,230.98 974.89,250.72L975.33,250.8L975.33,195.26C1117.51,215.95 1257.5,239.55 1391.41,265.39L1391.86,265.48L1391.86,70.34L1391.56,70.28L1391.55,70.28Z" style="fill-rule:nonzero;"/>
                <path d="M975.01,277.76L974.58,277.7L974.58,333.21C862.19,313.56 745.55,296.09 627.9,281.29L627.48,281.24L627.48,336.77C536.6,322.52 443.32,310.5 350.21,301.05L349.8,301.01L349.8,356.54C280.34,347.27 209.5,340.25 139.25,335.68L138.85,335.65L138.85,391.16C93.1,386.64 46.52,384.34 0.39,384.34L0.01,384.34L0.01,551.72L0.39,551.72C46.64,551.72 93.34,554.03 139.19,558.58L139.6,558.62L139.6,503.08C209.84,507.65 280.67,514.68 350.13,523.95L350.55,524.01L350.55,468.47C443.65,477.91 536.92,489.93 627.79,504.19L628.22,504.26L628.22,448.72C745.88,463.51 862.52,480.99 974.89,500.64L975.33,500.72L975.33,445.2C1117.53,465.89 1257.52,489.49 1391.41,515.33L1391.86,515.42L1391.86,348.05L1391.56,347.99C1257.49,322.11 1117.34,298.49 975.02,277.77L975.01,277.76Z" style="fill-rule:nonzero;"/>
                <path d="M1126.78,550.99L1126.67,550.97C1077.29,542.95 1026.26,535.1 975.01,527.65L974.58,527.59L974.58,583.12C908.94,571.64 841.39,560.83 773.78,550.99C706.17,541.15 773.66,550.97 773.66,550.97C725.87,544.01 676.82,537.36 627.89,531.21L627.47,531.16L627.47,586.69C536.58,572.43 443.29,560.42 350.2,550.97L349.79,550.93L349.79,606.44C280.33,597.17 209.49,590.15 139.24,585.58L138.84,585.55L138.84,641.08C93.08,636.56 46.5,634.26 0.38,634.26L0,634.26L0,773.85L0.38,773.85C46.63,773.85 93.33,776.16 139.18,780.71L139.59,780.75L139.59,725.23C209.82,729.8 280.65,736.82 350.12,746.1L350.54,746.16L350.54,690.6C443.64,700.05 536.91,712.07 627.78,726.33L628.21,726.4L628.21,670.86C676.92,676.98 725.77,683.6 773.43,690.54C821.09,697.48 773.55,690.56 773.55,690.56C841.35,700.43 909.09,711.27 974.89,722.79L975.33,722.87L975.33,667.35C1025.68,674.66 1076.46,682.46 1126.29,690.54C1176.12,698.62 1126.4,690.56 1126.4,690.56C1216.23,705.09 1305.4,720.88 1391.41,737.48L1391.86,737.57L1391.86,597.95L1391.56,597.89C1305.63,581.29 1216.55,565.52 1126.79,551.01L1126.78,550.99Z" style="fill-rule:nonzero;"/>
                <path d="M975.01,749.81L974.58,749.75L974.58,805.28C861.66,785.54 745.02,768.07 627.9,753.36L627.48,753.31L627.48,808.84C536.6,794.59 443.32,782.57 350.21,773.12L349.8,773.08L349.8,828.6C280.73,819.35 209.89,812.33 139.25,807.73L138.85,807.7L138.85,863.23C93.09,858.71 46.51,856.41 0.39,856.41L0.01,856.41L0.01,968.22L0.39,968.22C46.64,968.22 93.34,970.53 139.19,975.08L139.6,975.12L139.6,919.6C209.85,924.17 280.68,931.2 350.13,940.47L350.55,940.53L350.55,884.99C443.65,894.43 536.93,906.45 627.79,920.71L628.22,920.78L628.22,865.24C745.85,880.03 862.48,897.5 974.89,917.16L975.33,917.24L975.33,861.72C1117.51,882.41 1257.5,906.01 1391.41,931.85L1391.86,931.94L1391.86,820.09L1391.56,820.03C1257.48,794.15 1117.33,770.53 975.02,749.81L975.01,749.81Z" style="fill-rule:nonzero;"/>
                <path d="M1126.63,967.5L1126.52,967.48C1076.61,959.38 1025.64,951.55 975.01,944.19L974.58,944.13L974.58,999.66C909.13,988.2 841.52,977.38 773.59,967.5C705.66,957.62 773.47,967.48 773.47,967.48C725.36,960.47 676.38,953.83 627.89,947.74L627.47,947.69L627.47,1003.22C536.59,988.97 443.31,976.95 350.2,967.5L349.79,967.46L349.79,1022.97C280.31,1013.7 209.47,1006.68 139.24,1002.11L138.84,1002.08L138.84,1057.61C93.09,1053.09 46.5,1050.79 0.38,1050.79L0,1050.79L0,1134.86L0.38,1134.86C46.63,1134.86 93.33,1137.17 139.18,1141.72L139.59,1141.76L139.59,1086.22C210.2,1090.82 281.01,1097.84 350.09,1107.1L350.54,1107.1L350.54,1051.61C443.64,1061.05 536.92,1073.07 627.78,1087.33L628.21,1087.4L628.21,1031.86C745.86,1046.65 862.5,1064.12 974.88,1083.78L975.32,1083.86L975.32,1028.34C1117.5,1049.03 1257.49,1072.63 1391.4,1098.47L1391.85,1098.56L1391.85,1014.48L1391.55,1014.42C1305.58,997.83 1216.46,982.05 1126.63,967.52L1126.63,967.5Z" style="fill-rule:nonzero;"/>
                <path d="M975.01,1110.79L974.58,1110.73L974.58,1166.26C861.71,1146.52 745.07,1129.05 627.9,1114.34L627.48,1114.29L627.48,1169.82C536.6,1155.57 443.32,1143.55 350.21,1134.1L349.8,1134.06L349.8,1189.57C280.32,1180.3 209.48,1173.28 139.25,1168.71L138.85,1168.68L138.85,1224.21C93.09,1219.69 46.51,1217.39 0.39,1217.39L0.01,1217.39L0.01,1273.68L0.39,1273.68C46.63,1273.68 93.33,1275.99 139.19,1280.54L139.6,1280.58L139.6,1225.02C210.21,1229.63 281.02,1236.66 350.1,1245.91L350.55,1245.91L350.55,1190.41C443.65,1199.86 536.93,1211.88 627.79,1226.14L628.22,1226.21L628.22,1170.68C745.37,1185.4 862.01,1202.87 974.89,1222.62L975.33,1222.7L975.33,1167.14C1117.5,1187.84 1257.49,1211.44 1391.41,1237.29L1391.86,1237.38L1391.86,1181.07L1391.56,1181.01C1257.48,1155.13 1117.33,1131.51 975.02,1110.79L975.01,1110.79Z" style="fill-rule:nonzero;"/>
                <path d="M975.01,1249.65L974.58,1249.59L974.58,1278.1L974.9,1278.15C1117.22,1298.86 1257.35,1322.48 1391.41,1348.36L1391.86,1348.45L1391.86,1319.94L1391.56,1319.88C1257.51,1294 1117.36,1270.38 975.02,1249.66L975.01,1249.65Z" style="fill-rule:nonzero;"/>
                <path d="M627.89,1253.18L627.47,1253.13L627.47,1281.66L627.8,1281.7C745.09,1296.43 861.87,1313.92 974.89,1333.69L975.33,1333.77L975.33,1305.23L975.02,1305.18C862.51,1285.5 745.72,1268 627.9,1253.18L627.89,1253.18Z" style="fill-rule:nonzero;"/>
                <path d="M350.2,1272.94L349.79,1272.9L349.79,1301.42L350.13,1301.46C443.37,1310.92 536.79,1322.96 627.79,1337.24L628.22,1337.31L628.22,1308.78L627.9,1308.73C536.89,1294.45 443.46,1282.41 350.2,1272.95L350.2,1272.94Z" style="fill-rule:nonzero;"/>
                <path d="M139.23,1307.57L138.83,1307.54L138.83,1336.06L139.18,1336.08C209.56,1340.66 280.53,1347.7 350.11,1356.99L350.53,1357.05L350.53,1328.52L350.2,1328.48C280.59,1319.19 209.61,1312.15 139.22,1307.56L139.23,1307.57Z" style="fill-rule:nonzero;"/>
                <path d="M0.38,1356.23L0,1356.23L0,1384.75L0.38,1384.75C46.62,1384.75 93.32,1387.06 139.18,1391.61L139.59,1391.65L139.59,1363.12L139.25,1363.09C93.37,1358.54 46.65,1356.23 0.38,1356.23Z" style="fill-rule:nonzero;"/>
            </g>
        </g>
    </g>
</svg>
