<?xml version="1.0" encoding="UTF-8" standalone="no"?>
<!DOCTYPE svg PUBLIC "-//W3C//DTD SVG 1.1//EN" "http://www.w3.org/Graphics/SVG/1.1/DTD/svg11.dtd">
<svg width="100%" height="100%" viewBox="0 0 736 1475" version="1.1" xmlns="http://www.w3.org/2000/svg" xmlns:xlink="http://www.w3.org/1999/xlink" xml:space="preserve" xmlns:serif="http://www.serif.com/" style="fill-rule:evenodd;clip-rule:evenodd;stroke-linejoin:round;stroke-miterlimit:2;">
    <g id="Graphic" transform="matrix(0.500007,0,0,0.500007,-0.00499993,0)">
        <g>
            <path d="M147.03,1253.94L147.03,1231.52L1.37,1120.58L1.3,1120.53L0,1121.51L0,1161.04L1.11,1160.17L146.43,1274.69L146.43,1275.48L293.29,1391.2L293.49,1391.36L293.49,1367.43L147.03,1253.94Z" style="fill-rule:nonzero;"/>
            <path d="M735.13,0L292.9,0L292.9,0.34L146.44,0.34L146.44,21.55L5.92,19.66L0,19.74L0,197.53L5.17,196.84L146.43,215.81L146.43,258.69L5.03,235.91L5.01,235.91L0,236.71L0,394.61L4.34,393.46L146.43,431.59L146.43,474.46L4.22,432.5L4.18,432.5L0,433.7L0,571.79L3.61,570.39L146.43,625.89L146.43,668.83L3.48,609.43L3.43,609.41L0,610.81L0,729.09L2.93,727.65L146.43,798.75L146.43,841.68L2.84,766.72L2.78,766.69L0,768.13L0,866.63L2.36,865.26L146.43,950.08L146.43,993.05L2.27,904.33L2.2,904.29L-0.01,905.64L-0.01,984.49L1.86,983.24L146.43,1079.88L146.43,1122.87L1.78,1022.3L1.71,1022.25L0,1023.43L0,1082.57L1.45,1081.52L146.43,1188.09L146.43,1210.48L292.89,1320.07L292.89,1320.8L440.03,1430.92L440.23,1431.07L440.23,1405.19L293.48,1297.34L293.48,1272.97L147.02,1167.27L147.02,1124.26L292.88,1225.65L292.88,1249.95L439.97,1354.16L440.08,1354.24L440.22,1354.34L587.48,1458.67L587.68,1458.81L587.68,1430.96L440.22,1328.47L440.22,1302.9L293.47,1202.86L293.47,1155.92L439.97,1251.91L439.97,1277.47L587.43,1376.04L587.51,1376.09L587.68,1376.21L734.92,1474.65L735.11,1474.78L735.11,1444.99L587.68,1348.4L587.68,1320.88L440.22,1226.21L440.22,1175.37L587.43,1265.95L587.43,1293.47L734.92,1386.19L735.11,1386.31L735.11,1327.03L587.68,1238.27L587.68,1183.5L734.93,1268.23L735.12,1268.34L735.12,1179.6L587.69,1100.67L587.69,1045.89L734.94,1120.8L735.12,1120.89L735.12,1002.66L587.69,935.51L587.69,880.72L734.95,943.87L735.12,943.94L735.12,796.23L587.69,742.86L587.69,688.09L734.96,737.45L735.13,737.51L735.13,560.31L587.7,522.73L587.7,467.95L734.98,501.54L735.13,501.57L735.13,294.89L587.7,275.07L587.7,220.31L734.99,236.13L735.13,236.13L735.13,0ZM147.03,1059L147.03,1015.96L292.89,1107.66L292.89,1154.55L147.03,1059ZM147.03,929.1L147.03,886.09L292.89,966.14L292.89,1013.02L147.03,929.1ZM147.03,777.61L147.03,734.62L292.89,801.05L292.89,847.94L147.03,777.61ZM147.03,604.62L147.03,561.65L292.89,612.5L292.89,659.37L147.03,604.62ZM147.03,410.14L147.03,367.19L292.89,400.47L292.89,447.32L147.03,410.14ZM147.03,194.2L147.03,151.29L292.89,165.01L292.89,211.84L147.03,194.19L147.03,194.2ZM439.99,1124.08L439.99,1174.91L293.49,1084.75L293.49,1037.83L439.99,1124.08ZM439.99,970.73L439.99,1021.57L293.49,943.12L293.49,896.19L439.99,970.73ZM439.99,791.85L439.99,842.68L293.49,777.9L293.49,730.98L439.99,791.85ZM439.99,587.48L439.99,638.32L293.49,589.21L293.49,542.31L439.99,587.48ZM439.99,357.64L439.99,408.46L293.49,376.99L293.49,330.11L439.99,357.64ZM439.99,102.34L439.99,153.17L293.49,141.36L293.49,94.47L439.99,102.34ZM587.45,1128.33L587.45,1183.07L440.24,1098.38L440.24,1047.56L587.45,1128.33ZM587.45,963.18L587.45,1017.93L440.24,945L440.24,894.17L587.45,963.18ZM587.45,770.53L587.45,825.32L440.24,766.15L440.24,715.31L587.45,770.53ZM587.45,550.45L587.45,605.19L440.24,561.75L440.24,510.96L587.45,550.45ZM587.45,302.81L587.45,357.59L440.24,331.91L440.24,281.08L587.45,302.81ZM587.45,27.76L587.45,82.51L440.24,76.59L440.24,25.79L587.45,27.76Z" style="fill-rule:nonzero;"/>
            <path d="M0,1199.94L0,1219.88L0.88,1219.15L146.83,1339.99L147.03,1340.16L147.03,1318.17L0.96,1199.17L0,1199.94Z" style="fill-rule:nonzero;"/>
        </g>
    </g>
    <g id="Graphic1" serif:id="Graphic" transform="matrix(-0.500007,0,0,0.500007,735.135,0)">
        <g>
            <path d="M147.03,1253.94L147.03,1231.52L1.37,1120.58L1.3,1120.53L0,1121.51L0,1161.04L1.11,1160.17L146.43,1274.69L146.43,1275.48L293.29,1391.2L293.49,1391.36L293.49,1367.43L147.03,1253.94Z" style="fill-rule:nonzero;"/>
            <path d="M735.13,0L292.9,0L292.9,0.34L146.44,0.34L146.44,21.55L5.92,19.66L0,19.74L0,197.53L5.17,196.84L146.43,215.81L146.43,258.69L5.03,235.91L5.01,235.91L0,236.71L0,394.61L4.34,393.46L146.43,431.59L146.43,474.46L4.22,432.5L4.18,432.5L0,433.7L0,571.79L3.61,570.39L146.43,625.89L146.43,668.83L3.48,609.43L3.43,609.41L0,610.81L0,729.09L2.93,727.65L146.43,798.75L146.43,841.68L2.84,766.72L2.78,766.69L0,768.13L0,866.63L2.36,865.26L146.43,950.08L146.43,993.05L2.27,904.33L2.2,904.29L-0.01,905.64L-0.01,984.49L1.86,983.24L146.43,1079.88L146.43,1122.87L1.78,1022.3L1.71,1022.25L0,1023.43L0,1082.57L1.45,1081.52L146.43,1188.09L146.43,1210.48L292.89,1320.07L292.89,1320.8L440.03,1430.92L440.23,1431.07L440.23,1405.19L293.48,1297.34L293.48,1272.97L147.02,1167.27L147.02,1124.26L292.88,1225.65L292.88,1249.95L439.97,1354.16L440.08,1354.24L440.22,1354.34L587.48,1458.67L587.68,1458.81L587.68,1430.96L440.22,1328.47L440.22,1302.9L293.47,1202.86L293.47,1155.92L439.97,1251.91L439.97,1277.47L587.43,1376.04L587.51,1376.09L587.68,1376.21L734.92,1474.65L735.11,1474.78L735.11,1444.99L587.68,1348.4L587.68,1320.88L440.22,1226.21L440.22,1175.37L587.43,1265.95L587.43,1293.47L734.92,1386.19L735.11,1386.31L735.11,1327.03L587.68,1238.27L587.68,1183.5L734.93,1268.23L735.12,1268.34L735.12,1179.6L587.69,1100.67L587.69,1045.89L734.94,1120.8L735.12,1120.89L735.12,1002.66L587.69,935.51L587.69,880.72L734.95,943.87L735.12,943.94L735.12,796.23L587.69,742.86L587.69,688.09L734.96,737.45L735.13,737.51L735.13,560.31L587.7,522.73L587.7,467.95L734.98,501.54L735.13,501.57L735.13,294.89L587.7,275.07L587.7,220.31L734.99,236.13L735.13,236.13L735.13,0ZM147.03,1059L147.03,1015.96L292.89,1107.66L292.89,1154.55L147.03,1059ZM147.03,929.1L147.03,886.09L292.89,966.14L292.89,1013.02L147.03,929.1ZM147.03,777.61L147.03,734.62L292.89,801.05L292.89,847.94L147.03,777.61ZM147.03,604.62L147.03,561.65L292.89,612.5L292.89,659.37L147.03,604.62ZM147.03,410.14L147.03,367.19L292.89,400.47L292.89,447.32L147.03,410.14ZM147.03,194.2L147.03,151.29L292.89,165.01L292.89,211.84L147.03,194.19L147.03,194.2ZM439.99,1124.08L439.99,1174.91L293.49,1084.75L293.49,1037.83L439.99,1124.08ZM439.99,970.73L439.99,1021.57L293.49,943.12L293.49,896.19L439.99,970.73ZM439.99,791.85L439.99,842.68L293.49,777.9L293.49,730.98L439.99,791.85ZM439.99,587.48L439.99,638.32L293.49,589.21L293.49,542.31L439.99,587.48ZM439.99,357.64L439.99,408.46L293.49,376.99L293.49,330.11L439.99,357.64ZM439.99,102.34L439.99,153.17L293.49,141.36L293.49,94.47L439.99,102.34ZM587.45,1128.33L587.45,1183.07L440.24,1098.38L440.24,1047.56L587.45,1128.33ZM587.45,963.18L587.45,1017.93L440.24,945L440.24,894.17L587.45,963.18ZM587.45,770.53L587.45,825.32L440.24,766.15L440.24,715.31L587.45,770.53ZM587.45,550.45L587.45,605.19L440.24,561.75L440.24,510.96L587.45,550.45ZM587.45,302.81L587.45,357.59L440.24,331.91L440.24,281.08L587.45,302.81ZM587.45,27.76L587.45,82.51L440.24,76.59L440.24,25.79L587.45,27.76Z" style="fill-rule:nonzero;"/>
            <path d="M0,1199.94L0,1219.88L0.88,1219.15L146.83,1339.99L147.03,1340.16L147.03,1318.17L0.96,1199.17L0,1199.94Z" style="fill-rule:nonzero;"/>
        </g>
        <g transform="matrix(-1,0,0,-1,1470.26,2949.56)">
            <path d="M147.03,1253.94L147.03,1231.52L1.37,1120.58L1.3,1120.53L0,1121.51L0,1161.04L1.11,1160.17L146.43,1274.69L146.43,1275.48L293.29,1391.2L293.49,1391.36L293.49,1367.43L147.03,1253.94Z" style="fill-rule:nonzero;"/>
            <path d="M735.13,0L292.9,0L292.9,0.34L146.44,0.34L146.44,21.55L5.92,19.66L0,19.74L0,197.53L5.17,196.84L146.43,215.81L146.43,258.69L5.03,235.91L5.01,235.91L0,236.71L0,394.61L4.34,393.46L146.43,431.59L146.43,474.46L4.22,432.5L4.18,432.5L0,433.7L0,571.79L3.61,570.39L146.43,625.89L146.43,668.83L3.48,609.43L3.43,609.41L0,610.81L0,729.09L2.93,727.65L146.43,798.75L146.43,841.68L2.84,766.72L2.78,766.69L0,768.13L0,866.63L2.36,865.26L146.43,950.08L146.43,993.05L2.27,904.33L2.2,904.29L-0.01,905.64L-0.01,984.49L1.86,983.24L146.43,1079.88L146.43,1122.87L1.78,1022.3L1.71,1022.25L0,1023.43L0,1082.57L1.45,1081.52L146.43,1188.09L146.43,1210.48L292.89,1320.07L292.89,1320.8L440.03,1430.92L440.23,1431.07L440.23,1405.19L293.48,1297.34L293.48,1272.97L147.02,1167.27L147.02,1124.26L292.88,1225.65L292.88,1249.95L439.97,1354.16L440.08,1354.24L440.22,1354.34L587.48,1458.67L587.68,1458.81L587.68,1430.96L440.22,1328.47L440.22,1302.9L293.47,1202.86L293.47,1155.92L439.97,1251.91L439.97,1277.47L587.43,1376.04L587.51,1376.09L587.68,1376.21L734.92,1474.65L735.11,1474.78L735.11,1444.99L587.68,1348.4L587.68,1320.88L440.22,1226.21L440.22,1175.37L587.43,1265.95L587.43,1293.47L734.92,1386.19L735.11,1386.31L735.11,1327.03L587.68,1238.27L587.68,1183.5L734.93,1268.23L735.12,1268.34L735.12,1179.6L587.69,1100.67L587.69,1045.89L734.94,1120.8L735.12,1120.89L735.12,1002.66L587.69,935.51L587.69,880.72L734.95,943.87L735.12,943.94L735.12,796.23L587.69,742.86L587.69,688.09L734.96,737.45L735.13,737.51L735.13,560.31L587.7,522.73L587.7,467.95L734.98,501.54L735.13,501.57L735.13,294.89L587.7,275.07L587.7,220.31L734.99,236.13L735.13,236.13L735.13,0ZM147.03,1059L147.03,1015.96L292.89,1107.66L292.89,1154.55L147.03,1059ZM147.03,929.1L147.03,886.09L292.89,966.14L292.89,1013.02L147.03,929.1ZM147.03,777.61L147.03,734.62L292.89,801.05L292.89,847.94L147.03,777.61ZM147.03,604.62L147.03,561.65L292.89,612.5L292.89,659.37L147.03,604.62ZM147.03,410.14L147.03,367.19L292.89,400.47L292.89,447.32L147.03,410.14ZM147.03,194.2L147.03,151.29L292.89,165.01L292.89,211.84L147.03,194.19L147.03,194.2ZM439.99,1124.08L439.99,1174.91L293.49,1084.75L293.49,1037.83L439.99,1124.08ZM439.99,970.73L439.99,1021.57L293.49,943.12L293.49,896.19L439.99,970.73ZM439.99,791.85L439.99,842.68L293.49,777.9L293.49,730.98L439.99,791.85ZM439.99,587.48L439.99,638.32L293.49,589.21L293.49,542.31L439.99,587.48ZM439.99,357.64L439.99,408.46L293.49,376.99L293.49,330.11L439.99,357.64ZM439.99,102.34L439.99,153.17L293.49,141.36L293.49,94.47L439.99,102.34ZM587.45,1128.33L587.45,1183.07L440.24,1098.38L440.24,1047.56L587.45,1128.33ZM587.45,963.18L587.45,1017.93L440.24,945L440.24,894.17L587.45,963.18ZM587.45,770.53L587.45,825.32L440.24,766.15L440.24,715.31L587.45,770.53ZM587.45,550.45L587.45,605.19L440.24,561.75L440.24,510.96L587.45,550.45ZM587.45,302.81L587.45,357.59L440.24,331.91L440.24,281.08L587.45,302.81ZM587.45,27.76L587.45,82.51L440.24,76.59L440.24,25.79L587.45,27.76Z" style="fill-rule:nonzero;"/>
            <path d="M0,1199.94L0,1219.88L0.88,1219.15L146.83,1339.99L147.03,1340.16L147.03,1318.17L0.96,1199.17L0,1199.94Z" style="fill-rule:nonzero;"/>
        </g>
        <g id="Graphic2" serif:id="Graphic" transform="matrix(1,0,0,-1,0,2949.56)">
            <g>
                <path d="M147.03,1253.94L147.03,1231.52L1.37,1120.58L1.3,1120.53L0,1121.51L0,1161.04L1.11,1160.17L146.43,1274.69L146.43,1275.48L293.29,1391.2L293.49,1391.36L293.49,1367.43L147.03,1253.94Z" style="fill-rule:nonzero;"/>
                <path d="M735.13,0L292.9,0L292.9,0.34L146.44,0.34L146.44,21.55L5.92,19.66L0,19.74L0,197.53L5.17,196.84L146.43,215.81L146.43,258.69L5.03,235.91L5.01,235.91L0,236.71L0,394.61L4.34,393.46L146.43,431.59L146.43,474.46L4.22,432.5L4.18,432.5L0,433.7L0,571.79L3.61,570.39L146.43,625.89L146.43,668.83L3.48,609.43L3.43,609.41L0,610.81L0,729.09L2.93,727.65L146.43,798.75L146.43,841.68L2.84,766.72L2.78,766.69L0,768.13L0,866.63L2.36,865.26L146.43,950.08L146.43,993.05L2.27,904.33L2.2,904.29L-0.01,905.64L-0.01,984.49L1.86,983.24L146.43,1079.88L146.43,1122.87L1.78,1022.3L1.71,1022.25L0,1023.43L0,1082.57L1.45,1081.52L146.43,1188.09L146.43,1210.48L292.89,1320.07L292.89,1320.8L440.03,1430.92L440.23,1431.07L440.23,1405.19L293.48,1297.34L293.48,1272.97L147.02,1167.27L147.02,1124.26L292.88,1225.65L292.88,1249.95L439.97,1354.16L440.08,1354.24L440.22,1354.34L587.48,1458.67L587.68,1458.81L587.68,1430.96L440.22,1328.47L440.22,1302.9L293.47,1202.86L293.47,1155.92L439.97,1251.91L439.97,1277.47L587.43,1376.04L587.51,1376.09L587.68,1376.21L734.92,1474.65L735.11,1474.78L735.11,1444.99L587.68,1348.4L587.68,1320.88L440.22,1226.21L440.22,1175.37L587.43,1265.95L587.43,1293.47L734.92,1386.19L735.11,1386.31L735.11,1327.03L587.68,1238.27L587.68,1183.5L734.93,1268.23L735.12,1268.34L735.12,1179.6L587.69,1100.67L587.69,1045.89L734.94,1120.8L735.12,1120.89L735.12,1002.66L587.69,935.51L587.69,880.72L734.95,943.87L735.12,943.94L735.12,796.23L587.69,742.86L587.69,688.09L734.96,737.45L735.13,737.51L735.13,560.31L587.7,522.73L587.7,467.95L734.98,501.54L735.13,501.57L735.13,294.89L587.7,275.07L587.7,220.31L734.99,236.13L735.13,236.13L735.13,0ZM147.03,1059L147.03,1015.96L292.89,1107.66L292.89,1154.55L147.03,1059ZM147.03,929.1L147.03,886.09L292.89,966.14L292.89,1013.02L147.03,929.1ZM147.03,777.61L147.03,734.62L292.89,801.05L292.89,847.94L147.03,777.61ZM147.03,604.62L147.03,561.65L292.89,612.5L292.89,659.37L147.03,604.62ZM147.03,410.14L147.03,367.19L292.89,400.47L292.89,447.32L147.03,410.14ZM147.03,194.2L147.03,151.29L292.89,165.01L292.89,211.84L147.03,194.19L147.03,194.2ZM439.99,1124.08L439.99,1174.91L293.49,1084.75L293.49,1037.83L439.99,1124.08ZM439.99,970.73L439.99,1021.57L293.49,943.12L293.49,896.19L439.99,970.73ZM439.99,791.85L439.99,842.68L293.49,777.9L293.49,730.98L439.99,791.85ZM439.99,587.48L439.99,638.32L293.49,589.21L293.49,542.31L439.99,587.48ZM439.99,357.64L439.99,408.46L293.49,376.99L293.49,330.11L439.99,357.64ZM439.99,102.34L439.99,153.17L293.49,141.36L293.49,94.47L439.99,102.34ZM587.45,1128.33L587.45,1183.07L440.24,1098.38L440.24,1047.56L587.45,1128.33ZM587.45,963.18L587.45,1017.93L440.24,945L440.24,894.17L587.45,963.18ZM587.45,770.53L587.45,825.32L440.24,766.15L440.24,715.31L587.45,770.53ZM587.45,550.45L587.45,605.19L440.24,561.75L440.24,510.96L587.45,550.45ZM587.45,302.81L587.45,357.59L440.24,331.91L440.24,281.08L587.45,302.81ZM587.45,27.76L587.45,82.51L440.24,76.59L440.24,25.79L587.45,27.76Z" style="fill-rule:nonzero;"/>
                <path d="M0,1199.94L0,1219.88L0.88,1219.15L146.83,1339.99L147.03,1340.16L147.03,1318.17L0.96,1199.17L0,1199.94Z" style="fill-rule:nonzero;"/>
            </g>
        </g>
    </g>
</svg>
