<?xml version="1.0" encoding="UTF-8" standalone="no"?>
<!DOCTYPE svg PUBLIC "-//W3C//DTD SVG 1.1//EN" "http://www.w3.org/Graphics/SVG/1.1/DTD/svg11.dtd">
<svg width="100%" height="100%" viewBox="0 0 1080 1350" version="1.1" xmlns="http://www.w3.org/2000/svg" xmlns:xlink="http://www.w3.org/1999/xlink" xml:space="preserve" xmlns:serif="http://www.serif.com/" style="fill-rule:evenodd;clip-rule:evenodd;stroke-linejoin:round;stroke-miterlimit:2;">
    <g transform="matrix(0.775946,0,0,0.970071,0,0)">
        <rect x="0" y="0" width="1391.85" height="1391.65" style="fill:white;"/>
    </g>
    <g id="Over">
        <g>
            <path d="M1073.4,279.75C1075.6,279.36 1077.8,278.99 1080,278.61L1080,226.17C1074.8,227.02 1069.6,227.9 1064.41,228.82L1073.41,279.75L1073.4,279.75Z" style="fill-rule:nonzero;"/>
            <path d="M968.99,1243.29C975.28,1226 982.99,1209.5 991.96,1194L947.42,1168.27C936.96,1186.35 927.95,1205.51 920.67,1225.7L968.99,1243.29Z" style="fill-rule:nonzero;"/>
            <path d="M823.79,1190.44L775.29,1172.79C772.34,1180.89 769.57,1189.06 767.04,1197.32C760.61,1218.16 755.57,1239.1 751.85,1259.97L802.69,1268.96C805.86,1251.28 810.06,1233.57 815.31,1215.98C817.91,1207.34 820.73,1198.85 823.79,1190.45L823.79,1190.44Z" style="fill-rule:nonzero;"/>
            <path d="M954.97,1295.84L1005.51,1304.72C1006.32,1300.05 1007.28,1295.37 1008.38,1290.67C1010.76,1280.39 1013.76,1270.47 1017.26,1260.86L969,1243.29C965.61,1252.59 962.64,1262.25 960.11,1272.01C958.03,1279.96 956.3,1287.89 954.97,1295.84Z" style="fill-rule:nonzero;"/>
            <path d="M768.67,1065.08C752.38,1093.41 738.3,1123.5 726.78,1155.14L775.28,1172.79C785.69,1144.02 798.48,1116.72 813.37,1090.94L768.67,1065.09L768.67,1065.08Z" style="fill-rule:nonzero;"/>
            <path d="M977.29,856.66L1003.09,901.4C1027.62,887.19 1053.36,874.99 1080,864.97L1080,849.85L1067.21,814.68C1036.02,826.03 1005.95,840.11 977.29,856.66Z" style="fill-rule:nonzero;"/>
            <path d="M890.39,328.91L908.06,377.49C963.76,357.17 1021.3,341.64 1080,331.09L1080,317.34L1073.4,279.76C1010.86,290.78 949.64,307.32 890.39,328.92L890.39,328.91Z" style="fill-rule:nonzero;"/>
            <path d="M1067.21,814.67C1071.45,813.12 1075.72,811.63 1080,810.18L1080,755.91C1069.75,759.07 1059.59,762.48 1049.52,766.15L1067.21,814.67Z" style="fill-rule:nonzero;"/>
            <path d="M996.54,620.56C1023.84,610.53 1051.7,602.09 1080,595.24L1080,542.15C1045.6,549.93 1011.81,559.88 978.83,571.91L996.54,620.57L996.54,620.56Z" style="fill-rule:nonzero;"/>
            <path d="M904.77,1050.11L944.22,1083.3C959.82,1064.71 977,1047.58 995.39,1032.18L962.24,992.72C941.52,1010.06 922.24,1029.21 904.78,1050.12L904.77,1050.11Z" style="fill-rule:nonzero;"/>
            <path d="M947.42,1168.28C958.03,1149.78 970.24,1132.47 983.72,1116.37L944.23,1083.3C928.8,1101.61 914.94,1121.38 902.76,1142.51L947.42,1168.28Z" style="fill-rule:nonzero;"/>
            <path d="M962.24,992.71C983.09,975.21 1005.42,959.62 1028.91,946.07L1003.09,901.39C976.95,916.42 952.23,933.73 929.07,953.1L962.24,992.7L962.24,992.71Z" style="fill-rule:nonzero;"/>
            <path d="M587.98,784.36C555.41,823.22 525.94,865.17 500.1,910.02L544.86,935.9C569.13,893.68 596.93,854.11 627.63,817.56L587.98,784.37L587.98,784.36Z" style="fill-rule:nonzero;"/>
            <path d="M1061.58,1111.06C1067.55,1106.08 1073.7,1101.33 1080,1096.8L1080,1035.59C1061.89,1046.14 1044.65,1058.15 1028.53,1071.7L1061.59,1111.06L1061.58,1111.06Z" style="fill-rule:nonzero;"/>
            <path d="M1080,1034.56L1080,977.27C1071.41,981.47 1062.96,985.95 1054.66,990.73L1080,1034.56Z" style="fill-rule:nonzero;"/>
            <path d="M1023.13,1149.47L1062.5,1182.49C1068.02,1175.88 1073.87,1169.6 1080,1163.62L1080,1133.01L1061.58,1111.05C1047.76,1122.68 1034.88,1135.46 1023.13,1149.47Z" style="fill-rule:nonzero;"/>
            <path d="M908.06,377.49C851.52,398.17 796.83,423.68 744.67,453.78L770.5,498.6C820,469.98 871.99,445.74 925.76,426.15L908.05,377.49L908.06,377.49Z" style="fill-rule:nonzero;"/>
            <path d="M786.02,950.53C762.98,977.97 742.21,1007.59 723.94,1039.29L768.66,1065.08C785.34,1036.07 804.47,1008.91 825.59,983.76L786.02,950.53Z" style="fill-rule:nonzero;"/>
            <path d="M1080,1283.7L1080,1246.52C1074.21,1256.58 1069.27,1267.19 1065.28,1278.34L1080,1283.7Z" style="fill-rule:nonzero;"/>
            <path d="M1036.39,1219.69L1080,1244.86L1080,1197.18L1062.5,1182.49C1052.81,1193.99 1044.06,1206.44 1036.39,1219.69Z" style="fill-rule:nonzero;"/>
            <path d="M0,0L0,50.94C17.92,33.56 36.16,16.57 54.73,0L0,0Z" style="fill-rule:nonzero;"/>
            <path d="M899.76,722.46C863.3,743.45 828.58,767.66 796.26,794.85L829.49,834.48C859.5,809.17 891.74,786.71 925.58,767.14L899.76,722.46Z" style="fill-rule:nonzero;"/>
            <path d="M862.68,874.02L829.49,834.48C799.55,859.41 771.77,887.16 746.45,917.31L786.02,950.54C809.41,922.69 835.11,897.1 862.68,874.02Z" style="fill-rule:nonzero;"/>
            <path d="M996.54,620.56C954.11,635.91 913.07,655.1 873.91,677.69L899.77,722.45C936.28,701.34 974.59,683.47 1014.23,669.08L996.54,620.56Z" style="fill-rule:nonzero;"/>
            <path d="M696.55,676.02L663.26,636.37C621.92,670.95 583.43,709.28 548.35,751.1L587.98,784.35C621.11,744.88 657.46,708.69 696.55,676.01L696.55,676.02Z" style="fill-rule:nonzero;"/>
            <path d="M191.93,1161.28L242.83,1170.29C252.27,1116.9 266.06,1063.52 284.42,1010.65C286.13,1005.77 287.84,1000.88 289.61,996.02L241.05,978.34C239.39,982.9 237.81,987.43 236.21,992.01C216.63,1048.04 201.95,1104.62 191.94,1161.28L191.93,1161.28Z" style="fill-rule:nonzero;"/>
            <path d="M544.86,935.9C521.18,977.04 500.73,1020.72 483.97,1066.76L532.59,1084.46C548.26,1041.22 567.45,1000.28 589.7,961.74L544.86,935.9Z" style="fill-rule:nonzero;"/>
            <path d="M581.15,1102.13L532.59,1084.45C530.23,1090.93 527.93,1097.44 525.75,1103.99C513.43,1140.84 504.04,1178.01 497.45,1215.17L548.37,1224.12C554.39,1190.21 562.91,1156.34 574.02,1122.65C576.33,1115.74 578.68,1108.91 581.15,1102.13Z" style="fill-rule:nonzero;"/>
            <path d="M770.5,498.59C721.04,527.09 674.01,559.93 630.02,596.74L663.25,636.37C704.86,601.42 749.48,570.34 796.36,543.35L770.5,498.59Z" style="fill-rule:nonzero;"/>
            <path d="M463.79,398.65C519.28,352.09 578.72,310.57 641.17,274.57L615.37,229.83C550.27,267.32 488.38,310.53 430.49,359L463.78,398.65L463.79,398.65Z" style="fill-rule:nonzero;"/>
            <path d="M0,538.12C34.45,484.43 72.03,433.44 112.43,385.32L72.76,351.98C47.43,382.2 23.14,413.5 0,445.85L0,538.12Z" style="fill-rule:nonzero;"/>
            <path d="M784.28,37.34L801.95,85.92C875.31,59.19 951.08,38.71 1028.47,25L1024.06,0.01L902.71,0.01C862.66,10.71 823.15,23.16 784.28,37.35L784.28,37.34Z" style="fill-rule:nonzero;"/>
            <path d="M197.76,81.57L230.99,121.2C283.49,77.22 338.64,36.77 396.02,0L303.52,0C267.25,25.71 231.95,52.9 197.76,81.57Z" style="fill-rule:nonzero;"/>
            <path d="M33.17,318.8L72.76,351.97C131.29,282.32 195.39,218.43 264.22,160.82L230.99,121.19C159.83,180.74 93.58,246.77 33.17,318.8Z" style="fill-rule:nonzero;"/>
            <path d="M615.37,229.83C680.54,192.16 748.91,160.28 819.67,134.51L801.94,85.91C728.42,112.72 657.29,145.84 589.47,184.99L615.36,229.83L615.37,229.83Z" style="fill-rule:nonzero;"/>
            <path d="M276.18,780.73C309.55,722.65 347.74,668.37 389.89,618.11L350.2,584.83C306.15,637.32 266.32,694.07 231.36,754.83L276.18,780.73Z" style="fill-rule:nonzero;"/>
            <path d="M310.57,551.58L350.2,584.83C395.04,531.47 444.22,482.48 497.02,438.27L463.79,398.64C408.68,444.72 357.36,495.86 310.58,551.57L310.57,551.58Z" style="fill-rule:nonzero;"/>
            <path d="M241.04,978.34C263.04,917.89 289.89,860.57 320.95,806.61L276.19,780.73C243.59,837.25 215.47,897.31 192.48,960.66L241.04,978.33L241.04,978.34Z" style="fill-rule:nonzero;"/>
            <path d="M795.56,1349.98C795.52,1323.18 797.9,1296.11 802.68,1268.96L853.52,1277.95C849.22,1302.08 847.13,1326.13 847.15,1350L795.56,1349.98Z" style="fill-rule:nonzero;"/>
            <path d="M1052.67,1349.96C1052.64,1337.92 1053.71,1325.8 1055.91,1313.61L1005.51,1304.72C1002.79,1319.84 1001.49,1335 1001.49,1349.96L1052.68,1349.96L1052.67,1349.96Z" style="fill-rule:nonzero;"/>
            <path d="M537.3,1350C537.27,1308.25 540.88,1266.19 548.38,1224.12L599.36,1233.09C592.35,1272.14 588.94,1311.21 588.97,1349.97L537.3,1349.99" style="fill-rule:nonzero;"/>
            <path d="M226.98,1349.97C226.98,1290.42 232.13,1230.3 242.82,1170.29L293.74,1179.24C283.59,1236.25 278.64,1293.39 278.71,1349.97L226.98,1349.97Z" style="fill-rule:nonzero;"/>
        </g>
    </g>
</svg>
