<?xml version="1.0" encoding="UTF-8" standalone="no"?>
<!DOCTYPE svg PUBLIC "-//W3C//DTD SVG 1.1//EN" "http://www.w3.org/Graphics/SVG/1.1/DTD/svg11.dtd">
<svg width="100%" height="100%" viewBox="0 0 1073 1075" version="1.1" xmlns="http://www.w3.org/2000/svg" xmlns:xlink="http://www.w3.org/1999/xlink" xml:space="preserve" xmlns:serif="http://www.serif.com/" style="fill-rule:evenodd;clip-rule:evenodd;stroke-linejoin:round;stroke-miterlimit:2;">
    <g id="Graphic" transform="matrix(6.11779e-17,0.999111,-0.999111,6.11779e-17,1073.88,1.43165)">
        <g>
            <path d="M965.54,0L750.48,0L750.48,0.25L643.05,0.25L643.05,15.71L540.1,14.33L535.76,14.39L531.41,14.33L428.61,15.71L428.38,15.71L428.38,0.25L322.75,0.25L322.75,0L0,0L0,172.36L107.5,160.82L107.5,200.42L0.21,214.84L0,214.87L0,365.75L107.5,341.25L107.5,380.86L0.18,408.19L0,408.24L0,537.65L107.5,501.65L107.5,541.25L0.16,580.06L0,580.12L0,688.05L107.5,641.99L107.5,681.59L0.14,730.45L0,730.51L0,816.97L107.5,762.33L107.5,801.91L0.13,859.35L0,859.42L0,924.41L107.5,862.61L107.5,902.18L0.11,966.76L0,966.83L0,1010.36L107.86,942.61L107.97,942.54L107.97,922.5L215.02,856.68L215.02,893.38L107.61,962.28L107.5,962.35L107.5,982.4L0.11,1052.69L0,1052.76L0,1074.82L107.5,1003.01L215.39,930.96L215.5,930.89L215.5,912.27L320.86,843.29L320.86,877.17L215.13,949.19L215.03,949.26L215.03,967.89L107.61,1042.49L107.51,1042.56L107.51,1063.21L215.03,987.1L215.41,986.83L215.5,986.76L322.66,910.91L322.76,910.84L322.76,892.33L428.29,819.04L428.39,818.97L428.39,849.93L320.97,927.39L320.87,927.46L320.87,946.07L215.13,1023.72L215.03,1023.79L215.03,1043.01L322.66,962.53L322.75,962.46L322.75,961.06L428.28,882.16L428.37,882.09L428.37,866.31L534.67,788.25L535.63,788.95L535.63,789.12L535.75,789.03L535.87,789.12L535.87,788.95L536.83,788.25L643.04,866.31L643.04,882.09L750.09,962.19L750.47,962.47L857.73,1042.73L858.11,1043.01L858.11,1023.79L750.47,944.68L750.47,927.47L643.42,850.21L643.04,849.94L643.04,818.98L750.09,893.4L750.46,893.66L750.46,910.85L857.62,986.77L857.83,986.92L858.1,987.11L965.15,1062.95L965.52,1063.22L965.52,1042.57L858.09,967.9L858.09,949.27L750.82,876.14L750.45,875.89L750.45,842.06L857.61,912.28L857.61,930.9L965.04,1002.71L965.52,1003.03L1072.56,1074.59L1072.93,1074.84L1072.93,1052.78L965.52,982.41L965.52,962.36L858.09,893.39L858.09,856.7L965.04,922.51L965.04,942.55L1072.56,1010.14L1072.92,1010.37L1072.92,966.84L965.51,902.17L965.51,862.6L1072.56,924.2L1072.92,924.4L1072.92,859.41L965.51,801.91L965.51,762.33L1072.57,816.8L1072.91,816.98L1072.91,730.52L965.5,681.6L965.5,642L1072.58,687.92L1072.91,688.06L1072.91,580.13L965.5,541.25L965.5,501.65L1072.59,537.54L1072.9,537.65L1072.9,408.24L965.49,380.86L965.49,341.25L1072.61,365.68L1072.9,365.74L1072.9,214.86L965.49,200.42L965.49,160.82L1072.63,172.33L1072.89,172.36L1072.89,0L965.48,0L965.54,0ZM215.02,763.56L215.02,800.25L107.97,861.78L107.97,822.24L215.02,763.56ZM215.02,651.81L215.02,688.52L107.97,741.51L107.97,701.95L215.02,651.81ZM215.02,521.48L215.02,558.21L107.97,601.2L107.97,561.61L215.02,521.49L215.02,521.48ZM215.02,390.68L215.02,409.29L107.97,440.85L107.97,401.28L215.02,372.59L215.02,390.69L215.02,390.68ZM215.02,205.1L215.02,241.84L107.97,260.5L107.97,220.89L215.02,205.1ZM215.02,19.08L215.02,55.81L107.97,60.11L107.97,20.52L215.02,19.08ZM643.05,126.17L643.05,110.46L750.22,120.53L750.48,120.56L750.48,154.4L643.32,141.43L643.06,141.4L643.06,126.17L643.05,126.17ZM322.75,737.22L322.75,703.44L428.26,645.59L428.38,645.52L428.38,676.49L322.75,737.22ZM428.19,267.71L428.38,267.67L428.38,298.65L322.75,325.55L322.75,291.75L428.19,267.71ZM535.76,287.78L535.88,287.81L535.88,287.75L538.95,286.93L642.75,314.79L643.05,314.87L643.05,345.82L538.9,315.09L538.83,315.07L535.76,315.96L532.68,315.07L428.54,345.76L428.37,345.81L428.37,314.87L532.56,286.93L535.63,287.75L535.63,287.81L535.75,287.78L535.76,287.78ZM535.76,416.87L535.88,416.92L535.88,416.83L538.42,415.84L642.73,456.37L643.05,456.5L643.05,487.48L538.37,444L538.28,443.96L535.76,444.99L533.23,443.96L428.52,487.42L428.37,487.48L428.37,456.5L533.09,415.84L535.63,416.83L535.63,416.92L535.75,416.87L535.76,416.87ZM428.22,409.33L428.38,409.27L428.38,440.25L322.75,479.86L322.75,446.06L428.22,409.32L428.22,409.33ZM428.24,535.3L428.38,535.24L428.38,566.22L322.75,617.11L322.75,583.31L428.24,535.31L428.24,535.3ZM428.38,723.78L428.38,692.81L534.01,630.67L535.64,631.62L535.64,631.76L535.76,631.69L535.88,631.76L535.88,631.62L537.51,630.67L642.69,692.59L643.05,692.8L643.05,723.77L537.52,658.84L537.4,658.76L535.77,659.76L534.14,658.76L428.5,723.71L428.39,723.78L428.38,723.78ZM537.92,558.59L537.81,558.53L535.76,559.59L533.71,558.53L428.51,613.4L428.38,613.46L428.38,582.5L533.6,530.41L535.65,531.41L535.65,531.53L535.77,531.47L535.89,531.53L535.89,531.41L537.93,530.41L642.71,582.33L643.05,582.5L643.05,613.46L537.92,558.58L537.92,558.59ZM643.05,676.49L643.05,645.54L750.12,704.29L750.47,704.48L750.47,738.3L643.4,676.7L643.04,676.5L643.05,676.49ZM643.39,566.38L643.05,566.22L643.05,535.25L750.14,584.02L750.47,584.17L750.47,618.02L643.38,566.39L643.39,566.38ZM643.37,440.37L643.05,440.25L643.05,409.28L750.16,446.61L750.47,446.72L750.47,480.57L643.36,440.37L643.37,440.37ZM643.35,298.72L643.05,298.64L643.05,267.66L750.19,292.11L750.48,292.17L750.48,326.02L643.35,298.71L643.35,298.72ZM531.97,143.69L535.65,144.18L535.65,144.21L535.77,144.19L535.89,144.21L535.89,144.18L539.56,143.69L642.79,157.56L643.06,157.6L643.06,188.56L539.49,171.87L539.45,171.87L535.77,172.45L532.12,171.87L532.08,171.87L428.58,188.52L428.38,188.55L428.38,157.59L531.97,143.69ZM428.38,110.46L428.38,141.41L322.75,154.18L322.75,120.39L428.16,110.48L428.37,110.46L428.38,110.46ZM215.5,111.58L215.5,74.85L320.86,69.19L320.86,103.09L215.5,111.58ZM215.5,297.54L215.5,260.82L320.86,241.04L320.86,274.93L215.5,297.54ZM215.5,464.97L215.5,428.24L320.86,395.78L320.86,429.68L215.5,464.97ZM215.5,613.84L215.5,577.13L320.86,533.39L320.86,567.29L215.5,613.84ZM215.5,744.14L215.5,707.43L320.86,653.86L320.86,687.76L215.5,744.14ZM215.5,855.84L215.5,819.15L320.86,757.17L320.86,791.05L215.5,855.84ZM322.75,840.23L322.75,806.45L428.27,740.17L428.38,740.1L428.38,771.08L322.75,840.23ZM643.05,787.42L643.05,818.39L537.17,744.79L537.03,744.7L535.76,745.58L534.49,744.7L428.48,818.33L428.38,818.4L428.38,787.43L534.38,716.63L535.65,717.48L535.65,717.64L535.77,717.56L535.89,717.64L535.89,717.48L537.16,716.63L642.69,787.17L643.06,787.42L643.05,787.42ZM750.48,807.64L750.48,841.46L643.42,771.33L643.05,771.09L643.05,740.11L750.11,807.41L750.47,807.64L750.48,807.64ZM857.64,819.15L857.64,855.84L750.48,789.89L750.48,756.06L857.64,819.15ZM857.64,725.52L857.64,744.14L750.82,686.94L750.47,686.75L750.47,652.9L857.63,707.43L857.63,725.52L857.64,725.52ZM857.64,577.13L857.64,613.84L750.81,566.6L750.48,566.45L750.48,532.61L857.64,577.13ZM857.64,428.23L857.64,464.97L750.79,429.15L750.48,429.04L750.48,395.19L857.64,428.23ZM857.64,278.94L857.64,297.54L750.76,274.58L750.47,274.52L750.47,240.68L857.63,260.82L857.63,278.94L857.64,278.94ZM857.64,92.97L857.64,111.57L750.73,102.95L750.47,102.93L750.47,69.09L857.63,74.84L857.63,92.97L857.64,92.97ZM965.07,822.24L965.07,861.78L858.12,800.25L858.12,763.56L965.07,822.24ZM965.07,701.94L965.07,741.5L858.12,688.51L858.12,651.8L965.07,701.94ZM965.07,561.59L965.07,601.19L858.12,558.2L858.12,521.47L965.07,561.59ZM965.07,401.26L965.07,440.84L858.12,409.28L858.12,372.57L965.07,401.26ZM965.07,220.89L965.07,260.49L858.12,241.84L858.12,205.1L965.07,220.89ZM965.07,20.51L965.07,60.11L858.12,55.81L858.12,19.08L965.07,20.51Z" style="fill-rule:nonzero;"/>
            <path d="M643.05,913.04L643.05,897.26L536.88,816.4L536.73,816.29L535.76,817.02L534.79,816.29L428.47,897.19L428.38,897.26L428.38,913.04L320.95,996.2L320.86,996.27L320.86,1014.08L428.29,929.51L428.38,929.44L428.38,929.43L534.92,845.54L535.64,846.1L535.64,846.29L535.76,846.2L535.88,846.29L535.88,846.1L536.6,845.54L642.67,929.13L643.05,929.43L643.05,929.44L750.1,1013.78L750.48,1014.08L750.48,996.27L643.43,913.33L643.05,913.04Z" style="fill-rule:nonzero;"/>
            <path d="M535.76,874.17L535.04,873.58L428.47,960.32L428.38,960.39L428.38,976.79L535.1,888.51L535.64,888.97L535.64,889.16L535.76,889.07L535.88,889.16L535.88,888.97L536.43,888.51L642.66,976.47L643.05,976.79L643.05,960.39L536.49,873.58L535.76,874.17Z" style="fill-rule:nonzero;"/>
        </g>
    </g>
</svg>
