<?xml version="1.0" encoding="UTF-8" standalone="no"?>
<!-- Created with Inkscape (http://www.inkscape.org/) -->

<svg
   width="1189.2976mm"
   height="830.7868mm"
   viewBox="0 0 1189.2976 830.7868"
   version="1.1"
   id="svg1"
   xml:space="preserve"
   xmlns="http://www.w3.org/2000/svg"
   xmlns:svg="http://www.w3.org/2000/svg"><defs
     id="defs1" /><g
     id="layer1"
     transform="translate(1061.414,736.65029)"><g
       id="g25400"><path
         style="fill:#5488c5"
         d="m -876.76415,93.397278 c 1.44675,-0.388171 3.54027,-0.373434 4.65226,0.03275 1.11199,0.406183 -0.0717,0.723777 -2.63046,0.705764 -2.55874,-0.01801 -3.46855,-0.350344 -2.0218,-0.738514 z m -9.80268,-1.556956 c 0.42646,-0.595039 1.1243,-0.595039 1.55075,0 0.42646,0.595039 0.0775,1.081889 -0.77537,1.081889 -0.85292,0 -1.20183,-0.48685 -0.77538,-1.081889 z m 20.93515,0 c 0.42645,-0.595039 1.12429,-0.595039 1.55075,0 0.42646,0.595039 0.0775,1.081889 -0.77538,1.081889 -0.85291,0 -1.20183,-0.48685 -0.77537,-1.081889 z m -30.62734,-3.124404 c -7.35509,-4.438316 -17.28619,-20.638694 -15.85097,-25.857312 1.49579,-5.438873 9.09015,-2.865332 14.46614,4.902221 17.09645,24.701948 49.02434,10.714241 49.06395,-21.495065 0.008,-6.309836 -0.25855,-6.382955 -5.01414,-1.37669 -30.86629,32.493347 -74.11592,-15.927641 -57.38894,-64.250927 10.66612,-30.813793 42.99346,-41.904656 57.84562,-19.84567 3.58103,5.318685 4.36182,4.96624 4.7845,-2.159696 0.3929,-6.623788 5.94671,-9.580564 9.74146,-5.186227 2.04935,2.373154 2.41197,83.436016 0.44875,100.317941 -2.27592,19.570975 -13.30243,37.661917 -22.85594,37.499244 -1.15122,-0.0196 0.26208,-1.521469 3.14067,-3.337482 6.4068,-4.041861 12.17018,-11.531178 15.51251,-20.157956 3.52306,-9.093292 4.66765,-112.047522 1.26592,-113.868908 -3.14427,-1.683538 -5.69952,1.733109 -6.0903,8.143409 -0.4351,7.137198 -1.31772,7.316611 -6.28618,1.27781 -22.85779,-27.78204 -59.06595,-3.546987 -59.06595,39.5343687 0,41.4898953 35.31272,65.5022623 58.37575,39.6950423 6.01969,-6.735948 6.75582,-6.226263 6.75582,4.67762 0,33.324643 -33.22052,47.689391 -51.19379,22.136498 -8.27778,-11.768651 -15.3319,-9.401077 -9.00438,3.022142 3.96747,7.789596 7.86317,12.038608 14.25715,15.550197 3.19843,1.756581 4.76857,3.20325 3.4892,3.214821 -1.27937,0.01157 -4.15796,-1.084351 -6.39685,-2.435381 z M 75.647439,90.053096 C 75.343826,89.367641 77.911441,79.691499 81.35325,68.550559 89.110566,43.440572 90.056983,51.836355 73.662184,0.32221966 58.948773,-45.908821 58.510542,-48.27962 64.68581,-48.239411 c 5.745215,0.03741 5.727623,9.29e-4 17.080619,35.418765 5.819535,18.155151 11.068612,34.221198 11.664615,35.702326 1.215827,3.021456 2.281124,0.09093 15.834016,-43.55778 8.43496,-27.165779 8.61895,-27.526272 14.06753,-27.563311 6.7418,-0.04583 6.37133,2.049614 -8.88985,50.2829732 C 109.21818,18.555888 100.74609,45.393489 95.615862,61.682675 L 86.288176,91.299378 H 81.24382 c -2.774396,0 -5.292767,-0.560827 -5.596381,-1.246282 z M 93.942973,61.682675 C 128.84089,-48.857898 128.24437,-46.663933 123.38839,-46.616578 c -4.66852,0.04553 -4.34165,-0.827662 -25.960598,69.351261 -2.997558,9.730606 -3.305211,9.082298 -18.505035,-38.995149 -9.290102,-29.384843 -12.049237,-34.437403 -15.883924,-29.08683 -1.611209,2.248134 -1.281837,3.453248 13.462487,49.2569556 14.37282,44.6496194 13.999131,40.9631794 6.539245,64.5096334 -6.906924,21.801076 -6.858947,21.257252 -1.87532,21.257252 h 3.939999 z M -1035.0096,55.577315 c -10.5272,-4.411992 -24.1095,-24.275015 -24.067,-35.196292 0.01,-1.606301 1.2874,0.903556 2.8469,5.57746 10.123,30.338191 42.0652,39.782057 56.92904,16.831309 3.47857,-5.371156 5.34429,-4.337492 5.34429,2.960903 0,6.742253 2.27314,9.395508 6.233,7.27528 2.31848,-1.241383 2.97563,-96.932735 0.67928,-98.912991 -3.39398,-2.92679 -6.91228,0.835009 -6.91228,7.390671 0,7.915642 -1.1987,8.05985 -7.21983,0.86858 -17.8993,-21.377665 -47.3599,-9.727081 -56.4728,22.332887 l -1.4688,5.167193 0.5936,-5.457038 c 3.2886,-30.233525 37.9732,-45.565789 57.0692,-25.227345 6.38611,6.801601 6.11841,6.824269 6.55612,-0.555153 0.35199,-5.934061 0.47684,-6.085624 5.01323,-6.085624 h 4.65226 V 3.6663952 54.785635 h -4.65226 c -4.09428,0 -4.69397,-0.486589 -5.00005,-4.057082 -0.69848,-8.147787 -1.16417,-8.526913 -5.1992,-4.232658 -9.2315,9.82465 -23.9927,13.663002 -34.9247,9.08142 z m 318.31286,-1.717935 c -19.62697,-10.533713 -28.82321,-47.7555804 -18.67438,-75.584746 14.33668,-39.312674 54.0048,-38.771047 68.24302,0.931786 3.64125,10.153507 4.61944,26.059242 1.60798,26.1463668 -1.20829,0.034957 -15.54305,0.217526 -31.85502,0.4057083 l -29.65812,0.3421496 -0.33613,4.0570823 c -2.54036,30.662513 31.85687,43.113194 47.99474,17.372533 4.94267,-7.8838 5.19804,-8.065562 8.58313,-6.109131 4.89487,2.829021 5.14044,5.245312 1.37505,13.529832 -9.04135,19.892534 -29.9021,28.235207 -47.28027,18.908419 z m 32.84029,-3.588404 c 5.78326,-4.131893 15.5579,-17.548441 15.5579,-21.354581 0,-7.576293 -5.78619,-7.170029 -10.33361,0.725551 -14.94434,25.947491 -44.92071,17.027692 -50.0614,-14.896323 -1.80397,-11.2027795 -2.4487,-10.9741793 32.31756,-11.4587633 l 30.98511,-0.431881 -0.2427,-7.213338 c -1.35753,-40.3470237 -41.11566,-59.1064527 -61.90865,-29.2109017 -29.30165,42.1290546 6.33656,110.524668 43.68579,83.840237 z M -727.6148,-9.8494595 c 0,-6.4285045 6.44939,-18.0232425 12.64027,-22.7247335 15.00913,-11.398271 39.48723,2.205634 39.65896,22.040799 l 0.0386,4.4627911 h -26.16893 -26.16894 z m 50.78808,-0.4013965 c 2.3378,-8.500492 -11.7036,-23.332221 -23.26458,-24.574045 -11.58218,-1.244102 -29.72617,16.597055 -25.82827,25.3971825 1.37492,3.1040995 48.22884,2.3185021 49.09285,-0.8231375 z m 73.0782,64.157021 c -7.12764,-4.878759 -10.41652,-10.773232 -8.38869,-15.034604 3.17496,-6.672014 4.84343,-6.889316 10.77873,-1.403827 10.47092,9.677376 21.45277,4.019523 21.45277,-11.052478 0,-5.935133 -3.77162,-11.476343 -11.63064,-17.0875671 -23.75749,-16.9625023 -25.72348,-51.4426389 -3.37737,-59.2334699 12.81051,-4.466305 29.71876,10.119193 22.57942,19.477603 -3.08306,4.041353 -2.9734,4.065736 -11.0606,-2.4595 -7.06329,-5.699075 -16.2829,-0.26823 -16.2829,9.591496 0,6.443826 3.17272,10.792067 14.70972,20.1598235 29.92453,24.2979675 12.16915,78.2270225 -18.78044,57.0425235 z m 24.71892,-3.53144 c 13.83547,-12.77528 10.58989,-39.736586 -6.2028,-51.5272125 -15.95474,-11.2022815 -20.89752,-24.9828795 -11.88042,-33.1229185 5.24609,-4.735815 8.25605,-4.672718 15.05227,0.315538 9.15429,6.719017 15.21735,0.381447 7.09786,-7.419216 -12.25293,-11.771785 -27.64594,-7.94906 -32.21996,8.001552 -4.88197,17.024507 0.0459,29.0736417 16.80936,41.100492 10.13211,7.269222 14.035,16.24494 11.19201,25.738939 -3.28398,10.966686 -14.20006,14.227397 -22.21693,6.636361 -7.74809,-7.336527 -13.60209,-0.901861 -6.6428,7.301705 7.88315,9.292594 20.7414,10.611049 29.01141,2.97476 z m 81.70141,2.668062 c -24.83795,-16.095887 -30.04429,-64.84983 -9.60585,-89.952323 13.89179,-17.061896 32.58922,-18.631837 46.93251,-3.940715 5.62862,5.765122 5.70669,5.791934 5.70669,1.959957 0,-6.460065 2.50159,-9.69696 7.02972,-9.095996 l 4.01939,0.533445 V 3.6663952 54.785635 l -4.01939,0.533445 c -4.54022,0.602569 -7.02972,-2.63794 -7.02972,-9.150394 v -3.939523 l -4.06334,4.324427 c -11.09554,11.808468 -26.7414,14.413781 -38.97001,6.489197 z m 30.95664,-1.967812 c 2.63325,-1.890324 6.41703,-5.349882 8.40841,-7.687909 4.31238,-5.063058 5.99443,-4.145259 5.99443,3.27082 0,4.092276 0.60149,5.741155 2.38194,6.529633 5.53508,2.45123 5.7595,0.483406 5.7595,-50.5003294 V -44.956759 l -2.84155,-0.995113 c -4.09211,-1.433057 -5.29989,0.28075 -5.29989,7.520384 0,7.939509 -0.80615,7.950922 -8.22468,0.11644 -27.90693,-29.471662 -66.38123,9.373405 -56.45797,57.002038 6.10709,29.312159 31.64706,45.763854 50.27981,32.387985 z m -19.48555,-6.326352 c -10.13761,-2.286021 -21.8103,-19.424977 -23.5463,-34.572907 -3.68104,-32.119999 20.7289,-57.433049 41.62679,-43.166875 29.62044,20.220717 14.53241,85.093961 -18.08049,77.739782 z m 17.07149,-5.975271 c 10.82227,-7.031666 16.45943,-21.190715 15.33364,-38.51403965 -2.53737,-39.04432235 -39.82785,-48.94608535 -51.59098,-13.69898135 -11.10894,33.28691 12.67406,67.536035 36.25734,52.213021 z m 67.86333,16.061336 c -41.5332,-21.329944 -30.42072,-104.310766 14.08513,-105.178705 19.71921,-0.384558 40.53476,17.383042 32.15195,27.444043 -4.07587,4.891836 -5.49898,4.83346 -8.9787,-0.368306 -17.49219,-26.148733 -51.39048,-8.487896 -51.29448,26.7241615 0.0987,36.1899175 34.22434,53.5268935 51.85495,26.3440365 2.83241,-4.367004 4.47506,-4.299727 8.34226,0.341668 11.53468,13.84386 -27.07269,34.49622 -46.16111,24.693102 z m 27.71559,-1.687018 c 12.67405,-5.251648 21.39738,-16.697549 16.76676,-21.999706 l -2.7501,-3.148919 -4.1692,5.107667 c -17.79473,21.800287 -45.84028,12.149637 -52.15193,-17.945813 -8.41078,-40.104573 25.6828,-69.158039 50.33917,-42.897443 8.21889,8.753636 14.75043,3.919268 7.99577,-5.918132 -17.43723,-25.395387 -54.62345,-16.285682 -64.82059,15.879444 -13.48257,42.528446 15.53138,84.704068 48.79012,70.922902 z m 58.85658,1.491632 c -19.35835,-9.877428 -29.95259,-46.0046173 -21.40101,-72.979105 9.95305,-31.395182 43.22737,-43.29911 58.33026,-20.867722 3.58103,5.318685 4.36182,4.96624 4.78451,-2.159696 0.33118,-5.583305 0.67925,-6.128251 4.2169,-6.602059 7.27968,-0.974985 7.19318,-1.594407 7.19318,51.5098159 0,50.8266751 -0.1269,52.0565161 -5.37128,52.0565161 -4.80919,0 -6.25936,-1.732129 -6.25936,-7.476374 0,-6.185747 -1.06829,-6.889772 -3.87895,-2.556305 -6.51984,10.052285 -26.33116,14.832025 -37.61425,9.074929 z m 24.75925,-1.439938 c 3.18255,-1.318728 7.9403,-4.970102 10.57279,-8.114165 5.99105,-7.155313 7.32422,-7.172361 7.32422,-0.09366 0,6.061195 2.94796,9.793345 6.3126,7.991817 2.8373,-1.51918 2.76574,-97.602178 -0.0738,-99.12257 -3.07668,-1.647347 -5.63067,1.824907 -6.01821,8.182013 -0.42891,7.035574 -2.22424,7.535793 -6.1239,1.706256 -7.61807,-11.388109 -28.22721,-15.75357 -38.29308,-8.1113 -40.3657,30.646713 -17.44182,115.686318 26.29941,97.561608 z M -306.919,43.588192 c -17.31761,-6.610309 -26.58194,-34.3461616 -19.03024,-56.973356 8.32513,-24.944634 30.71444,-31.718044 45.39476,-13.73322 22.72968,27.84607274 2.62249,81.771214 -26.36452,70.706576 z m 18.36073,-4.035172 c 26.6693,-17.140826 18.15159,-74.816516 -11.0491,-74.816516 -24.99815,0 -36.74806,43.1524246 -18.42018,67.649488 7.68634,10.273561 19.98286,13.264117 29.46928,7.167028 z m 66.87616,14.839391 c -7.71152,-3.788489 -18.76855,-19.784044 -21.60315,-31.25202 -12.43275,-50.299195 27.73996,-95.263113 57.13788,-63.952459 2.85595,3.041759 5.4365,5.530471 5.73456,5.530471 0.29806,0 0.68607,-11.501829 0.86223,-25.55962 l 0.3203,-25.55962 3.85594,-0.516435 c 7.44662,-0.997345 7.19317,-3.498429 7.19317,70.983812 0,72.256627 0.059,71.530512 -5.81532,71.530512 -3.90921,0 -5.81532,-2.765992 -5.81532,-8.438732 0,-5.664225 -0.31124,-5.649745 -5.59275,0.2602 -8.64151,9.669726 -24.56087,12.730019 -36.27754,6.973891 z m 25.13634,-1.193047 c 3.18255,-1.318728 7.9403,-4.970102 10.57279,-8.114165 5.96626,-7.1257 7.32422,-7.169321 7.32422,-0.235269 0,6.390583 2.3791,9.834616 5.75951,8.337589 3.33764,-1.478085 3.8056,-136.493702 0.47926,-138.274725 -4.87198,-2.608606 -5.64041,0.947963 -5.97753,27.666265 -0.3476,27.548171 -0.81778,29.162833 -6.16458,21.169997 -7.86996,-11.764651 -28.12829,-15.737416 -38.98091,-7.644364 -39.74369,29.637778 -16.03885,114.923056 26.98724,97.094672 z m -17.22076,-9.573129 c -3.0028,-1.147822 -6.40477,-3.08651 -7.55991,-4.308196 -13.59879,-14.382123 -17.87323,-33.8399171 -11.57771,-52.703203 8.32513,-24.944634 30.71444,-31.718044 45.39476,-13.73322 22.70434,27.81503017 2.66726,81.800957 -26.25714,70.744619 z m 18.25335,-4.073215 c 26.53511,-17.054578 18.00467,-74.816516 -11.0491,-74.816516 -24.91576,0 -36.68765,43.233167 -18.42017,67.649488 7.68633,10.273561 19.98285,13.264117 29.46927,7.167028 z m 63.57863,12.675815 c -24.01985,-16.747703 -28.11155,-65.41094 -7.61639,-90.583091 22.29921,-27.387894 61.21931,-5.989288 62.417206,34.3175198 l 0.253047,8.5145479 -31.984253,0.8770698 c -36.86485,1.0109054 -32.96419,0.1764856 -31.93472,6.8313875 5.05314,32.665685 31.4731,41.045242 48.426178,15.359214 8.94477,-13.552442 16.672849,-5.575089 9.014265,9.305026 -10.205231,19.82808 -32.204523,26.792774 -48.575333,15.378326 z m 29.39474,1.045285 c 14.618237,-6.13858 27.842553,-30.257865 16.502969,-30.099079 -1.537311,0.02153 -3.693979,2.440371 -5.69441,6.386654 -14.290159,28.190427 -53.995269,11.56103 -50.672359,-21.2227309 l 0.39136,-3.8611524 31.98425,-0.8114165 31.98425,-0.8114165 -0.351382,-5.6799156 C -81.551579,-53.84745 -131.08887,-65.904505 -147.41755,-19.624544 c -14.7848,41.904195 12.63195,86.439518 44.87774,72.898664 z m -38.27774,-60.8961213 c -2.14625,-4.8455067 6.39155,-20.9481517 13.73795,-25.9103297 15.31862,-10.347077 43.401145,8.039793 38.652249,25.307334 -0.720779,2.6208369 -51.238869,3.2022852 -52.390199,0.6029957 z m 51.024,-1.4252369 c 2.819656,-6.3658178 -10.52411,-23.5976628 -19.7716,-25.5326018 -13.49186,-2.82303 -32.3027,12.875288 -29.15272,24.328984 0.77919,2.8332418 47.691299,3.9873557 48.92432,1.2036178 z M -965.96678,52.549708 c -0.8181,-2.132939 -1.23913,-25.492947 -1.23913,-68.751867 0,-72.557089 -0.0875,-71.676706 7.02972,-70.732123 l 4.01939,0.533445 v 70.593236 70.593236 l -4.28542,0.497343 c -3.31459,0.384674 -4.56614,-0.234528 -5.52456,-2.73327 z m 7.78755,0.07561 c 1.1502,-1.018802 1.40122,-15.986552 1.16306,-69.351262 l -0.3037,-68.052059 h -3.48919 -3.48919 l -0.3037,68.052059 c -0.3087,69.174059 -0.22944,70.650463 3.79289,70.650463 0.63969,0 1.82311,-0.58464 2.62983,-1.299201 z m 20.32357,1.619227 c -1.14513,-1.014232 -1.40275,-12.42167 -1.16307,-51.5000984 l 0.30788,-50.1972906 3.85594,-0.516435 c 7.27967,-0.974985 7.19317,-1.594407 7.19317,51.5098159 0,35.2953351 -0.37286,48.6819631 -1.39568,50.1091161 -1.58345,2.209401 -6.59294,2.548117 -8.79824,0.594892 z m 6.02807,-1.255367 c 2.84699,-1.524364 2.78596,-97.60299 -0.063,-99.12839 -5.36588,-2.873055 -5.63789,-0.640243 -5.96608,48.9735639 -0.3393,51.2927431 -0.0827,53.4272451 6.02904,50.1548261 z m 113.72644,0.660475 c -1.99358,-2.781659 -1.99358,-97.184855 0,-99.966514 3.7497,-5.231987 10.23496,-1.118832 10.23496,6.491332 0,5.73543 0.50384,5.687769 5.57719,-0.527576 12.08393,-14.803984 30.49928,-13.715391 40.64159,2.40246 6.13528,9.749998 6.70062,14.425079 6.70062,55.411122 v 37.325159 l -3.85593,0.516435 c -7.06125,0.945732 -7.19318,0.257474 -7.19318,-37.527934 0,-46.997998 -2.76411,-54.458094 -19.55009,-52.763926 -16.76186,1.691733 -21.59625,13.854573 -22.13759,55.695932 -0.23131,17.87874 -0.90198,31.686135 -1.59624,32.862368 -1.52343,2.581055 -6.99361,2.631371 -8.82133,0.08114 z m 7.54943,-1.703975 c 0.51751,-1.115697 1.21178,-15.903763 1.54282,-32.862368 0.88595,-45.386766 10.93038,-63.671912 30.86255,-56.183043 11.59335,4.355826 13.6155,12.163976 14.21989,54.907509 0.52029,36.795965 1.30473,40.737557 6.8333,34.335453 3.56622,-4.129694 1.79594,-69.655168 -2.18833,-80.999314 -7.70856,-21.948082 -28.20035,-26.511591 -42.14438,-9.385531 -6.27113,7.702203 -7.3693,7.742123 -7.82394,0.284417 -0.42591,-6.986396 -3.33448,-10.444303 -6.46706,-7.688458 -1.84969,1.627242 -2.06363,6.067713 -2.34522,48.67669 -0.32786,49.610186 -0.194,50.943187 5.11577,50.943187 0.79951,0 1.87708,-0.912844 2.3946,-2.028542 z m 159.98491,1.778165 c -2.04214,-2.849409 -2.09228,-97.195518 -0.0532,-100.040704 2.65416,-3.703372 9.00785,-2.393716 10.23496,2.109683 1.3677,5.019384 1.74885,5.023363 5.9743,0.06236 5.86079,-6.880999 14.85867,-8.602578 19.32233,-3.696972 4.14975,4.560607 -0.99084,12.622884 -8.42166,13.208189 -12.20988,0.961737 -15.42837,12.432572 -16.6656,59.396821 l -0.7909,30.022411 -4.07571,0.479899 c -2.24164,0.263944 -4.72769,-0.429817 -5.52455,-1.541692 z m 7.41774,-0.991598 c 0.8557,-0.780787 1.52193,-12.113942 1.93038,-32.837519 0.86112,-43.690622 4.89461,-56.799155 17.47708,-56.799155 4.24995,0 5.64332,-0.704882 6.6665,-3.372476 4.47948,-11.678726 -9.40753,-11.19266 -18.36916,0.642948 -4.04405,5.340975 -5.63015,4.802131 -6.2961,-2.138971 -0.31712,-3.305287 -1.03581,-4.057083 -3.87844,-4.057083 h -3.48919 l -0.3084,48.5740109 c -0.33158,52.2259221 0.0941,55.6210221 6.26733,49.9882451 z m 583.406458,1.5123 c -1.145125,-1.014232 -1.402747,-12.42167 -1.163064,-51.5000984 l 0.30788,-50.1972906 3.855933,-0.516435 c 4.620599,-0.618848 7.193172,1.958482 7.193172,7.206475 0,4.974757 0.6168,4.863827 5.376192,-0.966892 10.824819,-13.261458 26.009545,-12.181657 36.1151675,2.568185 l 6.0179184,8.783559 2.490296,-4.879811 C 8.5695205,-51.166482 27.756391,-55.478804 38.693887,-43.853024 51.84167,-29.877866 55.109458,56.756082 42.432885,55.2734 L 38.262614,54.785635 37.674855,17.460476 C 36.932143,-29.704839 34.328774,-37.188566 19.476622,-34.852745 4.5594146,-32.506693 0.2079382,-19.99171 -0.64899333,23.029158 L -1.2815498,54.785635 -5.300935,55.31908 c -6.705863,0.889989 -7.029493,-0.922769 -7.031527,-39.3859 -0.0023,-44.360146 -2.835348,-52.721231 -17.174668,-50.687886 -15.188697,2.153788 -19.323604,13.707932 -19.845177,55.453247 -0.226822,18.154241 -0.883002,31.663239 -1.596241,32.862368 -1.354972,2.27804 -6.538893,2.681029 -8.794064,0.683635 z m 8.001741,-28.890513 c 1.243182,-48.254767 6.604151,-62.270665 23.811041,-62.252395 14.692418,0.0156 17.094581,7.331322 17.696409,53.893938 0.4293561,33.218655 0.5854218,35.294983 2.7241116,36.24211 4.8736297,2.158306 5.4107271,-0.945183 5.8537341,-33.824401 0.5906868,-43.839758 5.964064,-56.317713 24.2520753,-56.317713 13.505484,0 16.232233,9.302588 16.24116,55.408406 0.0057,29.553918 0.231296,33.62053 1.914931,34.521999 2.466592,1.320688 6.208644,-0.345037 6.31826,-2.81249 0.542702,-12.216168 -0.469409,-69.872437 -1.304205,-74.295849 -5.139399,-27.232596 -30.843615,-32.906333 -44.1793698,-9.751791 -4.7258756,8.205422 -4.5419064,8.214408 -8.2728164,-0.404104 -7.5828468,-17.5166 -26.7410348,-19.059045 -38.4803128,-3.098088 -4.915403,6.683081 -4.740157,6.739153 -6.204119,-1.985102 -1.157885,-6.900236 -3.926951,-9.141911 -6.957569,-5.632445 -2.808191,3.251895 -2.481455,94.868428 0.346639,97.1971 5.07958,4.182564 5.484483,2.43778 6.240031,-26.889175 z M -1027.6852,44.315467 c -13.4966,-3.716207 -23.2859,-20.990706 -23.2357,-41.0026569 0.1069,-42.6838131 40.493,-56.4501431 54.28287,-18.5033111 11.03201,30.357763 -7.55147,65.97537 -31.04717,59.505968 z m 16.843,-5.103096 c 28.04484,-18.393857 16.02293,-79.031875 -14.6633,-73.960865 -20.6541,3.413176 -31.0982,36.5019234 -19.1544,60.684855 7.5394,15.265193 22.0809,20.973843 33.8177,13.27601 z m 127.95841,1.979445 c -33.33474,-12.229888 -25.96245,-78.195734 8.72297,-78.051555 35.5874,0.147929 36.98179,74.812786 1.46815,78.614278 -3.68606,0.394567 -8.27207,0.141342 -10.19112,-0.562723 z m 19.89423,-4.919724 c 18.55985,-11.760626 19.93642,-51.459656 2.28487,-65.893425 -24.40683,-19.957595 -52.9712,18.896646 -38.39218,52.222355 6.62071,15.134075 23.63321,21.575404 36.10731,13.67107 z M -1060.251,15.026226 c 0,-1.190077 0.3489,-1.676927 0.7754,-1.081888 0.4264,0.595038 0.4264,1.568738 0,2.163777 -0.4265,0.595039 -0.7754,0.108189 -0.7754,-1.081889 z m -1.0712,-12.3064834 c 0.056,-1.89050794 0.3314,-2.27504857 0.7026,-0.9804616 0.336,1.1714826 0.2947,2.571176 -0.092,3.1104299 -0.3865,0.5392539 -0.6613,-0.4192318 -0.6108,-2.1299683 z m 1.0712,-10.4131785 c 0,-1.1900776 0.3489,-1.6769275 0.7754,-1.0818887 0.4264,0.5950388 0.4264,1.5687386 0,2.1637774 -0.4265,0.5950387 -0.7754,0.1081888 -0.7754,-1.0818887 z m 121.13706,-61.2619461 c -6.27095,-7.403915 -2.72186,-19.879705 5.65534,-19.879705 5.16444,0 8.12298,4.268977 8.12298,11.720922 0,9.388878 -8.48229,14.411636 -13.77832,8.158783 z m 10.28913,-2.028541 c 6.36254,-8.8777 -2.82733,-21.973057 -9.50369,-13.542562 -2.97088,3.751438 -2.73353,11.142863 0.45797,14.261957 3.47905,3.40012 6.25133,3.179644 9.04572,-0.719395 z M -939.87391,-151.5 c -60.12576,-15.04897 -114.45259,-89.79103 -118.66219,-163.25367 -0.558,-9.73751 -0.4753,-9.50655 1.8097,5.05606 27.7524,176.86844 197.06805,216.236693 264.1526,61.41918 5.96336,-13.76221 6.48972,-13.6905 11.91289,1.62283 36.93833,104.30223 121.99577,126.88346 176.20952,46.78049 7.12511,-10.52763 7.67244,-10.3742 11.13574,3.12163 10.41342,40.57917 27.63606,55.55029 44.94811,39.07202 51.61462,-49.1288 51.40624,-518.26717 -0.2534,-570.48249 -3.06259,-3.09553 -4.13964,-4.93584 -2.88871,-4.93584 43.41569,0 59.73597,390.80332 22.38474,536.02198 -16.51184,64.19672 -51.43439,64.36865 -65.88048,0.32433 -2.25991,-10.0189 -2.97399,-10.10743 -8.785,-1.08921 -51.76951,80.34209 -140.02795,57.6777 -177.44547,-45.56724 -5.43127,-14.98634 -5.2297,-14.92349 -10.26338,-3.19964 -29.90913,69.66083 -91.72849,109.28762 -148.37467,95.10957 z m 470.12668,-0.008 c -0.45678,-0.63734 -0.8305,-132.48656 -0.8305,-292.99827 v -291.83947 h 4.65541 4.65542 l -0.29393,292.51565 -0.29392,292.51565 -3.53099,0.48262 c -1.94205,0.26544 -3.90472,-0.0388 -4.36149,-0.67618 z m 88.70871,-8.36097 c -6.73677,-9.66597 -13.26225,-26.22452 -16.69989,-42.37631 -1.97807,-9.29401 -1.29374,-10.27708 2.84784,-4.09105 32.91723,49.16648 54.83008,-45.20445 54.86324,-236.27663 0.0329,-189.32403 -20.91882,-282.64523 -53.47305,-238.17514 -7.97076,10.8883 -7.21025,2.61183 2.23961,-24.37311 27.77031,-79.3007 59.59116,-3.89452 72.10089,170.85818 2.05526,28.71055 2.06849,154.96235 0.0191,182.56872 -11.64911,156.92248 -35.2547,230.09305 -61.89778,191.86534 z m 120.06751,6.84548 c -17.7887,-6.68168 -37.53749,-27.65168 -50.17186,-53.27432 -4.5241,-9.17494 -3.28963,-9.50526 7.62795,-2.0411 71.43576,48.83937 126.84578,-23.74824 137.22249,-179.76264 14.307,-215.10668 -49.89716,-349.1703 -138.38694,-288.96342 -11.0177,7.49625 -11.47719,6.98445 -4.82128,-5.37007 65.88561,-122.29495 159.18196,-22.86162 174.4054,185.87769 14.26104,195.54318 -50.35837,371.89926 -125.87576,343.53386 z m 121.49866,0.16929 c -18.04526,-8.97985 -17.04608,-57.17991 1.53082,-73.84614 10.84815,-9.7324 15.99258,-10.62135 61.642375,-10.65171 206.937055,-0.13762 254.374735,-330.69627 58.170792,-405.34981 l -13.392842,-5.09584 -43.614886,-0.14308 c -46.555259,-0.15273 -48.612709,-0.45838 -60.645109,-9.00918 -13.23599,-9.40614 -20.47024,-41.43006 -14.25515,-63.10345 8.56134,-29.85526 97.844386,-16.94633 155.7331821,22.51658 179.7717579,122.55078 156.3054379,446.98292 -38.3811001,530.63538 -33.153685,14.24539 -91.078162,21.86497 -106.788082,14.04725 z m -795.16778,-37.4467 c -51.57851,-11.26084 -91.32257,-69.99371 -97.90017,-144.67454 -1.5796,-17.93451 -1.4089,-17.76941 -16.8067,-16.25321 -5.868,0.57782 -9.7409,0.34536 -9.7409,-0.58466 0,-0.8827 5.4613,-1.54384 12.7527,-1.54384 14.9643,0 14.5281,-0.50873 15.4851,18.06002 6.9398,134.6518 131.74361,193.36436 199.1375,93.682 64.86259,-95.93832 21.27869,-259.77657 -71.8664,-270.1563 -14.28308,-1.59165 -13.74626,-0.6704 -13.36079,-22.92867 l 0.32715,-18.8911 7.89424,-2.03032 c 56.46585,-14.5224 57.20888,-124.26769 0.93774,-138.50325 -26.80583,-6.78138 -55.00838,22.00532 -57.90044,59.09971 -1.16629,14.9591 -30.6014,19.62365 -30.6014,4.84937 0,-42.96563 31.45857,-97.12569 59.31625,-102.12069 4.65314,-0.83433 4.3155,-0.50781 -3.04341,2.94316 -29.20476,13.69563 -51.41238,51.62415 -53.62976,91.59459 l -0.6527,11.76554 h 12.93942 c 12.49387,0 12.95677,-0.12573 13.44366,-3.65138 2.43867,-17.65917 3.53256,-22.62608 6.66852,-30.27914 23.59276,-57.5763 83.80043,-45.97599 95.75284,18.44885 7.26467,39.15745 -12.50938,80.74063 -41.64682,87.57976 l -8.31508,1.95171 -0.33354,16.79346 c -0.39998,20.1377 -1.23138,18.79776 13.12725,21.15654 61.29582,10.06947 106.78884,84.4399 103.72232,169.56172 -3.52638,97.88708 -66.37436,169.26756 -135.70658,154.13067 z m 238.58025,-0.0281 c -68.97726,-20.88347 -99.2923,-170.10016 -54.22559,-266.90917 32.67559,-70.19133 95.22092,-77.25932 130.62644,-14.76156 l 4.48232,7.91219 0.75903,44.41105 c 0.91667,53.63546 2.26057,80.98674 6.11396,124.43244 3.33723,37.62614 3.57393,35.13813 -4.92824,51.8013 -21.98947,43.09652 -52.11258,62.41309 -82.82792,53.11375 z m 32.83618,-3.33562 c 17.48317,-5.90902 36.57519,-26.02898 49.08716,-51.73007 7.72573,-15.86959 7.55901,-13.89222 4.24546,-50.35193 -4.00024,-44.01543 -4.95311,-63.48364 -5.59975,-114.40972 -0.72972,-57.4683 -0.12135,-52.71324 -8.32625,-65.07885 -55.47278,-83.60303 -140.24469,-19.72978 -145.55668,109.67287 -4.49624,109.53033 46.47222,192.06783 106.15006,171.8977 z m 96.70055,-9.40173 c -27.74838,-87.54728 -27.86708,-391.22946 -0.18703,-478.50881 12.70648,-40.06543 30.17554,98.27328 30.17554,238.96216 0,139.02613 -17.51195,278.9107 -29.98851,239.54665 z m 6.80893,1.03834 c 28.06071,-76.25633 28.22277,-405.05021 0.23686,-480.56261 -6.4667,-17.44864 -18.24856,49.39635 -24.13441,136.92772 -2.0974,31.19149 -2.09146,171.7978 0.009,202.85413 6.05707,89.57497 17.63164,157.78539 23.88898,140.78076 z m -500.35318,-126.98668 c 0,-2.2314 0.264,-3.14424 0.5867,-2.02854 0.3226,1.11569 0.3226,2.94138 0,4.05708 -0.3227,1.1157 -0.5867,0.20285 -0.5867,-2.02854 z m -1.3467,-17.85117 c 0,-1.19007 0.349,-1.67692 0.7754,-1.08188 0.4265,0.59503 0.4265,1.56873 0,2.16377 -0.4264,0.59504 -0.7754,0.10819 -0.7754,-1.08189 z m 0,-4.05708 c 0,-0.44628 0.2617,-0.81141 0.5816,-0.81141 0.3198,0 0.5815,0.36513 0.5815,0.81141 0,0.44628 -0.2617,0.81142 -0.5815,0.81142 -0.3199,0 -0.5816,-0.36514 -0.5816,-0.81142 z m 261.66122,-119.56637 c -12.86267,-24.77121 -37.46746,-52.65894 -56.32768,-63.84333 -8.17945,-4.85052 -8.99222,-6.66482 -5.14485,-11.48445 42.57583,-53.33503 25.92276,-155.74105 -29.74722,-182.92689 -7.98495,-3.89937 -8.58961,-4.43232 -4.12333,-3.6343 53.16685,9.49969 77.14572,117.24202 40.0564,179.98225 -7.73236,13.08003 -8.17967,10.79093 3.71532,19.01278 21.14732,14.61709 40.73891,38.49334 57.05934,69.53818 0.80036,1.52245 1.49078,-1.68267 5.04008,-23.39727 21.19905,-129.69585 87.52764,-247.31597 138.57729,-245.73831 2.84095,0.0878 1.62238,0.88841 -4.597,3.02027 -62.76719,21.51512 -115.52598,123.06356 -135.1669,260.16492 -1.68878,11.78836 -2.90694,11.69788 -9.34145,-0.69385 z m 45.38762,-43.39904 c 0,-8.91619 14.42622,-56.29509 24.71856,-81.18123 24.72843,-59.79155 55.12683,-93.53799 91.27228,-101.32487 l 9.0385,-1.94718 0.32818,-18.08958 0.32818,-18.08959 -4.3989,-0.70027 -4.3989,-0.70028 4.65225,0.19349 4.65226,0.1935 v 19.47399 19.474 l -6.97839,1.34237 c -48.63232,9.35495 -90.47683,70.26601 -114.6824,166.9377 -3.51702,14.04622 -2.78201,14.60854 6.07633,4.64864 34.3147,-38.58184 81.695,-40.7146 120.00873,-5.40202 9.57795,8.8277 8.77152,9.89984 10.18618,-13.54246 6.97899,-115.6487 22.22293,-183.47389 42.9612,-191.14814 2.02441,-0.74914 1.62398,-0.0921 -1.31819,2.16301 -19.92013,15.26825 -35.59537,90.01183 -40.06838,191.05624 -0.90206,20.37754 -1.64152,23.5212 -4.81211,20.45765 -45.5953,-44.05611 -90.73147,-42.98977 -130.74841,3.08893 -6.16647,7.10056 -6.81697,7.39601 -6.81697,3.0961 z m -175.84069,-220.32034 c 0.83959,-0.46879 1.84273,-0.41114 2.22921,0.12812 0.38648,0.53925 -0.30046,0.9228 -1.52652,0.85234 -1.3549,-0.0779 -1.6305,-0.46241 -0.70269,-0.98046 z m 27.35623,0.0267 c 0.42646,-0.59504 1.1243,-0.59504 1.55075,0 0.42646,0.59504 0.0775,1.08189 -0.77537,1.08189 -0.85292,0 -1.20184,-0.48685 -0.77538,-1.08189 z m 257.59437,-0.0267 c 0.83958,-0.46879 1.84273,-0.41114 2.2292,0.12812 0.38648,0.53925 -0.30045,0.9228 -1.52652,0.85234 -1.3549,-0.0779 -1.6305,-0.46241 -0.70268,-0.98046 z m 89.77397,0.29716 c 0,-0.44628 0.26169,-0.81142 0.58154,-0.81142 0.31984,0 0.58153,0.36514 0.58153,0.81142 0,0.44628 -0.26169,0.81142 -0.58153,0.81142 -0.31985,0 -0.58154,-0.36514 -0.58154,-0.81142 z m -364.32968,-1.98537 c 2.07897,-0.35998 5.48093,-0.35998 7.55991,0 2.07898,0.35999 0.378,0.65453 -3.77996,0.65453 -4.15795,0 -5.85893,-0.29454 -3.77995,-0.65453 z m 355.31594,0.0553 c 1.11945,-0.40818 2.95127,-0.40818 4.07072,0 1.11945,0.40819 0.20354,0.74216 -2.03536,0.74216 -2.2389,0 -3.15481,-0.33397 -2.03536,-0.74216 z"
         id="path25401" /><path
         style="fill:#121212"
         d="m -891.19165,89.047698 c -8.02926,-4.164095 -12.85151,-9.064206 -16.52703,-16.793849 -5.93028,-12.471431 0.86062,-14.624443 9.11454,-2.88971 17.97327,25.552893 51.19379,11.188145 51.19379,-22.136498 0,-10.903883 -0.73613,-11.413568 -6.75582,-4.67762 -23.06303,25.80722 -58.37575,1.794853 -58.37575,-39.6950423 0,-43.0813557 36.20816,-67.3164087 59.06595,-39.5343687 4.96846,6.038801 5.85108,5.859388 6.28618,-1.27781 0.39078,-6.4103 2.94603,-9.826947 6.0903,-8.143409 3.41456,1.828259 2.25543,104.754201 -1.28362,113.979607 -8.32619,21.704304 -29.80959,31.021847 -48.80854,21.1687 z m 29.54808,-51.130391 c 25.78597,-18.505811 16.38661,-74.656899 -12.51725,-74.777046 -34.68542,-0.144179 -42.05771,65.821667 -8.72297,78.051555 5.28245,1.938034 16.35577,0.230911 21.24022,-3.274509 z M 77.225246,88.225681 c 0,-0.797975 2.616894,-9.71085 5.815319,-19.806388 C 90.500451,44.872839 90.87414,48.559279 76.50132,3.9096596 61.756996,-41.894048 61.427624,-43.099162 63.038833,-45.347296 c 3.834687,-5.350573 6.593822,-0.298013 15.883924,29.08683 15.199824,48.077447 15.507477,48.725755 18.505035,38.995149 22.258208,-72.254075 21.197358,-69.540107 26.991318,-69.052012 3.43077,0.289016 3.51806,0.473358 2.10799,4.451492 -0.80905,2.282495 -9.81542,30.805023 -20.01415,63.383395 -10.198739,32.578373 -19.212866,61.241661 -20.031398,63.696196 -1.459425,4.376386 -9.256306,6.913428 -9.256306,3.011927 z M -1036.6615,52.271158 c -17.0537,-9.42316 -27.1851,-38.600568 -21.8848,-63.026419 7.6639,-35.318078 38.2881,-49.66268 57.3701,-26.872504 6.02113,7.19127 7.21983,7.047062 7.21983,-0.86858 0,-6.555662 3.5183,-10.317461 6.91228,-7.390671 2.51311,2.167181 1.61105,97.850562 -0.93311,98.977257 -4.01693,1.778912 -5.97917,-0.650867 -5.97917,-7.403812 0,-7.233678 -1.87669,-8.250853 -5.34429,-2.896637 -7.36424,11.370851 -25.57664,15.992769 -37.36084,9.481366 z m 27.2809,-11.680608 c 14.22791,-9.190695 20.18963,-35.2882977 12.74257,-55.781051 -13.78987,-37.946832 -54.17597,-24.180502 -54.28287,18.5033111 -0.078,31.0898179 21.3506,50.3194969 41.5403,37.2777399 z m 296.0996,12.765075 c -25.46563,-11.606502 -33.32563,-59.5146616 -14.26124,-86.924886 20.79299,-29.895551 60.55112,-11.136122 61.90865,29.2109017 l 0.2427,7.213338 -30.98511,0.431881 c -34.76626,0.484584 -34.12153,0.2559838 -32.31756,11.4587633 5.14069,31.924015 35.11706,40.843814 50.0614,14.896323 4.54742,-7.89558 10.33361,-8.301844 10.33361,-0.725551 0,15.852395 -29.11541,31.670969 -44.98245,24.43923 z m 37.96543,-63.889019 c -0.17173,-19.835165 -24.64983,-33.43907 -39.65896,-22.040799 -6.19088,4.701491 -12.64027,16.296229 -12.64027,22.7247335 v 3.7788566 h 26.16894 26.16893 z m 74.83448,64.220253 c -6.28911,-2.965402 -11.65009,-10.268762 -10.12115,-13.788204 1.92947,-4.441399 4.3583,-4.388726 9.20403,0.199605 8.01687,7.591036 18.93295,4.330325 22.21693,-6.636361 2.84299,-9.493999 -1.0599,-18.469717 -11.19201,-25.738939 -16.76345,-12.0268503 -21.69133,-24.075985 -16.80936,-41.100492 4.57402,-15.950612 19.96703,-19.773337 32.21996,-8.001552 8.11949,7.800663 2.05643,14.138233 -7.09786,7.419216 -6.79622,-4.988256 -9.80618,-5.051353 -15.05227,-0.315538 -9.0171,8.140039 -4.07432,21.920637 11.88042,33.1229185 26.75063,18.7823815 13.01849,68.1677215 -15.24869,54.8393465 z m 108.22933,0.237947 c -10.61139,-4.567936 -21.19381,-19.851041 -24.3996,-35.237816 -9.92326,-47.628633 28.55104,-86.4737 56.45797,-57.002038 7.41853,7.834482 8.22468,7.823069 8.22468,-0.11644 0,-7.239634 1.20778,-8.953441 5.29989,-7.520384 l 2.84155,0.995113 V 2.6871896 c 0,50.9837354 -0.22442,52.9515594 -5.7595,50.5003294 -1.78045,-0.788478 -2.38194,-2.437357 -2.38194,-6.529633 0,-7.416079 -1.68205,-8.333878 -5.99443,-3.27082 -8.81748,10.352382 -23.93004,14.996846 -34.28862,10.53774 z m 22.77449,-12.35361 c 22.80334,-13.101829 23.86013,-59.434947 1.70066,-74.562355 -13.41583,-9.158462 -29.62586,-2.546216 -37.25155,15.195305 -14.73677,34.285774 9.31091,74.443422 35.55089,59.36705 z m 68.92174,10.95184 c -31.11342,-14.995024 -33.09143,-75.318356 -3.14604,-95.944747 13.40809,-9.235495 36.85777,-4.31272 46.52535,9.767035 6.75466,9.8374 0.22312,14.671768 -7.99577,5.918132 -24.65637,-26.260596 -58.74995,2.79287 -50.33917,42.897443 6.31165,30.09545 34.3572,39.7461 52.15193,17.945813 l 4.1692,-5.107667 2.7501,3.148919 c 11.03838,12.639177 -25.50404,30.344863 -44.1156,21.375072 z m 87.66199,0.395565 c -25.56299,-10.947878 -32.4067,-65.783978 -11.17986,-89.580078 13.92993,-15.615977 35.88501,-15.422044 46.47621,0.410533 3.89966,5.829537 5.69499,5.329318 6.1239,-1.706256 0.38754,-6.357106 2.94153,-9.82936 6.01821,-8.182013 2.83957,1.520392 2.91113,97.60339 0.0738,99.12257 -3.36464,1.801528 -6.3126,-1.930622 -6.3126,-7.991817 0,-7.078702 -1.33317,-7.061654 -7.32422,0.09366 -8.34278,9.964049 -21.69243,13.051038 -33.87547,7.833402 z m 24.41986,-11.094186 c 19.39706,-11.124831 23.80317,-49.4833892 7.9192,-68.942799 -14.68032,-17.984824 -37.06963,-11.211414 -45.39476,13.73322 -11.11079,33.291321 13.21271,69.125089 37.47556,55.209579 z m 68.62523,11.094186 c -18.30015,-7.83742 -28.91838,-41.894092 -21.58662,-69.236435 8.43032,-31.439148 41.44651,-43.008785 56.88297,-19.93311 5.3468,7.992836 5.81698,6.378174 6.16458,-21.169997 0.33712,-26.718302 1.10555,-30.274871 5.97753,-27.666265 3.32634,1.781023 2.85838,136.79664 -0.47926,138.274725 -3.38041,1.497027 -5.75951,-1.947006 -5.75951,-8.337589 0,-6.934052 -1.35796,-6.890431 -7.32422,0.235269 -8.34278,9.964049 -21.69243,13.051038 -33.87547,7.833402 z m 24.9168,-11.379443 c 28.55581,-16.379367 19.35371,-78.443588 -11.63063,-78.443588 -29.88982,0 -39.57196,49.985658 -14.76416,76.222469 5.90706,6.247325 17.65238,7.235693 26.39479,2.221119 z m 69.78382,12.540339 c -27.73828,-11.815728 -35.32051,-63.6917014 -13.26797,-90.776624 21.7018,-26.654156 57.52702,-6.436478 60.020668,33.8721901 l 0.351382,5.6799156 -31.98425,0.8114165 -31.98425,0.8114165 -0.39136,3.8611524 c -3.32291,32.7837609 36.3822,49.4131579 50.672359,21.2227309 3.401173,-6.709548 7.070082,-8.268673 9.569465,-4.066599 7.787464,13.092631 -26.238064,35.718567 -42.986044,28.584401 z m 36.720479,-62.304494 c 4.748896,-17.267541 -23.333629,-35.654411 -38.652249,-25.307334 -7.3464,4.962178 -15.8842,21.064823 -13.73795,25.9103297 1.15133,2.5992895 51.66942,2.0178412 52.390199,-0.6029957 z M -963.43888,52.625317 c -1.1502,-1.018802 -1.40122,-15.986552 -1.16307,-69.351262 l 0.3037,-68.052059 h 3.48919 3.48919 l 0.3037,68.052059 c 0.30871,69.174059 0.22945,70.650463 -3.79289,70.650463 -0.63968,0 -1.8231,-0.58464 -2.62982,-1.299201 z m 26.59696,-0.876321 c -0.9381,-1.577163 -1.23361,-15.822745 -1.01471,-48.9146451 0.32819,-49.6138069 0.6002,-51.8466189 5.96608,-48.9735639 2.84892,1.5254 2.90995,97.604026 0.063,99.12839 -2.69617,1.443609 -3.54253,1.23428 -5.01433,-1.240181 z m 120.45596,0.196681 c -3.0587,-3.124233 -2.42971,-94.865197 0.66909,-97.591335 3.13258,-2.755845 6.04115,0.702062 6.46706,7.688458 0.45464,7.457706 1.55281,7.417786 7.82394,-0.284417 13.94403,-17.12606 34.43582,-12.562551 42.14438,9.385531 3.98427,11.344146 5.75455,76.86962 2.18833,80.999314 -5.52857,6.402104 -6.31301,2.460512 -6.8333,-34.335453 -0.60439,-42.743533 -2.62654,-50.551683 -14.21989,-54.907509 -19.93217,-7.488869 -29.9766,10.796277 -30.86255,56.183043 -0.5947,30.466067 -1.09405,34.89091 -3.93742,34.89091 -0.79951,0 -2.34735,-0.912844 -3.43964,-2.028542 z m 168.13263,0.675587 c -1.14447,-1.013635 -1.40293,-12.097761 -1.16307,-49.8772651 l 0.3084,-48.5740109 h 3.48919 c 2.84263,0 3.56132,0.751796 3.87844,4.057083 0.66595,6.941102 2.25205,7.479946 6.2961,2.138971 8.96163,-11.835608 22.84864,-12.321674 18.36916,-0.642948 -1.02318,2.667594 -2.41655,3.372476 -6.6665,3.372476 -12.58247,0 -16.61596,13.108533 -17.47708,56.799155 -0.66874,33.929932 -1.46955,37.65547 -7.03464,32.726539 z m 590.272428,-0.378058 c -2.828094,-2.328672 -3.15483,-93.945205 -0.346639,-97.1971 3.030618,-3.509466 5.799684,-1.267791 6.957569,5.632445 1.463962,8.724255 1.288716,8.668183 6.204119,1.985102 11.739278,-15.960957 30.897466,-14.418512 38.4803128,3.098088 3.73091,8.618512 3.5469408,8.609526 8.2728164,0.404104 13.3357548,-23.154542 39.0399708,-17.480805 44.1793698,9.751791 0.834796,4.423412 1.846907,62.079681 1.304205,74.295849 -0.109616,2.467453 -3.851668,4.133178 -6.31826,2.81249 C 39.068956,52.124506 38.843382,48.057894 38.83766,18.503976 38.82876,-27.601842 36.101984,-36.90443 22.5965,-36.90443 c -18.2880113,0 -23.6613885,12.477955 -24.2520753,56.317713 -0.443007,32.879218 -0.9801044,35.982707 -5.8537341,33.824401 -2.1386898,-0.947127 -2.2947555,-3.023455 -2.7241116,-36.24211 -0.601828,-46.562616 -3.003991,-53.878337 -17.696409,-53.893938 -17.20689,-0.01827 -22.567859,13.997628 -23.811041,62.252395 -0.755548,29.326955 -1.160451,31.071739 -6.240031,26.889175 z M -937.87053,-70.264528 c -3.1915,-3.119094 -3.42885,-10.510519 -0.45797,-14.261957 6.67636,-8.430495 15.86623,4.664862 9.50369,13.542562 -2.79439,3.899039 -5.56667,4.119515 -9.04572,0.719395 z m 6.30386,-81.913152 c -69.45003,-11.00441 -128.71913,-99.05404 -128.68123,-191.16756 v -7.57738 l 11.9183,-0.45786 c 14.6935,-0.56449 14.1926,-1.10235 15.8356,17.00107 13.4648,148.35759 146.63158,198.86219 210.5985,79.87122 53.78535,-100.05125 8.73865,-244.78171 -80.76347,-259.48482 -14.35863,-2.35878 -13.52723,-1.01884 -13.12725,-21.15654 l 0.33354,-16.79346 8.31508,-1.95171 c 29.13744,-6.83913 48.91149,-48.42231 41.64682,-87.57976 -11.95241,-64.42484 -72.16008,-76.02515 -95.75284,-18.44885 -3.13596,7.65306 -4.22985,12.61997 -6.66852,30.27914 -0.48689,3.52565 -0.94979,3.65138 -13.44366,3.65138 h -12.93942 l 0.6527,-11.76554 c 4.26119,-76.8121 69.35143,-121.52906 118.18035,-81.18984 43.68094,36.08629 51.14625,126.89076 14.23366,173.13142 -3.84737,4.81963 -3.0346,6.63393 5.14485,11.48445 18.86022,11.18439 43.46501,39.07212 56.32768,63.84333 6.43451,12.39173 7.65267,12.48221 9.34145,0.69385 21.75138,-151.83317 88.29049,-264.92749 155.87025,-264.92749 h 5.86298 l -0.32886,18.19066 -0.32886,18.19066 -9.0385,1.94718 c -47.32551,10.19542 -88.51195,70.75997 -112.43606,165.33696 -5.50136,21.74801 -5.0593,23.65507 3.26219,14.07304 40.01694,-46.0787 85.15311,-47.14504 130.74841,-3.08893 3.17059,3.06355 3.91005,-0.0801 4.81211,-20.45765 6.15866,-139.12308 31.72091,-217.17525 61.87095,-188.91771 52.91957,49.59785 54.36389,521.68633 1.74928,571.76696 -17.31205,16.47827 -34.53469,1.50715 -44.94811,-39.07202 -3.4633,-13.49583 -4.01063,-13.64926 -11.13574,-3.12163 -54.21375,80.10297 -139.27119,57.52174 -176.20952,-46.78049 -5.42317,-15.31333 -5.94953,-15.38504 -11.91289,-1.62283 -28.89173,66.67624 -84.04223,104.80773 -138.99287,96.10075 z m 264.91088,-38.08304 c 20.57631,-6.08226 38.49148,-23.91624 53.42383,-53.18171 8.50217,-16.66317 8.26547,-14.17516 4.92824,-51.8013 -3.85339,-43.4457 -5.19729,-70.79698 -6.11396,-124.43244 l -0.75903,-44.41105 -4.48232,-7.91219 c -40.51891,-71.52391 -112.31242,-50.72023 -140.54854,40.72689 -36.68865,118.822 19.2645,262.97074 93.55178,241.0118 z m 109.09144,-13.3898 c 27.96775,-90.8265 28.02269,-390.29339 0.0877,-477.92432 -14.57126,-45.70945 -33.59033,134.40673 -29.60843,280.40052 3.52279,129.16076 18.8965,232.02651 29.52075,197.5238 z"
         id="path25400" /></g></g></svg>
