<?xml version="1.0" encoding="UTF-8" standalone="no"?>
<!DOCTYPE svg PUBLIC "-//W3C//DTD SVG 1.1//EN" "http://www.w3.org/Graphics/SVG/1.1/DTD/svg11.dtd">
<svg width="100%" height="100%" viewBox="0 0 216 106" version="1.1" xmlns="http://www.w3.org/2000/svg" xmlns:xlink="http://www.w3.org/1999/xlink" xml:space="preserve" xmlns:serif="http://www.serif.com/" style="fill-rule:evenodd;clip-rule:evenodd;stroke-linejoin:round;stroke-miterlimit:2;">
    <g id="g132" transform="matrix(0.638063,0,0,-0.638063,-709.057,1870.83)">
        <g id="Livello-1" serif:id="Livello 1">
            <g id="g1321" serif:id="g132">
                <g id="g134">
                    <g id="g140" transform="matrix(1,0,0,1,1221.39,2811.72)">
                        <path id="path142" d="M0,0L71.015,0C57.335,4.467 47.414,17.331 47.414,32.483L47.377,112.97L48.697,112.397C49.36,112.107 108.93,85.392 120.332,20.96L120.332,120.334L0,120.334L0,0Z" style="fill:rgb(120,120,120);fill-rule:nonzero;"/>
                    </g>
                    <g id="g144" transform="matrix(1,0,0,1,1302.98,2876.14)">
                        <path id="path146" d="M0,0C-17.606,0 -31.932,-14.324 -31.932,-31.932C-31.932,-49.538 -17.606,-63.864 0,-63.864C17.61,-63.864 31.934,-49.538 31.934,-31.932C31.934,-14.324 17.61,0 0,0" style="fill:rgb(251,199,7);fill-rule:nonzero;"/>
                    </g>
                    <g id="g148" transform="matrix(1,0,0,1,1247.25,2770.25)">
                        <path id="path150" d="M0,0C0.011,6.08 0.011,12.474 0.034,20.274C0.011,22.651 1.723,22.829 2.456,23.379C2.702,23.687 2.713,23.729 3.2,24.686C-1.609,24.721 -6.472,24.721 -10.05,24.749L-10.615,23.371L-9.596,23.381C-8.633,23.008 -8.785,22.885 -8.347,21.734L-8.345,0.879C-8.242,-1.123 -9.084,-0.94 -9.983,-1.219C-10.445,-1.36 -10.794,-1.937 -11.246,-2.846L1.849,-2.877L2.561,-1.198C1.699,-1.345 0.463,-1.216 0,0" style="fill:rgb(120,120,120);fill-rule:nonzero;"/>
                    </g>
                    <g id="g152" transform="matrix(1,0,0,1,1236.04,2787.36)">
                        <path id="path154" d="M0,0L-0.007,5.908L-0.011,6.018L-0.033,7.599L-24.382,7.583L-24.365,-1.062L-23.642,-0.88C-22.369,-0.676 -22.639,-0.766 -21.615,-0.258C-21.159,0.209 -20.568,1.215 -20.308,2.304C-19.593,3.894 -18.225,5.448 -16.446,5.188L-16.448,-15.111L-16.676,-17.163L-17.642,-18.235C-18.793,-18.814 -20.377,-18.677 -21.249,-17.24C-24.887,-8.611 -27.433,0.528 -31.073,9.014C-33.085,7.609 -34.886,6.439 -36.365,5.66C-36.417,5.177 -36.417,4.547 -36.614,3.44L-43.591,-15.32L-44.243,-16.803L-45.58,-17.814C-46.143,-11.572 -46.774,-5.538 -47.455,2.854C-47.643,4.383 -47.42,5.085 -46.455,5.723C-46.166,5.915 -45.602,6.259 -44.861,6.227C-44.604,6.429 -44.612,6.528 -44.214,7.64L-53.578,7.632L-60.484,-7.325L-65.882,7.635L-76.112,7.59C-76.581,6.617 -76.396,6.725 -76.537,6.292L-75.019,5.767L-74.226,4.86C-74.068,4.278 -73.944,3.694 -73.851,3.111C-73.34,-3.467 -74.419,-9.321 -75.22,-15.152C-75.5,-17.606 -76.311,-18.059 -77.546,-18.333C-77.932,-18.959 -78.113,-19.318 -78.583,-19.906L-69.416,-19.956L-68.556,-18.295L-69.978,-17.914L-71.048,-16.919C-71.537,-14.004 -70.907,-8.151 -70.302,-2.901C-68.116,-8.367 -66.129,-13.71 -64.23,-19.321L-63.829,-20.34C-62.983,-19.587 -62.52,-19.318 -62.062,-18.644C-59.561,-13.645 -57.4,-9.14 -54.452,-2.833L-53.778,-16.213C-53.773,-17.767 -54.698,-18.059 -55.86,-18.358C-56.477,-18.54 -56.589,-19.138 -56.971,-19.989L-37.519,-19.906L-37.092,-18.336C-38.245,-18.052 -39.687,-18.475 -40.413,-17.036C-40.569,-14.444 -38.992,-12.563 -38.426,-10.401L-32.086,-10.372C-31.5,-12.53 -30.193,-14.542 -30.327,-16.993C-30.597,-18.275 -31.558,-17.968 -32.374,-18.305C-32.841,-18.495 -32.995,-19.049 -33.34,-19.906L-6.108,-19.968L-5.681,-18.47C-6.689,-18.618 -7.509,-17.968 -7.918,-16.857C-7.958,-9.591 -7.958,-2.568 -8.09,5.151L-7.082,5.155C-4.34,4.304 -3.176,1.57 -3.453,-1.167L0,0ZM-37.141,-7.513L-35.29,-2.317C-34.276,-3.609 -34.122,-5.769 -33.393,-7.495L-37.141,-7.513Z" style="fill:rgb(120,120,120);fill-rule:nonzero;"/>
                    </g>
                    <g id="g156" transform="matrix(1,0,0,1,1156.05,2793.63)">
                        <path id="path158" d="M0,0C-7.089,6.308 -14.98,-1.22 -20.152,-4.7L-20.179,1.316L-44.782,1.3L-44.78,-7.113C-43.414,-6.863 -43.324,-6.772 -42.191,-6.373C-40.981,-5.122 -41.163,-1.819 -38.897,-1.468C-38.191,-1.1 -37.38,-1.1 -36.304,-1.096L-36.286,-21.919C-36.57,-24.514 -38.217,-23.913 -39.349,-24.714C-39.797,-25.031 -39.722,-25.684 -40.085,-26.259L-26.991,-26.197L-26.259,-24.576L-27.267,-24.63C-28.465,-24.336 -29.001,-23.309 -28.863,-22.154L-28.867,-1.134L-26.651,-1.125C-24.053,-1.979 -23.755,-4.715 -23.456,-7.02L-20.432,-6.575C-22.137,-11.914 -22.825,-19.12 -18.771,-23.568C-16.601,-25.722 -14.003,-26.719 -10.978,-26.707C-5.939,-25.676 -0.472,-23.92 2.245,-19.155C4.669,-13.381 4.631,-4.736 0,0M-5.81,-22.215C-6.815,-23.084 -8.832,-23.093 -9.989,-22.234C-15.049,-18.366 -13.356,-10.001 -12.661,-4.378C-12.391,-0.198 -6.762,-2.192 -5.599,-4.636C-3.846,-10.103 -3.52,-19.651 -5.81,-22.215" style="fill:rgb(120,120,120);fill-rule:nonzero;"/>
                    </g>
                    <g id="g160" transform="matrix(1,0,0,1,1258.07,2791.06)">
                        <path id="path162" d="M0,0C0.57,1.731 2.3,1.595 3.884,1.601C5.762,0.889 6.922,-1.123 6.787,-3.14C6.897,-3.61 6.423,-4.073 6.76,-4.238C8.195,-4.194 10.267,-4.194 11.601,-4.217L11.657,3.653C5.6,4.777 -0.99,5.26 -5.672,0.246C-7.681,-1.494 -8.193,-4.502 -7.46,-7.094C-4.693,-13.853 6.246,-11.356 5.996,-20.003C5.717,-22.166 3.267,-21.745 1.681,-21.752C-1.493,-21.043 -1.795,-17.73 -2.237,-15.139L-7.19,-15.251L-7.248,-22.942L-5.044,-23.652L-0.469,-24.356C4.146,-25.199 7.742,-23.903 10.752,-20.718C12.616,-18.695 13.688,-16.262 13.025,-12.624C10.258,-6.151 -0.54,-8.216 0,0" style="fill:rgb(120,120,120);fill-rule:nonzero;"/>
                    </g>
                    <g id="g164" transform="matrix(1,0,0,1,1361.28,2773.2)">
                        <path id="path166" d="M0,0C-2.093,-1.507 -5.239,-1.97 -7.196,0.119C-11.263,4.449 -12.34,10.89 -10.568,16.594C-9.826,18.697 -7.737,20.804 -5.185,19.917C-2.034,19.18 -2.057,16.165 -1.895,13.466L2.939,13.505L2.603,21.749C-0.849,22.483 -4.599,22.767 -8.495,22.599C-12.235,20.635 -17.316,17.165 -18.045,12.513C-19.065,6.063 -18.433,-1.58 -12.119,-5.3C-9.865,-6.64 -6.566,-6.924 -4.023,-6.015C-0.883,-4.792 2.386,-3.609 3.648,-1.012C3.614,-0.105 3.614,0.737 3.584,2.715L0,0Z" style="fill:rgb(120,120,120);fill-rule:nonzero;"/>
                    </g>
                    <g id="g168" transform="matrix(1,0,0,1,1307.33,2778.66)">
                        <path id="path170" d="M0,0C0.591,0.266 0.503,0.614 0.942,1.706L-11.597,1.745L-12.487,0.39L-11.086,0.011L-9.483,-1.247C-9.522,-3.979 -9.522,-6.788 -9.524,-9.043C-11.622,-9.051 -13.799,-8.159 -15.157,-6.367C-18.175,-1.583 -18.356,5.312 -17.032,10.865C-16.292,13.266 -13.897,14.027 -11.347,13.587C-8.646,13 -8.034,10.005 -7.575,7.758L-3.078,7.74L-3.016,14.973L-3.093,15.776C-10.75,18.142 -19.827,16.259 -23.772,9.486C-26.295,3.478 -26.409,-4.468 -21.59,-9.394C-16.319,-14.917 -7.64,-11.432 -1.803,-9.306L-1.831,-2.56C-1.839,-0.51 -0.982,-0.441 0,0" style="fill:rgb(120,120,120);fill-rule:nonzero;"/>
                    </g>
                    <g id="g172" transform="matrix(1,0,0,1,1421.55,2770.76)">
                        <path id="path174" d="M0,0L-1.437,19.933C-1.748,22.329 1.856,21.445 1.393,23.991L-8.201,23.952L-14.431,9.081L-20.341,23.896L-29.786,23.854C-31.277,21.749 -28.582,22.212 -27.973,20.565C-27.193,13.823 -27.911,6.174 -29.232,-0.428C-29.972,-2.232 -32.526,-1.193 -32.365,-3.44C-28.92,-2.526 -23.513,-5.501 -22.481,-1.748C-23.676,-2.202 -24.429,-1.156 -25.182,-0.41C-26.103,4.382 -24.624,8.737 -24.344,13.386C-21.62,7.551 -19.943,1.413 -17.371,-4.424L-15.425,-3.367C-13.051,2.192 -11.131,8.796 -8.452,13.455L-7.945,-0.035C-8.235,-2.584 -11.391,-0.651 -11.078,-3.648L1.815,-3.59L2.707,-1.939C1.506,-1.942 0.453,-1.047 0,0" style="fill:rgb(120,120,120);fill-rule:nonzero;"/>
                    </g>
                    <g id="g176" transform="matrix(1,0,0,1,1387.12,2793.25)">
                        <path id="path178" d="M0,0C-2.256,1.939 -4.959,2.826 -8.105,2.363C-12.594,-0.055 -19.483,-1.136 -20.505,-7.435C-21.683,-12.687 -22.1,-19.584 -18.035,-23.615C-15.778,-25.705 -13.143,-26.439 -9.93,-26.278C-4.711,-24.938 1.451,-23.229 3.076,-17.227C4.398,-11.522 4.217,-4.479 0,0M-5.004,-21.31C-5.893,-23.412 -9.113,-22.407 -9.949,-21.632C-14.166,-16.853 -13.894,-5.167 -11.831,-2.752C-9.443,-0.492 -5.232,-3.173 -4.769,-6.317C-4,-10.962 -3.225,-16.954 -5.004,-21.31" style="fill:rgb(120,120,120);fill-rule:nonzero;"/>
                    </g>
                    <g id="g180" transform="matrix(1,0,0,1,1318.98,2768.78)">
                        <path id="path182" d="M0,0L0.054,0.02C-0.447,0.179 -0.9,0.513 -1.143,1.148C-1.131,7.224 -1.131,13.611 -1.109,21.409C-1.131,23.781 0.576,23.961 1.309,24.51C1.556,24.815 1.568,24.86 2.057,25.814C-2.752,25.852 -7.611,25.852 -11.185,25.879L-11.749,24.499L-10.733,24.511C-9.769,24.14 -9.922,24.016 -9.484,22.866L-9.483,2.027C-9.379,0.028 -10.223,0.208 -11.12,-0.066C-11.58,-0.212 -11.93,-0.785 -12.381,-1.695L0.702,-1.726L0.718,-1.691L-0.75,-1.686L0,0Z" style="fill:rgb(120,120,120);fill-rule:nonzero;"/>
                    </g>
                    <g id="g184" transform="matrix(1,0,0,1,1444.93,2793.25)">
                        <path id="path186" d="M0,0C-2.257,1.939 -4.958,2.826 -8.105,2.363C-12.593,-0.055 -19.484,-1.136 -20.505,-7.435C-21.68,-12.687 -22.1,-19.584 -18.035,-23.615C-15.777,-25.705 -13.145,-26.439 -9.929,-26.278C-4.71,-24.938 1.451,-23.229 3.074,-17.227C4.397,-11.522 4.217,-4.479 0,0M-5.003,-21.31C-5.892,-23.412 -9.115,-22.407 -9.949,-21.632C-14.169,-16.853 -13.894,-5.167 -11.83,-2.752C-9.442,-0.492 -5.234,-3.173 -4.768,-6.317C-4,-10.962 -3.224,-16.954 -5.003,-21.31" style="fill:rgb(120,120,120);fill-rule:nonzero;"/>
                    </g>
                    <g id="g188" transform="matrix(1,0,0,1,1344,2769.99)">
                        <path id="path190" d="M0,0L-4.409,11.715L-9.718,25.939L-15.004,22.59L-15.252,20.374L-22.873,0.155L-23.75,-0.769L-24.966,-1.196C-24.51,-1.337 -24.016,-1.335 -23.605,-1.266L-24.302,-2.907L-16.251,-2.945L-15.731,-1.378L-16.589,-1.309L-17.714,-1.027L-18.742,-0.559L-19.026,0.567L-18.931,1.316L-17.062,6.551L-10.729,6.578L-9.281,2.346L-8.974,-0.034L-9.562,-0.932L-11.019,-1.345L-11.983,-2.945L1.868,-2.891L2.49,-1.378L1.12,-1.066L0,0ZM-15.779,9.81L-13.649,15.655L-12.036,9.826L-15.779,9.81Z" style="fill:rgb(120,120,120);fill-rule:nonzero;"/>
                    </g>
                </g>
            </g>
        </g>
    </g>
</svg>
