<svg xmlns="http://www.w3.org/2000/svg" xmlns:xlink="http://www.w3.org/1999/xlink"
    xmlns:lucid="lucid" width="1162" height="639.14">
    <g transform="translate(-4638.999999979404 -961.8087204448827)" lucid:page-tab-id="0_0">
        <path
            d="M4640 1178.42a6 6 0 0 1 6-6h148a6 6 0 0 1 6 6v190.76a6 6 0 0 1-6 6h-148a6 6 0 0 1-6-6z"
            stroke="var(--svg-tile-stroke)" stroke-width="2" fill="var(--svg-tile-color)" />
        <use fill="var(--svg-text-color)" xlink:href="#a"
            transform="matrix(1,0,0,1,4645,1177.4201172488558) translate(75 29.78342013888889)" />
        <use fill="var(--svg-text-color)" xlink:href="#a"
            transform="matrix(1,0,0,1,4645,1177.4201172488558) translate(75 66.09852430555556)" />
        <use fill="var(--svg-text-color)" xlink:href="#a"
            transform="matrix(1,0,0,1,4645,1177.4201172488558) translate(75 102.41362847222221)" />
        <use fill="var(--svg-text-color)" xlink:href="#a"
            transform="matrix(1,0,0,1,4645,1177.4201172488558) translate(75 138.72873263888889)" />
        <use fill="var(--svg-text-color)" xlink:href="#b"
            transform="matrix(1,0,0,1,4645,1177.4201172488558) translate(31.06011284722222 175.04383680555554)" />
        <path
            d="M4670.1 1198.42a6 6 0 0 1 6-6h87.78a6 6 0 0 1 6 6v95.35a6 6 0 0 1-6 6h-87.77a6 6 0 0 1-6-6z"
            fill="url(#c)" />
        <path
            d="M4999 1367.66a6 6 0 0 1 6-6h148a6 6 0 0 1 6 6v226.3a6 6 0 0 1-6 6h-148a6 6 0 0 1-6-6z"
            stroke="var(--svg-tile-stroke)" stroke-width="2" fill="var(--svg-tile-color)" />
        <use fill="var(--svg-text-color)" xlink:href="#d"
            transform="matrix(1,0,0,1,5003.997080152378,1366.6648598077431) translate(75 30.90842013888889)" />
        <use fill="var(--svg-text-color)" xlink:href="#d"
            transform="matrix(1,0,0,1,5003.997080152378,1366.6648598077431) translate(75 67.22352430555556)" />
        <use fill="var(--svg-text-color)" xlink:href="#d"
            transform="matrix(1,0,0,1,5003.997080152378,1366.6648598077431) translate(75 103.53862847222221)" />
        <use fill="var(--svg-text-color)" xlink:href="#d"
            transform="matrix(1,0,0,1,5003.997080152378,1366.6648598077431) translate(75 139.85373263888889)" />
        <use fill="var(--svg-text-color)" xlink:href="#e"
            transform="matrix(1,0,0,1,5003.997080152378,1366.6648598077431) translate(0.5967881944444571 176.16883680555554)" />
        <use fill="var(--svg-text-color)" xlink:href="#f"
            transform="matrix(1,0,0,1,5003.997080152378,1366.6648598077431) translate(86.03515625 176.16883680555554)" />
        <use fill="var(--svg-text-color)" xlink:href="#g"
            transform="matrix(1,0,0,1,5003.997080152378,1366.6648598077431) translate(26.253255208333336 212.4839409722222)" />
        <path
            d="M5028.65 1393.02a6 6 0 0 1 6-6h88.7a6 6 0 0 1 6 6v88.7a6 6 0 0 1-6 6h-88.7a6 6 0 0 1-6-6z"
            fill="url(#h)" />
        <path
            d="M4801.5 1273.8l5.87-.13 5.9-.37 5.5-.58 5.14-.76 4.88-.92 4.63-1.1 4.44-1.23 4.25-1.37 4.1-1.53 4-1.68 3.92-1.84 3.84-2 3.8-2.2 3.8-2.4 3.8-2.65 3.82-2.9 3.9-3.23 4-3.6 4.15-4.07 4.36-4.66 4.67-5.43 5.15-6.5 5.9-8.15 7.36-11.1 11.9-19.8 34.13-58.66 9.6-14.43 8.22-11.34 7.6-9.6 3.82-4.42"
            stroke="var(--svg-arrow-color)" stroke-linejoin="round" fill="none" />
        <path d="M4801.53 1274.27h-.53v-.94h.5z" stroke="var(--svg-arrow-color)" stroke-width=".05" fill="var(--svg-arrow-color)" />
        <path d="M4997.9 1074.25l-6.2 13.65-6.85-6.26z" stroke="var(--svg-arrow-color)" fill="var(--svg-arrow-color)" />
        <path
            d="M4801.5 1273.57l2.4.05 2.78.18 2.7.28 2.63.4 2.58.48 2.53.6 2.5.7 2.47.8 2.46.9 2.45 1.04 2.47 1.16 2.48 1.3 2.5 1.45 2.56 1.63 2.6 1.82 2.7 2.04 2.77 2.28 2.9 2.6 3.02 2.98 3.2 3.42 3.44 4 3.73 4.7 4.12 5.68 4.67 7.06 5.6 9.24 7.36 13.47 40.1 80.18 5.6 9.25 4.68 7.07 4.13 5.68 3.73 4.7 3.43 4 3.2 3.4 3.04 2.98 2.9 2.6 2.77 2.3 2.7 2.05 2.6 1.8 2.56 1.63 2.5 1.45 2.5 1.3 2.45 1.17 2.47 1.03 2.45.92 2.47.8 2.38.67"
            stroke="var(--svg-arrow-color)" stroke-linejoin="round" fill="none" />
        <path d="M4801.53 1273.1l-.02.95h-.5v-.96z" stroke="var(--svg-arrow-color)" stroke-width=".05"
            fill="var(--svg-arrow-color)" />
        <path d="M4996.4 1480.6l-14.74 2.84 1.15-9.2z" stroke="var(--svg-arrow-color)" fill="var(--svg-arrow-color)" />
        <path
            d="M5319 1421.07a6 6 0 0 1 6-6h148a6 6 0 0 1 6 6v118.66a6 6 0 0 1-6 6h-148a6 6 0 0 1-6-6z"
            fill="var(--svg-tile-color)" />
        <path
            d="M5323.45 1415.3l.6-.15.95-.08h2.05m8.22 0h4.12m8.2 0h4.12m8.22 0h4.1m8.23 0h4.12m8.2 0h4.12m8.22 0h4.1m8.23 0h4.12m8.2 0h4.12m8.22 0h4.1m8.23 0h4.12m8.2 0h4.12m8.22 0h2.06l.94.08.6.14m4.24 4.22l.14.6.08.95v1.98m0 7.9v3.96m0 7.92v3.96m0 7.9v3.97m0 7.9v3.96m0 7.92v3.96m0 7.9v3.97m0 7.9v3.96m0 7.92v3.96m0 7.9v3.96m0 7.92v1.97l-.08.94-.14.6m-4.23 4.24l-.6.16-.95.07h-2.06m-8.22 0h-4.1m-8.23 0h-4.13m-8.22 0h-4.1m-8.23 0h-4.1m-8.23 0h-4.13m-8.22 0h-4.1m-8.23 0h-4.1m-8.23 0h-4.13m-8.22 0h-4.1m-8.23 0h-4.1m-8.23 0h-4.13m-8.22 0H5325l-.94-.07-.6-.15m-4.24-4.22l-.15-.6-.07-.95v-1.97m0-7.92v-3.95m0-7.92v-3.96m0-7.9v-3.96m0-7.9v-3.97m0-7.92v-3.96m0-7.9v-3.96m0-7.9v-3.97m0-7.92v-3.95m0-7.9v-3.97m0-7.9v-2l.07-.93.15-.6"
            stroke="var(--svg-tile-stroke)" stroke-width="2" fill="none" />
        <use fill="var(--svg-text-color)" xlink:href="#i"
            transform="matrix(1,0,0,1,5323.997080152378,1420.0706448716794) translate(29.443359375 50.220920138888886)" />
        <use fill="var(--svg-text-color)" xlink:href="#j"
            transform="matrix(1,0,0,1,5323.997080152378,1420.0706448716794) translate(73.61653645833333 50.220920138888886)" />
        <use fill="var(--svg-text-color)" xlink:href="#k"
            transform="matrix(1,0,0,1,5323.997080152378,1420.0706448716794) translate(18.277994791666657 86.53602430555556)" />
        <path d="M5160.5 1480.8h141.1" stroke="var(--svg-arrow-color)" stroke-linejoin="round" fill="none" />
        <path d="M5160.5 1481.28h-.5v-.95h.5z" stroke="var(--svg-arrow-color)" stroke-width=".05" fill="var(--svg-arrow-color)" />
        <path d="M5316.38 1480.8l-14.27 4.64v-9.27z" stroke="var(--svg-arrow-color)" fill="var(--svg-arrow-color)" />
        <path
            d="M5000 968.8a6 6 0 0 1 6-6h148a6 6 0 0 1 6 6v226.3a6 6 0 0 1-6 6h-148a6 6 0 0 1-6-6z"
            stroke="var(--svg-tile-stroke)" stroke-width="2" fill="var(--svg-tile-color)" />
        <use fill="var(--svg-text-color)" xlink:href="#d"
            transform="matrix(1,0,0,1,5005,967.8087204714303) translate(75 30.90842013888889)" />
        <use fill="var(--svg-text-color)" xlink:href="#d"
            transform="matrix(1,0,0,1,5005,967.8087204714303) translate(75 67.22352430555556)" />
        <use fill="var(--svg-text-color)" xlink:href="#d"
            transform="matrix(1,0,0,1,5005,967.8087204714303) translate(75 103.53862847222221)" />
        <use fill="var(--svg-text-color)" xlink:href="#d"
            transform="matrix(1,0,0,1,5005,967.8087204714303) translate(75 139.85373263888889)" />
        <use fill="var(--svg-text-color)" xlink:href="#l"
            transform="matrix(1,0,0,1,5005,967.8087204714303) translate(6.624348958333329 176.16883680555554)" />
        <use fill="var(--svg-text-color)" xlink:href="#f"
            transform="matrix(1,0,0,1,5005,967.8087204714303) translate(80.00759548611111 176.16883680555554)" />
        <use fill="var(--svg-text-color)" xlink:href="#g"
            transform="matrix(1,0,0,1,5005,967.8087204714303) translate(26.253255208333336 212.4839409722222)" />
        <path
            d="M5029.65 994.16a6 6 0 0 1 6-6h88.7a6 6 0 0 1 6 6v88.7a6 6 0 0 1-6 6h-88.7a6 6 0 0 1-6-6z"
            fill="url(#m)" />
        <path
            d="M5320 1022.2a6 6 0 0 1 6-6h148a6 6 0 0 1 6 6v118.68a6 6 0 0 1-6 6h-148a6 6 0 0 1-6-6z"
            fill="var(--svg-tile-color)" />
        <path
            d="M5324.45 1016.43l.6-.14.95-.08h2.06m8.22 0h4.1m8.23 0h4.12m8.22 0h4.12m8.22 0h4.1m8.23 0h4.12m8.22 0h4.12m8.22 0h4.1m8.23 0h4.12m8.22 0h4.12m8.22 0h4.1m8.23 0h4.12m8.22 0h2.06l.94.07.6.13m4.24 4.24l.15.6.07.95v1.97m0 7.9v3.96m0 7.9v3.96m0 7.9v3.97m0 7.9v3.96m0 7.9v3.96m0 7.9v3.97m0 7.9v3.96m0 7.9v3.96m0 7.9v3.97m0 7.9v1.98l-.07.93-.15.63m-4.23 4.23l-.6.14-.95.08h-2.06m-8.22 0h-4.1m-8.23 0h-4.12m-8.22 0h-4.12m-8.22 0h-4.1m-8.23 0h-4.12m-8.22 0h-4.12m-8.22 0h-4.1m-8.23 0h-4.12m-8.22 0h-4.12m-8.22 0h-4.1m-8.23 0h-4.12m-8.22 0H5326l-.94-.08-.6-.14m-4.24-4.23l-.15-.62-.07-.92v-1.98m0-7.9v-3.97m0-7.9v-3.96m0-7.9v-3.97m0-7.9v-3.97m0-7.9v-3.96m0-7.9v-3.97m0-7.9v-3.96m0-7.9v-3.97m0-7.9v-3.97m0-7.9v-2l.07-.92.15-.6"
            stroke="var(--svg-tile-stroke)" stroke-width="2" fill="none" />
        <use fill="var(--svg-text-color)" xlink:href="#n"
            transform="matrix(1,0,0,1,5325,1021.2145055353669) translate(22.341579861111107 50.220920138888886)" />
        <use fill="var(--svg-text-color)" xlink:href="#o"
            transform="matrix(1,0,0,1,5325,1021.2145055353669) translate(16.558159722222214 86.53602430555556)" />
        <path d="M5161.5 1081.95h141.12" stroke="var(--svg-arrow-color)" stroke-linejoin="round" fill="none" />
        <path d="M5161.52 1082.43h-.52v-.95h.52z" stroke="var(--svg-arrow-color)" stroke-width=".05" fill="var(--svg-arrow-color)" />
        <path d="M5317.38 1081.95l-14.26 4.64v-9.28z" stroke="var(--svg-arrow-color)" fill="var(--svg-arrow-color)" />
        <path d="M5640 1079.8a6 6 0 0 1 6-6h148a6 6 0 0 1 6 6v68a6 6 0 0 1-6 6h-148a6 6 0 0 1-6-6z"
            stroke="var(--svg-tile-stroke)" stroke-width="2" fill="var(--svg-tile-color)" />
        <use fill="var(--svg-text-color)" xlink:href="#p"
            transform="matrix(1,0,0,1,5645,1078.8008681169115) translate(21.63628472222222 43.439670138888886)" />
        <use fill="var(--svg-text-color)" xlink:href="#q"
            transform="matrix(1,0,0,1,5645,1078.8008681169115) translate(114.30121527777777 43.439670138888886)" />
        <path d="M5640 1209.4a6 6 0 0 1 6-6h148a6 6 0 0 1 6 6v68a6 6 0 0 1-6 6h-148a6 6 0 0 1-6-6z"
            stroke="var(--svg-tile-stroke)" stroke-width="2" fill="var(--svg-tile-color)" />
        <use fill="var(--svg-text-color)" xlink:href="#p"
            transform="matrix(1,0,0,1,5645,1208.412264894337) translate(21.468098958333336 43.439670138888886)" />
        <use fill="var(--svg-text-color)" xlink:href="#r"
            transform="matrix(1,0,0,1,5645,1208.412264894337) translate(114.13302951388889 43.439670138888886)" />
        <path d="M5640 1399.8a6 6 0 0 1 6-6h148a6 6 0 0 1 6 6v68a6 6 0 0 1-6 6h-148a6 6 0 0 1-6-6z"
            stroke="var(--svg-tile-stroke)" stroke-width="2" fill="var(--svg-tile-color)" />
        <use fill="var(--svg-text-color)" xlink:href="#p"
            transform="matrix(1,0,0,1,5645,1398.8008681169115) translate(20.833333333333336 43.439670138888886)" />
        <use fill="var(--svg-text-color)" xlink:href="#s"
            transform="matrix(1,0,0,1,5645,1398.8008681169115) translate(113.49826388888889 43.439670138888886)" />
        <path
            d="M5700.35 1338.2c0 2.85-2.32 5.17-5.18 5.17-2.85 0-5.17-2.32-5.17-5.17 0-2.86 2.32-5.18 5.17-5.18 2.86 0 5.18 2.32 5.18 5.18zM5725.17 1338.2c0 2.85-2.3 5.17-5.17 5.17-2.86 0-5.17-2.32-5.17-5.17 0-2.86 2.3-5.18 5.17-5.18 2.86 0 5.17 2.32 5.17 5.18zM5750 1338.2c0 2.85-2.32 5.17-5.17 5.17-2.86 0-5.18-2.32-5.18-5.17 0-2.86 2.32-5.18 5.18-5.18 2.85 0 5.17 2.32 5.17 5.18z"
            stroke="var(--svg-tile-stroke)" stroke-width="2" fill="var(--svg-tile-color)" />
        <path
            d="M5480.5 1480.4l7.46-.16 7.03-.44 6.3-.66 5.74-.85 5.32-1.02 5-1.18 4.8-1.34 4.7-1.52 4.7-1.75 4.9-2.07 5.4-2.54 6.85-3.6 28.44-15.98 5.4-2.55 4.9-2.06 4.7-1.74 4.7-1.52 4.8-1.34 5-1.17 5.32-1.02 5.74-.84 4.94-.5"
            stroke="var(--svg-arrow-color)" stroke-linejoin="round" fill="none" />
        <path d="M5480.52 1480.87h-.52v-.94h.5z" stroke="var(--svg-arrow-color)" stroke-width=".05" fill="var(--svg-arrow-color)" />
        <path d="M5637.38 1433.88l-14.04 5.27-.42-9.26z" stroke="var(--svg-arrow-color)" fill="var(--svg-arrow-color)" />
        <path
            d="M5481.5 1081.56l10.55.2 9.3.6 8.06.83 7.2 1.05 6.64 1.27 6.33 1.48 6.36 1.78 6.94 2.26 9.75 3.65 24.5 9.6 6.95 2.27 6.36 1.77 6.33 1.5 6.63 1.25 7.2 1.05 8.05.85 3.98.24"
            stroke="var(--svg-arrow-color)" stroke-linejoin="round" fill="none" />
        <path d="M5481.52 1081.08l-.02.95h-.5v-.96z" stroke="var(--svg-arrow-color)" stroke-width=".05"
            fill="var(--svg-arrow-color)" />
        <path d="M5637.38 1113.75l-14.4 4.14.3-9.27z" stroke="var(--svg-arrow-color)" fill="var(--svg-arrow-color)" />
        <path
            d="M5480.5 1480.4l1.15-.03 1.62-.1 1.58-.17 1.56-.23 1.54-.3 1.53-.35 1.5-.42 1.53-.5 1.52-.56 1.53-.65 1.55-.73 1.57-.83 1.6-.92 1.63-1.04 1.68-1.17 1.74-1.3 1.8-1.5 1.88-1.7 1.97-1.92 2.07-2.2 2.22-2.58 2.36-3 2.57-3.52 2.8-4.22 3.1-5.15 3.52-6.4 4.1-8.3 5.05-11.37 6.98-17.7 34.47-96.94 5.05-11.38 4.1-8.3 3.53-6.42 3.1-5.14 2.8-4.23 2.57-3.53 2.37-3 2.2-2.55 2.1-2.22 1.96-1.93 1.88-1.7 1.8-1.48 1.74-1.32 1.68-1.17 1.63-1.04 1.6-.93 1.57-.82 1.22-.57"
            stroke="var(--svg-arrow-color)" stroke-linejoin="round" fill="none" />
        <path d="M5480.52 1480.87h-.52v-.94h.5z" stroke="var(--svg-arrow-color)" stroke-width=".05" fill="var(--svg-arrow-color)" />
        <path d="M5637.42 1243.76l-12.95 7.57-1.98-9.06z" stroke="var(--svg-arrow-color)" fill="var(--svg-arrow-color)" />
        <path
            d="M5481.5 1081.56l1.88.04 2.3.14 2.2.23 2.17.32 2.1.4 2.08.48 2.04.57 2.02.66 2 .75 2 .85 2.02.94 2.03 1.06 2.05 1.2 2.08 1.3 2.13 1.5 2.2 1.65 2.26 1.88 2.36 2.12 2.48 2.43 2.62 2.8 2.8 3.25 3.06 3.86 3.4 4.67 3.9 5.86 4.7 7.8 6.52 11.92 28.73 56.38 4.7 7.8 3.9 5.86 3.4 4.67 3.04 3.86 2.8 3.26 2.63 2.78 2.48 2.42 2.36 2.13 2.26 1.87 2.2 1.67 2.12 1.48 2.08 1.32 2.05 1.18 2.03 1.06 2 .96 2.02.84 2 .75 1.17.38"
            stroke="var(--svg-arrow-color)" stroke-linejoin="round" fill="none" />
        <path d="M5481.52 1081.08l-.02.95h-.5v-.96z" stroke="var(--svg-arrow-color)" stroke-width=".05"
            fill="var(--svg-arrow-color)" />
        <path d="M5637.4 1243.17l-14.8 2.4 1.4-9.15z" stroke="var(--svg-arrow-color)" fill="var(--svg-arrow-color)" />
        <path
            d="M5481.5 1081.56h.6l1.1.08 1.07.1 1.06.17 1.07.2 1.06.26 1.06.3 1.07.35 1.08.4 1.1.47 1.12.53 1.14.6 1.17.67 1.22.77 1.26.87 1.3 1 1.35 1.13 1.43 1.28 1.5 1.48 1.6 1.7 1.7 1.98 1.83 2.3 1.97 2.73 2.16 3.25 2.38 3.94 2.66 4.83 3 6.05 3.46 7.78 4.07 10.32 5 14.44 6.63 22.12 11.38 44.96 29.17 123.1 6.63 22.13 5 14.43 4.08 10.33 3.46 7.77 3 6.05 2.65 4.84 2.37 3.93 2.16 3.25 1.98 2.73 1.84 2.3 1.7 1.98 1.6 1.7 1.5 1.48 1.43 1.28 1.35 1.13 1.3.98 1.26.87.03.02"
            stroke="var(--svg-arrow-color)" stroke-linejoin="round" fill="none" />
        <path d="M5481.52 1081.08l-.02.95h-.5v-.96z" stroke="var(--svg-arrow-color)" stroke-width=".05"
            fill="var(--svg-arrow-color)" />
        <path d="M5637.46 1433.3l-15 .12 2.8-8.84z" stroke="var(--svg-arrow-color)" fill="var(--svg-arrow-color)" />
        <path
            d="M5480.5 1480.4l.57-.02 1.06-.07 1.05-.1 1.04-.15 1.04-.2 1.03-.24 1.03-.28 1.05-.34 1.06-.4 1.08-.45 1.1-.52 1.1-.57 1.16-.67 1.2-.75 1.22-.84 1.27-.97 1.34-1.12 1.4-1.26 1.48-1.45 1.57-1.67 1.68-1.94 1.8-2.28 1.95-2.68 2.13-3.2 2.36-3.9 2.6-4.76 2.97-5.97 3.4-7.65 4-10.14 4.88-14.1 6.4-21.25 10.07-39.75 33.94-146.9 6.4-21.27 4.87-14.08 4-10.14 3.4-7.65 2.96-5.97 2.6-4.76 2.36-3.88 2.12-3.2 1.95-2.7 1.8-2.27 1.67-1.95 1.57-1.67 1.5-1.45 1.4-1.26 1.33-1.1 1.27-.97.95-.67"
            stroke="var(--svg-arrow-color)" stroke-linejoin="round" fill="none" />
        <path d="M5480.52 1480.87h-.52v-.94h.5z" stroke="var(--svg-arrow-color)" stroke-width=".05" fill="var(--svg-arrow-color)" />
        <path d="M5637.46 1114.3l-12.14 8.82-2.86-8.82z" stroke="var(--svg-arrow-color)" fill="var(--svg-arrow-color)" />
        <path
            d="M4999 1367.66a6 6 0 0 1 6-6h148a6 6 0 0 1 6 6v226.3a6 6 0 0 1-6 6h-148a6 6 0 0 1-6-6z"
            stroke="var(--svg-tile-stroke)" stroke-width="2" fill="var(--svg-tile-color)" />
        <g>
            <use fill="var(--svg-text-color)" xlink:href="#d"
                transform="matrix(1,0,0,1,5003.997080152378,1366.6648598077431) translate(75 30.90842013888889)" />
            <use fill="var(--svg-text-color)" xlink:href="#d"
                transform="matrix(1,0,0,1,5003.997080152378,1366.6648598077431) translate(75 67.22352430555556)" />
            <use fill="var(--svg-text-color)" xlink:href="#d"
                transform="matrix(1,0,0,1,5003.997080152378,1366.6648598077431) translate(75 103.53862847222221)" />
            <use fill="var(--svg-text-color)" xlink:href="#d"
                transform="matrix(1,0,0,1,5003.997080152378,1366.6648598077431) translate(75 139.85373263888889)" />
            <use fill="var(--svg-text-color)" xlink:href="#e"
                transform="matrix(1,0,0,1,5003.997080152378,1366.6648598077431) translate(0.5967881944444571 176.16883680555554)" />
            <use fill="var(--svg-text-color)" xlink:href="#f"
                transform="matrix(1,0,0,1,5003.997080152378,1366.6648598077431) translate(86.03515625 176.16883680555554)" />
            <use fill="var(--svg-text-color)" xlink:href="#g"
                transform="matrix(1,0,0,1,5003.997080152378,1366.6648598077431) translate(26.253255208333336 212.4839409722222)" />
        </g>
        <path
            d="M5028.65 1393.02a6 6 0 0 1 6-6h88.7a6 6 0 0 1 6 6v88.7a6 6 0 0 1-6 6h-88.7a6 6 0 0 1-6-6z"
            fill="url(#t)" />
        <path
            d="M5000 968.8a6 6 0 0 1 6-6h148a6 6 0 0 1 6 6v226.3a6 6 0 0 1-6 6h-148a6 6 0 0 1-6-6z"
            stroke="var(--svg-tile-stroke)" stroke-width="2" fill="var(--svg-tile-color)" />
        <g>
            <use fill="var(--svg-text-color)" xlink:href="#d"
                transform="matrix(1,0,0,1,5005,967.8087204714303) translate(75 30.90842013888889)" />
            <use fill="var(--svg-text-color)" xlink:href="#d"
                transform="matrix(1,0,0,1,5005,967.8087204714303) translate(75 67.22352430555556)" />
            <use fill="var(--svg-text-color)" xlink:href="#d"
                transform="matrix(1,0,0,1,5005,967.8087204714303) translate(75 103.53862847222221)" />
            <use fill="var(--svg-text-color)" xlink:href="#d"
                transform="matrix(1,0,0,1,5005,967.8087204714303) translate(75 139.85373263888889)" />
            <use fill="var(--svg-text-color)" xlink:href="#l"
                transform="matrix(1,0,0,1,5005,967.8087204714303) translate(6.624348958333329 176.16883680555554)" />
            <use fill="var(--svg-text-color)" xlink:href="#f"
                transform="matrix(1,0,0,1,5005,967.8087204714303) translate(80.00759548611111 176.16883680555554)" />
            <use fill="var(--svg-text-color)" xlink:href="#g"
                transform="matrix(1,0,0,1,5005,967.8087204714303) translate(26.253255208333336 212.4839409722222)" />
        </g>
        <path
            d="M5029.65 994.16a6 6 0 0 1 6-6h88.7a6 6 0 0 1 6 6v88.7a6 6 0 0 1-6 6h-88.7a6 6 0 0 1-6-6z"
            fill="url(#u)" />
        <path d="M5640 1079.8a6 6 0 0 1 6-6h148a6 6 0 0 1 6 6v68a6 6 0 0 1-6 6h-148a6 6 0 0 1-6-6z"
            stroke="var(--svg-tile-stroke)" stroke-width="2" fill="var(--svg-tile-color)" />
        <g>
            <use fill="var(--svg-text-color)" xlink:href="#p"
                transform="matrix(1,0,0,1,5645,1078.8008681169115) translate(21.63628472222222 43.439670138888886)" />
            <use fill="var(--svg-text-color)" xlink:href="#q"
                transform="matrix(1,0,0,1,5645,1078.8008681169115) translate(114.30121527777777 43.439670138888886)" />
        </g>
        <path d="M5640 1209.4a6 6 0 0 1 6-6h148a6 6 0 0 1 6 6v68a6 6 0 0 1-6 6h-148a6 6 0 0 1-6-6z"
            stroke="var(--svg-tile-stroke)" stroke-width="2" fill="var(--svg-tile-color)" />
        <g>
            <use fill="var(--svg-text-color)" xlink:href="#p"
                transform="matrix(1,0,0,1,5645,1208.412264894337) translate(21.468098958333336 43.439670138888886)" />
            <use fill="var(--svg-text-color)" xlink:href="#r"
                transform="matrix(1,0,0,1,5645,1208.412264894337) translate(114.13302951388889 43.439670138888886)" />
        </g>
        <path d="M5640 1399.8a6 6 0 0 1 6-6h148a6 6 0 0 1 6 6v68a6 6 0 0 1-6 6h-148a6 6 0 0 1-6-6z"
            stroke="var(--svg-tile-stroke)" stroke-width="2" fill="var(--svg-tile-color)" />
        <g>
            <use fill="var(--svg-text-color)" xlink:href="#p"
                transform="matrix(1,0,0,1,5645,1398.8008681169115) translate(20.833333333333336 43.439670138888886)" />
            <use fill="var(--svg-text-color)" xlink:href="#s"
                transform="matrix(1,0,0,1,5645,1398.8008681169115) translate(113.49826388888889 43.439670138888886)" />
        </g>
        <path
            d="M5700.35 1338.2c0 2.85-2.32 5.17-5.18 5.17-2.85 0-5.17-2.32-5.17-5.17 0-2.86 2.32-5.18 5.17-5.18 2.86 0 5.18 2.32 5.18 5.18zM5725.17 1338.2c0 2.85-2.3 5.17-5.17 5.17-2.86 0-5.17-2.32-5.17-5.17 0-2.86 2.3-5.18 5.17-5.18 2.86 0 5.17 2.32 5.17 5.18zM5750 1338.2c0 2.85-2.32 5.17-5.17 5.17-2.86 0-5.18-2.32-5.18-5.17 0-2.86 2.32-5.18 5.18-5.18 2.85 0 5.17 2.32 5.17 5.18z"
            stroke="var(--svg-tile-stroke)" stroke-width="2" fill="var(--svg-tile-color)" />
        <path
            d="M5700.35 1338.2c0 2.85-2.32 5.17-5.18 5.17-2.85 0-5.17-2.32-5.17-5.17 0-2.86 2.32-5.18 5.17-5.18 2.86 0 5.18 2.32 5.18 5.18zM5725.17 1338.2c0 2.85-2.3 5.17-5.17 5.17-2.86 0-5.17-2.32-5.17-5.17 0-2.86 2.3-5.18 5.17-5.18 2.86 0 5.17 2.32 5.17 5.18zM5750 1338.2c0 2.85-2.32 5.17-5.17 5.17-2.86 0-5.18-2.32-5.18-5.17 0-2.86 2.32-5.18 5.18-5.18 2.85 0 5.17 2.32 5.17 5.18z"
            stroke="var(--svg-tile-stroke)" stroke-width="2" fill="var(--svg-tile-color)" />
        <path
            d="M5700.35 1338.2c0 2.85-2.32 5.17-5.18 5.17-2.85 0-5.17-2.32-5.17-5.17 0-2.86 2.32-5.18 5.17-5.18 2.86 0 5.18 2.32 5.18 5.18zM5725.17 1338.2c0 2.85-2.3 5.17-5.17 5.17-2.86 0-5.17-2.32-5.17-5.17 0-2.86 2.3-5.18 5.17-5.18 2.86 0 5.17 2.32 5.17 5.18zM5750 1338.2c0 2.85-2.32 5.17-5.17 5.17-2.86 0-5.18-2.32-5.18-5.17 0-2.86 2.32-5.18 5.18-5.18 2.85 0 5.17 2.32 5.17 5.18z"
            stroke="var(--svg-tile-stroke)" stroke-width="2" fill="var(--svg-tile-color)" />
        <defs>
            <image width="10" height="10" id="O"
                xlink:href="assets/logos/Atomosphere.svg"/>
            <image width="10" height="10" id="D"
                xlink:href="assets/logos/Electros.svg"/>
            <path d="M1026 0H184v-1462h842v254H494v321h495v254H494v377h532V0" id="v" />
            <path d="M465 0H160v-1556h305V0" id="w" />
            <path
                d="M836-686c0-141-77-236-213-236-140 0-206 98-215 236h428zm223 627C946-4 838 19 666 20 308 22 92-191 92-551c0-356 187-588 529-588 314 0 504 195 501 508v148H401c5 169 104 277 279 276 158-2 261-33 379-88v236"
                id="x" />
            <path
                d="M954-63C853 0 774 20 614 20 266 20 92-171 92-553c0-369 188-586 549-586 129 0 245 25 348 76l-90 236c-84-31-156-66-258-66-159 0-238 113-238 338 0 219 79 328 238 328 137 0 223-38 313-97v261"
                id="y" />
            <path
                d="M498-350c-2 85 52 126 133 127 53 0 117-12 192-35v227C747 3 654 20 543 20c-247 0-350-124-350-370v-539H47v-129l168-102 88-236h195v238h313v229H498v539"
                id="z" />
            <path
                d="M451-930c71-134 228-244 436-200l-23 286c-220-45-399 61-399 275V0H160v-1118h231l45 188h15"
                id="A" />
            <path
                d="M633-893c-183 0-230 133-230 332s48 336 232 336c183 0 229-137 229-336s-47-332-231-332zm4-246c347 5 535 225 539 578S978 25 631 20C283 15 96-208 92-561c-4-355 196-583 545-578"
                id="B" />
            <path
                d="M836-831c-99-39-182-77-306-82-139-6-173 83-92 144 51 39 327 139 383 188 71 62 119 126 119 249C940-74 747 21 463 20 305 20 202 0 94-45v-252c93 45 253 94 379 94 111 0 166-32 166-96 0-68-41-76-98-109-79-46-276-119-333-167-74-61-116-125-116-252 0-368 555-367 836-224"
                id="C" />
            <g id="b">
                <use transform="matrix(0.010850694444444444,0,0,0.010850694444444444,0,0)"
                    xlink:href="#v" />
                <use
                    transform="matrix(0.010850694444444444,0,0,0.010850694444444444,12.445746527777777,0)"
                    xlink:href="#w" />
                <use
                    transform="matrix(0.010850694444444444,0,0,0.010850694444444444,19.227430555555554,0)"
                    xlink:href="#x" />
                <use
                    transform="matrix(0.010850694444444444,0,0,0.010850694444444444,32.35677083333333,0)"
                    xlink:href="#y" />
                <use
                    transform="matrix(0.010850694444444444,0,0,0.010850694444444444,43.78255208333333,0)"
                    xlink:href="#z" />
                <use
                    transform="matrix(0.010850694444444444,0,0,0.010850694444444444,53.42881944444444,0)"
                    xlink:href="#A" />
                <use
                    transform="matrix(0.010850694444444444,0,0,0.010850694444444444,63.07508680555555,0)"
                    xlink:href="#B" />
                <use
                    transform="matrix(0.010850694444444444,0,0,0.010850694444444444,76.83376736111111,0)"
                    xlink:href="#C" />
            </g>
            <pattern id="c" patternUnits="userSpaceOnUse" x="4670.11" y="1192.42" width="99.77"
                height="107.35">
                <use xlink:href="#D"
                    transform="translate(-3.7912893598359005, 0) scale(10.735335134692509,10.735335134692509)" />
            </pattern>
            <path
                d="M881-995c0-154-85-213-246-213H494v434h102c173 1 285-62 285-221zm-230-467c334-1 543 136 543 456 0 330-225 489-567 486H494V0H184v-1462h467"
                id="E" />
            <path
                d="M479-1407c-1 99-61 150-166 150-111 0-166-50-166-150 0-99 55-149 166-149s166 50 166 149zM465 0H160v-1118h305V0"
                id="F" />
            <path
                d="M426 0L0-1118h319l216 637c24 81 39 157 45 229h6c3-64 15-141 45-229l215-637h319L739 0H426"
                id="G" />
            <path
                d="M618-1141c286 0 465 117 465 396V0H870l-59-152h-8C704-33 632 18 432 20 216 22 86-113 86-334c0-119 44-202 124-262 109-82 356-99 570-100 11-142-39-219-174-219-89 0-194 27-315 81l-101-206c129-67 271-101 428-101zm-71 938c137 0 235-88 233-223v-92c-190 3-382 4-381 186 0 86 49 129 148 129"
                id="H" />
            <g id="e">
                <use transform="matrix(0.010850694444444444,0,0,0.010850694444444444,0,0)"
                    xlink:href="#E" />
                <use
                    transform="matrix(0.010850694444444444,0,0,0.010850694444444444,13.953993055555555,0)"
                    xlink:href="#A" />
                <use
                    transform="matrix(0.010850694444444444,0,0,0.010850694444444444,24.04513888888889,0)"
                    xlink:href="#F" />
                <use
                    transform="matrix(0.010850694444444444,0,0,0.010850694444444444,30.826822916666664,0)"
                    xlink:href="#G" />
                <use
                    transform="matrix(0.010850694444444444,0,0,0.010850694444444444,43.46788194444444,0)"
                    xlink:href="#H" />
                <use
                    transform="matrix(0.010850694444444444,0,0,0.010850694444444444,56.89019097222222,0)"
                    xlink:href="#z" />
                <use
                    transform="matrix(0.010850694444444444,0,0,0.010850694444444444,66.53645833333333,0)"
                    xlink:href="#x" />
            </g>
            <path
                d="M1133-1128c-95-42-202-97-328-97-258 0-367 218-367 498 0 326 122 489 367 489 103 0 227-26 373-77v260C1058-5 924 20 776 20c-443 0-662-290-657-749 5-455 236-754 686-754 142 0 285 34 428 103"
                id="I" />
            <path
                d="M639-223c202 0 242-139 242-369v-526h305V0H952l-41-143h-16C834-43 709 20 551 20c-263 0-397-147-397-409v-729h305v653c1 148 42 242 180 242"
                id="J" />
            <path
                d="M92-557c0-327 132-582 430-582 141 0 248 55 322 164h10c-38-188-18-371-23-581h306V0H903l-59-145h-13C762-35 656 20 514 20 222 20 92-237 92-557zm309 4c0 190 54 330 220 330 191 0 231-123 231-332 0-214-44-336-236-336-161 0-215 151-215 338"
                id="K" />
            <g id="f">
                <use transform="matrix(0.010850694444444444,0,0,0.010850694444444444,0,0)"
                    xlink:href="#I" />
                <use transform="matrix(0.010850694444444444,0,0,0.010850694444444444,14.16015625,0)"
                    xlink:href="#w" />
                <use
                    transform="matrix(0.010850694444444444,0,0,0.010850694444444444,20.94184027777778,0)"
                    xlink:href="#B" />
                <use
                    transform="matrix(0.010850694444444444,0,0,0.010850694444444444,34.700520833333336,0)"
                    xlink:href="#J" />
                <use
                    transform="matrix(0.010850694444444444,0,0,0.010850694444444444,49.30555555555556,0)"
                    xlink:href="#K" />
            </g>
            <path
                d="M1481 0h-394L451-1106h-9c33 431 14 683 19 1106H184v-1462h391l635 1095h7c-26-429-11-678-15-1095h279V0"
                id="L" />
            <path
                d="M1079 0c-64-298-133-592-202-885h-7L666 0H338L20-1118h304c74 305 149 505 192 862h6c25-292 125-597 189-862h336c64 284 150 545 182 862h6c7-69 49-308 65-367l134-495h299L1411 0h-332"
                id="M" />
            <path
                d="M453-608l133-170 313-340h344L799-633 1270 0H918L596-453 465-348V0H160v-1556h305v694l-16 254h4"
                id="N" />
            <g id="g">
                <use transform="matrix(0.010850694444444444,0,0,0.010850694444444444,0,0)"
                    xlink:href="#L" />
                <use transform="matrix(0.010850694444444444,0,0,0.010850694444444444,18.06640625,0)"
                    xlink:href="#x" />
                <use
                    transform="matrix(0.010850694444444444,0,0,0.010850694444444444,31.195746527777775,0)"
                    xlink:href="#z" />
                <use
                    transform="matrix(0.010850694444444444,0,0,0.010850694444444444,40.842013888888886,0)"
                    xlink:href="#M" />
                <use transform="matrix(0.010850694444444444,0,0,0.010850694444444444,59.86328125,0)"
                    xlink:href="#B" />
                <use
                    transform="matrix(0.010850694444444444,0,0,0.010850694444444444,73.62196180555556,0)"
                    xlink:href="#A" />
                <use
                    transform="matrix(0.010850694444444444,0,0,0.010850694444444444,83.71310763888889,0)"
                    xlink:href="#N" />
            </g>
            <pattern id="h" patternUnits="userSpaceOnUse" x="5028.65" y="1387.02" width="100.7"
                height="100.7">
                <use xlink:href="#O"
                    transform="translate(0, 0) scale(10.069591358971683,10.069591358971683)" />
            </pattern>
            <path d="M573-731l390-731h184L659-567V0H487v-559L0-1462h186" id="P" />
            <path
                d="M621-1116c316 0 501 239 501 567 0 339-180 575-508 569S119-212 115-549c-4-339 178-567 506-567zm-5 141c-239 0-329 168-329 426 0 255 93 430 331 430s332-174 332-430-95-426-334-426"
                id="Q" />
            <path
                d="M563 20c-271 0-399-123-399-399v-717h168v711c1 177 76 266 252 266 250 0 331-135 331-401v-576h166V0H944l-24-147h-9C848-44 724 20 563 20"
                id="R" />
            <g id="i">
                <use transform="matrix(0.010850694444444444,0,0,0.010850694444444444,0,0)"
                    xlink:href="#P" />
                <use
                    transform="matrix(0.010850694444444444,0,0,0.010850694444444444,11.338975694444445,0)"
                    xlink:href="#Q" />
                <use
                    transform="matrix(0.010850694444444444,0,0,0.010850694444444444,24.76128472222222,0)"
                    xlink:href="#R" />
            </g>
            <path
                d="M795-1139c261-1 398 148 397 410V0H887v-653c-1-148-42-242-180-242-202 0-242 139-242 369V0H160v-1118h233l41 143h17c62-102 185-163 344-164"
                id="S" />
            <g id="j">
                <use transform="matrix(0.010850694444444444,0,0,0.010850694444444444,0,0)"
                    xlink:href="#B" />
                <use
                    transform="matrix(0.010850694444444444,0,0,0.010850694444444444,13.313802083333332,0)"
                    xlink:href="#M" />
                <use
                    transform="matrix(0.010850694444444444,0,0,0.010850694444444444,32.33506944444444,0)"
                    xlink:href="#S" />
            </g>
            <path
                d="M287-543c-1 247 91 418 323 418 91 0 185-20 281-59v147C818 1 725 20 614 20c-329 0-499-221-499-561 0-349 172-575 510-575 96 0 221 26 282 57l-51 141c-61-25-157-50-235-51-223 0-334 142-334 426"
                id="T" />
            <path
                d="M340-893c80-153 237-262 467-211l-23 154c-45-10-85-15-120-15-184-3-322 182-322 377V0H176v-1096h137l19 203h8"
                id="U" />
            <path
                d="M995-51C878-2 799 19 639 20c-329 2-524-221-524-559 0-326 172-577 481-577 278 0 451 210 446 493v105H287c4 242 121 392 358 393 118 0 235-25 350-74v148zM864-653c2-195-85-324-270-324-190 0-288 139-303 324h573"
                id="V" />
            <path
                d="M115-545c0-330 146-571 454-571 149 0 263 54 342 162h13c-20-185-8-401-11-602h166V0H944l-22-147h-9C836-36 722 20 569 20c-309 0-454-234-454-565zm172 2c0 249 78 424 303 424 257 0 327-150 323-426-4-282-68-432-325-432-220 0-301 191-301 434"
                id="W" />
            <path
                d="M694-1116c270 0 399 125 398 401V0H926v-709c-1-177-76-266-252-266-250 0-332 133-332 400V0H176v-1096h135l27 150h8c62-101 190-170 348-170"
                id="X" />
            <path
                d="M354-322c-2 123 60 204 176 205 51 1 114-10 150-20v127C647 7 557 20 506 20 294 20 188-92 188-315v-652H31v-80l157-69 70-234h96v254h318v129H354v645"
                id="Y" />
            <path
                d="M342 0H176v-1096h166V0zm-82-1282c-61 0-98-43-98-111 0-69 36-110 98-110 59 0 98 43 98 110s-39 111-98 111"
                id="Z" />
            <path
                d="M588-1114c260 0 384 106 385 366V0H850l-33-156h-8C708-34 639 17 442 20 231 23 94-94 94-303c0-221 177-337 531-348l186-6c11-203-40-320-233-320-91 0-195 28-310 84l-51-127c97-53 229-94 371-94zM268-301c-1 123 81 184 207 184 203 0 334-120 332-323v-99c-257 14-539-7-539 238"
                id="aa" />
            <path d="M342 0H176v-1556h166V0" id="ab" />
            <path
                d="M502-977c-130 0-238 32-238 139 0 75 39 101 95 134 33 19 97 46 192 81 130 48 217 95 263 143s69 108 69 181C883-73 695 20 449 20 304 20 190-3 109-49v-154c91 47 216 86 344 86 149 0 270-36 270-168 0-43-21-76-55-109-56-55-367-158-434-208-74-55-128-109-128-225 0-327 490-342 754-217l-59 135c-110-45-210-68-299-68"
                id="ac" />
            <g id="k">
                <use transform="matrix(0.010850694444444444,0,0,0.010850694444444444,0,0)"
                    xlink:href="#T" />
                <use
                    transform="matrix(0.010850694444444444,0,0,0.010850694444444444,10.579427083333332,0)"
                    xlink:href="#U" />
                <use
                    transform="matrix(0.010850694444444444,0,0,0.010850694444444444,19.205729166666664,0)"
                    xlink:href="#V" />
                <use
                    transform="matrix(0.010850694444444444,0,0,0.010850694444444444,31.67317708333333,0)"
                    xlink:href="#W" />
                <use
                    transform="matrix(0.010850694444444444,0,0,0.010850694444444444,45.29079861111111,0)"
                    xlink:href="#V" />
                <use
                    transform="matrix(0.010850694444444444,0,0,0.010850694444444444,57.75824652777778,0)"
                    xlink:href="#X" />
                <use
                    transform="matrix(0.010850694444444444,0,0,0.010850694444444444,71.39756944444444,0)"
                    xlink:href="#Y" />
                <use
                    transform="matrix(0.010850694444444444,0,0,0.010850694444444444,79.24262152777777,0)"
                    xlink:href="#Z" />
                <use transform="matrix(0.010850694444444444,0,0,0.010850694444444444,84.86328125,0)"
                    xlink:href="#aa" />
                <use
                    transform="matrix(0.010850694444444444,0,0,0.010850694444444444,97.22222222222221,0)"
                    xlink:href="#ab" />
                <use
                    transform="matrix(0.010850694444444444,0,0,0.010850694444444444,102.84288194444446,0)"
                    xlink:href="#ac" />
            </g>
            <path
                d="M782-1139c292 0 422 259 422 578 0 185-39 328-116 429S907 20 774 20c-131 0-234-48-309-143h-21L393 0H160v-1556h305c-3 221 8 361-12 583h12c71-111 177-166 317-166zM465-596c-3 221 29 369 223 369 63 0 110-31 150-87 71-99 72-401-1-498-40-53-88-83-153-83-174 0-216 109-219 299"
                id="ad" />
            <g id="l">
                <use transform="matrix(0.010850694444444444,0,0,0.010850694444444444,0,0)"
                    xlink:href="#E" />
                <use
                    transform="matrix(0.010850694444444444,0,0,0.010850694444444444,13.953993055555555,0)"
                    xlink:href="#J" />
                <use
                    transform="matrix(0.010850694444444444,0,0,0.010850694444444444,28.559027777777775,0)"
                    xlink:href="#ad" />
                <use
                    transform="matrix(0.010850694444444444,0,0,0.010850694444444444,42.62152777777778,0)"
                    xlink:href="#w" />
                <use
                    transform="matrix(0.010850694444444444,0,0,0.010850694444444444,49.40321180555556,0)"
                    xlink:href="#F" />
                <use
                    transform="matrix(0.010850694444444444,0,0,0.010850694444444444,56.18489583333333,0)"
                    xlink:href="#y" />
            </g>
            <pattern id="m" patternUnits="userSpaceOnUse" x="5029.65" y="988.16" width="100.7"
                height="100.7">
                <use xlink:href="#O"
                    transform="translate(0, 0) scale(10.069591358971683,10.069591358971683)" />
            </pattern>
            <path
                d="M1384-895c-176 0-222 133-223 334V0H856v-653c-1-144-37-242-168-242-78 0-135 29-170 86s-53 152-53 283V0H160v-1118h233l41 143h17c56-98 174-164 325-164 167 0 281 55 340 164h27c55-99 179-165 330-164 265 2 385 133 385 410V0h-306v-653c-1-144-37-242-168-242"
                id="ae" />
            <g id="n">
                <use transform="matrix(0.010850694444444444,0,0,0.010850694444444444,0,0)"
                    xlink:href="#v" />
                <use
                    transform="matrix(0.010850694444444444,0,0,0.010850694444444444,12.445746527777777,0)"
                    xlink:href="#w" />
                <use
                    transform="matrix(0.010850694444444444,0,0,0.010850694444444444,19.227430555555554,0)"
                    xlink:href="#x" />
                <use
                    transform="matrix(0.010850694444444444,0,0,0.010850694444444444,32.35677083333333,0)"
                    xlink:href="#ae" />
                <use
                    transform="matrix(0.010850694444444444,0,0,0.010850694444444444,54.17751736111111,0)"
                    xlink:href="#x" />
                <use
                    transform="matrix(0.010850694444444444,0,0,0.010850694444444444,67.30685763888889,0)"
                    xlink:href="#S" />
                <use
                    transform="matrix(0.010850694444444444,0,0,0.010850694444444444,81.91189236111111,0)"
                    xlink:href="#z" />
                <use
                    transform="matrix(0.010850694444444444,0,0,0.010850694444444444,91.55815972222221,0)"
                    xlink:href="#B" />
            </g>
            <path
                d="M125-733c6-459 248-750 704-750 153 0 287 28 402 84l-72 146c-111-52-221-78-332-78-334-1-520 251-520 600 0 361 171 600 518 600 102 0 218-18 349-55v149C1073 1 948 20 799 20c-445 1-680-294-674-753"
                id="af" />
            <g id="o">
                <use transform="matrix(0.010850694444444444,0,0,0.010850694444444444,0,0)"
                    xlink:href="#af" />
                <use
                    transform="matrix(0.010850694444444444,0,0,0.010850694444444444,14.019097222222221,0)"
                    xlink:href="#U" />
                <use
                    transform="matrix(0.010850694444444444,0,0,0.010850694444444444,22.645399305555554,0)"
                    xlink:href="#V" />
                <use
                    transform="matrix(0.010850694444444444,0,0,0.010850694444444444,35.11284722222222,0)"
                    xlink:href="#W" />
                <use transform="matrix(0.010850694444444444,0,0,0.010850694444444444,48.73046875,0)"
                    xlink:href="#V" />
                <use
                    transform="matrix(0.010850694444444444,0,0,0.010850694444444444,61.197916666666664,0)"
                    xlink:href="#X" />
                <use
                    transform="matrix(0.010850694444444444,0,0,0.010850694444444444,74.83723958333333,0)"
                    xlink:href="#Y" />
                <use
                    transform="matrix(0.010850694444444444,0,0,0.010850694444444444,82.68229166666666,0)"
                    xlink:href="#Z" />
                <use
                    transform="matrix(0.010850694444444444,0,0,0.010850694444444444,88.30295138888889,0)"
                    xlink:href="#aa" />
                <use
                    transform="matrix(0.010850694444444444,0,0,0.010850694444444444,100.66189236111111,0)"
                    xlink:href="#ab" />
                <use
                    transform="matrix(0.010850694444444444,0,0,0.010850694444444444,106.28255208333334,0)"
                    xlink:href="#ac" />
            </g>
            <path
                d="M1128-1036c0 321-241 464-585 461H371V0H201v-1462h379c365 0 548 142 548 426zm-176 8c0-218-150-286-391-287H371v594h153c270-3 428-62 428-307"
                id="ag" />
            <path
                d="M516-150c94-315 146-423 332-946h178L610 0H416L0-1096h178c98 281 253 670 330 946h8"
                id="ah" />
            <g id="p">
                <use transform="matrix(0.010850694444444444,0,0,0.010850694444444444,0,0)"
                    xlink:href="#ag" />
                <use transform="matrix(0.010850694444444444,0,0,0.010850694444444444,13.37890625,0)"
                    xlink:href="#U" />
                <use
                    transform="matrix(0.010850694444444444,0,0,0.010850694444444444,22.005208333333336,0)"
                    xlink:href="#Q" />
                <use
                    transform="matrix(0.010850694444444444,0,0,0.010850694444444444,34.98263888888889,0)"
                    xlink:href="#ah" />
                <use
                    transform="matrix(0.010850694444444444,0,0,0.010850694444444444,46.1154513888889,0)"
                    xlink:href="#Z" />
                <use
                    transform="matrix(0.010850694444444444,0,0,0.010850694444444444,51.73611111111112,0)"
                    xlink:href="#W" />
                <use
                    transform="matrix(0.010850694444444444,0,0,0.010850694444444444,65.35373263888889,0)"
                    xlink:href="#V" />
                <use
                    transform="matrix(0.010850694444444444,0,0,0.010850694444444444,77.82118055555556,0)"
                    xlink:href="#U" />
            </g>
            <path
                d="M1120 0L938-465H352L172 0H0l578-1468h143L1296 0h-176zM885-618c-81-228-168-420-238-664-57 230-159 449-235 664h473"
                id="ai" />
            <use transform="matrix(0.010850694444444444,0,0,0.010850694444444444,0,0)"
                xlink:href="#ai" id="q" />
            <path
                d="M1214-416C1213-138 1004 0 711 0H201v-1462h413c194 0 334 29 421 87s130 150 130 275c0 188-114 295-284 324v10c222 38 333 155 333 350zm-225-667c0-194-147-232-368-232H371v479h280c219-3 338-46 338-247zm43 655c0-204-147-264-370-264H371v547h305c220-1 356-73 356-283"
                id="aj" />
            <use transform="matrix(0.010850694444444444,0,0,0.010850694444444444,0,0)"
                xlink:href="#aj" id="r" />
            <path
                d="M1030-1032c177 0 295 135 295 313 0 168-127 324-295 316-164-7-238-96-311-222-67 112-151 212-301 217-176 5-299-134-299-315 0-173 127-313 299-313 121 0 222 73 303 219 83-143 186-215 309-215zM248-721c0 107 71 191 178 189 44 0 84-16 120-46s73-78 109-145c-58-103-102-184-231-190-104-5-176 83-176 192zm948 2c0-161-181-249-298-144-35 32-73 79-110 144 59 103 104 185 232 191 102 5 176-85 176-191"
                id="ak" />
            <use transform="matrix(0.010850694444444444,0,0,0.010850694444444444,0,0)"
                xlink:href="#ak" id="s" />
            <pattern id="t" patternUnits="userSpaceOnUse" x="5028.65" y="1387.02" width="100.7"
                height="100.7">
                <use xlink:href="#O"
                    transform="translate(0, 0) scale(10.069591358971683,10.069591358971683)" />
            </pattern>
            <pattern id="u" patternUnits="userSpaceOnUse" x="5029.65" y="988.16" width="100.7"
                height="100.7">
                <use xlink:href="#O"
                    transform="translate(0, 0) scale(10.069591358971683,10.069591358971683)" />
            </pattern>
        </defs>
    </g>
</svg>