<svg xmlns="http://www.w3.org/2000/svg" xmlns:xlink="http://www.w3.org/1999/xlink"
    xmlns:lucid="lucid" width="1162" height="1103.42">
    <g transform="translate(-1258.999999966889 -758.9999999734524)" lucid:page-tab-id="0_0">
        <path
            d="M2339.97 1662.53l-.03.46-.08.7-.1.72-.14.7-.17.73-.2.72-.23.72-.27.72-.32.75-.36.76-.4.78-.47.8-.52.83-.6.86-.67.88-.76.93-.9 1-1 1.03-1.18 1.1-1.37 1.18-1.6 1.28-1.9 1.38-2.27 1.5-2.75 1.66-3.37 1.85-4.2 2.1-5.4 2.4-7.12 2.8-9.8 3.4-14.36 4.3-24.08 6.13-150.76 32.67-14.37 4.32-9.78 3.38-7.12 2.8-5.4 2.4-4.2 2.1-3.38 1.85-2.75 1.66-2.26 1.5-1.9 1.37-1.6 1.26-1.36 1.18-.25.25"
            stroke="var(--svg-arrow-color)" stroke-width="2" stroke-linejoin="round" fill="none" />
        <path d="M2340.95 1662.58l-1.95-.05.03-1h1.94z" stroke="var(--svg-arrow-color)" stroke-width=".05"
            fill="var(--svg-arrow-color)" />
        <path d="M2041.48 1777.54l2.38-14.8 8.25 4.22z" stroke="var(--svg-arrow-color)" stroke-width="2"
            fill="var(--svg-arrow-color)" />
        <path d="M2340 1662.53v99.4" stroke="var(--svg-arrow-color)" stroke-width="2" stroke-linejoin="round"
            fill="none" />
        <path d="M2340.97 1662.56h-1.94v-1.03h1.94z" stroke="var(--svg-arrow-color)" stroke-width=".05"
            fill="var(--svg-arrow-color)" />
        <path d="M2340 1777.18l-4.64-14.26h9.28z" stroke="var(--svg-arrow-color)" stroke-width="2" fill="var(--svg-arrow-color)" />
        <path
            d="M2339.95 1662.53l-.03.32-.07.44-.08.43-.1.44-.13.45-.15.46-.18.46-.2.47-.23.5-.28.5-.3.52-.34.54-.4.57-.44.6-.52.6-.6.67-.68.7-.8.76-.95.8-1.12.9-1.33.96-1.6 1.06-1.95 1.18-2.42 1.33-3.05 1.5-3.9 1.73-5.17 2.04-7.03 2.44-9.95 3-14.94 3.8-24.5 5.16-48.06 7.98-285.03 38.25-24.5 5.14-14.93 3.8-9.95 3-7.03 2.44-5.16 2.03-3.92 1.75-3.04 1.5-2.42 1.34-1.88 1.12"
            stroke="var(--svg-arrow-color)" stroke-width="2" stroke-linejoin="round" fill="none" />
        <path d="M2340.95 1662.58l-1.95-.05.03-1h1.94z" stroke="var(--svg-arrow-color)" stroke-width=".05"
            fill="var(--svg-arrow-color)" />
        <path d="M1841.94 1777.83l4.84-14.2 7.42 5.55z" stroke="var(--svg-arrow-color)" stroke-width="2"
            fill="var(--svg-arrow-color)" />
        <path
            d="M1840.05 1662.53l.03.32.07.44.08.43.1.44.13.45.15.46.18.46.2.47.23.5.27.5.3.52.35.54.4.57.44.6.52.6.6.67.68.7.8.76.95.8 1.12.9 1.33.96 1.6 1.06 1.95 1.18 2.42 1.33 3.04 1.5 3.92 1.73 5.16 2.04 7.03 2.44 9.95 3 14.94 3.8 24.5 5.16 48.06 7.98 285.03 38.25 24.5 5.14 14.93 3.8 9.95 3 7.03 2.44 5.16 2.03 3.9 1.75 3.06 1.5 2.42 1.34 1.88 1.12"
            stroke="var(--svg-arrow-color)" stroke-width="2" stroke-linejoin="round" fill="none" />
        <path d="M1841 1662.53l-1.95.05-.02-1.05h1.94z" stroke="var(--svg-arrow-color)" stroke-width=".05"
            fill="var(--svg-arrow-color)" />
        <path d="M2338.06 1777.83l-12.26-8.65 7.42-5.55z" stroke="var(--svg-arrow-color)" stroke-width="2"
            fill="var(--svg-arrow-color)" />
        <path
            d="M1840.02 1662.53v.1l.07 1.07.1 1.06.16 1.04.2 1.03.23 1.03.28 1.02.33 1.03.4 1.04.43 1.04.5 1.05.56 1.08.62 1.1.72 1.12.8 1.16.9 1.2 1.04 1.24 1.17 1.3 1.34 1.36 1.52 1.44 1.78 1.54 2.08 1.64 2.44 1.77 2.92 1.94 3.54 2.15 4.37 2.4 5.55 2.75 7.33 3.25 10.35 4.08 17.08 5.9 79.36 24.98 10.35 4.1 7.33 3.25 5.55 2.75 4.37 2.4 3.54 2.13 2.92 1.94 2.44 1.78 2.08 1.64 1.78 1.52 1.53 1.44 1.35 1.37 1.17 1.3 1.03 1.24.1.12"
            stroke="var(--svg-arrow-color)" stroke-width="2" stroke-linejoin="round" fill="none" />
        <path d="M1841 1662.53l-1.95.05-.02-1.05h1.94z" stroke="var(--svg-arrow-color)" stroke-width=".05"
            fill="var(--svg-arrow-color)" />
        <path d="M2038.88 1777.38l-9.27-11.8 8.7-3.2z" stroke="var(--svg-arrow-color)" stroke-width="2"
            fill="var(--svg-arrow-color)" />
        <path d="M1840 1662.53v99.4" stroke="var(--svg-arrow-color)" stroke-width="2" stroke-linejoin="round"
            fill="none" />
        <path d="M1840.97 1662.56h-1.94v-1.03h1.94z" stroke="var(--svg-arrow-color)" stroke-width=".05"
            fill="var(--svg-arrow-color)" />
        <path d="M1840 1777.18l-4.63-14.26h9.27z" stroke="var(--svg-arrow-color)" stroke-width="2" fill="var(--svg-arrow-color)" />
        <path
            d="M1840.02 964.76l.02.72.1 1.68.18 1.66.24 1.63.3 1.63.4 1.63.44 1.63.53 1.63.6 1.64.7 1.66.8 1.7.9 1.7 1.02 1.77 1.15 1.8 1.3 1.88 1.47 1.94 1.67 2.02 1.9 2.1 2.18 2.23 2.5 2.34 2.9 2.5 3.4 2.7 4 2.9 4.76 3.15 5.76 3.48 7.1 3.9 8.92 4.4 11.58 5.15 15.7 6.2 23.07 8 42.16 12.58 146.63 40.6 23.06 7.98 15.7 6.2 11.58 5.14 8.92 4.42 7.1 3.9 5.76 3.48 4.77 3.16 3.98 2.9 3.4 2.68 2.9 2.5 2.5 2.36 2.18 2.22 1.9 2.1 1.67 2.03 1.47 1.93 1.3 1.87 1.15 1.8 1 1.77.9 1.72.17.33"
            stroke="var(--svg-arrow-color)" stroke-width="2" stroke-linejoin="round" fill="none" />
        <path d="M1841 964.77l-1.95.04-.02-1.04h1.94z" stroke="var(--svg-arrow-color)" stroke-width=".05"
            fill="var(--svg-arrow-color)" />
        <path d="M2239.26 1170.5l-7.76-12.84 9.02-2.1z" stroke="var(--svg-arrow-color)" stroke-width="2"
            fill="var(--svg-arrow-color)" />
        <path d="M1840 964.76v190.38" stroke="var(--svg-arrow-color)" stroke-width="2" stroke-linejoin="round"
            fill="none" />
        <path d="M1840.97 964.8h-1.94v-1.04h1.94z" stroke="var(--svg-arrow-color)" stroke-width=".05"
            fill="var(--svg-arrow-color)" />
        <path d="M1840 1170.4l-4.63-14.26h9.27z" stroke="var(--svg-arrow-color)" stroke-width="2" fill="var(--svg-arrow-color)" />
        <path
            d="M1839.98 964.76l-.02.72-.1 1.68-.18 1.66-.24 1.63-.3 1.63-.4 1.63-.44 1.63-.53 1.63-.6 1.64-.7 1.66-.8 1.7-.9 1.7-1.02 1.77-1.15 1.8-1.3 1.88-1.47 1.94-1.67 2.02-1.9 2.1-2.18 2.23-2.5 2.34-2.9 2.5-3.4 2.7-4 2.9-4.76 3.15-5.76 3.48-7.1 3.9-8.92 4.4-11.58 5.15-15.7 6.2-23.07 8-42.16 12.58-146.63 40.6-23.06 7.98-15.7 6.2-11.58 5.14-8.92 4.42-7.1 3.9-5.76 3.48-4.77 3.16-3.98 2.9-3.4 2.68-2.9 2.5-2.5 2.36-2.18 2.22-1.9 2.1-1.67 2.03-1.47 1.93-1.3 1.87-1.15 1.8-1 1.77-.9 1.72-.17.33"
            stroke="var(--svg-arrow-color)" stroke-width="2" stroke-linejoin="round" fill="none" />
        <path d="M1840.95 964.8l-1.95-.03.03-1h1.94z" stroke="var(--svg-arrow-color)" stroke-width=".05"
            fill="var(--svg-arrow-color)" />
        <path d="M1440.74 1170.5l-1.26-14.95 9.02 2.1z" stroke="var(--svg-arrow-color)" stroke-width="2"
            fill="var(--svg-arrow-color)" />
        <path d="M1760 1787.42a6 6 0 0 1 6-6h148a6 6 0 0 1 6 6v68a6 6 0 0 1-6 6h-148a6 6 0 0 1-6-6z"
            stroke="var(--svg-tile-stroke)" stroke-width="2" fill="var(--svg-tile-color)" />
        <use fill="var(--svg-text-color)" xlink:href="#a"
            transform="matrix(1,0,0,1,1765.0000000000002,1786.4192708333337) translate(21.63628472222222 43.439670138888886)" />
        <use fill="var(--svg-text-color)" xlink:href="#b"
            transform="matrix(1,0,0,1,1765.0000000000002,1786.4192708333337) translate(114.30121527777777 43.439670138888886)" />
        <path d="M1960 1787.42a6 6 0 0 1 6-6h148a6 6 0 0 1 6 6v68a6 6 0 0 1-6 6h-148a6 6 0 0 1-6-6z"
            stroke="var(--svg-tile-stroke)" stroke-width="2" fill="var(--svg-tile-color)" />
        <use fill="var(--svg-text-color)" xlink:href="#a"
            transform="matrix(1,0,0,1,1965.0000000000002,1786.4192708333337) translate(21.468098958333336 43.439670138888886)" />
        <use fill="var(--svg-text-color)" xlink:href="#c"
            transform="matrix(1,0,0,1,1965.0000000000002,1786.4192708333337) translate(114.13302951388889 43.439670138888886)" />
        <path d="M2260 1787.42a6 6 0 0 1 6-6h148a6 6 0 0 1 6 6v68a6 6 0 0 1-6 6h-148a6 6 0 0 1-6-6z"
            stroke="var(--svg-tile-stroke)" stroke-width="2" fill="var(--svg-tile-color)" />
        <use fill="var(--svg-text-color)" xlink:href="#a"
            transform="matrix(1,0,0,1,2265,1786.4192708333335) translate(20.833333333333336 43.439670138888886)" />
        <use fill="var(--svg-text-color)" xlink:href="#d"
            transform="matrix(1,0,0,1,2265,1786.4192708333335) translate(113.49826388888889 43.439670138888886)" />
        <path
            d="M2170.34 1821.42c0 2.86-2.3 5.17-5.17 5.17-2.85 0-5.17-2.32-5.17-5.18s2.32-5.17 5.17-5.17c2.86 0 5.17 2.3 5.17 5.17zM2195.17 1821.42c0 2.86-2.3 5.17-5.17 5.17-2.86 0-5.17-2.32-5.17-5.18s2.3-5.17 5.17-5.17c2.86 0 5.17 2.3 5.17 5.17zM2220 1821.42c0 2.86-2.32 5.17-5.17 5.17-2.86 0-5.17-2.32-5.17-5.18s2.3-5.17 5.17-5.17c2.85 0 5.17 2.3 5.17 5.17zM1760 766a6 6 0 0 1 6-6h148a6 6 0 0 1 6 6v190.76a6 6 0 0 1-6 6h-148a6 6 0 0 1-6-6z"
            stroke="var(--svg-tile-stroke)" stroke-width="2" fill="var(--svg-tile-color)" />
        <use fill="var(--svg-text-color)" xlink:href="#e" transform="matrix(1,0,0,1,1765,765) translate(75 29.78342013888889)" />
        <use fill="var(--svg-text-color)" xlink:href="#e" transform="matrix(1,0,0,1,1765,765) translate(75 66.09852430555556)" />
        <use fill="var(--svg-text-color)" xlink:href="#e" transform="matrix(1,0,0,1,1765,765) translate(75 102.41362847222221)" />
        <use fill="var(--svg-text-color)" xlink:href="#e" transform="matrix(1,0,0,1,1765,765) translate(75 138.72873263888889)" />
        <use fill="var(--svg-text-color)" xlink:href="#f"
            transform="matrix(1,0,0,1,1765,765) translate(31.06011284722222 175.04383680555554)" />
        <path
            d="M1790.12 786a6 6 0 0 1 6-6h87.77a6 6 0 0 1 5.98 6v95.35a6 6 0 0 1-6 6h-87.77a6 6 0 0 1-5.98-6z"
            fill="url(#g)" />
        <path
            d="M2239.98 1414.94l-.03 1.1-.13 2.02-.2 1.94-.3 1.87-.36 1.83-.43 1.77-.5 1.75-.58 1.72-.66 1.7-.76 1.7-.83 1.7-.92 1.7-1.05 1.73-1.17 1.77-1.3 1.8-1.5 1.87-1.7 1.96-1.95 2.05-2.26 2.2-2.7 2.38-3.28 2.66-4.17 3.08-5.8 3.9-11 6.7-23.8 14.1-5.8 3.9-4.16 3.08-3.28 2.65-2.7 2.4-2.27 2.18-1.96 2.05-1.7 1.95-1.5 1.86-1.3 1.8-1.18 1.77-1.04 1.73-.93 1.7-.85 1.7-.18.43"
            stroke="var(--svg-arrow-color)" stroke-width="2" stroke-linejoin="round" fill="none" />
        <path d="M2240.95 1414.98l-1.95-.04.03-1h1.94z" stroke="var(--svg-arrow-color)" stroke-width=".05"
            fill="var(--svg-arrow-color)" />
        <path d="M2140.66 1525.94l-1.6-14.92 9.07 1.9z" stroke="var(--svg-arrow-color)" stroke-width="2"
            fill="var(--svg-arrow-color)" />
        <path
            d="M2060 1536.1a6 6 0 0 1 6-6h148a6 6 0 0 1 6 6v118.43a6 6 0 0 1-6 6h-148a6 6 0 0 1-6-6z"
            stroke="var(--svg-tile-stroke)" stroke-width="2" fill="var(--svg-tile-color)" />
        <use fill="var(--svg-text-color)" xlink:href="#h"
            transform="matrix(1,0,0,1,2065,1535.1045503912092) translate(22.341579861111107 50.220920138888886)" />
        <use fill="var(--svg-text-color)" xlink:href="#i"
            transform="matrix(1,0,0,1,2065,1535.1045503912092) translate(8.262803819444443 86.53602430555556)" />
        <use fill="var(--svg-text-color)" xlink:href="#j"
            transform="matrix(1,0,0,1,2065,1535.1045503912092) translate(81.41818576388889 86.53602430555556)" />
        <path
            d="M2260 1536.1a6 6 0 0 1 6-6h148a6 6 0 0 1 6 6v118.43a6 6 0 0 1-6 6h-148a6 6 0 0 1-6-6z"
            fill="var(--svg-tile-color)" />
        <path
            d="M2264.45 1530.33l.6-.15.95-.08h2.06m8.22 0h4.1m8.23 0h4.12m8.22 0h4.12m8.22 0h4.1m8.23 0h4.12m8.22 0h4.12m8.22 0h4.1m8.23 0h4.12m8.22 0h4.12m8.22 0h4.1m8.23 0h4.12m8.22 0h2.06l.94.08.6.14m4.24 4.24l.15.6.07.94v1.98m0 7.9v3.94m0 7.9v3.94m0 7.9v3.94m0 7.9v3.95m0 7.9v3.94m0 7.88v3.95m0 7.9v3.94m0 7.9v3.95m0 7.9v3.94m0 7.9v1.97l-.07.94-.15.6m-4.23 4.24l-.6.15-.95.08h-2.06m-8.22 0h-4.1m-8.23 0h-4.12m-8.22 0h-4.12m-8.22 0h-4.1m-8.23 0h-4.12m-8.22 0h-4.12m-8.22 0h-4.1m-8.23 0h-4.12m-8.22 0h-4.12m-8.22 0h-4.1m-8.23 0h-4.12m-8.22 0H2266l-.94-.08-.6-.14m-4.24-4.22l-.15-.6-.07-.95v-1.98m0-7.9v-3.94m0-7.88v-3.95m0-7.9v-3.94m0-7.9v-3.95m0-7.9v-3.94m0-7.9v-3.94m0-7.9v-3.94m0-7.9v-3.94m0-7.9v-3.95m0-7.9v-1.96l.07-.93.15-.6"
            stroke="var(--svg-tile-stroke)" stroke-width="2" fill="none" />
        <use fill="var(--svg-text-color)" xlink:href="#h"
            transform="matrix(1,0,0,1,2265,1535.1045503912092) translate(22.341579861111107 50.220920138888886)" />
        <use fill="var(--svg-text-color)" xlink:href="#k"
            transform="matrix(1,0,0,1,2265,1535.1045503912092) translate(16.558159722222214 86.53602430555556)" />
        <path
            d="M2240.02 1414.94l.03 1.1.13 2.02.2 1.94.3 1.87.36 1.83.43 1.77.5 1.75.58 1.72.66 1.7.76 1.7.83 1.7.92 1.7 1.05 1.73 1.17 1.77 1.3 1.8 1.5 1.87 1.7 1.96 1.95 2.05 2.26 2.2 2.7 2.38 3.28 2.66 4.17 3.08 5.8 3.9 11 6.7 23.8 14.1 5.8 3.9 4.16 3.08 3.28 2.65 2.7 2.4 2.27 2.18 1.96 2.05 1.7 1.95 1.5 1.86 1.3 1.8 1.18 1.77 1.04 1.73.93 1.7.85 1.7.18.43"
            stroke="var(--svg-arrow-color)" stroke-width="2" stroke-linejoin="round" fill="none" />
        <path d="M2241 1414.94l-1.95.04-.03-1.05h1.95z" stroke="var(--svg-arrow-color)" stroke-width=".05"
            fill="var(--svg-arrow-color)" />
        <path d="M2339.34 1525.94l-7.47-13 9.08-1.92z" stroke="var(--svg-arrow-color)" stroke-width="2"
            fill="var(--svg-arrow-color)" />
        <path
            d="M2160 1180.65a6 6 0 0 1 6-6h148a6 6 0 0 1 6 6v226.28a6 6 0 0 1-6 6h-148a6 6 0 0 1-6-6z"
            stroke="var(--svg-tile-stroke)" stroke-width="2" fill="var(--svg-tile-color)" />
        <use fill="var(--svg-text-color)" xlink:href="#l"
            transform="matrix(1,0,0,1,2165,1179.6470758192945) translate(75 30.90842013888889)" />
        <use fill="var(--svg-text-color)" xlink:href="#l"
            transform="matrix(1,0,0,1,2165,1179.6470758192945) translate(75 67.22352430555556)" />
        <use fill="var(--svg-text-color)" xlink:href="#l"
            transform="matrix(1,0,0,1,2165,1179.6470758192945) translate(75 103.53862847222221)" />
        <use fill="var(--svg-text-color)" xlink:href="#l"
            transform="matrix(1,0,0,1,2165,1179.6470758192945) translate(75 139.85373263888889)" />
        <use fill="var(--svg-text-color)" xlink:href="#m"
            transform="matrix(1,0,0,1,2165,1179.6470758192945) translate(6.624348958333329 176.16883680555554)" />
        <use fill="var(--svg-text-color)" xlink:href="#n"
            transform="matrix(1,0,0,1,2165,1179.6470758192945) translate(80.00759548611111 176.16883680555554)" />
        <use fill="var(--svg-text-color)" xlink:href="#o"
            transform="matrix(1,0,0,1,2165,1179.6470758192945) translate(26.253255208333336 212.4839409722222)" />
        <path
            d="M2189.65 1206a6 6 0 0 1 6-6h88.7a6 6 0 0 1 6 6v88.7a6 6 0 0 1-6 6h-88.7a6 6 0 0 1-6-6z"
            fill="url(#p)" />
        <path
            d="M1760 1535.85a6 6 0 0 1 6-6h148a6 6 0 0 1 6 6v118.68a6 6 0 0 1-6 6h-148a6 6 0 0 1-6-6z"
            fill="var(--svg-tile-color)" />
        <path
            d="M1764.45 1530.07l.6-.15.95-.07h2.06m8.22 0h4.1m8.23 0h4.12m8.22 0h4.12m8.22 0h4.1m8.23 0h4.12m8.22 0h4.12m8.22 0h4.1m8.23 0h4.12m8.22 0h4.12m8.22 0h4.1m8.23 0h4.12m8.22 0h2.06l.94.07.6.15m4.24 4.23l.15.6.07.95v1.98m0 7.9v3.96m0 7.9v3.96m0 7.9v3.97m0 7.9v3.97m0 7.9v3.96m0 7.92v3.95m0 7.9v3.97m0 7.9v3.97m0 7.9v3.97m0 7.9v2l-.07.93-.15.6m-4.23 4.24l-.6.15-.95.08h-2.06m-8.22 0h-4.1m-8.23 0h-4.12m-8.22 0h-4.12m-8.22 0h-4.1m-8.23 0h-4.12m-8.22 0h-4.12m-8.22 0h-4.1m-8.23 0h-4.12m-8.22 0h-4.12m-8.22 0h-4.1m-8.23 0h-4.12m-8.22 0H1766l-.94-.08-.6-.14m-4.24-4.22l-.15-.6-.07-.95v-1.98m0-7.9v-3.97m0-7.9v-3.97m0-7.9v-3.96m0-7.9v-3.96m0-7.9v-3.97m0-7.9v-3.96m0-7.9v-3.97m0-7.9v-3.96m0-7.9v-3.96m0-7.9v-2l.07-.93.15-.6"
            stroke="var(--svg-tile-stroke)" stroke-width="2" fill="none" />
        <use fill="var(--svg-text-color)" xlink:href="#q"
            transform="matrix(1,0,0,1,1765,1534.84687279691) translate(29.443359375 50.220920138888886)" />
        <use fill="var(--svg-text-color)" xlink:href="#r"
            transform="matrix(1,0,0,1,1765,1534.84687279691) translate(73.61653645833333 50.220920138888886)" />
        <use fill="var(--svg-text-color)" xlink:href="#s"
            transform="matrix(1,0,0,1,1765,1534.84687279691) translate(18.277994791666657 86.53602430555556)" />
        <path d="M1840 1415.4v94.94" stroke="var(--svg-arrow-color)" stroke-width="2" stroke-linejoin="round"
            fill="none" />
        <path d="M1840.97 1415.43h-1.94v-1.02h1.94z" stroke="var(--svg-arrow-color)" stroke-width=".05"
            fill="var(--svg-arrow-color)" />
        <path d="M1840 1525.6l-4.63-14.25h9.27z" stroke="var(--svg-arrow-color)" stroke-width="2" fill="var(--svg-arrow-color)" />
        <path
            d="M1760 1180.65a6 6 0 0 1 6-6h148a6 6 0 0 1 6 6v226.76a6 6 0 0 1-6 6h-148a6 6 0 0 1-6-6z"
            stroke="var(--svg-tile-stroke)" stroke-width="2" fill="var(--svg-tile-color)" />
        <use fill="var(--svg-text-color)" xlink:href="#e"
            transform="matrix(1,0,0,1,1765,1179.6470758192945) translate(75 30.90842013888889)" />
        <use fill="var(--svg-text-color)" xlink:href="#e"
            transform="matrix(1,0,0,1,1765,1179.6470758192945) translate(75 67.22352430555556)" />
        <use fill="var(--svg-text-color)" xlink:href="#e"
            transform="matrix(1,0,0,1,1765,1179.6470758192945) translate(75 103.53862847222221)" />
        <use fill="var(--svg-text-color)" xlink:href="#e"
            transform="matrix(1,0,0,1,1765,1179.6470758192945) translate(75 139.85373263888889)" />
        <use fill="var(--svg-text-color)" xlink:href="#t"
            transform="matrix(1,0,0,1,1765,1179.6470758192945) translate(0.5967881944444571 176.16883680555554)" />
        <use fill="var(--svg-text-color)" xlink:href="#u"
            transform="matrix(1,0,0,1,1765,1179.6470758192945) translate(86.03515625 176.16883680555554)" />
        <use fill="var(--svg-text-color)" xlink:href="#v"
            transform="matrix(1,0,0,1,1765,1179.6470758192945) translate(26.253255208333336 212.4839409722222)" />
        <path
            d="M1790.12 1206a6 6 0 0 1 6-6h89.13a6 6 0 0 1 6 6v89.13a6 6 0 0 1-6 6h-89.13a6 6 0 0 1-6-6z"
            fill="url(#w)" />
        <path
            d="M1360 1180.65a6 6 0 0 1 6-6h148a6 6 0 0 1 6 6v226.72a6 6 0 0 1-6 6h-148a6 6 0 0 1-6-6z"
            stroke="var(--svg-tile-stroke)" stroke-width="2" fill="var(--svg-tile-color)" />
        <g>
            <use fill="var(--svg-text-color)" xlink:href="#e"
                transform="matrix(1,0,0,1,1365,1179.6470758192947) translate(75 30.90842013888889)" />
            <use fill="var(--svg-text-color)" xlink:href="#e"
                transform="matrix(1,0,0,1,1365,1179.6470758192947) translate(75 67.22352430555556)" />
            <use fill="var(--svg-text-color)" xlink:href="#e"
                transform="matrix(1,0,0,1,1365,1179.6470758192947) translate(75 103.53862847222221)" />
            <use fill="var(--svg-text-color)" xlink:href="#e"
                transform="matrix(1,0,0,1,1365,1179.6470758192947) translate(75 139.85373263888889)" />
            <use fill="var(--svg-text-color)" xlink:href="#x"
                transform="matrix(1,0,0,1,1365,1179.6470758192947) translate(29.758029513888893 176.16883680555554)" />
            <use fill="var(--svg-text-color)" xlink:href="#t"
                transform="matrix(1,0,0,1,1365,1179.6470758192947) translate(0.5967881944444571 212.4839409722222)" />
            <use fill="var(--svg-text-color)" xlink:href="#y"
                transform="matrix(1,0,0,1,1365,1179.6470758192947) translate(86.03515625 212.4839409722222)" />
        </g>
        <path
            d="M1260 1536.76a6 6 0 0 1 6-6h148a6 6 0 0 1 6 6v118.66a6 6 0 0 1-6 6h-148a6 6 0 0 1-6-6z"
            stroke="var(--svg-tile-stroke)" stroke-width="2" fill="var(--svg-tile-color)" />
        <g>
            <use fill="var(--svg-text-color)" xlink:href="#z"
                transform="matrix(1,0,0,1,1265,1535.7570612451575) translate(27.913411458333343 31.31467013888889)" fill="var(--svg-text-color)"/>
            <use xlink:href="#A"
                transform="matrix(1,0,0,1,1265,1535.7570612451575) translate(38.94314236111111 67.62977430555556)" fill="var(--svg-text-color)"/>
            <use xlink:href="#B"
                transform="matrix(1,0,0,1,1265,1535.7570612451575) translate(37.29383680555556 103.94487847222221)" fill="var(--svg-text-color)"/>
        </g>
        <path
            d="M1460 1536.76a6 6 0 0 1 6-6h148a6 6 0 0 1 6 6v118.66a6 6 0 0 1-6 6h-148a6 6 0 0 1-6-6z"
            stroke="var(--svg-tile-stroke)" stroke-width="2" fill="var(--svg-tile-color)" />
        <g>
            <use xlink:href="#C"
                transform="matrix(1,0,0,1,1465,1535.7570612451575) translate(34.43467881944445 31.31467013888889)" fill="var(--svg-text-color)"/>
            <use xlink:href="#D"
                transform="matrix(1,0,0,1,1465,1535.7570612451575) translate(38.94314236111111 67.62977430555556)" fill="var(--svg-text-color)"/>
            <use xlink:href="#E"
                transform="matrix(1,0,0,1,1465,1535.7570612451575) translate(37.29383680555556 103.94487847222221)" fill="var(--svg-text-color)"/>
        </g>
        <path
            d="M1439.98 1415.37l-.03 1.12-.13 2-.2 1.95-.3 1.88-.36 1.82-.43 1.78-.5 1.75-.58 1.72-.66 1.7-.75 1.7-.84 1.7-.92 1.7-1.04 1.75-1.17 1.76-1.3 1.82-1.5 1.87-1.7 1.93-1.93 2.06-2.27 2.17-2.68 2.38-3.27 2.65-4.14 3.07-5.72 3.86-10.64 6.5-24.52 14.57-5.7 3.86-4.15 3.07-3.26 2.65-2.67 2.38-2.27 2.18-1.94 2.06-1.7 1.94-1.48 1.87-1.3 1.82-1.18 1.76-1.04 1.73-.93 1.72-.85 1.7-.2.46"
            stroke="var(--svg-arrow-color)" stroke-width="2" stroke-linejoin="round" fill="none" />
        <path d="M1440.95 1415.42l-1.95-.04.03-1h1.94z" stroke="var(--svg-arrow-color)" stroke-width=".05"
            fill="var(--svg-arrow-color)" />
        <path d="M1340.66 1526.6l-1.62-14.92 9.08 1.9z" stroke="var(--svg-arrow-color)" stroke-width="2"
            fill="var(--svg-arrow-color)" />
        <path
            d="M1440.02 1415.37l.03 1.12.13 2 .2 1.95.3 1.88.36 1.82.43 1.78.5 1.75.58 1.72.66 1.7.75 1.7.84 1.7.92 1.7 1.04 1.75 1.17 1.76 1.3 1.82 1.5 1.87 1.7 1.93 1.93 2.06 2.27 2.17 2.68 2.38 3.27 2.65 4.14 3.07 5.72 3.86 10.64 6.5 24.52 14.57 5.7 3.86 4.15 3.07 3.26 2.65 2.67 2.38 2.27 2.18 1.94 2.06 1.7 1.94 1.48 1.87 1.3 1.82 1.18 1.76 1.04 1.73.93 1.72.85 1.7.2.46"
            stroke="var(--svg-arrow-color)" stroke-width="2" stroke-linejoin="round" fill="none" />
        <path d="M1441 1415.38l-1.95.04-.02-1.05h1.94z" stroke="var(--svg-arrow-color)" stroke-width=".05"
            fill="var(--svg-arrow-color)" />
        <path d="M1539.34 1526.6l-7.45-13.03 9.06-1.9z" stroke="var(--svg-arrow-color)" stroke-width="2"
            fill="var(--svg-arrow-color)" />
        <path
            d="M1389.77 1206a6 6 0 0 1 6-6h88.46a6 6 0 0 1 6 6v96.1a6 6 0 0 1-6 6h-88.46a6 6 0 0 1-6-6z"
            fill="url(#F)" />
        <path
            d="M2170.34 1821.42c0 2.86-2.3 5.17-5.17 5.17-2.85 0-5.17-2.32-5.17-5.18s2.32-5.17 5.17-5.17c2.86 0 5.17 2.3 5.17 5.17zM2195.17 1821.42c0 2.86-2.3 5.17-5.17 5.17-2.86 0-5.17-2.32-5.17-5.18s2.3-5.17 5.17-5.17c2.86 0 5.17 2.3 5.17 5.17zM2220 1821.42c0 2.86-2.32 5.17-5.17 5.17-2.86 0-5.17-2.32-5.17-5.18s2.3-5.17 5.17-5.17c2.85 0 5.17 2.3 5.17 5.17zM2160 1180.65a6 6 0 0 1 6-6h148a6 6 0 0 1 6 6v226.28a6 6 0 0 1-6 6h-148a6 6 0 0 1-6-6z"
            stroke="var(--svg-tile-stroke)" stroke-width="2" fill="var(--svg-tile-color)" />
        <g>
            <use fill="var(--svg-text-color)" xlink:href="#l"
                transform="matrix(1,0,0,1,2165,1179.6470758192945) translate(75 30.90842013888889)" />
            <use fill="var(--svg-text-color)" xlink:href="#l"
                transform="matrix(1,0,0,1,2165,1179.6470758192945) translate(75 67.22352430555556)" />
            <use fill="var(--svg-text-color)" xlink:href="#l"
                transform="matrix(1,0,0,1,2165,1179.6470758192945) translate(75 103.53862847222221)" />
            <use fill="var(--svg-text-color)" xlink:href="#l"
                transform="matrix(1,0,0,1,2165,1179.6470758192945) translate(75 139.85373263888889)" />
            <use fill="var(--svg-text-color)" xlink:href="#m"
                transform="matrix(1,0,0,1,2165,1179.6470758192945) translate(6.624348958333329 176.16883680555554)" />
            <use fill="var(--svg-text-color)" xlink:href="#n"
                transform="matrix(1,0,0,1,2165,1179.6470758192945) translate(80.00759548611111 176.16883680555554)" />
            <use fill="var(--svg-text-color)" xlink:href="#o"
                transform="matrix(1,0,0,1,2165,1179.6470758192945) translate(26.253255208333336 212.4839409722222)" />
        </g>
        <path
            d="M2189.65 1206a6 6 0 0 1 6-6h88.7a6 6 0 0 1 6 6v88.7a6 6 0 0 1-6 6h-88.7a6 6 0 0 1-6-6z"
            fill="url(#G)" />
        <path
            d="M1760 1180.65a6 6 0 0 1 6-6h148a6 6 0 0 1 6 6v226.76a6 6 0 0 1-6 6h-148a6 6 0 0 1-6-6z"
            stroke="var(--svg-tile-stroke)" stroke-width="2" fill="var(--svg-tile-color)" />
        <g>
            <use fill="var(--svg-text-color)" xlink:href="#e"
                transform="matrix(1,0,0,1,1765,1179.6470758192945) translate(75 30.90842013888889)" />
            <use fill="var(--svg-text-color)" xlink:href="#e"
                transform="matrix(1,0,0,1,1765,1179.6470758192945) translate(75 67.22352430555556)" />
            <use fill="var(--svg-text-color)" xlink:href="#e"
                transform="matrix(1,0,0,1,1765,1179.6470758192945) translate(75 103.53862847222221)" />
            <use fill="var(--svg-text-color)" xlink:href="#e"
                transform="matrix(1,0,0,1,1765,1179.6470758192945) translate(75 139.85373263888889)" />
            <use fill="var(--svg-text-color)" xlink:href="#t"
                transform="matrix(1,0,0,1,1765,1179.6470758192945) translate(0.5967881944444571 176.16883680555554)" />
            <use fill="var(--svg-text-color)" xlink:href="#u"
                transform="matrix(1,0,0,1,1765,1179.6470758192945) translate(86.03515625 176.16883680555554)" />
            <use fill="var(--svg-text-color)" xlink:href="#v"
                transform="matrix(1,0,0,1,1765,1179.6470758192945) translate(26.253255208333336 212.4839409722222)" />
        </g>
        <path
            d="M1790.12 1206a6 6 0 0 1 6-6h89.13a6 6 0 0 1 6 6v89.13a6 6 0 0 1-6 6h-89.13a6 6 0 0 1-6-6z"
            fill="url(#H)" />
        <defs>
            <image width="10" height="10" id="au"
                xlink:href="assets/logos/Atomosphere.svg"/>
            <image width="10" height="10" id="aF"
                xlink:href="assets/logos/Atomos.svg"/>
            <image width="10" height="10" id="aa"
                xlink:href="assets/logos/Electros.svg"/>
            <path
                d="M1128-1036c0 321-241 464-585 461H371V0H201v-1462h379c365 0 548 142 548 426zm-176 8c0-218-150-286-391-287H371v594h153c270-3 428-62 428-307"
                id="I" />
            <path
                d="M340-893c80-153 237-262 467-211l-23 154c-45-10-85-15-120-15-184-3-322 182-322 377V0H176v-1096h137l19 203h8"
                id="J" />
            <path
                d="M621-1116c316 0 501 239 501 567 0 339-180 575-508 569S119-212 115-549c-4-339 178-567 506-567zm-5 141c-239 0-329 168-329 426 0 255 93 430 331 430s332-174 332-430-95-426-334-426"
                id="K" />
            <path
                d="M516-150c94-315 146-423 332-946h178L610 0H416L0-1096h178c98 281 253 670 330 946h8"
                id="L" />
            <path
                d="M342 0H176v-1096h166V0zm-82-1282c-61 0-98-43-98-111 0-69 36-110 98-110 59 0 98 43 98 110s-39 111-98 111"
                id="M" />
            <path
                d="M115-545c0-330 146-571 454-571 149 0 263 54 342 162h13c-20-185-8-401-11-602h166V0H944l-22-147h-9C836-36 722 20 569 20c-309 0-454-234-454-565zm172 2c0 249 78 424 303 424 257 0 327-150 323-426-4-282-68-432-325-432-220 0-301 191-301 434"
                id="N" />
            <path
                d="M995-51C878-2 799 19 639 20c-329 2-524-221-524-559 0-326 172-577 481-577 278 0 451 210 446 493v105H287c4 242 121 392 358 393 118 0 235-25 350-74v148zM864-653c2-195-85-324-270-324-190 0-288 139-303 324h573"
                id="O" />
            <g id="a">
                <use transform="matrix(0.010850694444444444,0,0,0.010850694444444444,0,0)"
                    xlink:href="#I" />
                <use transform="matrix(0.010850694444444444,0,0,0.010850694444444444,13.37890625,0)"
                    xlink:href="#J" />
                <use
                    transform="matrix(0.010850694444444444,0,0,0.010850694444444444,22.005208333333336,0)"
                    xlink:href="#K" />
                <use
                    transform="matrix(0.010850694444444444,0,0,0.010850694444444444,34.98263888888889,0)"
                    xlink:href="#L" />
                <use
                    transform="matrix(0.010850694444444444,0,0,0.010850694444444444,46.1154513888889,0)"
                    xlink:href="#M" />
                <use
                    transform="matrix(0.010850694444444444,0,0,0.010850694444444444,51.73611111111112,0)"
                    xlink:href="#N" />
                <use
                    transform="matrix(0.010850694444444444,0,0,0.010850694444444444,65.35373263888889,0)"
                    xlink:href="#O" />
                <use
                    transform="matrix(0.010850694444444444,0,0,0.010850694444444444,77.82118055555556,0)"
                    xlink:href="#J" />
            </g>
            <path
                d="M1120 0L938-465H352L172 0H0l578-1468h143L1296 0h-176zM885-618c-81-228-168-420-238-664-57 230-159 449-235 664h473"
                id="P" />
            <use transform="matrix(0.010850694444444444,0,0,0.010850694444444444,0,0)"
                xlink:href="#P" id="b" />
            <path
                d="M1214-416C1213-138 1004 0 711 0H201v-1462h413c194 0 334 29 421 87s130 150 130 275c0 188-114 295-284 324v10c222 38 333 155 333 350zm-225-667c0-194-147-232-368-232H371v479h280c219-3 338-46 338-247zm43 655c0-204-147-264-370-264H371v547h305c220-1 356-73 356-283"
                id="Q" />
            <use transform="matrix(0.010850694444444444,0,0,0.010850694444444444,0,0)"
                xlink:href="#Q" id="c" />
            <path
                d="M1030-1032c177 0 295 135 295 313 0 168-127 324-295 316-164-7-238-96-311-222-67 112-151 212-301 217-176 5-299-134-299-315 0-173 127-313 299-313 121 0 222 73 303 219 83-143 186-215 309-215zM248-721c0 107 71 191 178 189 44 0 84-16 120-46s73-78 109-145c-58-103-102-184-231-190-104-5-176 83-176 192zm948 2c0-161-181-249-298-144-35 32-73 79-110 144 59 103 104 185 232 191 102 5 176-85 176-191"
                id="R" />
            <use transform="matrix(0.010850694444444444,0,0,0.010850694444444444,0,0)"
                xlink:href="#R" id="d" />
            <path d="M1026 0H184v-1462h842v254H494v321h495v254H494v377h532V0" id="S" />
            <path d="M465 0H160v-1556h305V0" id="T" />
            <path
                d="M836-686c0-141-77-236-213-236-140 0-206 98-215 236h428zm223 627C946-4 838 19 666 20 308 22 92-191 92-551c0-356 187-588 529-588 314 0 504 195 501 508v148H401c5 169 104 277 279 276 158-2 261-33 379-88v236"
                id="U" />
            <path
                d="M954-63C853 0 774 20 614 20 266 20 92-171 92-553c0-369 188-586 549-586 129 0 245 25 348 76l-90 236c-84-31-156-66-258-66-159 0-238 113-238 338 0 219 79 328 238 328 137 0 223-38 313-97v261"
                id="V" />
            <path
                d="M498-350c-2 85 52 126 133 127 53 0 117-12 192-35v227C747 3 654 20 543 20c-247 0-350-124-350-370v-539H47v-129l168-102 88-236h195v238h313v229H498v539"
                id="W" />
            <path
                d="M451-930c71-134 228-244 436-200l-23 286c-220-45-399 61-399 275V0H160v-1118h231l45 188h15"
                id="X" />
            <path
                d="M633-893c-183 0-230 133-230 332s48 336 232 336c183 0 229-137 229-336s-47-332-231-332zm4-246c347 5 535 225 539 578S978 25 631 20C283 15 96-208 92-561c-4-355 196-583 545-578"
                id="Y" />
            <path
                d="M836-831c-99-39-182-77-306-82-139-6-173 83-92 144 51 39 327 139 383 188 71 62 119 126 119 249C940-74 747 21 463 20 305 20 202 0 94-45v-252c93 45 253 94 379 94 111 0 166-32 166-96 0-68-41-76-98-109-79-46-276-119-333-167-74-61-116-125-116-252 0-368 555-367 836-224"
                id="Z" />
            <g id="f">
                <use transform="matrix(0.010850694444444444,0,0,0.010850694444444444,0,0)"
                    xlink:href="#S" />
                <use
                    transform="matrix(0.010850694444444444,0,0,0.010850694444444444,12.445746527777777,0)"
                    xlink:href="#T" />
                <use
                    transform="matrix(0.010850694444444444,0,0,0.010850694444444444,19.227430555555554,0)"
                    xlink:href="#U" />
                <use
                    transform="matrix(0.010850694444444444,0,0,0.010850694444444444,32.35677083333333,0)"
                    xlink:href="#V" />
                <use
                    transform="matrix(0.010850694444444444,0,0,0.010850694444444444,43.78255208333333,0)"
                    xlink:href="#W" />
                <use
                    transform="matrix(0.010850694444444444,0,0,0.010850694444444444,53.42881944444444,0)"
                    xlink:href="#X" />
                <use
                    transform="matrix(0.010850694444444444,0,0,0.010850694444444444,63.07508680555555,0)"
                    xlink:href="#Y" />
                <use
                    transform="matrix(0.010850694444444444,0,0,0.010850694444444444,76.83376736111111,0)"
                    xlink:href="#Z" />
            </g>
            <pattern id="g" patternUnits="userSpaceOnUse" x="1790.11" y="780" width="99.77"
                height="107.35">
                <use xlink:href="#aa"
                    transform="translate(-3.791289359835673, 0) scale(10.735335134692509,10.735335134692509)" />
            </pattern>
            <path
                d="M1384-895c-176 0-222 133-223 334V0H856v-653c-1-144-37-242-168-242-78 0-135 29-170 86s-53 152-53 283V0H160v-1118h233l41 143h17c56-98 174-164 325-164 167 0 281 55 340 164h27c55-99 179-165 330-164 265 2 385 133 385 410V0h-306v-653c-1-144-37-242-168-242"
                id="ab" />
            <path
                d="M795-1139c261-1 398 148 397 410V0H887v-653c-1-148-42-242-180-242-202 0-242 139-242 369V0H160v-1118h233l41 143h17c62-102 185-163 344-164"
                id="ac" />
            <g id="h">
                <use transform="matrix(0.010850694444444444,0,0,0.010850694444444444,0,0)"
                    xlink:href="#S" />
                <use
                    transform="matrix(0.010850694444444444,0,0,0.010850694444444444,12.445746527777777,0)"
                    xlink:href="#T" />
                <use
                    transform="matrix(0.010850694444444444,0,0,0.010850694444444444,19.227430555555554,0)"
                    xlink:href="#U" />
                <use
                    transform="matrix(0.010850694444444444,0,0,0.010850694444444444,32.35677083333333,0)"
                    xlink:href="#ab" />
                <use
                    transform="matrix(0.010850694444444444,0,0,0.010850694444444444,54.17751736111111,0)"
                    xlink:href="#U" />
                <use
                    transform="matrix(0.010850694444444444,0,0,0.010850694444444444,67.30685763888889,0)"
                    xlink:href="#ac" />
                <use
                    transform="matrix(0.010850694444444444,0,0,0.010850694444444444,81.91189236111111,0)"
                    xlink:href="#W" />
                <use
                    transform="matrix(0.010850694444444444,0,0,0.010850694444444444,91.55815972222221,0)"
                    xlink:href="#Y" />
            </g>
            <path
                d="M1036-1462h183L692 0H524L0-1462h180l336 946c39 109 69 214 92 317 24-108 55-216 94-323"
                id="ad" />
            <path
                d="M354-322c-2 123 60 204 176 205 51 1 114-10 150-20v127C647 7 557 20 506 20 294 20 188-92 188-315v-652H31v-80l157-69 70-234h96v254h318v129H354v645"
                id="ae" />
            <path
                d="M563 20c-271 0-399-123-399-399v-717h168v711c1 177 76 266 252 266 250 0 331-135 331-401v-576h166V0H944l-24-147h-9C848-44 724 20 563 20"
                id="af" />
            <path
                d="M588-1114c260 0 384 106 385 366V0H850l-33-156h-8C708-34 639 17 442 20 231 23 94-94 94-303c0-221 177-337 531-348l186-6c11-203-40-320-233-320-91 0-195 28-310 84l-51-127c97-53 229-94 371-94zM268-301c-1 123 81 184 207 184 203 0 334-120 332-323v-99c-257 14-539-7-539 238"
                id="ag" />
            <path d="M342 0H176v-1556h166V0" id="ah" />
            <g id="i">
                <use transform="matrix(0.010850694444444444,0,0,0.010850694444444444,0,0)"
                    xlink:href="#ad" />
                <use
                    transform="matrix(0.010850694444444444,0,0,0.010850694444444444,13.226996527777777,0)"
                    xlink:href="#M" />
                <use transform="matrix(0.010850694444444444,0,0,0.010850694444444444,18.84765625,0)"
                    xlink:href="#J" />
                <use
                    transform="matrix(0.010850694444444444,0,0,0.010850694444444444,27.91883680555556,0)"
                    xlink:href="#ae" />
                <use
                    transform="matrix(0.010850694444444444,0,0,0.010850694444444444,35.76388888888889,0)"
                    xlink:href="#af" />
                <use
                    transform="matrix(0.010850694444444444,0,0,0.010850694444444444,49.40321180555556,0)"
                    xlink:href="#ag" />
                <use
                    transform="matrix(0.010850694444444444,0,0,0.010850694444444444,61.76215277777778,0)"
                    xlink:href="#ah" />
            </g>
            <path
                d="M125-733c6-459 248-750 704-750 153 0 287 28 402 84l-72 146c-111-52-221-78-332-78-334-1-520 251-520 600 0 361 171 600 518 600 102 0 218-18 349-55v149C1073 1 948 20 799 20c-445 1-680-294-674-753"
                id="ai" />
            <g id="j">
                <use transform="matrix(0.010850694444444444,0,0,0.010850694444444444,0,0)"
                    xlink:href="#ai" />
                <use
                    transform="matrix(0.010850694444444444,0,0,0.010850694444444444,14.019097222222221,0)"
                    xlink:href="#ah" />
                <use
                    transform="matrix(0.010850694444444444,0,0,0.010850694444444444,19.639756944444443,0)"
                    xlink:href="#K" />
                <use
                    transform="matrix(0.010850694444444444,0,0,0.010850694444444444,33.06206597222222,0)"
                    xlink:href="#af" />
                <use
                    transform="matrix(0.010850694444444444,0,0,0.010850694444444444,46.701388888888886,0)"
                    xlink:href="#N" />
            </g>
            <path
                d="M694-1116c270 0 399 125 398 401V0H926v-709c-1-177-76-266-252-266-250 0-332 133-332 400V0H176v-1096h135l27 150h8c62-101 190-170 348-170"
                id="aj" />
            <path
                d="M502-977c-130 0-238 32-238 139 0 75 39 101 95 134 33 19 97 46 192 81 130 48 217 95 263 143s69 108 69 181C883-73 695 20 449 20 304 20 190-3 109-49v-154c91 47 216 86 344 86 149 0 270-36 270-168 0-43-21-76-55-109-56-55-367-158-434-208-74-55-128-109-128-225 0-327 490-342 754-217l-59 135c-110-45-210-68-299-68"
                id="ak" />
            <g id="k">
                <use transform="matrix(0.010850694444444444,0,0,0.010850694444444444,0,0)"
                    xlink:href="#ai" />
                <use
                    transform="matrix(0.010850694444444444,0,0,0.010850694444444444,14.019097222222221,0)"
                    xlink:href="#J" />
                <use
                    transform="matrix(0.010850694444444444,0,0,0.010850694444444444,22.645399305555554,0)"
                    xlink:href="#O" />
                <use
                    transform="matrix(0.010850694444444444,0,0,0.010850694444444444,35.11284722222222,0)"
                    xlink:href="#N" />
                <use transform="matrix(0.010850694444444444,0,0,0.010850694444444444,48.73046875,0)"
                    xlink:href="#O" />
                <use
                    transform="matrix(0.010850694444444444,0,0,0.010850694444444444,61.197916666666664,0)"
                    xlink:href="#aj" />
                <use
                    transform="matrix(0.010850694444444444,0,0,0.010850694444444444,74.83723958333333,0)"
                    xlink:href="#ae" />
                <use
                    transform="matrix(0.010850694444444444,0,0,0.010850694444444444,82.68229166666666,0)"
                    xlink:href="#M" />
                <use
                    transform="matrix(0.010850694444444444,0,0,0.010850694444444444,88.30295138888889,0)"
                    xlink:href="#ag" />
                <use
                    transform="matrix(0.010850694444444444,0,0,0.010850694444444444,100.66189236111111,0)"
                    xlink:href="#ah" />
                <use
                    transform="matrix(0.010850694444444444,0,0,0.010850694444444444,106.28255208333334,0)"
                    xlink:href="#ak" />
            </g>
            <path
                d="M881-995c0-154-85-213-246-213H494v434h102c173 1 285-62 285-221zm-230-467c334-1 543 136 543 456 0 330-225 489-567 486H494V0H184v-1462h467"
                id="al" />
            <path
                d="M639-223c202 0 242-139 242-369v-526h305V0H952l-41-143h-16C834-43 709 20 551 20c-263 0-397-147-397-409v-729h305v653c1 148 42 242 180 242"
                id="am" />
            <path
                d="M782-1139c292 0 422 259 422 578 0 185-39 328-116 429S907 20 774 20c-131 0-234-48-309-143h-21L393 0H160v-1556h305c-3 221 8 361-12 583h12c71-111 177-166 317-166zM465-596c-3 221 29 369 223 369 63 0 110-31 150-87 71-99 72-401-1-498-40-53-88-83-153-83-174 0-216 109-219 299"
                id="an" />
            <path
                d="M479-1407c-1 99-61 150-166 150-111 0-166-50-166-150 0-99 55-149 166-149s166 50 166 149zM465 0H160v-1118h305V0"
                id="ao" />
            <g id="m">
                <use transform="matrix(0.010850694444444444,0,0,0.010850694444444444,0,0)"
                    xlink:href="#al" />
                <use
                    transform="matrix(0.010850694444444444,0,0,0.010850694444444444,13.953993055555555,0)"
                    xlink:href="#am" />
                <use
                    transform="matrix(0.010850694444444444,0,0,0.010850694444444444,28.559027777777775,0)"
                    xlink:href="#an" />
                <use
                    transform="matrix(0.010850694444444444,0,0,0.010850694444444444,42.62152777777778,0)"
                    xlink:href="#T" />
                <use
                    transform="matrix(0.010850694444444444,0,0,0.010850694444444444,49.40321180555556,0)"
                    xlink:href="#ao" />
                <use
                    transform="matrix(0.010850694444444444,0,0,0.010850694444444444,56.18489583333333,0)"
                    xlink:href="#V" />
            </g>
            <path
                d="M1133-1128c-95-42-202-97-328-97-258 0-367 218-367 498 0 326 122 489 367 489 103 0 227-26 373-77v260C1058-5 924 20 776 20c-443 0-662-290-657-749 5-455 236-754 686-754 142 0 285 34 428 103"
                id="ap" />
            <path
                d="M92-557c0-327 132-582 430-582 141 0 248 55 322 164h10c-38-188-18-371-23-581h306V0H903l-59-145h-13C762-35 656 20 514 20 222 20 92-237 92-557zm309 4c0 190 54 330 220 330 191 0 231-123 231-332 0-214-44-336-236-336-161 0-215 151-215 338"
                id="aq" />
            <g id="n">
                <use transform="matrix(0.010850694444444444,0,0,0.010850694444444444,0,0)"
                    xlink:href="#ap" />
                <use transform="matrix(0.010850694444444444,0,0,0.010850694444444444,14.16015625,0)"
                    xlink:href="#T" />
                <use
                    transform="matrix(0.010850694444444444,0,0,0.010850694444444444,20.94184027777778,0)"
                    xlink:href="#Y" />
                <use
                    transform="matrix(0.010850694444444444,0,0,0.010850694444444444,34.700520833333336,0)"
                    xlink:href="#am" />
                <use
                    transform="matrix(0.010850694444444444,0,0,0.010850694444444444,49.30555555555556,0)"
                    xlink:href="#aq" />
            </g>
            <path
                d="M1481 0h-394L451-1106h-9c33 431 14 683 19 1106H184v-1462h391l635 1095h7c-26-429-11-678-15-1095h279V0"
                id="ar" />
            <path
                d="M1079 0c-64-298-133-592-202-885h-7L666 0H338L20-1118h304c74 305 149 505 192 862h6c25-292 125-597 189-862h336c64 284 150 545 182 862h6c7-69 49-308 65-367l134-495h299L1411 0h-332"
                id="as" />
            <path
                d="M453-608l133-170 313-340h344L799-633 1270 0H918L596-453 465-348V0H160v-1556h305v694l-16 254h4"
                id="at" />
            <g id="o">
                <use transform="matrix(0.010850694444444444,0,0,0.010850694444444444,0,0)"
                    xlink:href="#ar" />
                <use transform="matrix(0.010850694444444444,0,0,0.010850694444444444,18.06640625,0)"
                    xlink:href="#U" />
                <use
                    transform="matrix(0.010850694444444444,0,0,0.010850694444444444,31.195746527777775,0)"
                    xlink:href="#W" />
                <use
                    transform="matrix(0.010850694444444444,0,0,0.010850694444444444,40.842013888888886,0)"
                    xlink:href="#as" />
                <use transform="matrix(0.010850694444444444,0,0,0.010850694444444444,59.86328125,0)"
                    xlink:href="#Y" />
                <use
                    transform="matrix(0.010850694444444444,0,0,0.010850694444444444,73.62196180555556,0)"
                    xlink:href="#X" />
                <use
                    transform="matrix(0.010850694444444444,0,0,0.010850694444444444,83.71310763888889,0)"
                    xlink:href="#at" />
            </g>
            <pattern id="p" patternUnits="userSpaceOnUse" x="2189.65" y="1200" width="100.7"
                height="100.7">
                <use xlink:href="#au"
                    transform="translate(0, 0) scale(10.069591358971683,10.069591358971683)" />
            </pattern>
            <path d="M573-731l390-731h184L659-567V0H487v-559L0-1462h186" id="av" />
            <g id="q">
                <use transform="matrix(0.010850694444444444,0,0,0.010850694444444444,0,0)"
                    xlink:href="#av" />
                <use
                    transform="matrix(0.010850694444444444,0,0,0.010850694444444444,11.338975694444445,0)"
                    xlink:href="#K" />
                <use
                    transform="matrix(0.010850694444444444,0,0,0.010850694444444444,24.76128472222222,0)"
                    xlink:href="#af" />
            </g>
            <g id="r">
                <use transform="matrix(0.010850694444444444,0,0,0.010850694444444444,0,0)"
                    xlink:href="#Y" />
                <use
                    transform="matrix(0.010850694444444444,0,0,0.010850694444444444,13.313802083333332,0)"
                    xlink:href="#as" />
                <use
                    transform="matrix(0.010850694444444444,0,0,0.010850694444444444,32.33506944444444,0)"
                    xlink:href="#ac" />
            </g>
            <path
                d="M287-543c-1 247 91 418 323 418 91 0 185-20 281-59v147C818 1 725 20 614 20c-329 0-499-221-499-561 0-349 172-575 510-575 96 0 221 26 282 57l-51 141c-61-25-157-50-235-51-223 0-334 142-334 426"
                id="aw" />
            <g id="s">
                <use transform="matrix(0.010850694444444444,0,0,0.010850694444444444,0,0)"
                    xlink:href="#aw" />
                <use
                    transform="matrix(0.010850694444444444,0,0,0.010850694444444444,10.579427083333332,0)"
                    xlink:href="#J" />
                <use
                    transform="matrix(0.010850694444444444,0,0,0.010850694444444444,19.205729166666664,0)"
                    xlink:href="#O" />
                <use
                    transform="matrix(0.010850694444444444,0,0,0.010850694444444444,31.67317708333333,0)"
                    xlink:href="#N" />
                <use
                    transform="matrix(0.010850694444444444,0,0,0.010850694444444444,45.29079861111111,0)"
                    xlink:href="#O" />
                <use
                    transform="matrix(0.010850694444444444,0,0,0.010850694444444444,57.75824652777778,0)"
                    xlink:href="#aj" />
                <use
                    transform="matrix(0.010850694444444444,0,0,0.010850694444444444,71.39756944444444,0)"
                    xlink:href="#ae" />
                <use
                    transform="matrix(0.010850694444444444,0,0,0.010850694444444444,79.24262152777777,0)"
                    xlink:href="#M" />
                <use transform="matrix(0.010850694444444444,0,0,0.010850694444444444,84.86328125,0)"
                    xlink:href="#ag" />
                <use
                    transform="matrix(0.010850694444444444,0,0,0.010850694444444444,97.22222222222221,0)"
                    xlink:href="#ah" />
                <use
                    transform="matrix(0.010850694444444444,0,0,0.010850694444444444,102.84288194444446,0)"
                    xlink:href="#ak" />
            </g>
            <path
                d="M426 0L0-1118h319l216 637c24 81 39 157 45 229h6c3-64 15-141 45-229l215-637h319L739 0H426"
                id="ax" />
            <path
                d="M618-1141c286 0 465 117 465 396V0H870l-59-152h-8C704-33 632 18 432 20 216 22 86-113 86-334c0-119 44-202 124-262 109-82 356-99 570-100 11-142-39-219-174-219-89 0-194 27-315 81l-101-206c129-67 271-101 428-101zm-71 938c137 0 235-88 233-223v-92c-190 3-382 4-381 186 0 86 49 129 148 129"
                id="ay" />
            <g id="t">
                <use transform="matrix(0.010850694444444444,0,0,0.010850694444444444,0,0)"
                    xlink:href="#al" />
                <use
                    transform="matrix(0.010850694444444444,0,0,0.010850694444444444,13.953993055555555,0)"
                    xlink:href="#X" />
                <use
                    transform="matrix(0.010850694444444444,0,0,0.010850694444444444,24.04513888888889,0)"
                    xlink:href="#ao" />
                <use
                    transform="matrix(0.010850694444444444,0,0,0.010850694444444444,30.826822916666664,0)"
                    xlink:href="#ax" />
                <use
                    transform="matrix(0.010850694444444444,0,0,0.010850694444444444,43.46788194444444,0)"
                    xlink:href="#ay" />
                <use
                    transform="matrix(0.010850694444444444,0,0,0.010850694444444444,56.89019097222222,0)"
                    xlink:href="#W" />
                <use
                    transform="matrix(0.010850694444444444,0,0,0.010850694444444444,66.53645833333333,0)"
                    xlink:href="#U" />
            </g>
            <g id="u">
                <use transform="matrix(0.010850694444444444,0,0,0.010850694444444444,0,0)"
                    xlink:href="#ap" />
                <use transform="matrix(0.010850694444444444,0,0,0.010850694444444444,14.16015625,0)"
                    xlink:href="#T" />
                <use
                    transform="matrix(0.010850694444444444,0,0,0.010850694444444444,20.94184027777778,0)"
                    xlink:href="#Y" />
                <use
                    transform="matrix(0.010850694444444444,0,0,0.010850694444444444,34.700520833333336,0)"
                    xlink:href="#am" />
                <use
                    transform="matrix(0.010850694444444444,0,0,0.010850694444444444,49.30555555555556,0)"
                    xlink:href="#aq" />
            </g>
            <g id="v">
                <use transform="matrix(0.010850694444444444,0,0,0.010850694444444444,0,0)"
                    xlink:href="#ar" />
                <use transform="matrix(0.010850694444444444,0,0,0.010850694444444444,18.06640625,0)"
                    xlink:href="#U" />
                <use
                    transform="matrix(0.010850694444444444,0,0,0.010850694444444444,31.195746527777775,0)"
                    xlink:href="#W" />
                <use
                    transform="matrix(0.010850694444444444,0,0,0.010850694444444444,40.842013888888886,0)"
                    xlink:href="#as" />
                <use transform="matrix(0.010850694444444444,0,0,0.010850694444444444,59.86328125,0)"
                    xlink:href="#Y" />
                <use
                    transform="matrix(0.010850694444444444,0,0,0.010850694444444444,73.62196180555556,0)"
                    xlink:href="#X" />
                <use
                    transform="matrix(0.010850694444444444,0,0,0.010850694444444444,83.71310763888889,0)"
                    xlink:href="#at" />
            </g>
            <pattern id="w" patternUnits="userSpaceOnUse" x="1790.11" y="1200" width="101.14"
                height="101.14">
                <use xlink:href="#au"
                    transform="translate(0, 0) scale(10.113529212379262,10.113529212379262)" />
            </pattern>
            <path
                d="M1079 0L973-348H440L334 0H0l516-1468h379L1413 0h-334zM899-608c-127-415-146-457-192-633-22 85-85 296-189 633h381"
                id="az" />
            <path
                d="M817-1485c460 0 694 282 694 752 0 468-238 753-696 753-459 0-696-285-696-755 0-471 238-750 698-750zm0 258c-273 0-374 198-373 494 0 296 98 493 371 493 247 0 371-164 371-493s-123-494-369-494"
                id="aA" />
            <path
                d="M596-1225c-134-8-223 103-163 219 11 21 33 41 61 60s93 53 196 102c137 65 230 130 281 196s76 147 76 242c-3 286-231 426-539 426C352 20 214-9 94-68v-288c159 68 260 115 438 120 123 3 211-41 211-155 0-73-44-105-95-141-63-46-329-160-390-220-78-77-147-167-147-315 0-273 208-420 495-416 177 2 298 46 434 103l-100 241c-131-51-199-78-344-86"
                id="aB" />
            <g id="x">
                <use transform="matrix(0.010850694444444444,0,0,0.010850694444444444,0,0)"
                    xlink:href="#az" />
                <use transform="matrix(0.010850694444444444,0,0,0.010850694444444444,15.33203125,0)"
                    xlink:href="#W" />
                <use
                    transform="matrix(0.010850694444444444,0,0,0.010850694444444444,24.97829861111111,0)"
                    xlink:href="#Y" />
                <use
                    transform="matrix(0.010850694444444444,0,0,0.010850694444444444,38.736979166666664,0)"
                    xlink:href="#ab" />
                <use
                    transform="matrix(0.010850694444444444,0,0,0.010850694444444444,60.55772569444444,0)"
                    xlink:href="#aA" />
                <use
                    transform="matrix(0.010850694444444444,0,0,0.010850694444444444,78.24435763888889,0)"
                    xlink:href="#aB" />
            </g>
            <g id="y">
                <use transform="matrix(0.010850694444444444,0,0,0.010850694444444444,0,0)"
                    xlink:href="#ap" />
                <use transform="matrix(0.010850694444444444,0,0,0.010850694444444444,14.16015625,0)"
                    xlink:href="#T" />
                <use
                    transform="matrix(0.010850694444444444,0,0,0.010850694444444444,20.94184027777778,0)"
                    xlink:href="#Y" />
                <use
                    transform="matrix(0.010850694444444444,0,0,0.010850694444444444,34.700520833333336,0)"
                    xlink:href="#am" />
                <use
                    transform="matrix(0.010850694444444444,0,0,0.010850694444444444,49.30555555555556,0)"
                    xlink:href="#aq" />
            </g>
            <path d="M61-424v-250h537v250H61" id="aC" />
            <path
                d="M782-1139c293 0 422 256 422 578 0 230-70 418-202 512-65 46-141 69-228 69-131 0-234-48-309-143h-16c32 222 9 383 16 615H160v-1610h248l43 145h14c71-111 177-166 317-166zm111 574c0-190-40-330-209-330-184 0-221 128-219 332 2 209 40 336 223 336 137 0 205-113 205-338"
                id="aD" />
            <g id="z">
                <use transform="matrix(0.010850694444444444,0,0,0.010850694444444444,0,0)"
                    xlink:href="#Y" />
                <use
                    transform="matrix(0.010850694444444444,0,0,0.010850694444444444,13.758680555555555,0)"
                    xlink:href="#ac" />
                <use
                    transform="matrix(0.010850694444444444,0,0,0.010850694444444444,28.363715277777775,0)"
                    xlink:href="#aC" />
                <use
                    transform="matrix(0.010850694444444444,0,0,0.010850694444444444,35.514322916666664,0)"
                    xlink:href="#aD" />
                <use
                    transform="matrix(0.010850694444444444,0,0,0.010850694444444444,49.576822916666664,0)"
                    xlink:href="#X" />
                <use
                    transform="matrix(0.010850694444444444,0,0,0.010850694444444444,59.22309027777778,0)"
                    xlink:href="#U" />
                <use
                    transform="matrix(0.010850694444444444,0,0,0.010850694444444444,72.35243055555554,0)"
                    xlink:href="#ab" />
            </g>
            <path
                d="M1141-549c0 329-147 569-455 569-159 0-273-61-344-161h-12c23 199 7 418 12 633H176v-1588h135l23 150h8c77-108 175-170 344-170 311 0 455 237 455 567zm-172-2c0-242-88-424-307-424-256 0-323 154-320 426 3 280 68 430 324 430 213 0 303-196 303-432"
                id="aE" />
            <g id="A">
                <use transform="matrix(0.010850694444444444,0,0,0.010850694444444444,0,0)"
                    xlink:href="#aE" />
                <use
                    transform="matrix(0.010850694444444444,0,0,0.010850694444444444,13.617621527777777,0)"
                    xlink:href="#J" />
                <use
                    transform="matrix(0.010850694444444444,0,0,0.010850694444444444,22.688802083333332,0)"
                    xlink:href="#M" />
                <use
                    transform="matrix(0.010850694444444444,0,0,0.010850694444444444,28.309461805555554,0)"
                    xlink:href="#L" />
                <use
                    transform="matrix(0.010850694444444444,0,0,0.010850694444444444,39.44227430555556,0)"
                    xlink:href="#ag" />
                <use
                    transform="matrix(0.010850694444444444,0,0,0.010850694444444444,51.80121527777778,0)"
                    xlink:href="#ae" />
                <use
                    transform="matrix(0.010850694444444444,0,0,0.010850694444444444,59.64626736111112,0)"
                    xlink:href="#O" />
            </g>
            <g id="B">
                <use transform="matrix(0.010850694444444444,0,0,0.010850694444444444,0,0)"
                    xlink:href="#ak" />
                <use
                    transform="matrix(0.010850694444444444,0,0,0.010850694444444444,10.601128472222221,0)"
                    xlink:href="#O" />
                <use
                    transform="matrix(0.010850694444444444,0,0,0.010850694444444444,23.06857638888889,0)"
                    xlink:href="#J" />
                <use
                    transform="matrix(0.010850694444444444,0,0,0.010850694444444444,32.13975694444444,0)"
                    xlink:href="#L" />
                <use
                    transform="matrix(0.010850694444444444,0,0,0.010850694444444444,43.27256944444444,0)"
                    xlink:href="#O" />
                <use
                    transform="matrix(0.010850694444444444,0,0,0.010850694444444444,55.74001736111111,0)"
                    xlink:href="#J" />
                <use
                    transform="matrix(0.010850694444444444,0,0,0.010850694444444444,64.81119791666666,0)"
                    xlink:href="#ak" />
            </g>
            <g id="C">
                <use transform="matrix(0.010850694444444444,0,0,0.010850694444444444,0,0)"
                    xlink:href="#X" />
                <use
                    transform="matrix(0.010850694444444444,0,0,0.010850694444444444,9.64626736111111,0)"
                    xlink:href="#U" />
                <use
                    transform="matrix(0.010850694444444444,0,0,0.010850694444444444,22.77560763888889,0)"
                    xlink:href="#ab" />
                <use
                    transform="matrix(0.010850694444444444,0,0,0.010850694444444444,44.596354166666664,0)"
                    xlink:href="#Y" />
                <use
                    transform="matrix(0.010850694444444444,0,0,0.010850694444444444,58.35503472222222,0)"
                    xlink:href="#W" />
                <use
                    transform="matrix(0.010850694444444444,0,0,0.010850694444444444,68.00130208333333,0)"
                    xlink:href="#U" />
            </g>
            <g id="D">
                <use transform="matrix(0.010850694444444444,0,0,0.010850694444444444,0,0)"
                    xlink:href="#aE" />
                <use
                    transform="matrix(0.010850694444444444,0,0,0.010850694444444444,13.617621527777777,0)"
                    xlink:href="#J" />
                <use
                    transform="matrix(0.010850694444444444,0,0,0.010850694444444444,22.688802083333332,0)"
                    xlink:href="#M" />
                <use
                    transform="matrix(0.010850694444444444,0,0,0.010850694444444444,28.309461805555554,0)"
                    xlink:href="#L" />
                <use
                    transform="matrix(0.010850694444444444,0,0,0.010850694444444444,39.44227430555556,0)"
                    xlink:href="#ag" />
                <use
                    transform="matrix(0.010850694444444444,0,0,0.010850694444444444,51.80121527777778,0)"
                    xlink:href="#ae" />
                <use
                    transform="matrix(0.010850694444444444,0,0,0.010850694444444444,59.64626736111112,0)"
                    xlink:href="#O" />
            </g>
            <g id="E">
                <use transform="matrix(0.010850694444444444,0,0,0.010850694444444444,0,0)"
                    xlink:href="#ak" />
                <use
                    transform="matrix(0.010850694444444444,0,0,0.010850694444444444,10.601128472222221,0)"
                    xlink:href="#O" />
                <use
                    transform="matrix(0.010850694444444444,0,0,0.010850694444444444,23.06857638888889,0)"
                    xlink:href="#J" />
                <use
                    transform="matrix(0.010850694444444444,0,0,0.010850694444444444,32.13975694444444,0)"
                    xlink:href="#L" />
                <use
                    transform="matrix(0.010850694444444444,0,0,0.010850694444444444,43.27256944444444,0)"
                    xlink:href="#O" />
                <use
                    transform="matrix(0.010850694444444444,0,0,0.010850694444444444,55.74001736111111,0)"
                    xlink:href="#J" />
                <use
                    transform="matrix(0.010850694444444444,0,0,0.010850694444444444,64.81119791666666,0)"
                    xlink:href="#ak" />
            </g>
            <pattern id="F" patternUnits="userSpaceOnUse" x="1389.77" y="1200" width="100.46"
                height="108.1">
                <use xlink:href="#aF"
                    transform="translate(-3.817650937421149, 0) scale(10.809980022802783,10.809980022802783)" />
            </pattern>
            <pattern id="G" patternUnits="userSpaceOnUse" x="2189.65" y="1200" width="100.7"
                height="100.7">
                <use xlink:href="#au"
                    transform="translate(0, 0) scale(10.069591358971683,10.069591358971683)" />
            </pattern>
            <pattern id="H" patternUnits="userSpaceOnUse" x="1790.11" y="1200" width="101.14"
                height="101.14">
                <use xlink:href="#au"
                    transform="translate(0, 0) scale(10.113529212379262,10.113529212379262)" />
            </pattern>
        </defs>
    </g>
</svg>