<svg xmlns="http://www.w3.org/2000/svg" xmlns:xlink="http://www.w3.org/1999/xlink"
    xmlns:lucid="lucid" width="842" height="639.01">
    <g transform="translate(-3318.9999999794036 -960.2746550095179)" lucid:page-tab-id="0_0">
        <path
            d="M3320 1186a6 6 0 0 1 6-6h148a6 6 0 0 1 6 6v190.76a6 6 0 0 1-6 6h-148a6 6 0 0 1-6-6z"
            stroke="var(--svg-tile-stroke)" stroke-width="2" fill="var(--svg-tile-color)" />
        <use fill="var(--svg-text-color)" xlink:href="#a" transform="matrix(1,0,0,1,3325,1185) translate(75 29.78342013888889)" />
        <use fill="var(--svg-text-color)" xlink:href="#a" transform="matrix(1,0,0,1,3325,1185) translate(75 66.09852430555556)" />
        <use fill="var(--svg-text-color)" xlink:href="#a" transform="matrix(1,0,0,1,3325,1185) translate(75 102.41362847222221)" />
        <use fill="var(--svg-text-color)" xlink:href="#a" transform="matrix(1,0,0,1,3325,1185) translate(75 138.72873263888889)" />
        <use fill="var(--svg-text-color)" xlink:href="#b"
            transform="matrix(1,0,0,1,3325,1185) translate(31.06011284722222 175.04383680555554)" />
        <path
            d="M3350.1 1206a6 6 0 0 1 6-6h87.8a6 6 0 0 1 6 6v95.35a6 6 0 0 1-6 6h-87.8a6 6 0 0 1-6-6z"
            fill="url(#c)" />
        <path
            d="M3680 967.27a6 6 0 0 1 6-6h148a6 6 0 0 1 6 6V1194a6 6 0 0 1-6 6h-148a6 6 0 0 1-6-6z"
            stroke="var(--svg-tile-stroke)" stroke-width="2" fill="var(--svg-tile-color)" />
        <use fill="var(--svg-text-color)" xlink:href="#a"
            transform="matrix(1,0,0,1,3685,966.2746550360655) translate(75 30.90842013888889)" />
        <use fill="var(--svg-text-color)" xlink:href="#a"
            transform="matrix(1,0,0,1,3685,966.2746550360655) translate(75 67.22352430555556)" />
        <use fill="var(--svg-text-color)" xlink:href="#a"
            transform="matrix(1,0,0,1,3685,966.2746550360655) translate(75 103.53862847222221)" />
        <use fill="var(--svg-text-color)" xlink:href="#a"
            transform="matrix(1,0,0,1,3685,966.2746550360655) translate(75 139.85373263888889)" />
        <use fill="var(--svg-text-color)" xlink:href="#d"
            transform="matrix(1,0,0,1,3685,966.2746550360655) translate(29.758029513888893 176.16883680555554)" />
        <use fill="var(--svg-text-color)" xlink:href="#e"
            transform="matrix(1,0,0,1,3685,966.2746550360655) translate(14.3771701388889 212.4839409722222)" />
        <path
            d="M3709.77 992.63a6 6 0 0 1 6-6h88.46a6 6 0 0 1 6 6v96.1a6 6 0 0 1-6 6h-88.46a6 6 0 0 1-6-6z"
            fill="url(#f)" />
        <path d="M3680 1366a6 6 0 0 1 6-6h148a6 6 0 0 1 6 6v226.3a6 6 0 0 1-6 6h-148a6 6 0 0 1-6-6z"
            stroke="var(--svg-tile-stroke)" stroke-width="2" fill="var(--svg-tile-color)" />
        <use fill="var(--svg-text-color)" xlink:href="#a" transform="matrix(1,0,0,1,3685,1365) translate(75 30.90842013888889)" />
        <use fill="var(--svg-text-color)" xlink:href="#a" transform="matrix(1,0,0,1,3685,1365) translate(75 67.22352430555556)" />
        <use fill="var(--svg-text-color)" xlink:href="#a" transform="matrix(1,0,0,1,3685,1365) translate(75 103.53862847222221)" />
        <use fill="var(--svg-text-color)" xlink:href="#a" transform="matrix(1,0,0,1,3685,1365) translate(75 139.85373263888889)" />
        <use fill="var(--svg-text-color)" xlink:href="#g"
            transform="matrix(1,0,0,1,3685,1365) translate(43.31597222222222 176.16883680555554)" />
        <use fill="var(--svg-text-color)" xlink:href="#h"
            transform="matrix(1,0,0,1,3685,1365) translate(26.253255208333336 212.4839409722222)" />
        <path
            d="M3709.65 1391.35a6 6 0 0 1 6-6h88.7a6 6 0 0 1 6 6v88.7a6 6 0 0 1-6 6h-88.7a6 6 0 0 1-6-6z"
            fill="url(#i)" />
        <path
            d="M3481.5 1281.37l2.5-.05 2.9-.18 2.82-.3 2.73-.4 2.67-.5 2.62-.63 2.58-.7 2.55-.84 2.54-.94 2.54-1.06 2.53-1.2 2.56-1.34 2.6-1.5 2.6-1.66 2.7-1.87 2.76-2.1 2.85-2.37 2.97-2.68 3.13-3.06 3.3-3.53 3.55-4.12 3.87-4.88 4.3-5.93 4.94-7.45 6.04-10 8.57-15.65 34.16-66.54 6.03-9.97 4.93-7.46 4.3-5.92 3.87-4.88 3.54-4.12 3.3-3.52 3.14-3.07 2.97-2.67 2.86-2.38 2.77-2.1 2.68-1.86 2.63-1.67 2.6-1.5 2.55-1.34 2.53-1.2 2.53-1.06 2.53-.95 2.55-.83 2.6-.72.5-.12"
            stroke="var(--svg-arrow-color)" stroke-linejoin="round" fill="none" />
        <path d="M3481.53 1281.85h-.53v-.94h.5z" stroke="var(--svg-arrow-color)" stroke-width=".05" fill="var(--svg-arrow-color)" />
        <path d="M3677.4 1080.83l-13.62 6.3-1.1-9.2z" stroke="var(--svg-arrow-color)" fill="var(--svg-arrow-color)" />
        <path
            d="M3481.5 1281.15l2.55.06 2.94.2 2.83.3 2.76.4 2.7.5 2.64.63 2.6.73 2.6.84 2.55.95 2.55 1.08 2.56 1.2 2.6 1.35 2.6 1.5 2.65 1.7 2.7 1.88 2.8 2.1 2.87 2.4 3 2.7 3.16 3.1 3.34 3.55 3.58 4.17 3.9 4.94 4.38 6.02 5.04 7.6 6.22 10.3 9.2 16.85 31.52 60.8 6.22 10.3 5.04 7.6 4.37 6 3.9 4.95 3.58 4.16 3.34 3.56 3.15 3.1 3 2.7 2.9 2.37 2.77 2.13 2.7 1.88 2.66 1.7 2.6 1.5 2.6 1.35 2.55 1.2 2.56 1.08 2.57.96 2.58.83 2.6.72.72.17"
            stroke="var(--svg-arrow-color)" stroke-linejoin="round" fill="none" />
        <path d="M3481.53 1280.68l-.02.95h-.5v-.96z" stroke="var(--svg-arrow-color)" stroke-width=".05"
            fill="var(--svg-arrow-color)" />
        <path d="M3677.4 1478.95l-14.72 2.93 1.1-9.2z" stroke="var(--svg-arrow-color)" fill="var(--svg-arrow-color)" />
        <path
            d="M4000 1021.3a6 6 0 0 1 6-6h148a6 6 0 0 1 6 6v118.67a6 6 0 0 1-6 6h-148a6 6 0 0 1-6-6z"
            stroke="var(--svg-tile-stroke)" stroke-width="2" fill="var(--svg-tile-color)" />
        <use fill="var(--svg-text-color)" xlink:href="#j"
            transform="matrix(1,0,0,1,4005,1020.3062227239445) translate(33.50151909722223 50.220920138888886)" />
        <use fill="var(--svg-text-color)" xlink:href="#k"
            transform="matrix(1,0,0,1,4005,1020.3062227239445) translate(41.796875 86.53602430555556)" />
        <path
            d="M4000 1419.4a6 6 0 0 1 6-6h148a6 6 0 0 1 6 6v118.67a6 6 0 0 1-6 6h-148a6 6 0 0 1-6-6z"
            stroke="var(--svg-tile-stroke)" stroke-width="2" fill="var(--svg-tile-color)" />
        <g>
            <use fill="var(--svg-text-color)" xlink:href="#l"
                transform="matrix(1,0,0,1,4005,1418.4057850639365) translate(44.84049479166667 31.31467013888889)" />
            <use fill="var(--svg-text-color)" xlink:href="#m"
                transform="matrix(1,0,0,1,4005,1418.4057850639365) translate(31.553819444444443 67.62977430555556)" />
            <use fill="var(--svg-text-color)" xlink:href="#n"
                transform="matrix(1,0,0,1,4005,1418.4057850639365) translate(32.931857638888886 103.94487847222221)" />
        </g>
        <path d="M3841.5 1080.64h141.12" stroke="var(--svg-arrow-color)" stroke-linejoin="round" fill="none" />
        <path d="M3841.5 1081.1h-.5v-.94h.5z" stroke="var(--svg-arrow-color)" stroke-width=".05" fill="var(--svg-arrow-color)" />
        <path d="M3997.38 1080.64l-14.26 4.63V1076z" stroke="var(--svg-arrow-color)" fill="var(--svg-arrow-color)" />
        <path d="M3841.5 1479.14h141.12" stroke="var(--svg-arrow-color)" stroke-linejoin="round" fill="none" />
        <path d="M3841.5 1479.62h-.5v-.95h.5z" stroke="var(--svg-arrow-color)" stroke-width=".05" fill="var(--svg-arrow-color)" />
        <path d="M3997.38 1479.14l-14.26 4.64v-9.27z" stroke="var(--svg-arrow-color)" fill="var(--svg-arrow-color)" />
        <path
            d="M3680 967.27a6 6 0 0 1 6-6h148a6 6 0 0 1 6 6V1194a6 6 0 0 1-6 6h-148a6 6 0 0 1-6-6z"
            stroke="var(--svg-tile-stroke)" stroke-width="2" fill="var(--svg-tile-color)" />
        <g>
            <use fill="var(--svg-text-color)" xlink:href="#a"
                transform="matrix(1,0,0,1,3685,966.2746550360655) translate(75 30.90842013888889)" />
            <use fill="var(--svg-text-color)" xlink:href="#a"
                transform="matrix(1,0,0,1,3685,966.2746550360655) translate(75 67.22352430555556)" />
            <use fill="var(--svg-text-color)" xlink:href="#a"
                transform="matrix(1,0,0,1,3685,966.2746550360655) translate(75 103.53862847222221)" />
            <use fill="var(--svg-text-color)" xlink:href="#a"
                transform="matrix(1,0,0,1,3685,966.2746550360655) translate(75 139.85373263888889)" />
            <use fill="var(--svg-text-color)" xlink:href="#d"
                transform="matrix(1,0,0,1,3685,966.2746550360655) translate(29.758029513888893 176.16883680555554)" />
            <use fill="var(--svg-text-color)" xlink:href="#e"
                transform="matrix(1,0,0,1,3685,966.2746550360655) translate(14.3771701388889 212.4839409722222)" />
        </g>
        <path
            d="M3709.77 992.63a6 6 0 0 1 6-6h88.46a6 6 0 0 1 6 6v96.1a6 6 0 0 1-6 6h-88.46a6 6 0 0 1-6-6z"
            fill="url(#o)" />
        <path d="M3680 1366a6 6 0 0 1 6-6h148a6 6 0 0 1 6 6v226.3a6 6 0 0 1-6 6h-148a6 6 0 0 1-6-6z"
            stroke="var(--svg-tile-stroke)" stroke-width="2" fill="var(--svg-tile-color)" />
        <g>
            <use fill="var(--svg-text-color)" xlink:href="#a"
                transform="matrix(1,0,0,1,3685,1365) translate(75 30.90842013888889)" />
            <use fill="var(--svg-text-color)" xlink:href="#a"
                transform="matrix(1,0,0,1,3685,1365) translate(75 67.22352430555556)" />
            <use fill="var(--svg-text-color)" xlink:href="#a"
                transform="matrix(1,0,0,1,3685,1365) translate(75 103.53862847222221)" />
            <use fill="var(--svg-text-color)" xlink:href="#a"
                transform="matrix(1,0,0,1,3685,1365) translate(75 139.85373263888889)" />
            <use fill="var(--svg-text-color)" xlink:href="#g"
                transform="matrix(1,0,0,1,3685,1365) translate(43.31597222222222 176.16883680555554)" />
            <use fill="var(--svg-text-color)" xlink:href="#h"
                transform="matrix(1,0,0,1,3685,1365) translate(26.253255208333336 212.4839409722222)" />
        </g>
        <path
            d="M3709.65 1391.35a6 6 0 0 1 6-6h88.7a6 6 0 0 1 6 6v88.7a6 6 0 0 1-6 6h-88.7a6 6 0 0 1-6-6z"
            fill="url(#p)" />
        <defs>
            <image width="10" height="10" id="y"
                xlink:href="assets/logos/Electros.svg"/>
            <image width="10" height="10" id="P"
                xlink:href="assets/logos/Atomosphere.svg"/>
            <image width="10" height="10" id="I"
                xlink:href="assets/logos/Atomos.svg"/>
            <path d="M1026 0H184v-1462h842v254H494v321h495v254H494v377h532V0" id="q" />
            <path d="M465 0H160v-1556h305V0" id="r" />
            <path
                d="M836-686c0-141-77-236-213-236-140 0-206 98-215 236h428zm223 627C946-4 838 19 666 20 308 22 92-191 92-551c0-356 187-588 529-588 314 0 504 195 501 508v148H401c5 169 104 277 279 276 158-2 261-33 379-88v236"
                id="s" />
            <path
                d="M954-63C853 0 774 20 614 20 266 20 92-171 92-553c0-369 188-586 549-586 129 0 245 25 348 76l-90 236c-84-31-156-66-258-66-159 0-238 113-238 338 0 219 79 328 238 328 137 0 223-38 313-97v261"
                id="t" />
            <path
                d="M498-350c-2 85 52 126 133 127 53 0 117-12 192-35v227C747 3 654 20 543 20c-247 0-350-124-350-370v-539H47v-129l168-102 88-236h195v238h313v229H498v539"
                id="u" />
            <path
                d="M451-930c71-134 228-244 436-200l-23 286c-220-45-399 61-399 275V0H160v-1118h231l45 188h15"
                id="v" />
            <path
                d="M633-893c-183 0-230 133-230 332s48 336 232 336c183 0 229-137 229-336s-47-332-231-332zm4-246c347 5 535 225 539 578S978 25 631 20C283 15 96-208 92-561c-4-355 196-583 545-578"
                id="w" />
            <path
                d="M836-831c-99-39-182-77-306-82-139-6-173 83-92 144 51 39 327 139 383 188 71 62 119 126 119 249C940-74 747 21 463 20 305 20 202 0 94-45v-252c93 45 253 94 379 94 111 0 166-32 166-96 0-68-41-76-98-109-79-46-276-119-333-167-74-61-116-125-116-252 0-368 555-367 836-224"
                id="x" />
            <g id="b">
                <use transform="matrix(0.010850694444444444,0,0,0.010850694444444444,0,0)"
                    xlink:href="#q" />
                <use
                    transform="matrix(0.010850694444444444,0,0,0.010850694444444444,12.445746527777777,0)"
                    xlink:href="#r" />
                <use
                    transform="matrix(0.010850694444444444,0,0,0.010850694444444444,19.227430555555554,0)"
                    xlink:href="#s" />
                <use
                    transform="matrix(0.010850694444444444,0,0,0.010850694444444444,32.35677083333333,0)"
                    xlink:href="#t" />
                <use
                    transform="matrix(0.010850694444444444,0,0,0.010850694444444444,43.78255208333333,0)"
                    xlink:href="#u" />
                <use
                    transform="matrix(0.010850694444444444,0,0,0.010850694444444444,53.42881944444444,0)"
                    xlink:href="#v" />
                <use
                    transform="matrix(0.010850694444444444,0,0,0.010850694444444444,63.07508680555555,0)"
                    xlink:href="#w" />
                <use
                    transform="matrix(0.010850694444444444,0,0,0.010850694444444444,76.83376736111111,0)"
                    xlink:href="#x" />
            </g>
            <pattern id="c" patternUnits="userSpaceOnUse" x="3350.11" y="1200" width="99.77"
                height="107.35">
                <use fill="var(--svg-text-color)" xlink:href="#y"
                    transform="translate(-3.7912893598359005, 0) scale(10.735335134692509,10.735335134692509)" />
            </pattern>
            <path
                d="M1079 0L973-348H440L334 0H0l516-1468h379L1413 0h-334zM899-608c-127-415-146-457-192-633-22 85-85 296-189 633h381"
                id="z" />
            <path
                d="M1384-895c-176 0-222 133-223 334V0H856v-653c-1-144-37-242-168-242-78 0-135 29-170 86s-53 152-53 283V0H160v-1118h233l41 143h17c56-98 174-164 325-164 167 0 281 55 340 164h27c55-99 179-165 330-164 265 2 385 133 385 410V0h-306v-653c-1-144-37-242-168-242"
                id="A" />
            <path
                d="M817-1485c460 0 694 282 694 752 0 468-238 753-696 753-459 0-696-285-696-755 0-471 238-750 698-750zm0 258c-273 0-374 198-373 494 0 296 98 493 371 493 247 0 371-164 371-493s-123-494-369-494"
                id="B" />
            <path
                d="M596-1225c-134-8-223 103-163 219 11 21 33 41 61 60s93 53 196 102c137 65 230 130 281 196s76 147 76 242c-3 286-231 426-539 426C352 20 214-9 94-68v-288c159 68 260 115 438 120 123 3 211-41 211-155 0-73-44-105-95-141-63-46-329-160-390-220-78-77-147-167-147-315 0-273 208-420 495-416 177 2 298 46 434 103l-100 241c-131-51-199-78-344-86"
                id="C" />
            <g id="d">
                <use transform="matrix(0.010850694444444444,0,0,0.010850694444444444,0,0)"
                    xlink:href="#z" />
                <use transform="matrix(0.010850694444444444,0,0,0.010850694444444444,15.33203125,0)"
                    xlink:href="#u" />
                <use
                    transform="matrix(0.010850694444444444,0,0,0.010850694444444444,24.97829861111111,0)"
                    xlink:href="#w" />
                <use
                    transform="matrix(0.010850694444444444,0,0,0.010850694444444444,38.736979166666664,0)"
                    xlink:href="#A" />
                <use
                    transform="matrix(0.010850694444444444,0,0,0.010850694444444444,60.55772569444444,0)"
                    xlink:href="#B" />
                <use
                    transform="matrix(0.010850694444444444,0,0,0.010850694444444444,78.24435763888889,0)"
                    xlink:href="#C" />
            </g>
            <path d="M1382 0h-309v-631H494V0H184v-1462h310v573h579v-573h309V0" id="D" />
            <path
                d="M0-1118h334l211 629c18 55 30 119 37 194h6c7-69 23-133 43-194l207-629h327L692 143C611 389 392 544 70 475V233c95 21 196 18 262-37 50-42 89-123 112-204"
                id="E" />
            <path
                d="M782-1139c293 0 422 256 422 578 0 230-70 418-202 512-65 46-141 69-228 69-131 0-234-48-309-143h-16c32 222 9 383 16 615H160v-1610h248l43 145h14c71-111 177-166 317-166zm111 574c0-190-40-330-209-330-184 0-221 128-219 332 2 209 40 336 223 336 137 0 205-113 205-338"
                id="F" />
            <path
                d="M426 0L0-1118h319l216 637c24 81 39 157 45 229h6c3-64 15-141 45-229l215-637h319L739 0H426"
                id="G" />
            <path
                d="M479-1407c-1 99-61 150-166 150-111 0-166-50-166-150 0-99 55-149 166-149s166 50 166 149zM465 0H160v-1118h305V0"
                id="H" />
            <g id="e">
                <use transform="matrix(0.010850694444444444,0,0,0.010850694444444444,0,0)"
                    xlink:href="#D" />
                <use
                    transform="matrix(0.010850694444444444,0,0,0.010850694444444444,17.003038194444443,0)"
                    xlink:href="#E" />
                <use
                    transform="matrix(0.010850694444444444,0,0,0.010850694444444444,29.64409722222222,0)"
                    xlink:href="#F" />
                <use
                    transform="matrix(0.010850694444444444,0,0,0.010850694444444444,43.70659722222222,0)"
                    xlink:href="#s" />
                <use transform="matrix(0.010850694444444444,0,0,0.010850694444444444,56.8359375,0)"
                    xlink:href="#v" />
                <use
                    transform="matrix(0.010850694444444444,0,0,0.010850694444444444,66.92708333333333,0)"
                    xlink:href="#G" />
                <use
                    transform="matrix(0.010850694444444444,0,0,0.010850694444444444,79.5681423611111,0)"
                    xlink:href="#H" />
                <use
                    transform="matrix(0.010850694444444444,0,0,0.010850694444444444,86.34982638888887,0)"
                    xlink:href="#x" />
                <use
                    transform="matrix(0.010850694444444444,0,0,0.010850694444444444,97.39583333333331,0)"
                    xlink:href="#w" />
                <use
                    transform="matrix(0.010850694444444444,0,0,0.010850694444444444,111.15451388888887,0)"
                    xlink:href="#v" />
            </g>
            <pattern id="f" patternUnits="userSpaceOnUse" x="3709.77" y="986.63" width="100.46"
                height="108.1">
                <use fill="var(--svg-text-color)" xlink:href="#I"
                    transform="translate(-3.817650937421149, 0) scale(10.809980022802783,10.809980022802783)" />
            </pattern>
            <path
                d="M1133-1128c-95-42-202-97-328-97-258 0-367 218-367 498 0 326 122 489 367 489 103 0 227-26 373-77v260C1058-5 924 20 776 20c-443 0-662-290-657-749 5-455 236-754 686-754 142 0 285 34 428 103"
                id="J" />
            <path
                d="M639-223c202 0 242-139 242-369v-526h305V0H952l-41-143h-16C834-43 709 20 551 20c-263 0-397-147-397-409v-729h305v653c1 148 42 242 180 242"
                id="K" />
            <path
                d="M92-557c0-327 132-582 430-582 141 0 248 55 322 164h10c-38-188-18-371-23-581h306V0H903l-59-145h-13C762-35 656 20 514 20 222 20 92-237 92-557zm309 4c0 190 54 330 220 330 191 0 231-123 231-332 0-214-44-336-236-336-161 0-215 151-215 338"
                id="L" />
            <g id="g">
                <use transform="matrix(0.010850694444444444,0,0,0.010850694444444444,0,0)"
                    xlink:href="#J" />
                <use transform="matrix(0.010850694444444444,0,0,0.010850694444444444,14.16015625,0)"
                    xlink:href="#r" />
                <use
                    transform="matrix(0.010850694444444444,0,0,0.010850694444444444,20.94184027777778,0)"
                    xlink:href="#w" />
                <use
                    transform="matrix(0.010850694444444444,0,0,0.010850694444444444,34.700520833333336,0)"
                    xlink:href="#K" />
                <use
                    transform="matrix(0.010850694444444444,0,0,0.010850694444444444,49.30555555555556,0)"
                    xlink:href="#L" />
            </g>
            <path
                d="M1481 0h-394L451-1106h-9c33 431 14 683 19 1106H184v-1462h391l635 1095h7c-26-429-11-678-15-1095h279V0"
                id="M" />
            <path
                d="M1079 0c-64-298-133-592-202-885h-7L666 0H338L20-1118h304c74 305 149 505 192 862h6c25-292 125-597 189-862h336c64 284 150 545 182 862h6c7-69 49-308 65-367l134-495h299L1411 0h-332"
                id="N" />
            <path
                d="M453-608l133-170 313-340h344L799-633 1270 0H918L596-453 465-348V0H160v-1556h305v694l-16 254h4"
                id="O" />
            <g id="h">
                <use transform="matrix(0.010850694444444444,0,0,0.010850694444444444,0,0)"
                    xlink:href="#M" />
                <use transform="matrix(0.010850694444444444,0,0,0.010850694444444444,18.06640625,0)"
                    xlink:href="#s" />
                <use
                    transform="matrix(0.010850694444444444,0,0,0.010850694444444444,31.195746527777775,0)"
                    xlink:href="#u" />
                <use
                    transform="matrix(0.010850694444444444,0,0,0.010850694444444444,40.842013888888886,0)"
                    xlink:href="#N" />
                <use transform="matrix(0.010850694444444444,0,0,0.010850694444444444,59.86328125,0)"
                    xlink:href="#w" />
                <use
                    transform="matrix(0.010850694444444444,0,0,0.010850694444444444,73.62196180555556,0)"
                    xlink:href="#v" />
                <use
                    transform="matrix(0.010850694444444444,0,0,0.010850694444444444,83.71310763888889,0)"
                    xlink:href="#O" />
            </g>
            <pattern id="i" patternUnits="userSpaceOnUse" x="3709.65" y="1385.35" width="100.7"
                height="100.7">
                <use fill="var(--svg-text-color)" xlink:href="#P"
                    transform="translate(0, 0) scale(10.069591358971683,10.069591358971683)" />
            </pattern>
            <path
                d="M1128-1036c0 321-241 464-585 461H371V0H201v-1462h379c365 0 548 142 548 426zm-176 8c0-218-150-286-391-287H371v594h153c270-3 428-62 428-307"
                id="Q" />
            <path
                d="M690-1114c271 2 402 123 402 399V0H926v-709c-1-177-76-266-252-266-251 0-332 135-332 402V0H176v-1556h166c-4 200 8 426-8 612h10c61-100 187-171 346-170"
                id="R" />
            <path
                d="M526-162c88-293 120-356 326-934h178L559 152c-47 123-102 209-163 262-93 80-237 94-380 61V342c184 39 305-9 367-180L444 6 2-1096h178c103 283 263 645 338 934h8"
                id="S" />
            <path
                d="M502-977c-130 0-238 32-238 139 0 75 39 101 95 134 33 19 97 46 192 81 130 48 217 95 263 143s69 108 69 181C883-73 695 20 449 20 304 20 190-3 109-49v-154c91 47 216 86 344 86 149 0 270-36 270-168 0-43-21-76-55-109-56-55-367-158-434-208-74-55-128-109-128-225 0-327 490-342 754-217l-59 135c-110-45-210-68-299-68"
                id="T" />
            <path
                d="M342 0H176v-1096h166V0zm-82-1282c-61 0-98-43-98-111 0-69 36-110 98-110 59 0 98 43 98 110s-39 111-98 111"
                id="U" />
            <path
                d="M287-543c-1 247 91 418 323 418 91 0 185-20 281-59v147C818 1 725 20 614 20c-329 0-499-221-499-561 0-349 172-575 510-575 96 0 221 26 282 57l-51 141c-61-25-157-50-235-51-223 0-334 142-334 426"
                id="V" />
            <path
                d="M588-1114c260 0 384 106 385 366V0H850l-33-156h-8C708-34 639 17 442 20 231 23 94-94 94-303c0-221 177-337 531-348l186-6c11-203-40-320-233-320-91 0-195 28-310 84l-51-127c97-53 229-94 371-94zM268-301c-1 123 81 184 207 184 203 0 334-120 332-323v-99c-257 14-539-7-539 238"
                id="W" />
            <path d="M342 0H176v-1556h166V0" id="X" />
            <g id="j">
                <use transform="matrix(0.010850694444444444,0,0,0.010850694444444444,0,0)"
                    xlink:href="#Q" />
                <use transform="matrix(0.010850694444444444,0,0,0.010850694444444444,13.37890625,0)"
                    xlink:href="#R" />
                <use
                    transform="matrix(0.010850694444444444,0,0,0.010850694444444444,27.018229166666664,0)"
                    xlink:href="#S" />
                <use
                    transform="matrix(0.010850694444444444,0,0,0.010850694444444444,38.21614583333333,0)"
                    xlink:href="#T" />
                <use
                    transform="matrix(0.010850694444444444,0,0,0.010850694444444444,48.81727430555556,0)"
                    xlink:href="#U" />
                <use
                    transform="matrix(0.010850694444444444,0,0,0.010850694444444444,54.43793402777778,0)"
                    xlink:href="#V" />
                <use
                    transform="matrix(0.010850694444444444,0,0,0.010850694444444444,65.0173611111111,0)"
                    xlink:href="#W" />
                <use
                    transform="matrix(0.010850694444444444,0,0,0.010850694444444444,77.37630208333331,0)"
                    xlink:href="#X" />
            </g>
            <path
                d="M584-1331c-162 0-287 69-287 219 0 118 43 164 123 214 44 28 112 56 203 89 153 55 259 113 317 176s86 144 86 244c-1 276-228 409-520 409-173 0-307-22-400-67v-164c109 46 257 81 406 82 199 1 342-68 342-244 0-120-47-164-132-214-47-28-121-58-218-93-136-49-234-106-292-173s-87-154-87-261c-1-239 209-369 463-369 145 0 279 27 401 80l-53 148c-121-51-238-76-352-76"
                id="Y" />
            <path
                d="M995-51C878-2 799 19 639 20c-329 2-524-221-524-559 0-326 172-577 481-577 278 0 451 210 446 493v105H287c4 242 121 392 358 393 118 0 235-25 350-74v148zM864-653c2-195-85-324-270-324-190 0-288 139-303 324h573"
                id="Z" />
            <path
                d="M340-893c80-153 237-262 467-211l-23 154c-45-10-85-15-120-15-184-3-322 182-322 377V0H176v-1096h137l19 203h8"
                id="aa" />
            <path
                d="M516-150c94-315 146-423 332-946h178L610 0H416L0-1096h178c98 281 253 670 330 946h8"
                id="ab" />
            <g id="k">
                <use transform="matrix(0.010850694444444444,0,0,0.010850694444444444,0,0)"
                    xlink:href="#Y" />
                <use
                    transform="matrix(0.010850694444444444,0,0,0.010850694444444444,12.196180555555555,0)"
                    xlink:href="#Z" />
                <use
                    transform="matrix(0.010850694444444444,0,0,0.010850694444444444,24.66362847222222,0)"
                    xlink:href="#aa" />
                <use
                    transform="matrix(0.010850694444444444,0,0,0.010850694444444444,33.73480902777778,0)"
                    xlink:href="#ab" />
                <use
                    transform="matrix(0.010850694444444444,0,0,0.010850694444444444,44.86762152777778,0)"
                    xlink:href="#Z" />
                <use
                    transform="matrix(0.010850694444444444,0,0,0.010850694444444444,57.33506944444444,0)"
                    xlink:href="#aa" />
            </g>
            <path
                d="M125-733c6-459 248-750 704-750 153 0 287 28 402 84l-72 146c-111-52-221-78-332-78-334-1-520 251-520 600 0 361 171 600 518 600 102 0 218-18 349-55v149C1073 1 948 20 799 20c-445 1-680-294-674-753"
                id="ac" />
            <path
                d="M621-1116c316 0 501 239 501 567 0 339-180 575-508 569S119-212 115-549c-4-339 178-567 506-567zm-5 141c-239 0-329 168-329 426 0 255 93 430 331 430s332-174 332-430-95-426-334-426"
                id="ad" />
            <path
                d="M563 20c-271 0-399-123-399-399v-717h168v711c1 177 76 266 252 266 250 0 331-135 331-401v-576h166V0H944l-24-147h-9C848-44 724 20 563 20"
                id="ae" />
            <path
                d="M115-545c0-330 146-571 454-571 149 0 263 54 342 162h13c-20-185-8-401-11-602h166V0H944l-22-147h-9C836-36 722 20 569 20c-309 0-454-234-454-565zm172 2c0 249 78 424 303 424 257 0 327-150 323-426-4-282-68-432-325-432-220 0-301 191-301 434"
                id="af" />
            <g id="l">
                <use transform="matrix(0.010850694444444444,0,0,0.010850694444444444,0,0)"
                    xlink:href="#ac" />
                <use
                    transform="matrix(0.010850694444444444,0,0,0.010850694444444444,14.019097222222221,0)"
                    xlink:href="#X" />
                <use
                    transform="matrix(0.010850694444444444,0,0,0.010850694444444444,19.639756944444443,0)"
                    xlink:href="#ad" />
                <use
                    transform="matrix(0.010850694444444444,0,0,0.010850694444444444,33.06206597222222,0)"
                    xlink:href="#ae" />
                <use
                    transform="matrix(0.010850694444444444,0,0,0.010850694444444444,46.701388888888886,0)"
                    xlink:href="#af" />
            </g>
            <g id="m">
                <use transform="matrix(0.010850694444444444,0,0,0.010850694444444444,0,0)"
                    xlink:href="#Q" />
                <use transform="matrix(0.010850694444444444,0,0,0.010850694444444444,13.37890625,0)"
                    xlink:href="#aa" />
                <use
                    transform="matrix(0.010850694444444444,0,0,0.010850694444444444,22.005208333333336,0)"
                    xlink:href="#ad" />
                <use
                    transform="matrix(0.010850694444444444,0,0,0.010850694444444444,34.98263888888889,0)"
                    xlink:href="#ab" />
                <use
                    transform="matrix(0.010850694444444444,0,0,0.010850694444444444,46.1154513888889,0)"
                    xlink:href="#U" />
                <use
                    transform="matrix(0.010850694444444444,0,0,0.010850694444444444,51.73611111111112,0)"
                    xlink:href="#af" />
                <use
                    transform="matrix(0.010850694444444444,0,0,0.010850694444444444,65.35373263888889,0)"
                    xlink:href="#Z" />
                <use
                    transform="matrix(0.010850694444444444,0,0,0.010850694444444444,77.82118055555556,0)"
                    xlink:href="#aa" />
            </g>
            <g id="n">
                <use transform="matrix(0.010850694444444444,0,0,0.010850694444444444,0,0)"
                    xlink:href="#Y" />
                <use
                    transform="matrix(0.010850694444444444,0,0,0.010850694444444444,12.196180555555555,0)"
                    xlink:href="#Z" />
                <use
                    transform="matrix(0.010850694444444444,0,0,0.010850694444444444,24.66362847222222,0)"
                    xlink:href="#aa" />
                <use
                    transform="matrix(0.010850694444444444,0,0,0.010850694444444444,33.73480902777778,0)"
                    xlink:href="#ab" />
                <use
                    transform="matrix(0.010850694444444444,0,0,0.010850694444444444,44.86762152777778,0)"
                    xlink:href="#U" />
                <use transform="matrix(0.010850694444444444,0,0,0.010850694444444444,50.48828125,0)"
                    xlink:href="#V" />
                <use
                    transform="matrix(0.010850694444444444,0,0,0.010850694444444444,61.06770833333333,0)"
                    xlink:href="#Z" />
                <use transform="matrix(0.010850694444444444,0,0,0.010850694444444444,73.53515625,0)"
                    xlink:href="#T" />
            </g>
            <pattern id="o" patternUnits="userSpaceOnUse" x="3709.77" y="986.63" width="100.46"
                height="108.1">
                <use fill="var(--svg-text-color)" xlink:href="#I"
                    transform="translate(-3.817650937421149, 0) scale(10.809980022802783,10.809980022802783)" />
            </pattern>
            <pattern id="p" patternUnits="userSpaceOnUse" x="3709.65" y="1385.35" width="100.7"
                height="100.7">
                <use fill="var(--svg-text-color)" xlink:href="#P"
                    transform="translate(0, 0) scale(10.069591358971683,10.069591358971683)" />
            </pattern>
        </defs>
    </g>
</svg>