<?xml version="1.0" encoding="UTF-8" standalone="no"?>
<!DOCTYPE svg PUBLIC "-//W3C//DTD SVG 1.1//EN" "http://www.w3.org/Graphics/SVG/1.1/DTD/svg11.dtd">
<svg width="100%" height="100%" viewBox="0 0 500 539" version="1.1" xmlns="http://www.w3.org/2000/svg" xmlns:xlink="http://www.w3.org/1999/xlink" xml:space="preserve" xmlns:serif="http://www.serif.com/" style="fill-rule:evenodd;clip-rule:evenodd;stroke-linejoin:round;stroke-miterlimit:2;">
    <g transform="matrix(1,0,0,1,-607.261,-302.261)">
        <g transform="matrix(1,0,0,1,857.261,571.536)">
            <g transform="matrix(1,0,0,1,-250,-269.275)">
                <clipPath id="_clip1">
                    <rect x="0" y="0" width="500" height="538.55"/>
                </clipPath>
                <g clip-path="url(#_clip1)">
                    <g id="Layer_1-2">
                        <path d="M224.941,453.229L227.64,512.37C228.52,531.46 208.65,544.19 191.86,536.06L43.31,450.3L41.64,449.34L38.51,447.53L34.36,445.13L32.16,443.86L26.86,440.8L26.28,440.46L25,439.72C9.53,430.79 0,414.28 0,396.42L0,165.48C0,147.61 9.53,131.11 25,122.18L225,6.7C240.47,-2.23 259.53,-2.23 275,6.7L475,122.18C490.47,131.11 500,147.61 500,165.48L500,396.42C500,414.28 490.47,430.79 475,439.72L473.72,440.46L473.14,440.8L467.84,443.86L465.64,445.13L461.49,447.53L458.36,449.34L456.69,450.3L308.14,536.06C291.35,544.19 271.49,531.46 272.36,512.37L275.059,453.229C266.87,454.378 258.504,454.973 250,454.973C241.496,454.973 233.13,454.378 224.941,453.229ZM391.309,385.756L391.51,385.85L392.33,384.43C391.992,384.873 391.651,385.315 391.309,385.756ZM107.67,384.43L108.49,385.85L108.691,385.756C108.349,385.315 108.008,384.873 107.67,384.43ZM250,105.674C153.682,105.674 75.484,183.872 75.484,280.19C75.484,376.509 153.682,454.707 250,454.707C346.318,454.707 424.516,376.509 424.516,280.19C424.516,183.872 346.318,105.674 250,105.674Z" style="fill:rgb(239,64,86);"/>
                        <g transform="matrix(1.50359,-0.8681,0.584968,1.01319,-170.909,70.2213)">
                            <path d="M149.484,186.144C204.96,186.144 250,252.984 250,335.312C250,417.64 204.96,484.48 149.484,484.48C175.294,457.89 196.248,400.204 196.248,335.312C196.248,270.42 175.294,212.734 149.484,186.144Z" style="fill:rgb(239,64,86);"/>
                        </g>
                    </g>
                </g>
            </g>
        </g>
    </g>
</svg>
