<?xml version="1.0" encoding="UTF-8" standalone="no"?>
<!DOCTYPE svg PUBLIC "-//W3C//DTD SVG 1.1//EN" "http://www.w3.org/Graphics/SVG/1.1/DTD/svg11.dtd">
<svg width="100%" height="100%" viewBox="0 0 500 539" version="1.1" xmlns="http://www.w3.org/2000/svg" xmlns:xlink="http://www.w3.org/1999/xlink" xml:space="preserve" xmlns:serif="http://www.serif.com/" style="fill-rule:evenodd;clip-rule:evenodd;stroke-linejoin:round;stroke-miterlimit:2;">
    <g id="Layer_1-2">
        <path d="M500,165.48L500,396.42C500,414.28 490.47,430.79 475,439.72L473.72,440.46L473.14,440.8L467.84,443.86L465.64,445.13L461.49,447.53L458.36,449.34L456.69,450.3L308.14,536.06C291.35,544.19 271.49,531.46 272.36,512.37L276.83,414.42L280.52,333.81L281.39,323.59C282.65,308.79 290.43,295.31 302.62,286.82L311.04,280.95L411.6,210.85L391.51,176.05L280.52,228.09L271.23,232.45C257.78,238.75 242.22,238.75 228.77,232.45L219.48,228.09L108.49,176.05L88.4,210.85L188.96,280.95L197.37,286.81C209.57,295.3 217.35,308.78 218.61,323.59L219.48,333.81L223.17,414.42L227.64,512.37C228.52,531.46 208.65,544.19 191.86,536.06L43.31,450.3L41.64,449.34L38.51,447.53L34.36,445.13L32.16,443.86L26.86,440.8L26.28,440.46L25,439.72C9.53,430.79 0,414.28 0,396.42L0,165.48C0,147.61 9.53,131.11 25,122.18L225,6.7C240.47,-2.23 259.53,-2.23 275,6.7L475,122.18C490.47,131.11 500,147.61 500,165.48Z" style="fill:rgb(0,104,156);fill-rule:nonzero;"/>
    </g>
</svg>
