<?xml version="1.0" encoding="UTF-8"?>
<svg id="Layer_2" data-name="Layer 2" xmlns="http://www.w3.org/2000/svg" viewBox="0 0 500 538.55">
  <defs>
    <style>
      .cls-1 {
        fill: #ff2350;
      }
    </style>
  </defs>
  <g id="Layer_1-2" data-name="Layer 1">
    <g>
      <path class="cls-1" d="M275,410.84c-15.47,8.93-34.53,8.93-50,0l-74.99-43.3c-15.47-8.93-25-25.44-25-43.3v-86.6c0-17.86,9.53-34.37,25-43.3l74.99-43.3c15.47-8.93,34.53-8.93,50,0l75,43.3c15.47,8.93,25,25.44,25,43.3v86.6c0,17.86-9.53,34.37-25,43.3l-75,43.3Z"/>
      <path class="cls-1" d="M0,396.42v-230.94c0-13.96,5.82-27.09,15.74-36.42.79-.75,1.61-1.47,2.46-2.17.84-.69,1.71-1.36,2.61-2.01.67-.48,1.36-.94,2.05-1.4.7-.46,1.41-.89,2.14-1.31L225,6.7c15.47-8.93,34.53-8.93,50,0l200,115.47c.73.42,1.44.85,2.14,1.31.69.46,1.38.92,2.05,1.4.9.65,1.77,1.32,2.61,2.01h.01c.84.69,1.66,1.41,2.45,2.17.4.38.79.75,1.17,1.14,1.54,1.54,2.97,3.17,4.28,4.89,1.97,2.58,3.68,5.34,5.12,8.24.48.96.93,1.95,1.34,2.95,2.49,5.99,3.83,12.5,3.83,19.2v230.94c0,10.68-3.41,20.88-9.47,29.27-.58.81-1.19,1.6-1.82,2.37-1.02,1.25-2.11,2.46-3.27,3.62-.77.78-1.56,1.52-2.38,2.25,0,.01-.01.01-.01.01-.82.72-1.66,1.42-2.53,2.08t-.01.01c-.44.33-.88.66-1.32.98-1.35.96-2.74,1.86-4.19,2.7l-166.98,96.41c-16.76,8.01-36.53-4.71-35.66-23.75l.68-14.94c.39-8.52,5.09-16.25,12.48-20.51,33.59-19.38,126.98-73.29,126.98-73.29,15.47-8.93,25-25.44,25-43.3v-158.78c0-17.86-9.53-34.37-25-43.3l-137.5-79.38c-15.47-8.93-34.53-8.93-50,0l-137.5,79.38c-15.47,8.93-25,25.44-25,43.3v158.78c0,17.86,9.53,34.37,25,43.3,0,0,93.39,53.91,126.98,73.29,7.39,4.26,12.09,11.99,12.48,20.51l.68,14.94c.88,19.04-18.9,31.76-35.66,23.75L25,439.71c-3.93-2.27-7.47-5.03-10.57-8.16-1.87-1.89-3.57-3.91-5.1-6.05-5.97-8.35-9.33-18.48-9.33-29.08Z"/>
      <path class="cls-1" d="M125.01,324.24v-86.6c0-17.86,9.53-34.37,25-43.3l74.99-43.3c15.47-8.93,34.53-8.93,50,0l75,43.3c15.47,8.93,25,25.44,25,43.3v86.6c0,17.86-9.53,34.37-25,43.3l-75,43.3c-15.47,8.93-34.53,8.93-50,0l-74.99-43.3c-15.47-8.93-25-25.44-25-43.3Z"/>
      <path class="cls-1" d="M125.01,324.24v-86.6c0-17.86,9.53-34.37,25-43.3l74.99-43.3c15.47-8.93,34.53-8.93,50,0l75,43.3c15.47,8.93,25,25.44,25,43.3v86.6c0,17.86-9.53,34.37-25,43.3l-75,43.3c-15.47,8.93-34.53,8.93-50,0l-74.99-43.3c-15.47-8.93-25-25.44-25-43.3Z"/>
    </g>
  </g>
</svg>