<?xml version="1.0" encoding="UTF-8"?>
<svg id="Layer_2" data-name="Layer 2" xmlns="http://www.w3.org/2000/svg" viewBox="0 0 500 538.55">
  <defs>
    <style>
      .cls-1 {
        fill: #ef4056;
      }
    </style>
  </defs>
  <g id="Layer_1-2" data-name="Layer 1">
    <path class="cls-1" d="M475,122.17L275,6.7c-15.47-8.93-34.53-8.93-50,0L25,122.17C9.53,131.1,0,147.61,0,165.47v230.94c0,17.86,9.53,34.37,25,43.3,0,0,105.67,61.12,165.18,95.45,17.11,9.87,38.36-3.07,37.46-22.8l-6.45-141.19c-.81-17.8-19.45-29.06-35.59-21.49l-77.11,36.16-20.09-34.8,100.56-70.1,8.42-5.87c12.19-8.5,19.97-21.97,21.23-36.78l.87-10.21,10.43-122.14h40.18l10.43,122.14.87,10.22c1.26,14.81,9.04,28.29,21.24,36.78l8.41,5.86,100.56,70.1-20.09,34.8-77.11-36.16c-16.13-7.56-34.77,3.69-35.59,21.49l-6.45,141.18c-.9,19.73,20.35,32.67,37.46,22.8,59.51-34.34,165.18-95.45,165.18-95.45,15.47-8.93,25-25.44,25-43.3v-230.94c0-17.86-9.53-34.37-25-43.3Z"/>
  </g>
</svg>