<?xml version="1.0" encoding="UTF-8"?>
<svg id="Layer_2" data-name="Layer 2" xmlns="http://www.w3.org/2000/svg" viewBox="0 0 500 538.55">
  <defs>
    <style>
      .cls-1 {
        fill: #ffa600;
      }
    </style>
  </defs>
  <g id="Layer_1-2" data-name="Layer 1">
    <path class="cls-1" d="M500,165.48v230.94c0,11.72-4.1,22.86-11.3,31.65-1.03,1.26-2.12,2.48-3.27,3.62-3.07,3.1-6.56,5.8-10.43,8.03l-1.28.74-.58.34-5.3,3.06-2.2,1.27-4.15,2.4-3.13,1.81-1.67.96-148.55,85.76c-16.7,8.09-36.45-4.47-35.79-23.4v-.29s8.18-178.57,8.18-178.57l2.85-33.59,1.65-19.27-1.65-19.27-2.85-33.59-10.44-122.14h-40.17l-10.44,122.14-2.85,33.58-1.65,19.28,1.65,19.28,2.85,33.58,3.69,80.62,4.47,97.95c.88,19.09-18.99,31.82-35.78,23.69l-148.55-85.76-1.67-.96-3.13-1.81-4.15-2.4-2.2-1.27-5.3-3.06-.58-.34-1.28-.74c-15.47-8.93-25-25.44-25-43.3v-230.94c0-17.87,9.53-34.37,25-43.3L225,6.7c15.48-8.93,34.53-8.93,50,0l200,115.48c3.87,2.23,7.36,4.93,10.43,8.02,1.15,1.15,2.24,2.36,3.27,3.62,7.2,8.8,11.3,19.93,11.3,31.66Z"/>
  </g>
</svg>