<?xml version="1.0" encoding="UTF-8" standalone="no"?>
<!DOCTYPE svg PUBLIC "-//W3C//DTD SVG 1.1//EN" "http://www.w3.org/Graphics/SVG/1.1/DTD/svg11.dtd">
<svg width="100%" height="100%" viewBox="0 0 413 400" version="1.1" xmlns="http://www.w3.org/2000/svg" xmlns:xlink="http://www.w3.org/1999/xlink" xml:space="preserve" xmlns:serif="http://www.serif.com/" style="fill-rule:evenodd;clip-rule:evenodd;stroke-linejoin:round;stroke-miterlimit:2;">
    <g id="Layer_1-2">
        <g>
            <g>
                <g>
                    <path d="M95.634,382.608L95.634,358.475L99.363,358.475L107.6,375.611L115.809,358.475L119.538,358.475L119.538,382.608L117.022,382.608L117.022,361.506L107.572,380.882L98.123,361.542L98.123,382.608L95.634,382.608Z" style="fill-rule:nonzero;"/>
                    <path d="M132.394,382.948C130.759,382.948 129.272,382.553 127.931,381.754C126.59,380.965 125.525,379.89 124.745,378.531C123.964,377.172 123.569,375.657 123.569,373.976C123.569,372.296 123.964,370.781 124.745,369.421C125.525,368.062 126.59,366.988 127.931,366.198C129.272,365.408 130.759,365.004 132.394,365.004C134.029,365.004 135.544,365.399 136.875,366.198C138.207,366.988 139.263,368.062 140.044,369.421C140.824,370.781 141.219,372.296 141.219,373.976C141.219,375.657 140.824,377.172 140.044,378.531C139.263,379.89 138.207,380.965 136.875,381.754C135.544,382.544 134.047,382.948 132.394,382.948ZM132.394,380.671C133.569,380.671 134.626,380.368 135.581,379.771C136.536,379.174 137.289,378.366 137.858,377.356C138.418,376.346 138.703,375.216 138.703,373.976C138.703,372.737 138.418,371.58 137.858,370.579C137.298,369.578 136.536,368.779 135.581,368.182C134.626,367.585 133.56,367.282 132.394,367.282C131.228,367.282 130.163,367.585 129.208,368.182C128.252,368.779 127.49,369.578 126.93,370.579C126.37,371.58 126.085,372.709 126.085,373.976C126.085,375.244 126.37,376.346 126.93,377.356C127.49,378.366 128.252,379.174 129.208,379.771C130.163,380.368 131.228,380.671 132.394,380.671Z" style="fill-rule:nonzero;"/>
                    <path d="M152.661,382.884C151.054,382.884 149.585,382.489 148.262,381.69C146.94,380.9 145.893,379.826 145.122,378.485C144.35,377.144 143.965,375.629 143.965,373.949C143.965,372.268 144.35,370.762 145.122,369.431C145.893,368.099 146.94,367.034 148.262,366.244C149.585,365.454 151.063,365.05 152.689,365.05C153.699,365.05 154.672,365.216 155.618,365.546C156.564,365.877 157.418,366.373 158.208,367.016L158.208,358.466L160.761,357.878L160.761,382.599L158.244,382.599L158.244,380.772C156.729,382.177 154.865,382.875 152.661,382.875L152.661,382.884ZM152.909,380.643C153.993,380.643 154.994,380.432 155.93,380.01C156.858,379.587 157.629,378.99 158.226,378.237L158.226,369.688C157.629,368.953 156.867,368.375 155.93,367.943C155.003,367.521 153.993,367.309 152.909,367.309C151.715,367.309 150.632,367.594 149.649,368.173C148.676,368.751 147.904,369.532 147.335,370.533C146.775,371.534 146.49,372.663 146.49,373.93C146.49,375.198 146.775,376.336 147.335,377.346C147.895,378.357 148.666,379.165 149.649,379.762C150.622,380.359 151.715,380.662 152.909,380.662L152.909,380.643Z" style="fill-rule:nonzero;"/>
                    <path d="M171.734,382.948C170.421,382.948 169.264,382.663 168.254,382.103C167.244,381.543 166.454,380.763 165.894,379.762C165.334,378.761 165.049,377.594 165.049,376.263L165.049,365.335L167.565,365.335L167.565,375.749C167.565,377.291 168.006,378.504 168.878,379.385C169.751,380.267 170.926,380.717 172.396,380.717C173.433,380.717 174.351,380.478 175.169,380.01C175.986,379.541 176.647,378.88 177.152,378.026L177.152,365.335L179.705,365.335L179.705,382.608L177.152,382.608L177.152,380.606C175.793,382.168 173.993,382.948 171.744,382.948L171.734,382.948Z" style="fill-rule:nonzero;"/>
                    <path d="M184.04,382.608L184.04,358.475L186.593,357.888L186.593,382.608L184.04,382.608Z" style="fill-rule:nonzero;"/>
                    <path d="M196.382,382.911C195.114,382.911 194.012,382.691 193.057,382.259C192.102,381.819 191.359,381.213 190.817,380.432C190.275,379.651 190.009,378.742 190.009,377.705C190.009,376.07 190.633,374.784 191.873,373.839C193.113,372.893 194.793,372.424 196.905,372.424C198.769,372.424 200.459,372.819 201.974,373.6L201.974,371.322C201.974,369.945 201.579,368.907 200.799,368.2C200.018,367.502 198.879,367.144 197.383,367.144C196.529,367.144 195.675,367.263 194.811,367.502C193.948,367.741 193.002,368.127 191.965,368.659L191,366.694C192.24,366.097 193.388,365.656 194.444,365.381C195.5,365.105 196.556,364.968 197.612,364.968C199.798,364.968 201.478,365.482 202.663,366.52C203.848,367.557 204.435,369.036 204.435,370.964L204.435,382.581L201.956,382.581L201.956,380.891C201.175,381.562 200.321,382.057 199.385,382.388C198.457,382.719 197.447,382.884 196.363,382.884L196.382,382.911ZM192.451,377.64C192.451,378.605 192.855,379.394 193.673,380C194.49,380.606 195.537,380.919 196.832,380.919C197.869,380.919 198.806,380.763 199.66,380.432C200.514,380.111 201.276,379.606 201.974,378.917L201.974,375.675C201.258,375.188 200.505,374.84 199.697,374.619C198.889,374.399 197.98,374.289 196.969,374.289C195.592,374.289 194.49,374.592 193.673,375.207C192.855,375.813 192.451,376.63 192.451,377.64Z" style="fill-rule:nonzero;"/>
                    <path d="M208.733,382.608L208.733,365.335L211.286,365.335L211.286,367.787C211.818,366.887 212.489,366.198 213.306,365.702C214.123,365.206 215.06,364.959 216.116,364.959C216.713,364.959 217.255,365.041 217.732,365.197L217.732,367.539C217.429,367.429 217.135,367.346 216.832,367.3C216.529,367.254 216.235,367.227 215.932,367.227C214.876,367.227 213.949,367.53 213.159,368.145C212.369,368.751 211.736,369.633 211.277,370.781L211.277,382.608L208.724,382.608L208.733,382.608Z" style="fill-rule:nonzero;"/>
                </g>
                <g>
                    <path d="M241.902,382.948C240.157,382.948 238.523,382.636 237.008,382.002C235.492,381.369 234.161,380.487 233.004,379.348C231.856,378.21 230.965,376.887 230.331,375.381C229.698,373.875 229.386,372.25 229.386,370.505C229.386,368.76 229.698,367.135 230.331,365.629C230.965,364.123 231.856,362.801 233.004,361.662C234.152,360.523 235.483,359.642 237.008,359.008C238.523,358.374 240.157,358.062 241.902,358.062C243.169,358.062 244.382,358.218 245.539,358.53C246.696,358.843 247.779,359.293 248.78,359.871C249.781,360.459 250.672,361.175 251.453,362.029L249.699,363.893C248.753,362.81 247.596,361.983 246.218,361.395C244.841,360.808 243.399,360.514 241.911,360.514C240.506,360.514 239.212,360.771 238.018,361.276C236.824,361.781 235.786,362.488 234.895,363.397C234.014,364.307 233.325,365.363 232.829,366.566C232.333,367.769 232.085,369.091 232.085,370.514C232.085,371.938 232.333,373.223 232.829,374.445C233.325,375.666 234.023,376.722 234.914,377.631C235.814,378.54 236.861,379.247 238.073,379.752C239.276,380.258 240.58,380.515 241.985,380.515C243.482,380.515 244.905,380.221 246.264,379.633C247.623,379.045 248.762,378.237 249.68,377.2L251.407,378.99C250.599,379.817 249.699,380.533 248.698,381.13C247.697,381.727 246.622,382.186 245.474,382.489C244.326,382.801 243.142,382.957 241.921,382.957L241.902,382.948Z" style="fill-rule:nonzero;"/>
                    <path d="M254.942,382.572L254.942,358.439L257.495,357.851L257.495,382.572L254.942,382.572Z" style="fill-rule:nonzero;"/>
                    <path d="M269.865,382.911C268.23,382.911 266.742,382.517 265.402,381.718C264.061,380.928 262.996,379.853 262.215,378.494C261.435,377.135 261.04,375.62 261.04,373.94C261.04,372.259 261.435,370.744 262.215,369.385C262.996,368.026 264.061,366.951 265.402,366.162C266.742,365.372 268.23,364.968 269.865,364.968C271.499,364.968 273.014,365.363 274.346,366.162C275.677,366.951 276.734,368.026 277.514,369.385C278.295,370.744 278.69,372.259 278.69,373.94C278.69,375.62 278.295,377.135 277.514,378.494C276.734,379.853 275.677,380.928 274.346,381.718C273.014,382.507 271.518,382.911 269.865,382.911ZM269.865,380.643C271.04,380.643 272.096,380.34 273.051,379.743C274.006,379.146 274.759,378.338 275.329,377.328C275.889,376.318 276.173,375.188 276.173,373.949C276.173,372.709 275.889,371.552 275.329,370.551C274.768,369.55 274.006,368.751 273.051,368.154C272.096,367.557 271.031,367.254 269.865,367.254C268.698,367.254 267.633,367.557 266.678,368.154C265.723,368.751 264.961,369.55 264.401,370.551C263.841,371.552 263.556,372.681 263.556,373.949C263.556,375.216 263.841,376.318 264.401,377.328C264.961,378.338 265.723,379.146 266.678,379.743C267.633,380.34 268.698,380.643 269.865,380.643Z" style="fill-rule:nonzero;"/>
                    <path d="M288.864,382.911C287.551,382.911 286.394,382.627 285.384,382.067C284.374,381.506 283.584,380.726 283.024,379.725C282.464,378.724 282.179,377.558 282.179,376.226L282.179,365.298L284.695,365.298L284.695,375.712C284.695,377.255 285.136,378.467 286.008,379.348C286.881,380.23 288.056,380.68 289.526,380.68C290.563,380.68 291.482,380.441 292.299,379.973C293.116,379.505 293.777,378.843 294.282,377.989L294.282,365.298L296.835,365.298L296.835,382.572L294.282,382.572L294.282,380.57C292.923,382.131 291.123,382.911 288.874,382.911L288.864,382.911Z" style="fill-rule:nonzero;"/>
                    <path d="M309.067,382.847C307.46,382.847 305.991,382.452 304.668,381.653C303.346,380.864 302.299,379.789 301.528,378.448C300.756,377.108 300.371,375.593 300.371,373.912C300.371,372.232 300.756,370.725 301.528,369.394C302.299,368.062 303.346,366.997 304.668,366.207C305.991,365.418 307.469,365.014 309.095,365.014C310.105,365.014 311.078,365.179 312.024,365.51C312.97,365.84 313.824,366.336 314.614,366.979L314.614,358.429L317.167,357.842L317.167,382.562L314.65,382.562L314.65,380.735C313.135,382.14 311.271,382.838 309.067,382.838L309.067,382.847ZM309.315,380.606C310.399,380.606 311.4,380.395 312.336,379.973C313.264,379.55 314.035,378.954 314.632,378.201L314.632,369.651C314.035,368.916 313.273,368.338 312.336,367.906C311.409,367.484 310.399,367.273 309.315,367.273C308.121,367.273 307.038,367.557 306.055,368.136C305.082,368.714 304.31,369.495 303.741,370.496C303.181,371.497 302.896,372.626 302.896,373.894C302.896,375.161 303.181,376.3 303.741,377.31C304.301,378.32 305.072,379.128 306.055,379.725C307.028,380.322 308.121,380.625 309.315,380.625L309.315,380.606Z" style="fill-rule:nonzero;"/>
                </g>
            </g>
            <g>
                <path d="M16.862,278.757L16.862,337.823L62.594,337.823L62.594,327.189L29.094,327.189L29.094,313.102L58.489,313.102L58.489,302.89L29.094,302.89L29.094,289.391L61.115,289.391L61.115,278.757L16.862,278.757Z" style="fill-rule:nonzero;"/>
                <path d="M82.75,276.81L82.75,337.823L71.189,337.823L71.189,282.348L82.75,276.81Z" style="fill-rule:nonzero;"/>
                <path d="M101.392,311.495L122.825,311.495C122.375,309.75 121.632,308.216 120.585,306.894C119.538,305.572 118.298,304.543 116.829,303.818C115.369,303.083 113.789,302.725 112.099,302.725C110.3,302.725 108.665,303.074 107.205,303.781C105.745,304.488 104.514,305.498 103.532,306.821C102.549,308.143 101.833,309.704 101.383,311.504L101.392,311.495ZM113.293,338.667C108.904,338.667 104.928,337.639 101.355,335.591C97.783,333.534 94.955,330.807 92.879,327.409C90.795,324.011 89.757,320.173 89.757,315.893C89.757,311.614 90.758,307.84 92.751,304.378C94.743,300.916 97.462,298.179 100.896,296.15C104.331,294.12 108.123,293.11 112.283,293.11C116.443,293.11 120.254,294.139 123.551,296.187C126.838,298.244 129.428,301.035 131.31,304.58C133.193,308.125 134.139,312.174 134.139,316.729L134.139,319.769L101.566,319.769C102.072,321.513 102.916,323.084 104.101,324.489C105.286,325.894 106.718,326.977 108.408,327.74C110.088,328.502 111.925,328.878 113.89,328.878C115.855,328.878 117.6,328.584 119.29,327.997C120.97,327.409 122.412,326.546 123.587,325.425L131.182,332.349C128.482,334.544 125.709,336.142 122.871,337.161C120.024,338.172 116.838,338.686 113.293,338.686L113.293,338.667Z" style="fill-rule:nonzero;"/>
                <path d="M141.219,337.823L141.219,293.863L152.78,293.863L152.78,297.233C155.93,294.423 159.76,293.018 164.259,293.018C167.124,293.018 169.687,293.597 171.936,294.745C174.186,295.902 176.041,297.518 177.51,299.593C179.31,297.454 181.45,295.828 183.92,294.699C186.391,293.579 189.118,293.009 192.102,293.009C195.362,293.009 198.246,293.753 200.753,295.241C203.26,296.728 205.225,298.785 206.658,301.403C208.09,304.02 208.806,307.041 208.806,310.475L208.806,337.813L197.245,337.813L197.245,312.248C197.245,309.383 196.501,307.114 195.013,305.452C193.526,303.79 191.515,302.964 188.98,302.964C187.235,302.964 185.647,303.313 184.214,304.02C184.049,304.102 183.874,304.213 183.691,304.332C181.836,305.599 180.798,307.748 180.798,309.989L180.798,337.804L169.237,337.804L169.237,312.239C169.237,309.373 168.493,307.105 166.996,305.443C165.508,303.781 163.497,302.954 160.963,302.954C159.218,302.954 157.657,303.294 156.279,303.965C154.13,305.021 152.78,307.206 152.78,309.594L152.78,337.795L141.219,337.795L141.219,337.823Z" style="fill-rule:nonzero;"/>
                <path d="M227.2,311.495L248.633,311.495C248.183,309.75 247.44,308.216 246.402,306.894C245.355,305.572 244.106,304.543 242.646,303.818C241.186,303.083 239.606,302.725 237.917,302.725C236.117,302.725 234.482,303.074 233.022,303.781C231.553,304.488 230.331,305.498 229.349,306.821C228.366,308.143 227.65,309.704 227.2,311.504L227.2,311.495ZM239.092,338.667C234.703,338.667 230.726,337.639 227.154,335.591C223.582,333.534 220.754,330.807 218.669,327.409C216.584,324.011 215.547,320.173 215.547,315.893C215.547,311.614 216.548,307.84 218.54,304.378C220.533,300.916 223.251,298.179 226.686,296.15C230.111,294.12 233.913,293.11 238.073,293.11C242.233,293.11 246.044,294.139 249.34,296.187C252.628,298.244 255.218,301.035 257.1,304.58C258.983,308.125 259.929,312.174 259.929,316.729L259.929,319.769L227.356,319.769C227.861,321.513 228.706,323.084 229.891,324.489C231.075,325.894 232.508,326.977 234.198,327.74C235.887,328.502 237.715,328.878 239.68,328.878C241.645,328.878 243.39,328.584 245.079,327.997C246.769,327.409 248.202,326.546 249.386,325.425L256.981,332.349C254.281,334.544 251.508,336.142 248.67,337.161C245.823,338.172 242.637,338.686 239.092,338.686L239.092,338.667Z" style="fill-rule:nonzero;"/>
                <path d="M267.018,337.823L267.018,293.863L278.579,293.863L278.579,297.491C281.959,294.506 286.091,293.018 290.986,293.018C294.365,293.018 297.359,293.762 299.976,295.25C302.593,296.738 304.632,298.795 306.092,301.412C307.552,304.029 308.287,307.05 308.287,310.485L308.287,337.823L296.817,337.823L296.817,312.257C296.817,309.392 295.99,307.124 294.328,305.461C292.666,303.799 290.435,302.973 287.625,302.973C285.659,302.973 283.915,303.349 282.39,304.112C280.058,305.278 278.589,307.665 278.589,310.273L278.589,337.823L267.018,337.823Z" style="fill-rule:nonzero;"/>
                <path d="M336.543,338.493C331.703,338.493 328.03,337.382 325.532,335.159C323.025,332.937 321.776,329.714 321.776,325.499L321.776,303.478L312.75,303.478L312.75,293.863L321.776,293.863L321.776,285.516L333.255,280.024L333.255,293.863L345.91,293.863L345.91,303.478L333.255,303.478L333.255,323.047C333.255,325.076 333.714,326.518 334.642,327.391C335.569,328.263 337.131,328.695 339.325,328.695C340.51,328.695 341.557,328.621 342.493,328.483C343.421,328.346 344.449,328.107 345.57,327.767L345.57,337.216C344.385,337.611 342.925,337.914 341.18,338.144C339.436,338.364 337.893,338.484 336.543,338.484L336.543,338.493Z" style="fill-rule:nonzero;"/>
                <path d="M372.495,328.621C374.8,328.621 376.884,328.043 378.739,326.895C380.594,325.738 382.054,324.204 383.129,322.294C384.194,320.384 384.736,318.217 384.736,315.792C384.736,313.368 384.185,311.293 383.092,309.383C381.999,307.473 380.53,305.948 378.702,304.828C376.875,303.707 374.836,303.138 372.586,303.138C370.337,303.138 368.197,303.698 366.342,304.828C364.487,305.957 363.018,307.473 361.952,309.383C360.887,311.293 360.345,313.432 360.345,315.792C360.345,318.152 360.878,320.375 361.952,322.294C363.018,324.204 364.469,325.738 366.296,326.895C368.123,328.052 370.19,328.621 372.495,328.621ZM372.495,338.667C368.105,338.667 364.138,337.657 360.593,335.628C357.049,333.608 354.239,330.862 352.154,327.4C350.07,323.938 349.032,320.099 349.032,315.884C349.032,311.669 350.07,307.739 352.154,304.286C354.239,300.824 357.049,298.097 360.593,296.104C364.138,294.111 368.105,293.11 372.495,293.11C376.884,293.11 380.851,294.111 384.387,296.104C387.931,298.097 390.741,300.833 392.826,304.286C394.901,307.748 395.948,311.614 395.948,315.884C395.948,320.154 394.92,323.938 392.872,327.4C390.815,330.862 388.023,333.598 384.478,335.628C380.934,337.657 376.939,338.667 372.495,338.667Z" style="fill-rule:nonzero;"/>
            </g>
            <g>
                <path d="M104.119,140.524L104.119,117.043L206.4,108.31L308.691,117.043L308.691,140.524L206.4,149.257L104.119,140.524Z" style="fill-rule:nonzero;"/>
                <path d="M199.88,17.783C204.004,15.809 208.806,15.809 212.939,17.783C232.196,26.994 288.387,53.882 304.393,61.541C307.019,62.799 308.691,65.453 308.691,68.364L308.691,88.383C308.691,88.383 237.862,67.381 214.087,60.329C209.073,58.841 203.737,58.841 198.723,60.329C174.948,67.381 104.119,88.383 104.119,88.383L104.119,68.364C104.119,65.453 105.791,62.799 108.417,61.541C124.432,53.882 180.624,27.003 199.88,17.783" style="fill-rule:nonzero;"/>
                <path d="M212.939,239.784C208.806,241.758 204.004,241.758 199.88,239.784C180.624,230.573 124.432,203.685 108.426,196.027C105.8,194.769 104.129,192.115 104.129,189.204L104.129,169.185C104.129,169.185 174.958,190.186 198.733,197.239C203.747,198.727 209.082,198.727 214.096,197.239C237.871,190.186 308.7,169.185 308.7,169.185L308.7,189.204C308.7,192.115 307.028,194.769 304.402,196.027C288.396,203.685 232.205,230.573 212.948,239.784" style="fill-rule:nonzero;"/>
            </g>
        </g>
        <path d="M403.213,300.445C401.879,300.445 400.662,300.117 399.563,299.462C398.463,298.807 397.586,297.924 396.931,296.813C396.276,295.701 395.948,294.467 395.948,293.11C395.948,291.73 396.276,290.49 396.931,289.39C397.586,288.291 398.463,287.413 399.563,286.758C400.662,286.103 401.879,285.776 403.213,285.776C404.57,285.776 405.792,286.103 406.88,286.758C407.968,287.413 408.839,288.296 409.494,289.408C410.149,290.519 410.477,291.753 410.477,293.11C410.477,294.467 410.149,295.701 409.494,296.813C408.839,297.924 407.968,298.807 406.88,299.462C405.792,300.117 404.57,300.445 403.213,300.445ZM403.177,298.725C404.254,298.725 405.195,298.485 406.003,298.006C406.81,297.526 407.447,296.859 407.915,296.005C408.383,295.151 408.617,294.186 408.617,293.11C408.617,292.011 408.383,291.04 407.915,290.197C407.447,289.355 406.81,288.694 406.003,288.215C405.195,287.735 404.254,287.495 403.177,287.495C402.148,287.495 401.224,287.735 400.405,288.215C399.586,288.694 398.949,289.355 398.492,290.197C398.036,291.04 397.808,292.011 397.808,293.11C397.808,294.186 398.036,295.151 398.492,296.005C398.949,296.859 399.586,297.526 400.405,298.006C401.224,298.485 402.148,298.725 403.177,298.725ZM400.581,296.374L400.581,289.776L403.739,289.776C404.417,289.776 404.961,289.969 405.371,290.355C405.78,290.741 405.985,291.25 405.985,291.882C405.985,292.256 405.886,292.607 405.687,292.935C405.488,293.262 405.213,293.52 404.862,293.707L406.371,296.374L404.336,296.374L403.177,294.093L402.441,294.093L402.441,296.374L400.581,296.374ZM403.318,291.18L402.441,291.18L402.441,292.794L403.283,292.794C403.868,292.794 404.16,292.525 404.16,291.987C404.16,291.73 404.09,291.531 403.95,291.391C403.809,291.25 403.599,291.18 403.318,291.18Z" style="fill-rule:nonzero;"/>
    </g>
</svg>
