<?xml version="1.0" encoding="UTF-8"?>
<svg id="Layer_2" data-name="Layer 2" xmlns="http://www.w3.org/2000/svg" viewBox="0 0 539.37 126.94">
  <defs>
    <style>
      .cls-1 {
        fill: #16161d;
      }
    </style>
  </defs>
  <g id="Layer_1-2" data-name="Layer 1">
    <g>
      <g>
        <g>
          <g>
            <path class="cls-1" d="M38.22.59c1.65-.79,3.56-.79,5.21,0,7.69,3.68,30.12,14.41,36.51,17.47,1.05.5,1.72,1.56,1.72,2.72v7.99s-28.27-8.38-37.76-11.2c-2-.59-4.13-.59-6.13,0C28.27,20.39,0,28.77,0,28.77v-7.99c0-1.16.67-2.22,1.72-2.72C8.11,15,30.54,4.27,38.22.59h0Z"/>
            <path class="cls-1" d="M43.44,89.21c-1.65.79-3.57.79-5.21,0-7.69-3.68-30.12-14.41-36.51-17.47C.67,71.24,0,70.18,0,69.02v-7.99s28.27,8.38,37.76,11.2c2,.59,4.13.59,6.13,0,9.49-2.82,37.76-11.2,37.76-11.2v7.99c0,1.16-.67,2.22-1.72,2.72-6.39,3.06-28.82,13.79-36.51,17.47h0Z"/>
          </g>
          <polygon class="cls-1" points="0 40.21 0 49.59 40.83 53.07 81.66 49.59 81.66 40.21 40.83 36.73 0 40.21"/>
        </g>
        <polygon class="cls-1" points="126.56 13.47 126.56 77.79 176.36 77.79 176.36 66.21 139.88 66.21 139.88 50.87 171.89 50.87 171.89 39.75 139.88 39.75 139.88 25.05 174.75 25.05 174.75 13.47 126.56 13.47"/>
        <polygon class="cls-1" points="198.31 11.36 198.31 77.79 185.72 77.79 185.72 17.38 198.31 11.36"/>
        <path class="cls-1" d="M218.61,49.13h23.34c-.49-1.9-1.3-3.57-2.44-5.01-1.14-1.44-2.49-2.56-4.09-3.35-1.59-.8-3.31-1.19-5.15-1.19-1.96,0-3.74.38-5.33,1.15-1.59.77-2.93,1.87-4,3.31-1.07,1.44-1.85,3.14-2.34,5.1h0ZM231.57,78.71c-4.78,0-9.11-1.12-13-3.35-3.89-2.24-6.97-5.21-9.23-8.91-2.27-3.7-3.4-7.88-3.4-12.54s1.09-8.77,3.26-12.54c2.17-3.77,5.13-6.75,8.87-8.96,3.74-2.21,7.87-3.31,12.4-3.31s8.68,1.12,12.27,3.35c3.58,2.24,6.4,5.28,8.45,9.14,2.05,3.86,3.08,8.27,3.08,13.23v3.31h-35.47c.55,1.9,1.47,3.61,2.76,5.14,1.29,1.53,2.85,2.71,4.69,3.54,1.83.83,3.83,1.24,5.97,1.24s4.04-.32,5.88-.96c1.83-.64,3.4-1.58,4.68-2.8l8.27,7.54c-2.94,2.39-5.96,4.13-9.05,5.24-3.1,1.1-6.57,1.66-10.43,1.66h0Z"/>
        <path class="cls-1" d="M261.98,77.79V29.92h12.59v3.67c3.43-3.06,7.6-4.59,12.5-4.59,3.12,0,5.91.63,8.36,1.88,2.45,1.26,4.47,3.02,6.07,5.28,1.96-2.33,4.29-4.1,6.98-5.33,2.69-1.22,5.66-1.84,8.91-1.84,3.55,0,6.69.81,9.42,2.43,2.73,1.62,4.87,3.86,6.43,6.71,1.56,2.85,2.34,6.14,2.34,9.88v29.77h-12.59v-27.84c0-3.12-.81-5.59-2.43-7.4-1.62-1.81-3.81-2.71-6.57-2.71-1.9,0-3.63.38-5.19,1.15-.18.09-.37.21-.57.34-2.02,1.38-3.15,3.72-3.15,6.16,0,.2,0,.38,0,.52v29.77h-12.59v-27.84c0-3.12-.81-5.59-2.44-7.4-1.62-1.81-3.81-2.71-6.57-2.71-1.9,0-3.6.37-5.1,1.1h0c-2.34,1.15-3.81,3.53-3.81,6.13v30.71s-12.59,0-12.59,0Z"/>
        <path class="cls-1" d="M355.61,49.13h23.34c-.49-1.9-1.3-3.57-2.43-5.01-1.14-1.44-2.5-2.56-4.09-3.35-1.59-.8-3.31-1.19-5.15-1.19-1.96,0-3.74.38-5.33,1.15-1.6.77-2.93,1.87-4,3.31-1.07,1.44-1.85,3.14-2.34,5.1h0ZM368.56,78.71c-4.78,0-9.11-1.12-13-3.35-3.89-2.24-6.97-5.21-9.24-8.91-2.27-3.7-3.4-7.88-3.4-12.54s1.09-8.77,3.26-12.54c2.17-3.77,5.13-6.75,8.87-8.96,3.73-2.21,7.87-3.31,12.4-3.31s8.68,1.12,12.27,3.35c3.58,2.24,6.4,5.28,8.45,9.14,2.05,3.86,3.08,8.27,3.08,13.23v3.31h-35.47c.55,1.9,1.47,3.61,2.76,5.14,1.29,1.53,2.85,2.71,4.69,3.54,1.84.83,3.83,1.24,5.97,1.24s4.04-.32,5.88-.96c1.84-.64,3.4-1.58,4.69-2.8l8.27,7.54c-2.94,2.39-5.96,4.13-9.05,5.24-3.1,1.1-6.57,1.66-10.43,1.66h0Z"/>
        <path class="cls-1" d="M398.97,77.79V29.92h12.59v3.95c3.68-3.25,8.18-4.87,13.51-4.87,3.68,0,6.94.81,9.79,2.43,2.85,1.62,5.07,3.86,6.66,6.71,1.59,2.85,2.39,6.14,2.39,9.88v29.77h-12.49v-27.84c0-3.12-.9-5.59-2.71-7.4-1.81-1.81-4.24-2.71-7.3-2.71-2.14,0-4.04.41-5.7,1.24h0c-2.54,1.27-4.14,3.87-4.14,6.71v30h-12.59Z"/>
        <path class="cls-1" d="M474.68,78.53c-5.27,0-9.27-1.21-11.99-3.63-2.73-2.42-4.09-5.93-4.09-10.52v-23.98h-9.83v-10.47h9.83v-9.09l12.5-5.98v15.07h13.78v10.47h-13.78v21.31c0,2.21.5,3.78,1.51,4.73,1.01.95,2.71,1.42,5.1,1.42,1.29,0,2.43-.08,3.45-.23,1.01-.15,2.13-.41,3.35-.78v10.29c-1.29.43-2.88.76-4.78,1.01-1.9.24-3.58.37-5.05.37h0Z"/>
        <path class="cls-1" d="M513.82,67.77c2.51,0,4.78-.63,6.8-1.88,2.02-1.26,3.61-2.93,4.78-5.01,1.16-2.08,1.75-4.44,1.75-7.08s-.6-4.9-1.79-6.98c-1.19-2.08-2.79-3.74-4.78-4.96-1.99-1.22-4.21-1.84-6.66-1.84s-4.78.61-6.8,1.84c-2.02,1.23-3.62,2.88-4.78,4.96-1.16,2.08-1.75,4.41-1.75,6.98s.58,4.99,1.75,7.08c1.16,2.08,2.74,3.75,4.73,5.01,1.99,1.26,4.24,1.88,6.75,1.88h0ZM513.82,78.71c-4.78,0-9.1-1.1-12.96-3.31-3.86-2.2-6.92-5.19-9.19-8.96-2.27-3.77-3.4-7.95-3.4-12.54s1.13-8.87,3.4-12.63c2.27-3.77,5.33-6.74,9.19-8.91,3.86-2.17,8.18-3.26,12.96-3.26s9.1,1.09,12.95,3.26c3.86,2.17,6.92,5.15,9.19,8.91,2.26,3.77,3.4,7.98,3.4,12.63s-1.12,8.77-3.35,12.54c-2.24,3.77-5.28,6.75-9.14,8.96-3.86,2.21-8.21,3.31-13.05,3.31h0Z"/>
      </g>
      <g>
        <g>
          <path class="cls-1" d="M126.56,126.56v-26.28h4.06l8.97,18.66,8.94-18.66h4.06v26.28h-2.74v-22.98l-10.29,21.1-10.29-21.06v22.94h-2.7Z"/>
          <path class="cls-1" d="M166.58,126.94c-1.78,0-3.4-.43-4.86-1.3-1.46-.86-2.62-2.03-3.47-3.51-.85-1.48-1.28-3.13-1.28-4.96s.43-3.48,1.28-4.96c.85-1.48,2.01-2.65,3.47-3.51,1.46-.86,3.08-1.3,4.86-1.3s3.43.43,4.88,1.3c1.45.86,2.6,2.03,3.45,3.51.85,1.48,1.28,3.13,1.28,4.96s-.43,3.48-1.28,4.96c-.85,1.48-2,2.65-3.45,3.51-1.45.86-3.08,1.3-4.88,1.3ZM166.58,124.46c1.28,0,2.43-.33,3.47-.98,1.04-.65,1.86-1.53,2.48-2.63.61-1.1.92-2.33.92-3.68s-.31-2.61-.92-3.7c-.61-1.09-1.44-1.96-2.48-2.61-1.04-.65-2.2-.98-3.47-.98s-2.43.33-3.47.98c-1.04.65-1.87,1.52-2.48,2.61-.61,1.09-.92,2.32-.92,3.7s.31,2.58.92,3.68c.61,1.1,1.44,1.98,2.48,2.63,1.04.65,2.2.98,3.47.98Z"/>
          <path class="cls-1" d="M188.66,126.86c-1.75,0-3.35-.43-4.79-1.3-1.44-.86-2.58-2.03-3.42-3.49-.84-1.46-1.26-3.11-1.26-4.94s.42-3.47,1.26-4.92c.84-1.45,1.98-2.61,3.42-3.47,1.44-.86,3.05-1.3,4.82-1.3,1.1,0,2.16.18,3.19.54,1.03.36,1.96.9,2.82,1.6v-9.31l2.78-.64v26.92h-2.74v-1.99c-1.65,1.53-3.68,2.29-6.08,2.29ZM188.92,124.42c1.18,0,2.27-.23,3.29-.69,1.01-.46,1.85-1.11,2.5-1.93v-9.31c-.65-.8-1.48-1.43-2.5-1.9-1.01-.46-2.11-.69-3.29-.69-1.3,0-2.48.31-3.55.94-1.06.63-1.9,1.48-2.52,2.57-.61,1.09-.92,2.32-.92,3.7s.31,2.62.92,3.72c.61,1.1,1.45,1.98,2.52,2.63,1.06.65,2.25.98,3.55.98Z"/>
          <path class="cls-1" d="M209.42,126.94c-1.43,0-2.69-.31-3.79-.92-1.1-.61-1.96-1.46-2.57-2.55-.61-1.09-.92-2.36-.92-3.81v-11.9h2.74v11.34c0,1.68.48,3,1.43,3.96.95.96,2.23,1.45,3.83,1.45,1.13,0,2.13-.26,3.02-.77.89-.51,1.61-1.23,2.16-2.16v-13.82h2.78v18.81h-2.78v-2.18c-1.48,1.7-3.44,2.55-5.89,2.55Z"/>
          <path class="cls-1" d="M222.83,126.56v-26.28l2.78-.64v26.92h-2.78Z"/>
          <path class="cls-1" d="M236.27,126.9c-1.38,0-2.58-.24-3.62-.71-1.04-.48-1.85-1.14-2.44-1.99-.59-.85-.88-1.84-.88-2.97,0-1.78.68-3.18,2.03-4.21,1.35-1.03,3.18-1.54,5.48-1.54,2.03,0,3.87.43,5.52,1.28v-2.48c0-1.5-.43-2.63-1.28-3.4-.85-.76-2.09-1.15-3.72-1.15-.93,0-1.86.13-2.8.39-.94.26-1.97.68-3.1,1.26l-1.05-2.14c1.35-.65,2.6-1.13,3.75-1.43,1.15-.3,2.3-.45,3.45-.45,2.38,0,4.21.56,5.5,1.69,1.29,1.13,1.93,2.74,1.93,4.84v12.65h-2.7v-1.84c-.85.73-1.78,1.27-2.8,1.63-1.01.36-2.11.54-3.29.54ZM231.99,121.15c0,1.05.44,1.91,1.33,2.57.89.66,2.03,1,3.44,1,1.13,0,2.15-.17,3.08-.53.93-.35,1.76-.9,2.52-1.65v-3.53c-.78-.53-1.6-.91-2.48-1.15-.88-.24-1.87-.36-2.97-.36-1.5,0-2.7.33-3.59,1-.89.66-1.33,1.55-1.33,2.65Z"/>
          <path class="cls-1" d="M249.71,126.56v-18.81h2.78v2.67c.58-.98,1.31-1.73,2.2-2.27.89-.54,1.91-.81,3.06-.81.65,0,1.24.09,1.76.26v2.55c-.33-.12-.65-.21-.98-.26-.33-.05-.65-.08-.98-.08-1.15,0-2.16.33-3.02,1-.86.66-1.55,1.62-2.05,2.87v12.88h-2.78Z"/>
        </g>
        <g>
          <path class="cls-1" d="M285.84,126.94c-1.9,0-3.68-.34-5.33-1.03-1.65-.69-3.1-1.65-4.36-2.89-1.25-1.24-2.22-2.68-2.91-4.32-.69-1.64-1.03-3.41-1.03-5.31s.34-3.67,1.03-5.31c.69-1.64,1.66-3.08,2.91-4.32,1.25-1.24,2.7-2.2,4.36-2.89,1.65-.69,3.43-1.03,5.33-1.03,1.38,0,2.7.17,3.96.51,1.26.34,2.44.83,3.53,1.46,1.09.64,2.06,1.42,2.91,2.35l-1.91,2.03c-1.03-1.18-2.29-2.08-3.79-2.72-1.5-.64-3.07-.96-4.69-.96-1.53,0-2.94.28-4.24.83-1.3.55-2.43,1.32-3.4,2.31-.96.99-1.71,2.14-2.25,3.45-.54,1.31-.81,2.75-.81,4.3s.27,2.95.81,4.28c.54,1.33,1.3,2.48,2.27,3.47.98.99,2.12,1.76,3.44,2.31,1.31.55,2.73.83,4.26.83,1.63,0,3.18-.32,4.66-.96,1.48-.64,2.72-1.52,3.72-2.65l1.88,1.95c-.88.9-1.86,1.68-2.95,2.33-1.09.65-2.26,1.15-3.51,1.48-1.25.34-2.54.51-3.87.51Z"/>
          <path class="cls-1" d="M300.03,126.52v-26.28l2.78-.64v26.92h-2.78Z"/>
          <path class="cls-1" d="M316.29,126.9c-1.78,0-3.4-.43-4.86-1.3-1.46-.86-2.62-2.03-3.47-3.51-.85-1.48-1.28-3.13-1.28-4.96s.43-3.48,1.28-4.96c.85-1.48,2.01-2.65,3.47-3.51,1.46-.86,3.08-1.3,4.86-1.3s3.43.43,4.88,1.3c1.45.86,2.6,2.03,3.45,3.51.85,1.48,1.28,3.13,1.28,4.96s-.43,3.48-1.28,4.96c-.85,1.48-2,2.65-3.45,3.51-1.45.86-3.08,1.3-4.88,1.3ZM316.29,124.42c1.28,0,2.43-.33,3.47-.98,1.04-.65,1.86-1.53,2.48-2.63.61-1.1.92-2.33.92-3.68s-.31-2.61-.92-3.7c-.61-1.09-1.44-1.96-2.48-2.61-1.04-.65-2.2-.98-3.47-.98s-2.43.33-3.47.98c-1.04.65-1.87,1.52-2.48,2.61-.61,1.09-.92,2.32-.92,3.7s.31,2.58.92,3.68c.61,1.1,1.44,1.98,2.48,2.63,1.04.65,2.2.98,3.47.98Z"/>
          <path class="cls-1" d="M336.98,126.9c-1.43,0-2.69-.31-3.79-.92-1.1-.61-1.96-1.46-2.57-2.55-.61-1.09-.92-2.36-.92-3.81v-11.9h2.74v11.34c0,1.68.48,3,1.43,3.96.95.96,2.23,1.45,3.83,1.45,1.13,0,2.13-.26,3.02-.77.89-.51,1.61-1.23,2.16-2.16v-13.82h2.78v18.81h-2.78v-2.18c-1.48,1.7-3.44,2.55-5.89,2.55Z"/>
          <path class="cls-1" d="M358.98,126.82c-1.75,0-3.35-.43-4.79-1.3-1.44-.86-2.58-2.03-3.42-3.49-.84-1.46-1.26-3.11-1.26-4.94s.42-3.47,1.26-4.92c.84-1.45,1.98-2.61,3.42-3.47,1.44-.86,3.05-1.3,4.82-1.3,1.1,0,2.16.18,3.19.54,1.03.36,1.96.9,2.82,1.6v-9.31l2.78-.64v26.92h-2.74v-1.99c-1.65,1.53-3.68,2.29-6.08,2.29ZM359.24,124.38c1.18,0,2.27-.23,3.29-.69,1.01-.46,1.85-1.11,2.5-1.93v-9.31c-.65-.8-1.48-1.43-2.5-1.9-1.01-.46-2.11-.69-3.29-.69-1.3,0-2.48.31-3.55.94-1.06.63-1.9,1.48-2.52,2.57-.61,1.09-.92,2.32-.92,3.7s.31,2.62.92,3.72c.61,1.1,1.45,1.98,2.52,2.63,1.06.65,2.25.98,3.55.98Z"/>
        </g>
      </g>
    </g>
  </g>
</svg>