<?xml version="1.0" encoding="UTF-8" standalone="no"?>
<!DOCTYPE svg PUBLIC "-//W3C//DTD SVG 1.1//EN" "http://www.w3.org/Graphics/SVG/1.1/DTD/svg11.dtd">
<svg width="100%" height="100%" viewBox="0 0 555 146" version="1.1" xmlns="http://www.w3.org/2000/svg" xmlns:xlink="http://www.w3.org/1999/xlink" xml:space="preserve" xmlns:serif="http://www.serif.com/" style="fill-rule:evenodd;clip-rule:evenodd;stroke-linejoin:round;stroke-miterlimit:2;">
    <path d="M547.161,55.437C545.729,55.437 544.423,55.085 543.242,54.382C542.061,53.678 541.119,52.73 540.415,51.536C539.712,50.343 539.36,49.017 539.36,47.56C539.36,46.078 539.712,44.746 540.415,43.565C541.119,42.384 542.061,41.442 543.242,40.738C544.423,40.035 545.729,39.683 547.161,39.683C548.619,39.683 549.931,40.035 551.1,40.738C552.268,41.442 553.204,42.39 553.908,43.584C554.611,44.777 554.963,46.103 554.963,47.56C554.963,49.017 554.611,50.343 553.908,51.536C553.204,52.73 552.268,53.678 551.1,54.382C549.931,55.085 548.619,55.437 547.161,55.437ZM547.124,53.59C548.279,53.59 549.291,53.333 550.158,52.817C551.024,52.302 551.709,51.586 552.212,50.669C552.714,49.752 552.965,48.716 552.965,47.56C552.965,46.379 552.714,45.336 552.212,44.432C551.709,43.527 551.024,42.818 550.158,42.303C549.291,41.787 548.279,41.53 547.124,41.53C546.018,41.53 545.026,41.787 544.146,42.303C543.267,42.818 542.582,43.527 542.092,44.432C541.602,45.336 541.357,46.379 541.357,47.56C541.357,48.716 541.602,49.752 542.092,50.669C542.582,51.586 543.267,52.302 544.146,52.817C545.026,53.333 546.018,53.59 547.124,53.59ZM544.335,51.065L544.335,43.98L547.727,43.98C548.455,43.98 549.04,44.187 549.479,44.601C549.919,45.016 550.139,45.563 550.139,46.241C550.139,46.643 550.032,47.02 549.818,47.372C549.605,47.723 549.31,48 548.933,48.201L550.553,51.065L548.367,51.065L547.124,48.615L546.332,48.615L546.332,51.065L544.335,51.065ZM547.274,45.487L546.332,45.487L546.332,47.221L547.237,47.221C547.865,47.221 548.179,46.932 548.179,46.354C548.179,46.078 548.104,45.864 547.953,45.713C547.802,45.563 547.576,45.487 547.274,45.487Z" style="fill-rule:nonzero;"/>
    <g id="Layer_1-2">
        <g>
            <g>
                <g>
                    <g>
                        <path d="M38.22,19.16C39.87,18.37 41.78,18.37 43.43,19.16C51.12,22.84 73.55,33.57 79.94,36.63C80.99,37.13 81.66,38.19 81.66,39.35L81.66,47.34C81.66,47.34 53.39,38.96 43.9,36.14C41.9,35.55 39.77,35.55 37.77,36.14C28.27,38.96 0,47.34 0,47.34L0,39.35C0,38.19 0.67,37.13 1.72,36.63C8.11,33.57 30.54,22.84 38.22,19.16Z" style="fill-rule:nonzero;"/>
                        <path d="M43.44,107.78C41.79,108.57 39.87,108.57 38.23,107.78C30.54,104.1 8.11,93.37 1.72,90.31C0.67,89.81 0,88.75 0,87.59L0,79.6C0,79.6 28.27,87.98 37.76,90.8C39.76,91.39 41.89,91.39 43.89,90.8C53.38,87.98 81.65,79.6 81.65,79.6L81.65,87.59C81.65,88.75 80.98,89.81 79.93,90.31C73.54,93.37 51.11,104.1 43.42,107.78L43.44,107.78Z" style="fill-rule:nonzero;"/>
                    </g>
                    <path d="M0,58.78L0,68.16L40.83,71.64L81.66,68.16L81.66,58.78L40.83,55.3L0,58.78Z" style="fill-rule:nonzero;"/>
                </g>
                <path d="M126.56,32.04L126.56,96.36L176.36,96.36L176.36,84.78L139.88,84.78L139.88,69.44L171.89,69.44L171.89,58.32L139.88,58.32L139.88,43.62L174.75,43.62L174.75,32.04L126.56,32.04Z" style="fill-rule:nonzero;"/>
                <path d="M198.31,29.93L198.31,96.36L185.72,96.36L185.72,35.95L198.31,29.93Z" style="fill-rule:nonzero;"/>
                <path d="M218.61,67.7L241.95,67.7C241.46,65.8 240.65,64.13 239.51,62.69C238.37,61.25 237.02,60.13 235.42,59.34C233.83,58.54 232.11,58.15 230.27,58.15C228.31,58.15 226.53,58.53 224.94,59.3C223.35,60.07 222.01,61.17 220.94,62.61C219.87,64.05 219.09,65.75 218.6,67.71L218.61,67.7ZM231.57,97.28C226.79,97.28 222.46,96.16 218.57,93.93C214.68,91.69 211.6,88.72 209.34,85.02C207.07,81.32 205.94,77.14 205.94,72.48C205.94,67.82 207.03,63.71 209.2,59.94C211.37,56.17 214.33,53.19 218.07,50.98C221.81,48.77 225.94,47.67 230.47,47.67C235,47.67 239.15,48.79 242.74,51.02C246.32,53.26 249.14,56.3 251.19,60.16C253.24,64.02 254.27,68.43 254.27,73.39L254.27,76.7L218.8,76.7C219.35,78.6 220.27,80.31 221.56,81.84C222.85,83.37 224.41,84.55 226.25,85.38C228.08,86.21 230.08,86.62 232.22,86.62C234.36,86.62 236.26,86.3 238.1,85.66C239.93,85.02 241.5,84.08 242.78,82.86L251.05,90.4C248.11,92.79 245.09,94.53 242,95.64C238.9,96.74 235.43,97.3 231.57,97.3L231.57,97.28Z" style="fill-rule:nonzero;"/>
                <path d="M261.98,96.36L261.98,48.49L274.57,48.49L274.57,52.16C278,49.1 282.17,47.57 287.07,47.57C290.19,47.57 292.98,48.2 295.43,49.45C297.88,50.71 299.9,52.47 301.5,54.73C303.46,52.4 305.79,50.63 308.48,49.4C311.17,48.18 314.14,47.56 317.39,47.56C320.94,47.56 324.08,48.37 326.81,49.99C329.54,51.61 331.68,53.85 333.24,56.7C334.8,59.55 335.58,62.84 335.58,66.58L335.58,96.35L322.99,96.35L322.99,68.51C322.99,65.39 322.18,62.92 320.56,61.11C318.94,59.3 316.75,58.4 313.99,58.4C312.09,58.4 310.36,58.78 308.8,59.55C308.62,59.64 308.43,59.76 308.23,59.89C306.21,61.27 305.08,63.61 305.08,66.05L305.08,96.34L292.49,96.34L292.49,68.5C292.49,65.38 291.68,62.91 290.05,61.1C288.43,59.29 286.24,58.39 283.48,58.39C281.58,58.39 279.88,58.76 278.38,59.49C276.04,60.64 274.57,63.02 274.57,65.62L274.57,96.33L261.98,96.33L261.98,96.36Z" style="fill-rule:nonzero;"/>
                <path d="M355.61,67.7L378.95,67.7C378.46,65.8 377.65,64.13 376.52,62.69C375.38,61.25 374.02,60.13 372.43,59.34C370.84,58.54 369.12,58.15 367.28,58.15C365.32,58.15 363.54,58.53 361.95,59.3C360.35,60.07 359.02,61.17 357.95,62.61C356.88,64.05 356.1,65.75 355.61,67.71L355.61,67.7ZM368.56,97.28C363.78,97.28 359.45,96.16 355.56,93.93C351.67,91.69 348.59,88.72 346.32,85.02C344.05,81.32 342.92,77.14 342.92,72.48C342.92,67.82 344.01,63.71 346.18,59.94C348.35,56.17 351.31,53.19 355.05,50.98C358.78,48.77 362.92,47.67 367.45,47.67C371.98,47.67 376.13,48.79 379.72,51.02C383.3,53.26 386.12,56.3 388.17,60.16C390.22,64.02 391.25,68.43 391.25,73.39L391.25,76.7L355.78,76.7C356.33,78.6 357.25,80.31 358.54,81.84C359.83,83.37 361.39,84.55 363.23,85.38C365.07,86.21 367.06,86.62 369.2,86.62C371.34,86.62 373.24,86.3 375.08,85.66C376.92,85.02 378.48,84.08 379.77,82.86L388.04,90.4C385.1,92.79 382.08,94.53 378.99,95.64C375.89,96.74 372.42,97.3 368.56,97.3L368.56,97.28Z" style="fill-rule:nonzero;"/>
                <path d="M398.97,96.36L398.97,48.49L411.56,48.49L411.56,52.44C415.24,49.19 419.74,47.57 425.07,47.57C428.75,47.57 432.01,48.38 434.86,50C437.71,51.62 439.93,53.86 441.52,56.71C443.11,59.56 443.91,62.85 443.91,66.59L443.91,96.36L431.42,96.36L431.42,68.52C431.42,65.4 430.52,62.93 428.71,61.12C426.9,59.31 424.47,58.41 421.41,58.41C419.27,58.41 417.37,58.82 415.71,59.65C413.17,60.92 411.57,63.52 411.57,66.36L411.57,96.36L398.97,96.36Z" style="fill-rule:nonzero;"/>
                <path d="M474.68,97.1C469.41,97.1 465.41,95.89 462.69,93.47C459.96,91.05 458.6,87.54 458.6,82.95L458.6,58.97L448.77,58.97L448.77,48.5L458.6,48.5L458.6,39.41L471.1,33.43L471.1,48.5L484.88,48.5L484.88,58.97L471.1,58.97L471.1,80.28C471.1,82.49 471.6,84.06 472.61,85.01C473.62,85.96 475.32,86.43 477.71,86.43C479,86.43 480.14,86.35 481.16,86.2C482.17,86.05 483.29,85.79 484.51,85.42L484.51,95.71C483.22,96.14 481.63,96.47 479.73,96.72C477.83,96.96 476.15,97.09 474.68,97.09L474.68,97.1Z" style="fill-rule:nonzero;"/>
                <path d="M513.82,86.34C516.33,86.34 518.6,85.71 520.62,84.46C522.64,83.2 524.23,81.53 525.4,79.45C526.56,77.37 527.15,75.01 527.15,72.37C527.15,69.73 526.55,67.47 525.36,65.39C524.17,63.31 522.57,61.65 520.58,60.43C518.59,59.21 516.37,58.59 513.92,58.59C511.47,58.59 509.14,59.2 507.12,60.43C505.1,61.66 503.5,63.31 502.34,65.39C501.18,67.47 500.59,69.8 500.59,72.37C500.59,74.94 501.17,77.36 502.34,79.45C503.5,81.53 505.08,83.2 507.07,84.46C509.06,85.72 511.31,86.34 513.82,86.34ZM513.82,97.28C509.04,97.28 504.72,96.18 500.86,93.97C497,91.77 493.94,88.78 491.67,85.01C489.4,81.24 488.27,77.06 488.27,72.47C488.27,67.88 489.4,63.6 491.67,59.84C493.94,56.07 497,53.1 500.86,50.93C504.72,48.76 509.04,47.67 513.82,47.67C518.6,47.67 522.92,48.76 526.77,50.93C530.63,53.1 533.69,56.08 535.96,59.84C538.22,63.61 539.36,67.82 539.36,72.47C539.36,77.12 538.24,81.24 536.01,85.01C533.77,88.78 530.73,91.76 526.87,93.97C523.01,96.18 518.66,97.28 513.82,97.28Z" style="fill-rule:nonzero;"/>
            </g>
            <g>
                <g>
                    <path d="M126.56,145.13L126.56,118.85L130.62,118.85L139.59,137.51L148.53,118.85L152.59,118.85L152.59,145.13L149.85,145.13L149.85,122.15L139.56,143.25L129.27,122.19L129.27,145.13L126.56,145.13Z" style="fill-rule:nonzero;"/>
                    <path d="M166.58,145.51C164.8,145.51 163.18,145.08 161.72,144.21C160.26,143.35 159.1,142.18 158.25,140.7C157.4,139.22 156.97,137.57 156.97,135.74C156.97,133.91 157.4,132.26 158.25,130.78C159.1,129.3 160.26,128.13 161.72,127.27C163.18,126.41 164.8,125.97 166.58,125.97C168.36,125.97 170.01,126.4 171.46,127.27C172.91,128.13 174.06,129.3 174.91,130.78C175.76,132.26 176.19,133.91 176.19,135.74C176.19,137.57 175.76,139.22 174.91,140.7C174.06,142.18 172.91,143.35 171.46,144.21C170.01,145.07 168.38,145.51 166.58,145.51ZM166.58,143.03C167.86,143.03 169.01,142.7 170.05,142.05C171.09,141.4 171.91,140.52 172.53,139.42C173.14,138.32 173.45,137.09 173.45,135.74C173.45,134.39 173.14,133.13 172.53,132.04C171.92,130.95 171.09,130.08 170.05,129.43C169.01,128.78 167.85,128.45 166.58,128.45C165.31,128.45 164.15,128.78 163.11,129.43C162.07,130.08 161.24,130.95 160.63,132.04C160.02,133.13 159.71,134.36 159.71,135.74C159.71,137.12 160.02,138.32 160.63,139.42C161.24,140.52 162.07,141.4 163.11,142.05C164.15,142.7 165.31,143.03 166.58,143.03Z" style="fill-rule:nonzero;"/>
                    <path d="M188.66,145.43C186.91,145.43 185.31,145 183.87,144.13C182.43,143.27 181.29,142.1 180.45,140.64C179.61,139.18 179.19,137.53 179.19,135.7C179.19,133.87 179.61,132.23 180.45,130.78C181.29,129.33 182.43,128.17 183.87,127.31C185.31,126.45 186.92,126.01 188.69,126.01C189.79,126.01 190.85,126.19 191.88,126.55C192.91,126.91 193.84,127.45 194.7,128.15L194.7,118.84L197.48,118.2L197.48,145.12L194.74,145.12L194.74,143.13C193.09,144.66 191.06,145.42 188.66,145.42L188.66,145.43ZM188.92,142.99C190.1,142.99 191.19,142.76 192.21,142.3C193.22,141.84 194.06,141.19 194.71,140.37L194.71,131.06C194.06,130.26 193.23,129.63 192.21,129.16C191.2,128.7 190.1,128.47 188.92,128.47C187.62,128.47 186.44,128.78 185.37,129.41C184.31,130.04 183.47,130.89 182.85,131.98C182.24,133.07 181.93,134.3 181.93,135.68C181.93,137.06 182.24,138.3 182.85,139.4C183.46,140.5 184.3,141.38 185.37,142.03C186.43,142.68 187.62,143.01 188.92,143.01L188.92,142.99Z" style="fill-rule:nonzero;"/>
                    <path d="M209.42,145.51C207.99,145.51 206.73,145.2 205.63,144.59C204.53,143.98 203.67,143.13 203.06,142.04C202.45,140.95 202.14,139.68 202.14,138.23L202.14,126.33L204.88,126.33L204.88,137.67C204.88,139.35 205.36,140.67 206.31,141.63C207.26,142.59 208.54,143.08 210.14,143.08C211.27,143.08 212.27,142.82 213.16,142.31C214.05,141.8 214.77,141.08 215.32,140.15L215.32,126.33L218.1,126.33L218.1,145.14L215.32,145.14L215.32,142.96C213.84,144.66 211.88,145.51 209.43,145.51L209.42,145.51Z" style="fill-rule:nonzero;"/>
                    <path d="M222.83,145.13L222.83,118.85L225.61,118.21L225.61,145.13L222.83,145.13Z" style="fill-rule:nonzero;"/>
                    <path d="M236.27,145.47C234.89,145.47 233.69,145.23 232.65,144.76C231.61,144.28 230.8,143.62 230.21,142.77C229.62,141.92 229.33,140.93 229.33,139.8C229.33,138.02 230.01,136.62 231.36,135.59C232.71,134.56 234.54,134.05 236.84,134.05C238.87,134.05 240.71,134.48 242.36,135.33L242.36,132.85C242.36,131.35 241.93,130.22 241.08,129.45C240.23,128.69 238.99,128.3 237.36,128.3C236.43,128.3 235.5,128.43 234.56,128.69C233.62,128.95 232.59,129.37 231.46,129.95L230.41,127.81C231.76,127.16 233.01,126.68 234.16,126.38C235.31,126.08 236.46,125.93 237.61,125.93C239.99,125.93 241.82,126.49 243.11,127.62C244.4,128.75 245.04,130.36 245.04,132.46L245.04,145.11L242.34,145.11L242.34,143.27C241.49,144 240.56,144.54 239.54,144.9C238.53,145.26 237.43,145.44 236.25,145.44L236.27,145.47ZM231.99,139.72C231.99,140.77 232.43,141.63 233.32,142.29C234.21,142.95 235.35,143.29 236.76,143.29C237.89,143.29 238.91,143.12 239.84,142.76C240.77,142.41 241.6,141.86 242.36,141.11L242.36,137.58C241.58,137.05 240.76,136.67 239.88,136.43C239,136.19 238.01,136.07 236.91,136.07C235.41,136.07 234.21,136.4 233.32,137.07C232.43,137.73 231.99,138.62 231.99,139.72Z" style="fill-rule:nonzero;"/>
                    <path d="M249.71,145.13L249.71,126.32L252.49,126.32L252.49,128.99C253.07,128.01 253.8,127.26 254.69,126.72C255.58,126.18 256.6,125.91 257.75,125.91C258.4,125.91 258.99,126 259.51,126.17L259.51,128.72C259.18,128.6 258.86,128.51 258.53,128.46C258.2,128.41 257.88,128.38 257.55,128.38C256.4,128.38 255.39,128.71 254.53,129.38C253.67,130.04 252.98,131 252.48,132.25L252.48,145.13L249.7,145.13L249.71,145.13Z" style="fill-rule:nonzero;"/>
                </g>
                <g>
                    <path d="M285.84,145.51C283.94,145.51 282.16,145.17 280.51,144.48C278.86,143.79 277.41,142.83 276.15,141.59C274.9,140.35 273.93,138.91 273.24,137.27C272.55,135.63 272.21,133.86 272.21,131.96C272.21,130.06 272.55,128.29 273.24,126.65C273.93,125.01 274.9,123.57 276.15,122.33C277.4,121.09 278.85,120.13 280.51,119.44C282.16,118.75 283.94,118.41 285.84,118.41C287.22,118.41 288.54,118.58 289.8,118.92C291.06,119.26 292.24,119.75 293.33,120.38C294.42,121.02 295.39,121.8 296.24,122.73L294.33,124.76C293.3,123.58 292.04,122.68 290.54,122.04C289.04,121.4 287.47,121.08 285.85,121.08C284.32,121.08 282.91,121.36 281.61,121.91C280.31,122.46 279.18,123.23 278.21,124.22C277.25,125.21 276.5,126.36 275.96,127.67C275.42,128.98 275.15,130.42 275.15,131.97C275.15,133.52 275.42,134.92 275.96,136.25C276.5,137.58 277.26,138.73 278.23,139.72C279.21,140.71 280.35,141.48 281.67,142.03C282.98,142.58 284.4,142.86 285.93,142.86C287.56,142.86 289.11,142.54 290.59,141.9C292.07,141.26 293.31,140.38 294.31,139.25L296.19,141.2C295.31,142.1 294.33,142.88 293.24,143.53C292.15,144.18 290.98,144.68 289.73,145.01C288.48,145.35 287.19,145.52 285.86,145.52L285.84,145.51Z" style="fill-rule:nonzero;"/>
                    <path d="M300.03,145.09L300.03,118.81L302.81,118.17L302.81,145.09L300.03,145.09Z" style="fill-rule:nonzero;"/>
                    <path d="M316.29,145.47C314.51,145.47 312.89,145.04 311.43,144.17C309.97,143.31 308.81,142.14 307.96,140.66C307.11,139.18 306.68,137.53 306.68,135.7C306.68,133.87 307.11,132.22 307.96,130.74C308.81,129.26 309.97,128.09 311.43,127.23C312.89,126.37 314.51,125.93 316.29,125.93C318.07,125.93 319.72,126.36 321.17,127.23C322.62,128.09 323.77,129.26 324.62,130.74C325.47,132.22 325.9,133.87 325.9,135.7C325.9,137.53 325.47,139.18 324.62,140.66C323.77,142.14 322.62,143.31 321.17,144.17C319.72,145.03 318.09,145.47 316.29,145.47ZM316.29,142.99C317.57,142.99 318.72,142.66 319.76,142.01C320.8,141.36 321.62,140.48 322.24,139.38C322.85,138.28 323.16,137.05 323.16,135.7C323.16,134.35 322.85,133.09 322.24,132C321.63,130.91 320.8,130.04 319.76,129.39C318.72,128.74 317.56,128.41 316.29,128.41C315.02,128.41 313.86,128.74 312.82,129.39C311.78,130.04 310.95,130.91 310.34,132C309.73,133.09 309.42,134.32 309.42,135.7C309.42,137.08 309.73,138.28 310.34,139.38C310.95,140.48 311.78,141.36 312.82,142.01C313.86,142.66 315.02,142.99 316.29,142.99Z" style="fill-rule:nonzero;"/>
                    <path d="M336.98,145.47C335.55,145.47 334.29,145.16 333.19,144.55C332.09,143.94 331.23,143.09 330.62,142C330.01,140.91 329.7,139.64 329.7,138.19L329.7,126.29L332.44,126.29L332.44,137.63C332.44,139.31 332.92,140.63 333.87,141.59C334.82,142.55 336.1,143.04 337.7,143.04C338.83,143.04 339.83,142.78 340.72,142.27C341.61,141.76 342.33,141.04 342.88,140.11L342.88,126.29L345.66,126.29L345.66,145.1L342.88,145.1L342.88,142.92C341.4,144.62 339.44,145.47 336.99,145.47L336.98,145.47Z" style="fill-rule:nonzero;"/>
                    <path d="M358.98,145.39C357.23,145.39 355.63,144.96 354.19,144.09C352.75,143.23 351.61,142.06 350.77,140.6C349.93,139.14 349.51,137.49 349.51,135.66C349.51,133.83 349.93,132.19 350.77,130.74C351.61,129.29 352.75,128.13 354.19,127.27C355.63,126.41 357.24,125.97 359.01,125.97C360.11,125.97 361.17,126.15 362.2,126.51C363.23,126.87 364.16,127.41 365.02,128.11L365.02,118.8L367.8,118.16L367.8,145.08L365.06,145.08L365.06,143.09C363.41,144.62 361.38,145.38 358.98,145.38L358.98,145.39ZM359.24,142.95C360.42,142.95 361.51,142.72 362.53,142.26C363.54,141.8 364.38,141.15 365.03,140.33L365.03,131.02C364.38,130.22 363.55,129.59 362.53,129.12C361.52,128.66 360.42,128.43 359.24,128.43C357.94,128.43 356.76,128.74 355.69,129.37C354.63,130 353.79,130.85 353.17,131.94C352.56,133.03 352.25,134.26 352.25,135.64C352.25,137.02 352.56,138.26 353.17,139.36C353.78,140.46 354.62,141.34 355.69,141.99C356.75,142.64 357.94,142.97 359.24,142.97L359.24,142.95Z" style="fill-rule:nonzero;"/>
                </g>
            </g>
        </g>
        <g>
            <g>
                <g>
                    <g>
                        <path d="M38.22,19.16C39.87,18.37 41.78,18.37 43.43,19.16C51.12,22.84 73.55,33.57 79.94,36.63C80.99,37.13 81.66,38.19 81.66,39.35L81.66,47.34C81.66,47.34 53.39,38.96 43.9,36.14C41.9,35.55 39.77,35.55 37.77,36.14C28.27,38.96 0,47.34 0,47.34L0,39.35C0,38.19 0.67,37.13 1.72,36.63C8.11,33.57 30.54,22.84 38.22,19.16Z" style="fill-rule:nonzero;"/>
                        <path d="M43.44,107.78C41.79,108.57 39.87,108.57 38.23,107.78C30.54,104.1 8.11,93.37 1.72,90.31C0.67,89.81 0,88.75 0,87.59L0,79.6C0,79.6 28.27,87.98 37.76,90.8C39.76,91.39 41.89,91.39 43.89,90.8C53.38,87.98 81.65,79.6 81.65,79.6L81.65,87.59C81.65,88.75 80.98,89.81 79.93,90.31C73.54,93.37 51.11,104.1 43.42,107.78L43.44,107.78Z" style="fill-rule:nonzero;"/>
                    </g>
                    <path d="M0,58.78L0,68.16L40.83,71.64L81.66,68.16L81.66,58.78L40.83,55.3L0,58.78Z" style="fill-rule:nonzero;"/>
                </g>
                <path d="M126.56,32.04L126.56,96.36L176.36,96.36L176.36,84.78L139.88,84.78L139.88,69.44L171.89,69.44L171.89,58.32L139.88,58.32L139.88,43.62L174.75,43.62L174.75,32.04L126.56,32.04Z" style="fill-rule:nonzero;"/>
                <path d="M198.31,29.93L198.31,96.36L185.72,96.36L185.72,35.95L198.31,29.93Z" style="fill-rule:nonzero;"/>
                <path d="M218.61,67.7L241.95,67.7C241.46,65.8 240.65,64.13 239.51,62.69C238.37,61.25 237.02,60.13 235.42,59.34C233.83,58.54 232.11,58.15 230.27,58.15C228.31,58.15 226.53,58.53 224.94,59.3C223.35,60.07 222.01,61.17 220.94,62.61C219.87,64.05 219.09,65.75 218.6,67.71L218.61,67.7ZM231.57,97.28C226.79,97.28 222.46,96.16 218.57,93.93C214.68,91.69 211.6,88.72 209.34,85.02C207.07,81.32 205.94,77.14 205.94,72.48C205.94,67.82 207.03,63.71 209.2,59.94C211.37,56.17 214.33,53.19 218.07,50.98C221.81,48.77 225.94,47.67 230.47,47.67C235,47.67 239.15,48.79 242.74,51.02C246.32,53.26 249.14,56.3 251.19,60.16C253.24,64.02 254.27,68.43 254.27,73.39L254.27,76.7L218.8,76.7C219.35,78.6 220.27,80.31 221.56,81.84C222.85,83.37 224.41,84.55 226.25,85.38C228.08,86.21 230.08,86.62 232.22,86.62C234.36,86.62 236.26,86.3 238.1,85.66C239.93,85.02 241.5,84.08 242.78,82.86L251.05,90.4C248.11,92.79 245.09,94.53 242,95.64C238.9,96.74 235.43,97.3 231.57,97.3L231.57,97.28Z" style="fill-rule:nonzero;"/>
                <path d="M261.98,96.36L261.98,48.49L274.57,48.49L274.57,52.16C278,49.1 282.17,47.57 287.07,47.57C290.19,47.57 292.98,48.2 295.43,49.45C297.88,50.71 299.9,52.47 301.5,54.73C303.46,52.4 305.79,50.63 308.48,49.4C311.17,48.18 314.14,47.56 317.39,47.56C320.94,47.56 324.08,48.37 326.81,49.99C329.54,51.61 331.68,53.85 333.24,56.7C334.8,59.55 335.58,62.84 335.58,66.58L335.58,96.35L322.99,96.35L322.99,68.51C322.99,65.39 322.18,62.92 320.56,61.11C318.94,59.3 316.75,58.4 313.99,58.4C312.09,58.4 310.36,58.78 308.8,59.55C308.62,59.64 308.43,59.76 308.23,59.89C306.21,61.27 305.08,63.61 305.08,66.05L305.08,96.34L292.49,96.34L292.49,68.5C292.49,65.38 291.68,62.91 290.05,61.1C288.43,59.29 286.24,58.39 283.48,58.39C281.58,58.39 279.88,58.76 278.38,59.49C276.04,60.64 274.57,63.02 274.57,65.62L274.57,96.33L261.98,96.33L261.98,96.36Z" style="fill-rule:nonzero;"/>
                <path d="M355.61,67.7L378.95,67.7C378.46,65.8 377.65,64.13 376.52,62.69C375.38,61.25 374.02,60.13 372.43,59.34C370.84,58.54 369.12,58.15 367.28,58.15C365.32,58.15 363.54,58.53 361.95,59.3C360.35,60.07 359.02,61.17 357.95,62.61C356.88,64.05 356.1,65.75 355.61,67.71L355.61,67.7ZM368.56,97.28C363.78,97.28 359.45,96.16 355.56,93.93C351.67,91.69 348.59,88.72 346.32,85.02C344.05,81.32 342.92,77.14 342.92,72.48C342.92,67.82 344.01,63.71 346.18,59.94C348.35,56.17 351.31,53.19 355.05,50.98C358.78,48.77 362.92,47.67 367.45,47.67C371.98,47.67 376.13,48.79 379.72,51.02C383.3,53.26 386.12,56.3 388.17,60.16C390.22,64.02 391.25,68.43 391.25,73.39L391.25,76.7L355.78,76.7C356.33,78.6 357.25,80.31 358.54,81.84C359.83,83.37 361.39,84.55 363.23,85.38C365.07,86.21 367.06,86.62 369.2,86.62C371.34,86.62 373.24,86.3 375.08,85.66C376.92,85.02 378.48,84.08 379.77,82.86L388.04,90.4C385.1,92.79 382.08,94.53 378.99,95.64C375.89,96.74 372.42,97.3 368.56,97.3L368.56,97.28Z" style="fill-rule:nonzero;"/>
                <path d="M398.97,96.36L398.97,48.49L411.56,48.49L411.56,52.44C415.24,49.19 419.74,47.57 425.07,47.57C428.75,47.57 432.01,48.38 434.86,50C437.71,51.62 439.93,53.86 441.52,56.71C443.11,59.56 443.91,62.85 443.91,66.59L443.91,96.36L431.42,96.36L431.42,68.52C431.42,65.4 430.52,62.93 428.71,61.12C426.9,59.31 424.47,58.41 421.41,58.41C419.27,58.41 417.37,58.82 415.71,59.65C413.17,60.92 411.57,63.52 411.57,66.36L411.57,96.36L398.97,96.36Z" style="fill-rule:nonzero;"/>
                <path d="M474.68,97.1C469.41,97.1 465.41,95.89 462.69,93.47C459.96,91.05 458.6,87.54 458.6,82.95L458.6,58.97L448.77,58.97L448.77,48.5L458.6,48.5L458.6,39.41L471.1,33.43L471.1,48.5L484.88,48.5L484.88,58.97L471.1,58.97L471.1,80.28C471.1,82.49 471.6,84.06 472.61,85.01C473.62,85.96 475.32,86.43 477.71,86.43C479,86.43 480.14,86.35 481.16,86.2C482.17,86.05 483.29,85.79 484.51,85.42L484.51,95.71C483.22,96.14 481.63,96.47 479.73,96.72C477.83,96.96 476.15,97.09 474.68,97.09L474.68,97.1Z" style="fill-rule:nonzero;"/>
                <path d="M513.82,86.34C516.33,86.34 518.6,85.71 520.62,84.46C522.64,83.2 524.23,81.53 525.4,79.45C526.56,77.37 527.15,75.01 527.15,72.37C527.15,69.73 526.55,67.47 525.36,65.39C524.17,63.31 522.57,61.65 520.58,60.43C518.59,59.21 516.37,58.59 513.92,58.59C511.47,58.59 509.14,59.2 507.12,60.43C505.1,61.66 503.5,63.31 502.34,65.39C501.18,67.47 500.59,69.8 500.59,72.37C500.59,74.94 501.17,77.36 502.34,79.45C503.5,81.53 505.08,83.2 507.07,84.46C509.06,85.72 511.31,86.34 513.82,86.34ZM513.82,97.28C509.04,97.28 504.72,96.18 500.86,93.97C497,91.77 493.94,88.78 491.67,85.01C489.4,81.24 488.27,77.06 488.27,72.47C488.27,67.88 489.4,63.6 491.67,59.84C493.94,56.07 497,53.1 500.86,50.93C504.72,48.76 509.04,47.67 513.82,47.67C518.6,47.67 522.92,48.76 526.77,50.93C530.63,53.1 533.69,56.08 535.96,59.84C538.22,63.61 539.36,67.82 539.36,72.47C539.36,77.12 538.24,81.24 536.01,85.01C533.77,88.78 530.73,91.76 526.87,93.97C523.01,96.18 518.66,97.28 513.82,97.28Z" style="fill-rule:nonzero;"/>
            </g>
        </g>
    </g>
</svg>
