<?xml version="1.0" encoding="UTF-8"?>
<svg id="Layer_2" data-name="Layer 2" xmlns="http://www.w3.org/2000/svg" viewBox="0 0 500 538.55">
  <defs>
    <style>
      .cls-1 {
        fill: #09b24e;
      }
    </style>
  </defs>
  <g id="Layer_1-2" data-name="Layer 1">
    <path class="cls-1" d="M500,165.48v230.94c0,17.86-9.53,34.37-25,43.3l-1.28.74-.58.34-5.3,3.06-2.2,1.27-4.15,2.4-3.13,1.81-1.67.96-148.55,85.76c-16.79,8.13-36.65-4.6-35.78-23.69l4.47-97.95,3.69-80.61.87-10.22c1.26-14.8,9.04-28.28,21.23-36.77l8.42-5.87,100.56-70.1-20.09-34.8-110.99,52.04-9.29,4.36c-13.45,6.3-29.01,6.3-42.46,0l-9.29-4.36-110.99-52.04-20.09,34.8,100.56,70.1,8.41,5.86c12.2,8.49,19.98,21.97,21.24,36.78l.87,10.22,3.69,80.61,4.47,97.95c.88,19.09-18.99,31.82-35.78,23.69l-148.55-85.76-1.67-.96-3.13-1.81-4.15-2.4-2.2-1.27-5.3-3.06-.58-.34-1.28-.74c-15.47-8.93-25-25.44-25-43.3v-230.94c0-17.87,9.53-34.37,25-43.3L225,6.7c15.47-8.93,34.53-8.93,50,0l200,115.48c15.47,8.93,25,25.43,25,43.3Z"/>
  </g>
</svg>